<?xml version="1.0" encoding="UTF-8"?>
<!DOCTYPE svg PUBLIC "-//W3C//DTD SVG 1.1//EN" "http://www.w3.org/Graphics/SVG/1.1/DTD/svg11.dtd">
<!-- Creator: CorelDRAW 2017 -->
<svg xmlns="http://www.w3.org/2000/svg" xml:space="preserve" width="79.597mm" height="34.5076mm" version="1.1" style="shape-rendering:geometricPrecision; text-rendering:geometricPrecision; image-rendering:optimizeQuality; fill-rule:evenodd; clip-rule:evenodd"
viewBox="0 0 7617.27 3302.31"
 xmlns:xlink="http://www.w3.org/1999/xlink">
 <defs>
  <style type="text/css">
   <![CDATA[
    .fil2 {fill:#FEFEFE}
    .fil1 {fill:#2B2A29}
    .fil4 {fill:#E31E24}
    .fil6 {fill:#CED1E7}
    .fil0 {fill:#8C98C9}
    .fil5 {fill:#FEFEFE;fill-rule:nonzero}
    .fil3 {fill:#2B2A29;fill-rule:nonzero}
   ]]>
  </style>
 </defs>
 <g id="Layer_x0020_1">
  <metadata id="CorelCorpID_0Corel-Layer"/>
  <g id="_2302560790672">
   <rect class="fil0" x="-0" y="-0" width="7604.06" height="3298.87"/>
   <path class="fil1" d="M110.09 1430.81c0,-330.2 84.14,-584.34 253.35,-761.89 169.18,-177.42 379.78,-286.43 632.08,-286.43 162.6,0 310.94,60.17 445.33,139.39 134.17,79.12 240.78,194.44 318.94,345.52 78.16,151.15 117.48,331.12 117.48,539.49 0,287.31 -75.57,521.41 -227.12,701.88 -167.38,199.33 -386.06,308.82 -656.23,308.82 -272.73,0 -491.96,-112.19 -657.75,-316.47 -150.49,-185.42 -226.08,-408.72 -226.08,-670.3zm227.53 4.06c0,238.61 85.76,469.59 208.38,601.42 122.36,131.58 271.14,197.57 446.37,197.57 178.83,0 329.71,-66.54 451.12,-199.38 121.45,-132.83 215.91,-369.5 221.6,-627.49 3.79,-170.29 -60.85,-386.58 -133.5,-507.52 -57.96,-96.48 -120.71,-180.73 -217.67,-241.28 -96.61,-60.36 -202.5,-90.69 -317.36,-90.69 -184.09,0 -336.08,66.43 -455.3,198.5 -119.44,132.25 -203.65,392.39 -203.65,668.88z"/>
   <path class="fil1" d="M1795.35 1763.46l217.63 -21.62c11.91,108.99 33.33,234.13 74.39,294.41 41.24,60.62 99.73,109.33 176.5,146.23 76.4,36.63 162.58,55.18 258.29,55.18 137.81,0 244.32,-30.97 320.28,-93.34 76.23,-62.68 118.95,-184.09 118.95,-283.82 0,-58.42 -13.88,-109.43 -41.14,-152.62 -27.75,-43.71 -69.41,-79.56 -124.93,-107.15 -56.01,-28.03 -176.01,-67.1 -360.93,-117.2 -164.57,-45.04 -282.07,-90.56 -351.5,-136.06 -69.9,-46.01 -123.64,-104.06 -162.61,-174.72 -38.87,-70.45 -63.45,-159.98 -63.45,-249.2 0,-159.55 50.93,-290.19 162.13,-391.69 111.43,-101.65 271.7,-141.97 460.54,-141.97 129.43,0 242.99,23.9 340.59,71.21 97.21,47.84 172.55,115.86 226.61,204.61 53.52,89.15 82.28,193.55 86.28,313.98l-222.14 18.84c-11.9,-128.25 -48.19,-269 -119.48,-331.17 -71.02,-61.97 -171.04,-92.88 -299.95,-92.88 -130.41,0 -230.42,27.23 -298.96,81.36 -68.8,54.39 -122.93,210.97 -122.93,297.34 0,79.53 24.82,141.6 75.34,185.72 50.58,44.15 163.61,88.19 340.13,133.35 206.6,52.85 493.73,84.33 618.71,272.41 54.62,82.22 81.31,180.2 81.31,294.22 0,113.09 -28.28,216.08 -85.28,309.38 -57.52,92.88 -134.85,163.21 -233.49,211.93 -98.19,48.28 -216.67,72.61 -354.97,72.61 -216.17,0 -388.2,-60.24 -516.61,-180.2 -127.94,-120.41 -194.85,-283.64 -199.3,-489.13z"/>
   <path class="fil1" d="M3066.96 2363.79l688.28 -1922.11 249.17 0 716.68 1937.33 -205.68 -5.01 -218.76 -597.06 -820.74 -10.12 -207.3 586.83 -201.65 10.15zm520.67 -780.47l642.35 0 -340.53 -917.88c-22.42,124.5 -68.43,227.36 -109.85,349.96l-191.97 567.92z"/>
   <polygon class="fil1" points="4597.36,2374.44 4597.36,437.1 4788.53,437.1 4788.53,1443.59 5728.89,437.1 5988.55,437.1 5213.07,1242.3 6077.89,2365.89 5840.44,2376.04 5094.55,1368.4 4788.53,1703.21 4788.53,2374.44 "/>
   <path class="fil1" d="M5961.74 2382.29l688.31 -1922.07 249.14 0 716.66 1937.36 -205.66 -5.05 -218.76 -597.04 -820.73 -10.12 -207.34 586.82 -201.63 10.11zm520.67 -780.42l642.35 0 -340.53 -917.9c-22.38,124.52 -68.39,227.39 -109.83,350l-191.99 567.9z"/>
   <path class="fil2" d="M55.8 1412.22c0,-330.15 84.19,-584.3 253.36,-761.83 169.15,-177.5 379.77,-286.47 632.06,-286.47 162.61,0 310.96,60.16 445.37,139.43 134.19,79.08 240.76,194.42 318.91,345.5 78.17,151.11 117.5,331.08 117.5,539.48 0,287.37 -75.57,521.42 -227.12,701.88 -167.39,199.34 -386.05,308.75 -656.18,308.75 -272.77,0 -492,-112.1 -657.79,-316.42 -150.51,-185.42 -226.11,-408.67 -226.11,-670.32zm227.6 4.11c0,238.58 85.73,469.56 208.32,601.43 122.36,131.57 271.23,197.52 446.38,197.52 178.88,0 329.7,-66.52 451.11,-199.33 121.46,-132.85 215.91,-369.54 221.63,-627.52 3.77,-170.29 -60.89,-386.56 -133.5,-507.45 -58.01,-96.61 -120.72,-180.77 -217.7,-241.35 -96.59,-60.35 -202.46,-90.67 -317.34,-90.67 -184.08,0 -336.08,66.45 -455.29,198.44 -119.43,132.32 -203.6,392.39 -203.6,668.93z"/>
   <path class="fil2" d="M1741.05 1744.91l217.66 -21.61c11.9,108.97 33.35,234.09 74.36,294.43 41.25,60.59 99.72,109.29 176.51,146.16 76.38,36.65 162.62,55.17 258.3,55.17 137.83,0 244.28,-30.92 320.25,-93.32 76.26,-62.62 118.97,-184.06 118.97,-283.8 0,-58.41 -13.86,-109.45 -41.13,-152.66 -27.77,-43.7 -69.38,-79.5 -124.94,-107.12 -55.99,-28.02 -175.95,-67.08 -360.92,-117.24 -164.6,-45.02 -282.07,-90.54 -351.5,-136.04 -69.91,-45.98 -123.64,-104.04 -162.6,-174.69 -38.89,-70.47 -63.49,-160.01 -63.49,-249.19 0,-159.56 50.98,-290.21 162.12,-391.69 111.43,-101.73 271.7,-141.99 460.58,-141.99 129.39,0 242.94,23.87 340.6,71.28 97.15,47.76 172.53,115.84 226.57,204.54 53.5,89.2 82.29,193.53 86.27,313.94l-222.12 18.89c-11.92,-128.3 -48.18,-269.05 -119.5,-331.22 -70.98,-61.93 -171.02,-92.85 -299.93,-92.85 -130.39,0 -230.42,27.23 -298.95,81.37 -68.79,54.35 -122.92,210.94 -122.92,297.37 0,79.52 24.77,141.55 75.34,185.7 50.61,44.14 163.65,88.15 340.11,133.31 206.6,52.85 493.73,84.36 618.72,272.47 54.62,82.19 81.31,180.16 81.31,294.19 0,113.1 -28.24,216.09 -85.28,309.36 -57.49,92.85 -134.83,163.23 -233.5,211.96 -98.17,48.26 -216.65,72.6 -354.97,72.6 -216.16,0 -388.2,-60.19 -516.6,-180.18 -127.88,-120.46 -194.84,-283.61 -199.32,-489.14z"/>
   <path class="fil2" d="M3012.66 2345.21l688.28 -1922.11 249.2 0 716.62 1937.33 -205.64 -5.07 -218.77 -596.97 -820.73 -10.14 -207.31 586.84 -201.65 10.13zm520.7 -780.41l642.35 0 -340.54 -917.97c-22.38,124.48 -68.45,227.43 -109.88,350.06l-191.93 567.91z"/>
   <polygon class="fil2" points="4543.11,2355.88 4543.11,418.54 4734.27,418.54 4734.27,1425.02 5674.58,418.54 5934.26,418.54 5158.76,1223.69 6023.57,2347.36 5786.17,2357.53 5040.31,1349.87 4734.27,1684.65 4734.27,2355.88 "/>
   <path class="fil2" d="M5907.46 2363.79l688.3 -1922.11 249.17 0 716.67 1937.33 -205.67 -5.01 -218.78 -597.06 -820.74 -10.12 -207.28 586.83 -201.66 10.15zm520.68 -780.47l642.33 0 -340.52 -917.88c-22.38,124.5 -68.41,227.36 -109.85,349.96l-191.96 567.92z"/>
   <polygon class="fil3" points="7074.82,429.57 7074.82,313.08 7040.07,313.08 7040.07,297.48 7123.77,297.48 7123.77,313.08 7088.8,313.08 7088.8,429.57 "/>
   <path class="fil3" d="M7137.46 429.57l0 -132.09 21.01 0 25.03 93.57 5.01 19.52c1.21,-4.87 3.1,-11.94 5.65,-21.21l25.26 -91.89 18.82 0 0 132.09 -13.46 0 0 -110.53 -30.76 110.53 -12.56 0 -30.57 -112.46 0 112.46 -13.46 0z"/>
   <g>
    <path class="fil3" d="M7294.46 365.86l-13.24 0 0 0 -0.18 -7.35 -0.54 -7.26 -0.89 -7.16 -1.22 -7.03 -1.55 -6.91 -1.88 -6.78 -2.19 -6.63 -2.5 -6.5 -2.78 -6.33 -3.07 -6.16 -3.35 -5.98 -3.63 -5.79 -3.89 -5.62 -4.13 -5.39 -4.37 -5.2 -4.61 -4.96 -4.83 -4.74 -5.07 -4.49 -5.25 -4.25 -5.45 -3.98 -5.66 -3.71 -5.84 -3.45 -6 -3.15 -6.17 -2.87 -6.32 -2.56 -6.46 -2.24 -6.61 -1.93 -6.73 -1.59 -6.86 -1.25 -6.97 -0.91 -7.07 -0.56 -7.18 -0.18 0 -13.51 7.85 0.2 7.74 0.61 7.64 0.99 7.51 1.39 7.38 1.74 7.24 2.11 7.09 2.47 6.93 2.8 6.77 3.14 6.57 3.45 6.37 3.77 6.19 4.06 5.99 4.36 5.75 4.65 5.53 4.91 5.29 5.18 5.05 5.44 4.79 5.67 4.52 5.9 4.25 6.13 3.97 6.34 3.67 6.56 3.36 6.74 3.05 6.94 2.73 7.09 2.4 7.26 2.05 7.43 1.7 7.56 1.34 7.7 0.97 7.83 0.59 7.93 0.2 8.04 0 0zm-152.5 156.41l0 -13.51 0 0 7.18 -0.18 7.07 -0.56 6.97 -0.91 6.86 -1.25 6.73 -1.59 6.61 -1.93 6.46 -2.24 6.33 -2.56 6.17 -2.85 5.99 -3.15 5.83 -3.45 5.67 -3.72 5.45 -3.98 5.26 -4.24 5.06 -4.49 4.83 -4.74 4.61 -4.96 4.37 -5.2 4.13 -5.39 3.89 -5.61 3.63 -5.8 3.35 -5.98 3.07 -6.16 2.78 -6.33 2.5 -6.5 2.19 -6.63 1.88 -6.78 1.55 -6.91 1.22 -7.03 0.89 -7.16 0.54 -7.26 0.18 -7.36 13.24 0 -0.2 8.05 -0.59 7.93 -0.97 7.83 -1.34 7.7 -1.7 7.56 -2.05 7.42 -2.4 7.28 -2.73 7.09 -3.05 6.94 -3.36 6.74 -3.67 6.56 -3.97 6.35 -4.25 6.12 -4.52 5.9 -4.79 5.67 -5.05 5.44 -5.29 5.18 -5.54 4.91 -5.74 4.64 -5.99 4.36 -6.18 4.07 -6.38 3.77 -6.58 3.45 -6.77 3.14 -6.92 2.79 -7.09 2.47 -7.24 2.11 -7.38 1.74 -7.51 1.39 -7.64 0.99 -7.74 0.61 -7.85 0.2 0 0zm-152.48 -156.41l13.24 0 0 0 0.18 7.36 0.54 7.26 0.89 7.16 1.22 7.03 1.55 6.91 1.88 6.78 2.19 6.63 2.5 6.5 2.78 6.33 3.07 6.15 3.36 5.99 3.62 5.81 3.89 5.59 4.13 5.4 4.38 5.2 4.61 4.96 4.84 4.74 5.04 4.49 5.27 4.24 5.45 3.98 5.66 3.72 5.83 3.45 5.99 3.15 6.17 2.86 6.32 2.56 6.47 2.24 6.59 1.93 6.74 1.59 6.85 1.25 6.97 0.91 7.07 0.56 7.17 0.18 0 13.51 -7.84 -0.2 -7.74 -0.61 -7.64 -0.99 -7.5 -1.39 -7.39 -1.74 -7.24 -2.11 -7.08 -2.47 -6.93 -2.8 -6.75 -3.13 -6.58 -3.45 -6.38 -3.77 -6.19 -4.07 -5.97 -4.36 -5.75 -4.64 -5.54 -4.91 -5.28 -5.18 -5.05 -5.44 -4.78 -5.67 -4.54 -5.89 -4.25 -6.14 -3.96 -6.34 -3.67 -6.55 -3.38 -6.75 -3.05 -6.94 -2.73 -7.09 -2.4 -7.28 -2.05 -7.42 -1.7 -7.56 -1.34 -7.7 -0.97 -7.83 -0.59 -7.93 -0.2 -8.05 0 0zm152.48 -156.4l0 13.51 0 0 -7.17 0.18 -7.07 0.56 -6.97 0.91 -6.85 1.25 -6.74 1.59 -6.59 1.93 -6.47 2.24 -6.32 2.56 -6.16 2.87 -6 3.15 -5.84 3.45 -5.66 3.71 -5.45 3.98 -5.26 4.25 -5.05 4.49 -4.84 4.74 -4.61 4.96 -4.38 5.2 -4.13 5.39 -3.89 5.61 -3.62 5.8 -3.36 5.99 -3.07 6.15 -2.78 6.33 -2.5 6.5 -2.19 6.63 -1.88 6.78 -1.55 6.91 -1.22 7.03 -0.89 7.16 -0.54 7.26 -0.18 7.35 -13.24 0 0.2 -8.04 0.59 -7.93 0.97 -7.83 1.34 -7.7 1.7 -7.56 2.05 -7.43 2.4 -7.26 2.73 -7.09 3.05 -6.94 3.38 -6.75 3.67 -6.55 3.96 -6.34 4.25 -6.14 4.54 -5.9 4.78 -5.67 5.05 -5.44 5.28 -5.18 5.53 -4.91 5.76 -4.65 5.98 -4.36 6.19 -4.06 6.37 -3.77 6.57 -3.45 6.76 -3.14 6.93 -2.8 7.08 -2.47 7.24 -2.11 7.39 -1.74 7.5 -1.39 7.64 -0.99 7.74 -0.61 7.84 -0.2 0 0z"/>
   </g>
   <polygon class="fil4" points="2823.67,3290.21 6.91,3290.21 6.91,2445.68 2823.67,2445.68 "/>
   <path class="fil5" d="M104.43 3207.87l26.91 -68.74c13.75,10.19 30.95,18.76 51.49,25.51 20.48,6.91 38.88,10.32 55.06,10.32 28.74,0 51.82,-8.06 69.23,-23.96 17.46,-15.91 26.17,-36.19 26.17,-60.77 0,-18.51 -4.79,-35.58 -14.46,-51.37 -9.69,-15.8 -34.1,-33.02 -73.24,-51.74l-43.52 -20.51c-36.75,-17.46 -62.56,-38.11 -77.13,-61.95 -14.72,-23.98 -22,-52.62 -22,-86.27 0,-40.79 14.34,-74.68 42.76,-101.55 28.56,-26.91 65.18,-40.28 109.83,-40.28 59.74,0 101.33,9.79 124.7,29.4l-21.78 65.02c-9.83,-7.28 -24.91,-14.17 -45.04,-20.91 -20.15,-6.7 -38.73,-10.06 -55.99,-10.06 -25,0 -44.79,7.18 -59.14,21.69 -14.47,14.38 -21.61,33.02 -21.61,55.52 0,14.05 2.59,26.64 7.77,38.12 5.18,11.49 12.34,21.02 21.52,28.84 9.2,7.63 28.02,18.44 56.61,32.47l44.27 21.26c36.78,17.65 62.7,38.79 77.51,63.22 14.86,24.61 22.3,55.73 22.3,93.54 0,41.05 -16.24,75.97 -48.83,104.5 -32.59,28.67 -76.15,42.98 -130.62,42.98 -47.94,0 -88.8,-11.48 -122.78,-34.27z"/>
   <path class="fil5" d="M686.73 3022.27l0 210.53 -73.74 0 0 -547.01c55.88,-2.45 89.49,-3.63 101.07,-3.63 156.73,0 235.12,53.11 235.12,159.4 0,123.01 -69.19,184.45 -207.87,184.45 -8.26,0 -26.51,-1.28 -54.58,-3.74zm0 -269.24l0 201.94c31.18,2.6 47.67,3.81 49.48,3.81 91.45,0 137.11,-36.51 137.11,-109.43 0,-66.66 -48.78,-100.04 -146.33,-100.04 -9.79,0 -23.26,1.28 -40.25,3.72z"/>
   <polygon class="fil5" points="1168.16,3232.79 1168.16,2685.78 1241.86,2685.78 1241.86,3232.79 "/>
   <path class="fil5" d="M1786.17 3232.79l-144.04 -234.87c-16.49,0 -42.5,-1.24 -78.13,-3.65l0 238.52 -73.7 0 0 -547.01c2.61,0 21.75,-0.86 57.21,-2.76 35.63,-1.89 61.43,-2.82 77.64,-2.82 129.75,0 194.62,52.26 194.62,156.91 0,34.26 -10.41,65.26 -31.3,92.8 -20.91,27.4 -45.68,44.6 -74.46,51.24l156.62 251.65 -84.45 0zm-222.17 -479.76l0 177.79c17.61,2.4 34.83,3.65 51.61,3.65 44.12,0 76.36,-7.12 96.48,-21.65 20.26,-14.43 30.33,-40.14 30.33,-77.24 0,-30.58 -10.84,-52.61 -32.49,-66.12 -21.61,-13.37 -55.82,-20.15 -102.49,-20.15 -7.32,0 -21.79,1.28 -43.44,3.72z"/>
   <polygon class="fil5" points="2060,3232.79 2060,2685.78 2133.75,2685.78 2133.75,3232.79 "/>
   <polygon class="fil5" points="2575.27,2753.03 2575.27,3232.79 2501.55,3232.79 2501.55,2753.03 2329.82,2753.03 2329.82,2685.78 2754.78,2685.78 2754.78,2753.03 "/>
   <rect class="fil6" x="2843.81" y="2456.52" width="4773.45" height="845.79"/>
   <g id="_2302560789296">
    <path class="fil3" d="M2961.22 2902.22c0,-63.94 16.61,-118.01 49.77,-162.28 33.1,-44.26 77.47,-66.33 132.89,-66.33 61.03,0 107.73,19.96 139.99,60.05 32.22,40.1 48.33,96.29 48.33,168.56 0,72.43 -16.8,129.85 -50.52,172.36 -33.73,42.48 -81.64,63.71 -143.64,63.71 -56.99,0 -100.74,-21.03 -131.09,-63.11 -30.46,-42.15 -45.72,-99.68 -45.72,-172.95zm78.26 0c0,52.51 8.42,93.24 25.23,122 16.82,28.89 41.26,43.26 73.32,43.26 37.65,0 66.49,-14.02 86.26,-42.28 19.79,-28.15 29.67,-69.15 29.67,-122.97 0,-105.14 -36.68,-157.76 -110.08,-157.76 -33.63,0 -59.47,14.21 -77.38,42.66 -18.02,28.56 -27.02,66.89 -27.02,115.1z"/>
    <polygon class="fil3" points="3474.28,2752.4 3474.28,2857.56 3623.56,2857.56 3623.56,2925.26 3474.28,2925.26 3474.28,3130.66 3398.88,3130.66 3398.88,2681.55 3678.66,2681.55 3678.66,2752.4 "/>
    <polygon class="fil3" points="3999.46,2752.4 3999.46,2857.56 4148.73,2857.56 4148.73,2925.26 3999.46,2925.26 3999.46,3130.66 3924.08,3130.66 3924.08,2681.55 4203.87,2681.55 4203.87,2752.4 "/>
    <path class="fil3" d="M4270.41 2681.55l75.41 0 0 304.39c0,24.15 6.9,43.7 20.84,58.9 13.94,15.05 33.06,22.63 57.42,22.63 27.29,0 48.45,-7.33 63.61,-22.21 15.23,-14.8 22.73,-35.04 22.73,-60.8l0 -302.91 75.38 0 0 309c0,46.26 -14.63,82.33 -43.91,108.5 -29.26,26.17 -68.37,39.24 -117.25,39.24 -49.27,0 -87.23,-12.77 -114.01,-38.31 -26.75,-25.5 -40.22,-62.12 -40.22,-109.75l0 -308.68z"/>
    <path class="fil3" d="M4912.07 3130.66l-113.23 -185.39c-11.41,-0.27 -27.32,-0.97 -47.9,-2.21l0 187.6 -78.29 0 0 -449.11c4.28,0 20.59,-0.74 49.1,-2.3 28.4,-1.56 51.23,-2.34 68.64,-2.34 107.83,0 161.74,44.2 161.74,132.49 0,26.61 -7.5,50.77 -22.35,72.64 -14.86,21.88 -33.65,37.25 -56.2,46.22l125.44 202.39 -86.96 0zm-161.13 -379.83l0 124.77c13.91,1.17 24.59,1.82 31.9,1.82 31.5,0 54.52,-4.63 69.05,-14.12 14.68,-9.45 22.03,-27.62 22.03,-54.83 0,-22.11 -7.84,-37.57 -23.56,-46.2 -15.65,-8.82 -40.27,-13.24 -73.92,-13.24 -8.14,0 -16.61,0.55 -25.49,1.79z"/>
    <polygon class="fil3" points="5313.81,3136.88 5107.75,2852.65 5107.75,3130.96 5035.23,3130.96 5035.23,2681.55 5071.53,2681.55 5272.07,2952.57 5272.07,2681.55 5344.48,2681.55 5344.48,3136.88 "/>
    <polygon class="fil3" points="5432.93,3130.66 5432.93,2681.55 5508.35,2681.55 5508.35,3130.66 "/>
    <path class="fil3" d="M5576.39 3105.84l27.86 -71.43c29.7,22.07 59.02,33.06 87.76,33.06 44.33,0 66.41,-16.35 66.41,-48.98 0,-15.39 -5.26,-29.94 -15.63,-43.84 -10.42,-13.91 -31.95,-29.5 -64.51,-46.77 -32.58,-17.26 -54.52,-31.5 -65.76,-42.61 -11.31,-11.21 -20,-24.39 -26.15,-39.74 -6.02,-15.32 -9.07,-32.23 -9.07,-50.86 0,-34.73 12.02,-63.5 36.11,-86.46 24.01,-22.87 54.9,-34.3 92.55,-34.3 49.08,0 85.11,9.74 108.13,29.07l-22.93 68.66c-26.39,-19.97 -54.39,-30.04 -83.71,-30.04 -17.37,0 -30.84,4.97 -40.47,14.55 -9.56,9.73 -14.34,22.43 -14.34,37.86 0,25.78 26.91,52.56 80.8,80.4 28.4,14.65 48.89,28.24 61.5,40.61 12.52,12.35 22.15,26.79 28.64,43.22 6.65,16.42 9.91,34.82 9.91,55.04 0,36.41 -13.54,66.31 -40.74,89.76 -27.08,23.54 -63.55,35.26 -109.13,35.26 -39.53,0 -75.29,-10.75 -107.22,-32.45z"/>
    <polygon class="fil3" points="6144.4,3130.66 6144.4,2928.27 5975.45,2928.27 5975.45,3130.66 5900.04,3130.66 5900.04,2681.55 5975.45,2681.55 5975.45,2857.56 6144.4,2857.56 6144.4,2681.55 6218.91,2681.55 6218.91,3130.66 "/>
    <polygon class="fil3" points="6307.36,3130.66 6307.36,2681.55 6382.75,2681.55 6382.75,3130.66 "/>
    <polygon class="fil3" points="6749.68,3136.88 6543.6,2852.65 6543.6,3130.96 6471.08,3130.96 6471.08,2681.55 6507.43,2681.55 6707.94,2952.57 6707.94,2681.55 6780.36,2681.55 6780.36,3136.88 "/>
    <path class="fil3" d="M7180.92 2718.04l-31.58 64.09c-8.89,-8.37 -22.56,-16.76 -41.15,-25.05 -18.49,-8.26 -34.51,-12.32 -47.8,-12.32 -41.73,0 -74.66,14.97 -98.82,44.85 -24.21,29.95 -36.34,70.05 -36.34,120.35 0,47.85 11.9,86.04 35.54,114.62 23.74,28.66 55.9,42.89 96.65,42.89 26.91,0 49,-7.79 66.4,-23.21l0 -88.36 -58.77 0 0 -68 134.12 0 0 201.11c-17.97,15.51 -41.14,27.63 -69.42,36.32 -28.3,8.66 -56.52,12.96 -84.48,12.96 -60.83,0 -109.11,-21.03 -144.73,-63.28 -35.61,-42.16 -53.51,-97.98 -53.51,-167.21 0,-69.28 19.52,-125.57 58.29,-168.88 38.87,-43.37 91.09,-65.02 156.79,-65.02 46.56,0 86.16,14.65 118.82,44.14z"/>
    <path class="fil3" d="M7245.52 3105.84l27.87 -71.43c29.74,22.07 59.02,33.06 87.76,33.06 44.32,0 66.42,-16.35 66.42,-48.98 0,-15.39 -5.3,-29.94 -15.64,-43.84 -10.4,-13.91 -31.97,-29.5 -64.52,-46.77 -32.56,-17.26 -54.52,-31.5 -65.78,-42.61 -11.26,-11.21 -20,-24.39 -26.14,-39.74 -6.02,-15.32 -9.09,-32.23 -9.09,-50.86 0,-34.73 12.05,-63.5 36.14,-86.46 24,-22.87 54.87,-34.3 92.59,-34.3 49.05,0 85.09,9.74 108.1,29.07l-22.93 68.66c-26.43,-19.97 -54.41,-30.04 -83.7,-30.04 -17.44,0 -30.83,4.97 -40.48,14.55 -9.58,9.73 -14.34,22.43 -14.34,37.86 0,25.78 26.93,52.56 80.84,80.4 28.38,14.65 48.87,28.24 61.4,40.61 12.59,12.35 22.21,26.79 28.73,43.22 6.62,16.42 9.87,34.82 9.87,55.04 0,36.41 -13.54,66.31 -40.72,89.76 -27.14,23.54 -63.57,35.26 -109.16,35.26 -39.54,0 -75.25,-10.75 -107.22,-32.45z"/>
   </g>
  </g>
 </g>
</svg>
