<?xml version="1.0" encoding="UTF-8"?>
<!DOCTYPE svg PUBLIC "-//W3C//DTD SVG 1.1//EN" "http://www.w3.org/Graphics/SVG/1.1/DTD/svg11.dtd">
<!-- Creator: CorelDRAW 2017 -->
<svg xmlns="http://www.w3.org/2000/svg" xml:space="preserve" width="66.8522mm" height="58.5519mm" version="1.1" style="shape-rendering:geometricPrecision; text-rendering:geometricPrecision; image-rendering:optimizeQuality; fill-rule:evenodd; clip-rule:evenodd"
viewBox="0 0 6722.53 5887.87"
 xmlns:xlink="http://www.w3.org/1999/xlink">
 <defs>
  <style type="text/css">
   <![CDATA[
    .fil1 {fill:#FEFEFE}
    .fil2 {fill:#2B2A29}
    .fil0 {fill:#CF2529}
   ]]>
  </style>
 </defs>
 <g id="Layer_x0020_1">
  <metadata id="CorelCorpID_0Corel-Layer"/>
  <g id="_2551624101152">
   <path class="fil0" d="M2247.34 1794.14c0,0 313.89,-34.73 555.23,-773.81 241.5,-739.13 735.33,-984.36 949.67,-1009.2 214.67,-24.84 1124.86,-108.74 1972.75,1128.41 847.71,1236.86 -442.11,2979.36 -703.4,3542.11 -261.57,562.84 -586.89,1563.37 -1874.19,1076.55 -1287.62,-486.71 -2695.06,-1528.75 -3020.8,-2453.21 -325.95,-924.66 38.71,-1479.78 403.45,-1680.6 573.94,-316.09 1284.66,281.03 1717.3,169.75z"/>
   <path class="fil1" d="M307.47 2334.17c0,0 -597.28,969.13 572.51,1646.85 0,0 -900.4,-600.99 -572.51,-1646.85z"/>
   <path class="fil1" d="M1473.61 2298.52c-42.59,-18.99 -69.19,-41.45 -80.08,-67.54 -10.44,-25.94 -10.01,-53.48 1.99,-82.71 22.17,-51.7 30.71,-91.56 26.26,-120.9 -4.76,-28.93 -16.73,-48.22 -36.47,-57.99 -19.74,-9.94 -44.25,-11.24 -73.33,-4.11 -29.31,7.31 -57.33,20.24 -84.17,38.52 -26.68,18.33 -50.51,42.18 -70.64,71.63 -20.26,29.48 -31.56,61.02 -34.06,94.9 -5.01,69.18 8.14,123.15 38.99,161.48 30.95,38.23 70.51,70.33 118.5,96.46 48.18,25.95 101.41,50.38 159.57,72.65 58.39,22.29 113.24,51.99 164.7,89.05 51.18,37.13 94.91,86.08 130.68,147.44 36.04,61.28 56.08,143.07 60.25,245.67 2.43,80.82 -13.22,155.01 -47.65,222.49 -34.43,67.45 -80.25,125.98 -137.88,175.31 -57.42,49.25 -123.04,88.08 -196.87,116.61 -73.83,28.8 -148.57,45.08 -224.3,49.19 -75.81,4.09 -148.12,-5.44 -217.33,-28.55 -69.34,-23.41 -128.19,-62.09 -176.56,-116.54 -45.69,-48.19 -77.42,-100.27 -95.52,-156.51 -18.2,-55.97 -23.19,-111.43 -15.12,-166.58 7.79,-55.16 27.72,-107.65 60.32,-158.18 32.35,-50.1 76.73,-94.21 133.51,-131.72 19.62,-9.11 37.06,-13.04 52.35,-11.22 13.52,0.28 25.41,5.3 35.83,14.5 10.4,9.41 16.79,27.13 19.06,53.27 -16.43,31.99 -27.6,63.62 -34.05,95.07 -5.67,27.91 -6.56,59.14 -3.13,94.37 3.39,35.06 16.35,70.21 39.14,105.31 40.84,40.93 86.54,63.61 137.84,68.52 50.83,4.41 99.43,-3.22 146.11,-23.29 46.36,-20.16 85.93,-49.65 119.18,-88.73 33.1,-38.62 51.61,-81.74 55.59,-128.2 3.95,-46.78 -10.69,-94.74 -44.06,-144.11 -33.41,-49.39 -93.57,-94.49 -180.92,-135.63 -114.94,-37.97 -204.48,-88.75 -268.1,-152.39 -63.85,-63.43 -107.07,-132.29 -129.2,-206.61 -21.9,-74.25 -25.27,-150.72 -9.93,-229 15.41,-78.49 44.01,-150.8 86.2,-217.65 41.89,-66.42 95.84,-124.19 160.73,-172.41 65.46,-48.59 137.24,-80.64 215.51,-95.93 106.63,-21.77 192.43,-10.98 256.77,32.3 64.45,43.47 106.45,102.63 124.94,177.83 19.24,74.97 13.58,156.13 -16.52,243.5 -30.24,87.5 -85.9,164.15 -168.12,230.43z"/>
   <path class="fil1" d="M2629.11 2756.4c11.1,51.32 28.03,80.08 50.82,86.18 22.56,6.28 45.88,-2.05 69.05,-24.68 23.81,-22.77 44.93,-56.64 63.55,-101.76 18.67,-45.31 29.41,-93.57 32.45,-145.05 5.66,-2.69 11.97,-3.89 18.24,-3.75 12.78,0.3 20.99,6.43 25.3,18.09 7.93,56.93 7.91,113.92 0.69,171.1 -7.53,56.84 -22.46,109.56 -45.23,158.07 -22.37,48.76 -53.71,90.34 -93.73,125.07 -39.67,35.03 -89.23,58.77 -148.18,71.66 -27.22,6 -52.14,3.11 -74.38,-8.66 -22.56,-11.64 -41.63,-30.43 -57.58,-56.27 -15.77,-25.73 -29.59,-57.1 -40.76,-94.29 -11.28,-37.18 -20.25,-78.01 -26.58,-122.47 -27.99,83.61 -50.94,149.26 -70,197.01 -18.57,47.56 -38.44,84.27 -59.04,110.12 -20.29,25.99 -44.17,44.31 -71.06,54.95 -27.13,10.55 -61.58,20.67 -104.03,29.72 -5.81,1.37 -11.7,2.66 -16.9,3.69 -5.21,1.2 -12.04,1.12 -20.16,-0.18 -32.33,-2.55 -64.75,-20.41 -97.27,-53.7 -32.59,-33.07 -57.86,-75.6 -75.42,-127.09 -19.22,-59.23 -31.65,-127.43 -36.48,-204.8 -5.03,-77.48 -4.32,-156.14 1.62,-236.68 6.22,-80.62 18.12,-158.61 35.59,-234.75 17.13,-75.81 38.76,-142.54 64.06,-200.48 23.77,-50.96 53.94,-87.15 90.33,-108.62 36.26,-21.63 76.18,-32.16 118.69,-32.17 43.09,0.38 85.75,9.5 128.65,27.85 42.84,18.35 82.18,41.9 118.61,70.23 10.57,-60.82 20.23,-105.79 29.85,-134.99 22.86,-11.12 49.42,-20.19 79.67,-26.76 30.11,-6.52 59.5,-10.3 88.05,-10.81 28.2,-0.67 53.47,0.81 75.9,4.66 22.01,3.87 37.25,10.46 45.69,19.77 -24.51,74.95 -46.04,143.8 -64.27,206.23 -17.82,62.78 -31.67,124.15 -41.21,185.04 -9.98,60.78 -14.66,122.46 -14.39,184.71 0.26,62.57 6.89,130.46 19.85,203.81zm-513.08 109.8c9.88,16.81 19.49,26.55 27.92,29.56 8.64,2.95 23.97,-6 46.22,-26.9 37.86,-58.76 69.42,-119.45 94.74,-181.19 25.14,-61.52 45.55,-117.46 60.8,-167.65 15.09,-49.84 26.05,-91.1 32.36,-123.33 6.18,-32.52 9.45,-49.11 8.94,-50.7 -46.51,-61.03 -86.65,-93.39 -121.07,-97.02 -33.93,-3.88 -62.54,10.89 -85.34,43.53 -23.07,32.66 -40.75,77.43 -53.76,134.13 -13.02,56.59 -21.57,114.38 -26.37,173.26 -4.43,58.85 -5.2,113.14 -2,163.13 2.78,49.93 8.64,84.34 17.57,103.17z"/>
   <path class="fil1" d="M2897.31 1866.04c22.86,-11.26 49.88,-19.99 80.82,-26.05 31.4,-5.84 61.36,-9.26 89.7,-9.98 28.24,-0.67 53.68,1.02 75.66,4.74 22.32,3.97 37.63,10.43 45.88,19.76 -27.44,85.01 -50.17,162.55 -68.13,232.25 -17.71,69.34 -31.06,135.43 -39.81,197.56 -8.48,61.96 -12.27,122.55 -11.22,181.76 1.04,59.31 7.08,120.84 17.76,184.9l-0.12 -2.02c9.76,45.24 26.53,72.82 50.02,82.79 23.44,9.92 48.12,6.78 74.15,-9.29 25.51,-15.87 50.91,-41.39 75.71,-76.94 24.66,-35.52 43.37,-75.27 55.73,-119.11 -5.26,-74.97 -5.87,-153.28 -2.35,-234.7 3.35,-81.76 9.51,-158.16 18.41,-229.77 8.92,-71.84 19.08,-135.26 30.75,-190.94 11.63,-55.67 21.82,-95.34 30.76,-119.52 22.9,-11.13 49.83,-19.85 81.25,-26.21 31.02,-5.74 60.71,-9.18 89.17,-9.78 28.47,-0.57 53.7,0.92 75.9,4.66 22.14,3.88 37.39,10.55 45.65,19.71 -27.08,85.21 -49.95,162.6 -67.91,232.4 -18.05,69.66 -31.15,135.32 -39.86,197.45 -8.38,62.11 -12.45,122.58 -11.3,181.81 0.8,59.39 7.08,120.8 17.88,185.09l-0.32 -2.21c11.32,52.84 29.02,82.37 52.58,88.07 23.3,6.09 46.75,-2.74 70.31,-25.89 23.12,-23.34 44.52,-58.18 63.84,-104.41 19.24,-46.15 30.32,-94.79 33.36,-146.25 5.62,-2.74 11.68,-3.85 18.15,-3.88 4.68,0.69 9.95,1.83 15.05,3.78 5.38,2.06 9.42,6.66 12.3,13.8 6.56,59 6.33,117.49 -0.56,176.02 -7.17,58.55 -21.79,112.08 -44.6,160.48 -22.55,48.67 -54.05,90.64 -94.37,126.61 -40.59,35.89 -90.99,60.25 -151.57,73.32 -55.9,12.44 -101.21,0.78 -135.68,-34.41 -34.72,-35.01 -60.67,-85.66 -78.34,-151.5 -8.2,27.03 -19.1,54.08 -32.36,80.77 -13.04,26.71 -30.29,53.2 -51.32,80.16l-0.53 -2.46c-24.63,32.44 -55.13,61.41 -91.48,86.78 -36.54,25.41 -81.32,43.86 -134.05,55.34 -61.98,13.59 -110.75,-1.36 -146.37,-45.19 -35.77,-43.56 -61.51,-103.32 -77.36,-179.01 -15.57,-75.8 -23.65,-160.97 -23.78,-256.05 -0.12,-95.12 4.07,-187.23 13.26,-276.29 8.97,-89.03 20.02,-168.95 33,-239.86 12.8,-70.92 25.16,-120.32 36.35,-148.23z"/>
   <path class="fil1" d="M3792.18 2361.7c-5.11,-81.32 -4.13,-163.22 3.52,-245.5 7.02,-82.41 22.7,-158.38 46.2,-228.72 23.38,-70.02 55.48,-130.59 96.68,-181.36 41.13,-51.12 92.78,-86.61 154.87,-106.66 89.01,-27.26 162.66,-36.54 220.9,-28.01 57.78,8.68 103.88,28.69 137.71,60.07 33.84,31.81 56.84,71.13 68.82,119.17 12.25,48.1 15.29,97.52 9.68,147.63 -5.49,50.4 -19.09,98.77 -40.46,145.56 -21.74,46.64 -47.66,85.05 -78.13,115.64 -30.55,30.44 -64.98,48.99 -103.13,55.91 -37.86,6.85 -77.59,-4.58 -118.77,-33.55 52.86,-48.03 87.12,-97.73 102.82,-149.41 15.49,-51.78 18.86,-97.44 10.31,-136.61 -8.5,-39.25 -25.05,-67.45 -49.5,-84.36 -24.12,-16.96 -49.67,-13.89 -76.53,8.47 -26.63,22.46 -51.33,68.79 -74.06,138.62 -22.8,69.88 -35.79,172.71 -39.59,307.99 -1.99,70.28 10.94,123.97 38.86,161.47 28.16,37.58 63.6,61.62 106.31,72.9 42.77,11.24 89.87,10.44 140.79,-2.24 51.14,-12.71 98.98,-34.52 143.92,-64.84 44.89,-30.33 82.75,-68.72 113.68,-115.19 31.12,-46.23 48.55,-96.92 52.64,-151.53 5.41,-2.94 11.7,-4.07 18.17,-3.97 12.59,0.33 20.95,6.42 25.17,18.04 12.09,106.7 -0.76,199.54 -39.08,278.39 -38.11,78.75 -90.1,142.03 -155.74,189.75 -65.48,47.46 -138.39,78.47 -218.23,92.42 -79.91,14.59 -156.28,10.69 -228.25,-11.44 -72.16,-22.14 -133.49,-63.86 -184.19,-124.83 -50.51,-60.98 -78.92,-142.41 -85.36,-243.82z"/>
   <path class="fil1" d="M5217.79 1731.51c7.1,-82.37 14.33,-154.17 21.49,-215.05 7.41,-61.01 12.21,-103.56 14.75,-127.99 45.08,-33.49 94.04,-55.81 147.1,-66.67 52.84,-10.96 101.61,-9.88 145.63,2.77 -14.93,63.32 -29.71,139.9 -44.76,229.44 -15.48,89.8 -28.51,185.6 -39.45,287.79 -10.79,102.08 -18.68,207.27 -23.63,315.11 -4.82,108.04 -5.08,212.18 -0.59,312.49 1.51,20.5 2.25,40.49 2.9,61.35 0.24,20.69 0.48,40.94 0.32,61.51 84.59,-18.44 175.67,-32.7 273.33,-43.07 83.33,-8.77 180.88,-14.24 292.09,-16.39 111.32,-2.2 227.94,4.68 350.09,20.78 8.83,32.9 13.64,65.01 14.15,96.68 1.09,26.77 -2.27,54.81 -9.96,84.12 -8.06,29.38 -23.58,55.34 -47.25,77.98 -87.96,-17.07 -180.65,-29.32 -278.88,-36.22 -83.89,-6.91 -177.82,-10.67 -282.43,-10.56 -104.82,-0.17 -209.86,7.34 -315.88,22.6 -6.03,51.97 -16.16,99.88 -30.4,143.26 -14.18,43.61 -36.09,81.56 -65.24,113.96 -29.67,32.74 -67.47,58.39 -113.84,77.25 -46.48,19.05 -103.72,29.39 -171.16,31.41 -72.38,3.39 -128.34,-5.14 -168.5,-24.74 -39.83,-19.88 -66.09,-45.82 -78.78,-77.98 -12.42,-31.83 -12.06,-68.4 1.11,-109.54 13.23,-40.95 36.89,-81.33 70.79,-121.21 33.98,-39.67 77.63,-76.95 131.06,-111.72 53.62,-34.53 114.72,-61.84 183.06,-81.61 -0.35,-15.7 -0.52,-36.99 -0.85,-63.92 -0.33,-26.95 -0.86,-54.49 -1.45,-82.82 -0.84,-28.35 -1.13,-56.19 -1.84,-83.85 -0.52,-27.59 -0.92,-49.95 -1.54,-67.32l-0.98 -26.24c-21.42,61.74 -40.32,110.75 -57.04,147.01 -16.68,36.12 -34.61,64.18 -53.89,84.13 -19.64,20.17 -41.97,34.95 -67.39,44.46 -25.63,9.45 -57.44,18.58 -95.08,26.68 -6.17,1.43 -12.19,2.21 -17.44,2.54 -5.53,0.59 -12.15,0.84 -20.06,1.12 -32.31,-2.64 -64.78,-20.33 -98.45,-53.59 -33.38,-33.01 -57.75,-75.36 -74.16,-127.42 -17.66,-59.33 -28.82,-127.13 -32.59,-203.24 -3.97,-75.86 -2.48,-153.77 4.62,-233.8 7.1,-80.02 19.13,-157.96 35.47,-234.5 16.57,-76.37 35.84,-143.98 57.91,-202.77 14.12,-36.3 30.55,-63.81 49.51,-82.1 19.01,-18.41 40.19,-30.05 63.7,-35.18 23.32,-5.14 48.09,-5.83 74.5,-2.11 25.97,3.81 52.38,9.14 79.32,15.87 -2.99,8.54 -4.8,14.61 -5.45,17.75 -0.94,3.52 -3.74,12.93 -8.2,27.95 -15.81,51.02 -32.78,112.57 -51.29,184.54 -18.11,72.11 -33.23,144.37 -45.25,216.79 -11.64,72.24 -18.87,140.32 -20.47,204.01 -1.88,63.82 6.67,113.26 25.35,148.85 8.57,17.1 17.29,27.11 26.67,29.79 9.28,2.78 25.22,-6.22 47.45,-26.97 37.88,-59.04 70.33,-119.53 97.07,-181.71 26.9,-61.92 49.1,-117.98 66.61,-167.67 18.93,-57.95 34.73,-115.26 48.12,-172.01zm-219.65 1245.35c50.76,6.35 88.91,3.23 115.46,-9.79 26.58,-13.01 45.62,-28.67 57.49,-47.18 12.93,-20.19 20.01,-45.37 21.2,-75.75 -20.29,-0.41 -41.98,2.81 -64.33,9.27 -22.35,6.49 -43.16,15.58 -62.82,27.85 -19.43,12.2 -35.45,26.39 -47.88,42.67 -12.18,16.03 -18.45,33.91 -19.13,52.93z"/>
   <path class="fil1" d="M2578.25 4432.76c4.72,-2.15 10.03,-3.59 15.62,-3.4 4.06,0.38 8.37,1.87 12.99,4.3 4.64,2.19 8.15,6.53 10.98,12.84 5.27,42.22 4.26,89.4 -2.62,141.64 -6.92,52.19 -19.51,103.78 -38.26,154.35 -18.55,50.96 -43.26,98.31 -72.58,141.27 -30.01,43.09 -65.46,75.85 -106.59,98.19 -8.09,5.98 -17.41,11.52 -27.8,17.43 -10.33,5.63 -24.46,10.44 -42.41,14.51 -41.44,9.03 -76.14,-0.44 -103.44,-27.28 -27.56,-27.3 -49.84,-66.5 -66.34,-118.56l-4.63 -1.02c-7.08,-26.96 -19.81,-54.31 -38.22,-82.05 -18.21,-27.75 -39.81,-54.34 -65.12,-79.18 -25.04,-25.01 -53.73,-48.44 -85.39,-70.84 -32.03,-22.07 -65.41,-40.74 -99.72,-56.19 -39.64,91.18 -78.07,175.39 -115.1,252.59 -37.49,77.22 -72.46,143.02 -105.44,197.58 -36.99,64.87 -77.92,112.89 -122.74,143.63 -44.81,31.06 -87.86,44.22 -129.21,40.64 -41.59,-3.83 -78.78,-24.84 -111.16,-63.07 -33.01,-38.26 -55.18,-93.13 -66.7,-165.13 1.65,-9.99 4.64,-18.01 9.08,-24.13 4.09,-4.93 9.06,-8.41 14.86,-9.57 6.03,-1.07 14.95,1.52 27.27,8.27 24.21,17.65 50.47,18.79 78.96,3.28 28.27,-16.04 58.91,-43.35 91.48,-83.16 32.56,-39.63 65.96,-89.57 100.06,-149.88 34.28,-60.34 68.84,-126.23 103.35,-197.28 -50.6,4.16 -98.52,18.08 -143.33,41.52 -45.1,23.58 -84.18,60.29 -117.88,110.96 -10.44,9.07 -19.03,15.29 -26.58,18.11 -6.15,2.66 -12.88,3.18 -19.93,1.39 -7.26,-1.99 -10.86,-10.28 -11.63,-25.12 51.96,-139.89 116.32,-239.73 192.36,-299.77 76.27,-60.01 156.08,-88.92 238.87,-86.89 35.84,-85.11 70.21,-169.6 102.75,-254.04 33.14,-84.54 62.82,-162.22 89.46,-232.82 26.51,-70.76 48.96,-131.94 67.67,-183.21 18.45,-51.7 31.52,-87.62 38.99,-108.23 34.38,-17.03 69.87,-22.89 107.28,-17.33 36.96,5.52 67.16,11.89 90.25,18.62 2.04,-9.83 5.09,-19.37 9.94,-28.54 16.91,-3.5 32.42,-6.8 46.46,-10.16 14.31,-3.04 27.94,-5.54 41.14,-6.97 13.25,-1.6 27.53,-1.17 43.06,0.85 15.28,1.99 32.87,5.55 53.11,10.73 -52.02,207.76 -85.51,404.72 -99.22,591.33 -14.26,186.58 -10.85,363.61 9.58,531.2 9.79,45.29 26.82,69.96 50.78,74.25 23.91,4.35 48.28,-4.54 73.5,-26.17 24.91,-21.82 47.5,-52.76 67.82,-93.26 20.52,-40.06 31.82,-82.28 34.41,-126.23zm-458.18 77.89c-0.13,-62.38 2.01,-126.67 6.17,-193.34 4.43,-66.55 9.78,-133.2 16.58,-199.47 6.26,-66.59 13.88,-131.17 22.4,-193.95 8.85,-62.86 17.76,-121.49 27.61,-176.63 -35.64,91.82 -73.36,190.06 -113.3,295.11 -40.21,104.76 -81.8,209.85 -124.9,315.54 28.56,19.56 56.64,41.8 84.52,66.8 27.9,25.17 54.65,53.71 80.91,85.94z"/>
   <path class="fil1" d="M2631.95 3405.47c40.89,-29.23 84.09,-48.56 129.25,-57.87 45.46,-8.96 85.78,-8.15 120.7,3.09 -47.31,149.91 -82.97,292.63 -107.34,428.86 -24.38,135.77 -40.85,271.24 -49.5,405.6 61.57,-29.34 131.41,-79.02 210.39,-148.38 78.85,-69.31 159.08,-168.55 240.59,-297.32 7.88,10.33 14.47,26.22 20.3,47 6.12,21.33 10.32,43.5 12.77,66.52 2.2,23.21 2.17,44.71 -0.11,64.89 -2.38,20.12 -7.39,34.37 -14.96,42.96 -26.01,42.16 -55.32,80.98 -88.41,115.8 -33.08,35.2 -67.4,66.01 -103.62,92.66 -36.11,26.86 -72.26,50.46 -108.55,70.37 -36.3,20.47 -70.27,37.36 -102.57,50.95 60.81,54.44 108.72,120.51 145.01,198 35.75,77.41 56,159.3 60.85,245.72 4.61,86.12 -8.75,172.69 -39.8,259.55 -31.09,86.48 -84.17,166.04 -159.23,237.6 -35.2,13.43 -68.31,20.69 -98.96,21.77 -26.63,2 -53.2,-0.84 -79.66,-7.76 -26.83,-7.01 -46.78,-23.22 -60.68,-48.93 -25.03,-170.29 -41.26,-329.14 -48.43,-476.73 -7.04,-147.39 -7.04,-291.98 0.61,-433.92 7.58,-141.9 21.69,-283.88 42.73,-426.77 20.9,-142.62 47,-293.89 78.63,-453.67zm89.24 965.59c0.5,181.36 12.85,372.45 37.87,572.58 30.72,-27.18 52.54,-65.1 65.23,-114.57 12.97,-49.82 17.31,-102.12 13.37,-157.51 -3.9,-55.35 -15.95,-109.85 -35.84,-163.76 -19.89,-53.82 -46.78,-99.48 -80.64,-136.74z"/>
   <path class="fil1" d="M3143.44 3293.46c41.11,-29.16 84.17,-48.59 129.66,-57.79 45.29,-9.12 85.58,-8.2 120.33,3.16 -47.09,149.8 -82.98,292.54 -107.1,428.75 -24.38,135.77 -40.94,271.22 -49.5,405.63 61.36,-29.57 131.39,-78.84 210.39,-148.41 78.94,-69.31 159.07,-168.46 240.46,-297.34 7.85,10.47 14.54,26.18 20.64,47.07 5.91,21.23 9.99,43.2 12.4,66.55 2.49,23.17 2.49,44.9 0.03,64.93 -2.53,20.26 -7.31,34.56 -14.95,42.82 -26.02,42.41 -55.31,80.94 -88.41,115.85 -32.89,35.16 -67.64,65.95 -103.75,92.66 -35.99,27 -72.35,50.3 -108.31,70.57 -36.4,20.18 -70.37,36.93 -102.75,50.93 60.87,54.26 109.03,120.35 144.81,197.75 36.01,77.48 56.39,159.5 61.12,245.74 4.6,86.36 -8.68,172.98 -39.79,259.55 -31.38,86.57 -84.18,166.09 -159.25,237.79 -35.19,13.29 -68.07,20.29 -98.96,21.78 -26.41,1.92 -53.19,-1.09 -79.92,-8.02 -26.47,-6.93 -46.65,-23.16 -60.27,-48.63 -25.3,-170.53 -41.24,-329.55 -48.56,-476.92 -7.08,-147.35 -6.9,-291.96 0.61,-433.97 7.58,-141.9 21.69,-283.87 42.72,-426.53 20.85,-142.77 47.05,-293.89 78.36,-453.93zm89.47 965.8c0.44,181.26 12.8,372.22 37.9,572.62 30.73,-27.3 52.29,-65.51 65.01,-114.76 12.98,-49.82 17.49,-102.15 13.45,-157.36 -3.75,-55.54 -15.94,-110.05 -35.82,-163.91 -19.76,-53.76 -46.88,-99.44 -80.55,-136.59z"/>
   <path class="fil1" d="M4196.08 4196.52c9.82,44.1 24.34,68.75 43.66,73.84 19.5,5.27 39.23,-1.91 59.31,-21.32 20.2,-19.12 38.28,-48.05 54.29,-86.94 15.89,-38.5 25.02,-79.93 27.6,-123.72 4.92,-2.41 9.9,-3.77 15.35,-3.45 11.07,0.29 18.19,5.66 21.91,15.56 6.45,48.81 6.7,97.25 0.46,146.23 -6.22,48.7 -19.16,93.79 -38.56,135.34 -19.21,41.65 -46.1,77.13 -80,106.95 -34.37,29.8 -76.47,50.2 -126.92,61.2 -23.23,5.05 -44.37,2.66 -63.63,-7.42 -18.84,-10.19 -35.47,-26.11 -48.97,-48.24 -13.62,-21.89 -25.26,-49.04 -34.86,-80.62 -9.86,-31.81 -17.36,-66.6 -23.13,-104.77 -23.58,71.67 -43.43,127.54 -59.46,168.52 -16.16,40.63 -33.06,72.16 -50.46,94.24 -17.68,22.07 -37.58,37.63 -60.82,46.85 -23.24,8.99 -52.77,17.48 -88.9,25.44 -5.3,1.21 -10.05,2.34 -14.56,3.45 -4.55,0.84 -10.28,0.81 -17.32,-0.38 -27.53,-2.08 -55.2,-17.37 -83.14,-45.9 -27.9,-28.33 -49.33,-64.72 -64.31,-108.7 -16.69,-50.43 -26.95,-108.99 -31.45,-174.97 -4.21,-66.16 -3.58,-133.57 1.57,-202.38 5.11,-68.71 15.4,-135.83 30.32,-200.62 14.83,-64.8 33.01,-122.06 54.81,-171.4 20.2,-43.8 45.98,-74.84 77.23,-93.18 31.07,-18.38 65.03,-27.26 101.57,-27.25 36.55,0 73.24,7.89 109.96,23.63 36.39,15.91 70.48,35.67 101.41,60.23 8.99,-52.07 17.34,-90.33 25.51,-115.39 19.48,-9.85 42.34,-17.26 68.51,-23.15 25.59,-5.51 50.47,-8.4 74.84,-9.25 24.38,-0.57 45.8,0.91 64.68,4.32 19.17,3.15 32.22,8.78 39.42,16.62 -21.26,64.19 -39.77,122.99 -54.83,176.4 -15.65,53.74 -27.41,106.33 -35.61,157.99 -8.34,52.16 -12.27,104.7 -11.99,158.24 -0.02,53.34 5.62,111.5 16.52,174.01zm-438.44 93.88c8.6,14.4 16.67,22.9 23.9,25.39 7.25,2.21 20.39,-5.18 39.56,-22.99 32.36,-50.23 59.39,-101.87 81.08,-154.8 21.6,-52.66 38.71,-100.44 51.88,-143.18 13.04,-42.93 22.31,-78.3 27.5,-105.51 5.43,-27.74 8.24,-42.4 7.71,-43.61 -39.8,-52.29 -74.27,-79.73 -103.2,-82.9 -29.21,-3.24 -53.7,9.17 -73.15,37.28 -19.58,27.92 -34.95,66.22 -45.91,114.56 -11.21,48.54 -18.67,97.9 -22.6,148.12 -3.93,50.44 -4.66,96.9 -2.04,139.55 2.53,42.86 7.72,72.14 15.26,88.09z"/>
   <path class="fil1" d="M4573.22 4414.74c-52.02,11.23 -93.57,-1.25 -125.32,-37.66 -31.57,-36.26 -55.1,-86.67 -70.34,-150.07 -15.46,-63.69 -24.63,-135.08 -27.85,-214.24 -3,-79.06 -1.74,-156.35 3.65,-231.33 5.11,-75.05 12.4,-141.89 21.84,-200.95 9.43,-58.88 19.06,-100.04 28.82,-124 16.62,-10.31 37.46,-19.39 63.1,-27.09 25.43,-7.44 50.12,-13.18 74.39,-17.17 24.21,-3.94 46.17,-5.49 66.01,-4.36 20.04,0.96 33.56,5.56 40.53,13.44 -23.39,72.95 -41.14,139.22 -53.95,198.63 -12.66,59.79 -21.25,116.8 -25.65,171.25 -4.17,54.45 -4.33,107.6 -0.45,159.33 3.84,52.31 11.92,105.85 24.03,161.5 9.56,44.08 24.54,68.5 44.51,73.53 19.98,5.12 40.26,-2.25 60.2,-22.26 20.01,-19.78 38.26,-49.34 54.64,-88.27 16.86,-38.77 26.32,-80.22 28.9,-124.04 4.83,-2.51 10.18,-3.71 15.39,-3.41 4.04,0.6 8.5,1.43 12.92,3.29 4.34,1.81 8.06,5.61 10.68,11.82 6.8,48.74 6.99,97.73 0.72,147.03 -5.98,49.54 -18.71,94.97 -38.14,136.65 -19.36,41.33 -46.54,77.1 -81.05,106.88 -34.75,30.2 -77.5,50.56 -127.59,61.5z"/>
   <path class="fil1" d="M5000.12 3322.08c4.88,4.26 14.23,5.68 27.35,4.04 13.24,-1.25 27.35,-4.22 42.88,-8.49 15.41,-3.77 30.51,-8.7 45.45,-14.79 14.89,-6.18 27.38,-10.9 37.4,-14.39 19.55,-9.58 41.37,-13.25 64.85,-11.17 23.08,2.41 46.41,8.01 68.57,16.47 21.94,8.82 41.84,18.84 59.13,29.81 17.28,11.16 29.51,20.64 36.79,28.59 -20.16,62.69 -38.55,118.75 -54.58,168.14 -16.33,49.82 -29.14,97.53 -38.7,143.66 -9.71,46.07 -14.91,92.86 -16.03,140.57 -1.02,47.62 3.44,100.95 13.75,159.67 9.32,42.55 25.83,65.76 49.66,69.18 23.54,3.82 48.34,-5.44 73.07,-27.19 25.12,-21.77 47.44,-52.04 67.52,-90.76 20.1,-39.03 31.11,-80.25 33.7,-124.21 4.96,-2.41 10.04,-3.72 15.24,-3.42 11.35,0.39 18.35,5.4 22.02,15.47 4.03,37.21 2.98,75.39 -3.36,114.46 -4.88,33.79 -13.84,70.45 -27.36,110.78 -13.84,40.27 -35.44,79.13 -65.03,116.73 -21.07,27.55 -46.47,51.6 -76.82,71.56 -30.22,20.17 -66.91,35.11 -111.18,44.62 -46.33,10.25 -83.65,4.93 -112.04,-16.06 -28.19,-20.68 -49.86,-51.96 -65.17,-93.41 -15.25,-41.25 -24.9,-90.11 -29.07,-146.94 -4.07,-56.7 -4.63,-115.93 -1.23,-177.41 3.28,-61.9 9.61,-123.39 18.51,-184.83 8.63,-61.48 18.41,-117.86 28.96,-169.02 -21.33,7.68 -43.67,13.33 -66.13,17.74 -22.82,4.25 -45.67,5.47 -69.52,3.7 -6.71,49.18 -15.93,108.38 -27.9,177.85 -12.02,69.96 -26.16,141.68 -43.19,215.83 -16.89,74.13 -37.88,146.44 -62.35,216.73 -24.43,70.31 -53.35,131.57 -86.77,183.67 -18.48,1.34 -35.78,0.82 -50.82,-1.44 -12.98,-2.32 -24.5,-7.63 -35.12,-15.65 -10.65,-7.64 -16.42,-20.91 -17.71,-39.7 19.6,-16.36 39.8,-47.36 60.86,-92.38 21.29,-45.39 40.17,-101.93 56.56,-169.83 16.2,-68.02 28.55,-145.12 37.6,-231.67 8.55,-86.58 10.98,-180.08 6.24,-280.89 -30.81,-24.27 -49.28,-50.69 -55.74,-78.95 -6.19,-28.57 -4.77,-55.22 4.75,-80.57 9.59,-24.89 24.92,-46.05 46.05,-63.73 21.07,-17.29 44.35,-27.14 68.87,-29.28 24.46,-1.9 48.73,5.59 72.89,22.75 24.08,17.09 43.28,48.49 57.15,94.17z"/>
   <path class="fil1" d="M4676.93 3199.4c-4.68,79.33 -72.88,140.07 -152.27,135.39 -79.74,-4.71 -139.96,-73.03 -135.28,-152.36 4.7,-79.56 72.5,-140.08 152.24,-135.37 79.39,4.68 140,72.76 135.3,152.34z"/>
   <path class="fil2" d="M6614.46 834.29c-53.28,-60.02 -129.47,-99.69 -215.91,-104.79 -86.49,-5.1 -166.91,25.33 -226.9,78.68 -59.97,53.28 -99.63,129.4 -104.74,216 -5.1,86.52 25.33,166.91 78.63,226.81 53.3,60.02 129.58,99.69 216.08,104.79 86.44,5.1 166.77,-25.33 226.73,-78.68 59.99,-53.22 99.83,-129.46 104.94,-215.98 5.1,-86.6 -25.51,-166.87 -78.83,-226.83zm-214.22 -133.51c94.33,5.56 177.61,48.88 235.9,114.35 58.14,65.5 91.34,153.37 85.78,247.66 -5.56,94.33 -48.85,177.61 -114.29,235.87 -65.59,58.2 -153.37,91.4 -247.7,85.84 -94.35,-5.57 -177.6,-48.85 -235.74,-114.35 -58.41,-65.56 -91.52,-153.34 -85.96,-247.67 5.56,-94.29 48.76,-177.66 114.48,-235.86 65.43,-58.17 153.19,-91.41 247.54,-85.84z"/>
   <path class="fil2" d="M6332.79 872.53l-9.09 154.13 60.68 3.58c58.63,3.46 89.47,-20.55 92.49,-71.86 3.03,-51.37 -23.56,-78.74 -79.65,-82.05l-64.43 -3.8zm-56.5 361.19l23.18 -392.95 117.12 6.9c32.32,1.91 56.74,12.13 73.57,30.59 16.67,18.47 24.26,43.16 22.44,73.98 -3.39,57.54 -28.99,89.33 -76.91,95.31l-0.06 1.1c23.79,3.72 40.15,13.04 49.46,28.07 9.16,15.09 13.26,38.12 12.25,68.86l-1.47 43.07c-0.93,27.16 3.5,46.73 13.11,58.81l-41.32 -2.43c-5.44,-10.74 -8.06,-29.24 -7.18,-55.74l0.91 -32.98c0.96,-35.7 -2.93,-59.92 -11.8,-72.51 -9.82,-13.87 -30.21,-21.68 -60.98,-23.5l-66.67 -3.93 -10.59 179.45 -35.07 -2.07z"/>
  </g>
 </g>
</svg>
