<?xml version="1.0" encoding="UTF-8"?>
<!DOCTYPE svg PUBLIC "-//W3C//DTD SVG 1.1//EN" "http://www.w3.org/Graphics/SVG/1.1/DTD/svg11.dtd">
<!-- Creator: CorelDRAW 2017 -->
<svg xmlns="http://www.w3.org/2000/svg" xml:space="preserve" width="79.3373mm" height="43.0254mm" version="1.1" style="shape-rendering:geometricPrecision; text-rendering:geometricPrecision; image-rendering:optimizeQuality; fill-rule:evenodd; clip-rule:evenodd"
viewBox="0 0 7802.84 4231.55"
 xmlns:xlink="http://www.w3.org/1999/xlink">
 <defs>
  <style type="text/css">
   <![CDATA[
    .fil1 {fill:#FFF7B2}
    .fil0 {fill:#A75F4A}
    .fil2 {fill:#FFF7B2;fill-rule:nonzero}
    .fil3 {fill:#A75F4A;fill-rule:nonzero}
   ]]>
  </style>
 </defs>
 <g id="Layer_x0020_1">
  <metadata id="CorelCorpID_0Corel-Layer"/>
  <g id="_2587312100336">
   <path class="fil0" d="M211.88 2676c0,88.54 29.34,162.91 87.65,222.87 58.16,59.97 129.69,89.93 214.53,89.93 77.01,0 144.9,-30.33 203.99,-90.19 58.32,-60.29 88.06,-130.69 88.06,-211.45 0,-85.9 -29.39,-159.42 -87.34,-220.86 -58.32,-61.13 -127.7,-91.67 -208.08,-91.67 -82.69,-0.11 -152.99,29.05 -211.16,87.49 -58.31,58.21 -87.65,129.83 -87.65,213.88zm586.4 443.32l0 -107.56c-40.2,41.77 -85.1,73.84 -134.36,95.27 -49.46,21.38 -102.15,32.24 -157.85,32.24 -131.28,0 -240.02,-44.04 -326.71,-131.79 -86.74,-87.82 -130,-197.63 -130,-329.75 0,-61.76 11.11,-120.1 32.41,-175.14 21.72,-55.14 52.69,-103.84 92.88,-145.6 43.93,-46.26 91.7,-80.18 143.72,-102.26 52.08,-22.07 111.46,-33.08 177.82,-33.08 59.96,-0.05 114.7,10.69 164.92,31.54 50.28,21.28 95.85,53.78 137.17,96.81l0 -106.12 158.51 0 0 875.43 -158.51 0z"/>
   <path class="fil0" d="M1966.37 2820.81c-36.61,105.7 -90.68,185.77 -162.82,240.18 -71.63,54.36 -159.03,81.46 -261.99,81.46 -65.13,0 -123.85,-11.44 -176.54,-33.88 -53.1,-22.76 -100.66,-56.32 -143.83,-101.35 -40.45,-42.98 -72.55,-92.94 -95.59,-149.9 -22.79,-57.27 -34.3,-115.17 -34.3,-174.82 0,-60.93 10.54,-118.14 31.43,-171.6 21.05,-53.14 51.76,-101.83 92.26,-145.81 44.91,-48.43 95.18,-85.21 151.25,-109.72 56.06,-25.14 115.87,-37.58 179.97,-37.58 100.09,0 186.37,27.73 260,83.2 73.78,55.2 126.62,133.32 159.8,233.46l-171.78 0c-27.6,-53.35 -62.93,-93.63 -106.25,-119.94 -43.11,-26.56 -94.82,-39.9 -155.24,-39.9 -77.37,-0.11 -143.37,29.27 -197.49,88.17 -54.27,59.07 -81.4,131.74 -81.4,218.12 0,87.54 27.7,160.53 82.54,219.07 54.94,58.21 123.09,87.33 205.16,87.33 54.94,0 104.35,-14.24 148.54,-43.34 44.59,-28.75 79.31,-69.87 104.14,-123.11l172.13 -0.05z"/>
   <polygon class="fil0" points="2175.73,3119.32 2175.73,2387.01 2052.09,2387.01 2052.09,2243.89 2175.73,2243.89 2175.73,1960.57 2331.74,1960.57 2331.74,2243.89 2455.24,2243.89 2455.24,2387.01 2331.74,2387.01 2331.74,3119.32 "/>
   <path class="fil0" d="M2724.09 2141.16l-155.54 0 0 -180.59 155.54 0 0 180.59zm-155.54 978.16l0 -875.43 155.54 0 0 875.43 -155.54 0z"/>
   <polygon class="fil0" points="3270.82,3119.32 3152.5,3119.32 2821.43,2243.89 2990.29,2243.89 3219.06,2883.05 3454.83,2243.89 3620.42,2243.89 "/>
   <path class="fil0" d="M4392.73 2598.35c-19.3,-72.2 -53.3,-128.25 -101.37,-167.52 -47.88,-39.8 -105.22,-59.65 -172.4,-59.65 -68.66,0 -128.31,20.49 -178.74,60.98 -50.13,40.65 -85.15,96.17 -104.3,166.24l556.81 -0.05zm-561.78 141.37c13.27,73.2 46.44,132.9 98.77,177.99 52.69,45.53 115.25,68.02 187.45,68.02 51.81,0 98.71,-12.55 141.52,-37.47 42.55,-24.73 76.39,-60.02 101.89,-105.6l176.39 -0.11c-39.89,96.97 -96.27,171.38 -168.15,222.83 -72.24,51.29 -156.37,77.07 -251.65,77.07 -64.57,0 -123.34,-11.44 -176.9,-34.2 -53.25,-22.65 -101.43,-57.05 -144.9,-102.57 -40.55,-42.88 -72.49,-92.89 -95.59,-150.11 -22.99,-56.9 -34.36,-115.17 -34.36,-174.66 0,-61.66 10.4,-119.19 31.49,-172.81 20.74,-53.45 51.71,-102.3 92.26,-146.3 43.17,-47.9 92.26,-83.68 146.64,-107.86 54.07,-24.24 113.82,-36.15 178.18,-36.15 76.8,0 147.66,17.94 213.67,53.78 65.85,35.83 119.91,85.9 162.87,149.84 25.34,40.07 43.87,83.58 56.32,131.1 12.14,47.48 18.23,101.78 18.23,162.65l0 24.56 -734.12 0z"/>
   <path class="fil0" d="M874.77 3908.27c-36.7,105.81 -90.67,185.62 -162.61,240.13 -71.52,54.52 -158.97,81.46 -262.14,81.46 -65.08,0 -123.91,-11.28 -176.75,-33.98 -52.79,-22.55 -100.61,-56.06 -143.47,-101.42 -40.5,-42.87 -72.44,-92.78 -95.59,-149.73 -22.79,-57.11 -34.21,-115.34 -34.21,-174.72 0,-61.18 10.49,-118.19 31.24,-171.59 20.84,-53.4 51.81,-101.99 92.36,-145.87 44.86,-48.43 95.29,-85.05 151.05,-109.72 56.07,-25.03 116.28,-37.63 179.97,-37.63 100.31,-0.11 186.68,27.89 259.85,83.2 73.67,55.31 126.97,133.43 160.3,233.57l-171.93 -0.05c-27.71,-53.46 -62.92,-93.64 -106.09,-119.94 -43.57,-26.68 -95.34,-40.02 -155.34,-40.02 -77.82,0 -143.72,29.49 -197.73,88.4 -54.12,58.8 -81.16,131.68 -81.16,218 0,87.49 27.65,160.48 82.38,218.97 55,58.33 123.29,87.49 205.12,87.49 55.09,0 104.55,-14.4 148.78,-43.45 44.44,-28.8 79.05,-69.87 104.04,-123.11l171.93 0z"/>
   <path class="fil0" d="M1162.26 3768.37c0,87.49 27.65,160.48 82.69,218.97 55.4,58.33 124.01,87.49 206.39,87.49 81.05,0 148.69,-29.38 203.16,-88.02 55.1,-58.7 82.02,-131.9 82.02,-220.13 0,-88.5 -26.93,-161.8 -82.02,-219.6 -54.48,-58.01 -122.67,-86.75 -204.44,-86.75 -81.72,-0.1 -149.71,29.44 -205.11,88.13 -55.05,58.54 -82.69,132.05 -82.69,219.91zm-162.31 1.64c0,-62.14 10.4,-120.04 31.19,-173.77 20.99,-54.14 51.56,-102.52 92.21,-145.39 43.82,-47.27 93.59,-83.68 148.22,-108.77 55.1,-25.67 111.92,-38.53 171.22,-38.53 63.33,0 122.01,11.49 176.08,34.4 54.27,22.76 103.17,56.42 147.15,100.94 42.7,44.03 75.78,93.63 98.92,148.88 23.04,55.15 34.21,112.11 34.21,171.17 0,59.71 -10.86,118.2 -32,174.88 -21.51,56.8 -51.41,106.54 -90.01,148.94 -44.19,48.8 -94.16,85.8 -149.15,110.99 -55.3,25.35 -114.28,37.8 -176.65,37.8 -63.54,0 -122.62,-11.38 -176.44,-34.46 -54.27,-23.18 -102.2,-57.27 -145.36,-102.63 -40.44,-42.87 -72.44,-92.78 -95.59,-149.73 -22.68,-57.11 -34.35,-115.34 -34,-174.72z"/>
   <path class="fil0" d="M2210.8 4206.89l-156.98 0 0 -875.53 150.63 0 0 99.55c32.66,-39.21 68.66,-68.06 108.23,-86.27 39.17,-18.2 84.34,-27.36 134.82,-27.36 114.33,-0.11 201.78,33.67 263.12,101.09 60.67,67.32 91.4,163.86 91.4,289.67l0 498.85 -157.7 0 0 -464.5c0,-93.05 -17.15,-162.06 -51.35,-206.79 -34.35,-44.94 -87.81,-67.16 -159.64,-67.16 -78.14,-0.16 -134.77,26.47 -170.1,79.07 -34.96,53.03 -52.53,140.05 -52.53,261.68l0.1 397.7z"/>
   <path class="fil0" d="M2944.77 3923.56l147.66 0c0,46.11 12.44,84.21 38.15,114.07 25.81,30.06 57.7,45.14 96.3,45.14 36.76,0 66.66,-11.43 90.12,-33.98 23.7,-22.65 35.17,-51.13 35.17,-86.22 0,-31.07 -8.34,-56.74 -24.93,-77.96 -16.8,-21.38 -43.47,-39.27 -80.49,-54.25 -12.49,-5.13 -30.41,-12.27 -53.76,-20.74 -62.06,-23.35 -101.22,-41.71 -117.97,-55.58 -31.13,-25.09 -54.06,-53.3 -68.96,-84.74 -15.16,-31.65 -22.37,-67.96 -22.37,-109.45 0,-70.98 24.63,-131.43 74.14,-181.54 49.11,-49.76 109.83,-74.74 181.04,-74.74 74.5,0 133.48,21.97 177.32,65.85 44.18,43.67 67.99,105.22 72.35,184.35l-150.43 0c-2.92,-32.49 -13.52,-57.74 -31.7,-75.69 -18.79,-18.36 -43.52,-27.2 -74.6,-27.2 -27.96,0 -51.36,9.8 -69.89,29 -18.94,19.27 -27.96,43.51 -27.96,72.04 0,49.01 41.89,88.76 126.06,120.04 24.02,9.26 42.81,16.31 56.63,21.76 66.56,26.78 114.08,60.55 142.14,100.99 28.36,40.23 42.45,94.21 42.45,161.59 0,78.34 -26.67,143.86 -79.36,195.79 -52.54,51.76 -119.41,77.8 -199.58,77.8 -80.65,0 -146.34,-27.31 -195.75,-81.83 -49.86,-54.84 -76.75,-129.52 -81.77,-224.47z"/>
   <path class="fil0" d="M4383 4206.89l-150.43 0 0 -97.76c-31.59,39.54 -66.25,69.29 -105.17,88.55 -38.86,19.21 -82.44,29.1 -130.51,29.1 -109.88,0 -194.92,-34.34 -255.29,-102.73 -60,-68.49 -90.27,-164.66 -90.27,-288.83l0 -503.87 156.98 0 0 458.35c0,94.74 16.75,165.41 50.03,212.56 33.33,47.21 83.05,70.97 149.76,70.97 41.47,0 78.03,-9.84 110.18,-29.16 32.21,-19.21 57.97,-47 76.8,-82.94 11.53,-22.23 20.12,-49.01 25.09,-79.76 5.27,-30.8 7.43,-80.34 7.43,-148.83l0 -401.19 155.39 0 0 875.53z"/>
   <polygon class="fil0" points="4592.68,4206.89 4592.68,3047.92 4748.33,3047.92 4748.33,4206.89 "/>
   <polygon class="fil0" points="5007.91,4206.89 5007.91,3474.63 4884.11,3474.63 4884.11,3331.36 5007.91,3331.36 5007.91,3047.92 5163.97,3047.92 5163.97,3331.36 5287.52,3331.36 5287.52,3474.63 5163.97,3474.63 5163.97,4206.89 "/>
   <path class="fil0" d="M5538.56 3763.35c0,88.76 29.39,162.92 87.71,222.88 58.16,60.07 129.44,89.98 214.37,89.98 77.01,0 144.8,-30.17 203.89,-90.19 58.63,-60.34 88.32,-130.79 88.32,-211.4 0,-85.74 -29.39,-159.42 -87.4,-220.82 -58.42,-61.12 -127.8,-91.83 -208.29,-91.83 -82.17,0 -152.73,29.11 -210.89,87.44 -58.32,58.48 -87.71,129.83 -87.71,213.93zm586.35 443.54l0 -107.5c-40.14,41.65 -84.99,73.57 -134.25,95.01 -49.46,21.43 -102.15,32.39 -158.16,32.39 -130.92,0 -239.73,-44.14 -326.4,-131.9 -86.74,-87.81 -130,-197.68 -130,-329.79 0,-61.67 10.9,-119.99 32.31,-175.19 21.85,-55.2 52.48,-103.85 92.67,-145.61 44.09,-46.16 92.07,-80.08 143.78,-102.21 52.43,-21.8 111.41,-33.13 178.12,-33.13 59.71,0 114.59,10.69 164.77,31.87 50.29,21.16 95.9,53.56 137.17,96.48l0 -105.95 158.36 0 0 875.53 -158.36 0z"/>
   <path class="fil0" d="M6642.3 4206.89l-157.04 0 0 -875.53 150.73 0 0 99.55c32.67,-39.21 68.46,-68.06 108.19,-86.27 39.22,-18.2 84.43,-27.36 134.82,-27.36 114.43,-0.11 202.09,33.67 262.81,101.09 61.09,67.32 91.6,163.86 91.6,289.67l0 498.85 -157.6 0 0 -464.5c0,-93.05 -16.85,-162.06 -51.52,-206.79 -34.15,-44.94 -87.65,-67.16 -159.48,-67.16 -78.19,-0.16 -134.76,26.47 -169.89,79.07 -35.28,53.03 -52.63,140.05 -52.63,261.68l0 397.7z"/>
   <polygon class="fil0" points="7489.73,4206.89 7489.73,3474.63 7365.97,3474.63 7365.97,3331.36 7489.73,3331.36 7489.73,3047.92 7645.73,3047.92 7645.73,3331.36 7769.34,3331.36 7769.34,3474.63 7645.73,3474.63 7645.73,4206.89 "/>
   <path class="fil0" d="M6357.06 376.53c638.27,0 1156.12,529.39 1156.12,1182.15 0,652.49 -517.84,1181.88 -1156.12,1181.88 -638.37,-0.05 -1156.27,-529.33 -1156.27,-1181.88 0,-652.87 517.9,-1182.04 1156.27,-1182.15z"/>
   <g>
    <path class="fil1" d="M6779.41 2091.46c-206.24,325.98 -418.87,519.97 -637.19,582.42 -128.11,36.58 -246.49,24.19 -354.78,-38.1 -108.84,-61.09 -180.23,-157.31 -215.65,-286.66 -47.93,-175.56 -18.18,-354.14 91.13,-536.53 109.57,-182.56 379.76,-460.58 812,-834.94l-63.34 -231.57c-47.66,-173.86 -86.37,-280.2 -117.96,-320.32 -30.26,-40.27 -76.4,-69.55 -136.56,-88.34 -60.87,-18.95 -122.93,-19.37 -186.88,-1.06 -104.35,29.86 -183.91,78.92 -238.5,145.18 -32.87,41.07 -44.91,81.67 -34.2,121.05 9.52,34.45 44.23,70.71 102.66,109.19 79.97,53.09 129.68,112.21 147.92,177.63 21.76,80.72 10.64,157.08 -31.8,230.76 -43.63,73.15 -112.34,123.54 -206.65,150.58 -101.06,28.8 -194.25,21.17 -279.55,-21.38 -85.04,-42.98 -139.58,-105.96 -161.95,-189.11 -32.71,-118.2 -17.41,-243.95 44.4,-377.49 62.56,-133.43 167.21,-252.2 314.73,-356.78 147.71,-103.96 310.02,-181.12 486.46,-231.46 213.41,-61.09 394.25,-62.98 544.47,-6.4 149.31,57.69 257.03,134.54 323.85,232.35 41.78,62.03 95.85,217.86 163.54,465.45l244.17 892.26c28.52,104.85 51.05,169.95 66.42,194.51 15.72,24.35 32.71,41.29 52.88,50.12 18.89,8.1 39.73,9.37 60.06,3.55 42.03,-12.02 76.29,-54.36 102.96,-127.34l87.92 38.32c-46.14,144.55 -105.12,256.49 -176.59,335.62 -70.04,78.97 -160.57,134.65 -269.78,165.66 -128.15,36.58 -236.49,34.35 -325.78,-6.4 -88.89,-40.38 -158.63,-120.94 -208.39,-240.77zm-48.95 -179.53l-210.59 -769.52c-162,171.8 -272.54,337.52 -330.45,497.1 -38.82,107.01 -45.98,204.83 -21.35,294.76 20.89,75.42 65.27,134.33 134.55,176.94 52.27,33.12 114.17,38.79 186.17,18.2 80.7,-23.18 160.77,-95.69 241.67,-217.48z"/>
    <path id="1" class="fil2" d="M6154.14 2719.39l-23.84 -91.03 -0.02 0.01 18.99 -5.79 18.98 -6.52 19.02 -7.27 19.02 -7.99 19.02 -8.73 19.04 -9.48 19.07 -10.24 19.07 -10.98 19.1 -11.74 19.11 -12.5 19.12 -13.26 19.13 -14.03 19.15 -14.8 19.16 -15.59 19.17 -16.35 19.16 -17.11 19.17 -17.92 19.19 -18.69 19.18 -19.46 19.17 -20.24 19.18 -21.04 19.17 -21.82 19.17 -22.6 19.15 -23.39 19.15 -24.17 19.13 -24.95 19.12 -25.75 19.11 -26.53 19.09 -27.32 19.07 -28.1 19.05 -28.89 19.03 -29.68 75.41 52.03 -19.68 30.67 -19.72 29.91 -19.8 29.16 -19.84 28.38 -19.9 27.65 -19.97 26.87 -20.01 26.11 -20.07 25.35 -20.15 24.59 -20.21 23.84 -20.27 23.06 -20.34 22.32 -20.41 21.56 -20.48 20.78 -20.55 20.02 -20.62 19.26 -20.71 18.51 -20.78 17.72 -20.85 16.95 -20.94 16.2 -21.02 15.41 -21.11 14.63 -21.17 13.86 -21.26 13.08 -21.35 12.29 -21.43 11.5 -21.52 10.72 -21.62 9.91 -21.68 9.11 -21.76 8.31 -21.85 7.5 -21.9 6.68 -0.02 0.01zm-388.09 -42.05l42.78 -83.13 0.41 0.24 9.23 5.16 9.28 4.89 9.31 4.62 9.33 4.35 9.35 4.06 9.44 3.81 9.46 3.55 9.51 3.27 9.55 3.02 9.6 2.75 9.65 2.49 9.68 2.22 9.75 1.97 9.84 1.71 9.85 1.46 9.9 1.19 9.99 0.92 10.05 0.69 10.11 0.4 10.19 0.16 10.23 -0.1 10.32 -0.38 10.42 -0.63 10.48 -0.89 10.53 -1.15 10.62 -1.43 10.7 -1.69 10.79 -1.97 10.85 -2.21 10.92 -2.51 11.03 -2.77 11.09 -3.04 23.84 91.03 -12.86 3.53 -12.83 3.23 -12.81 2.92 -12.78 2.63 -12.72 2.3 -12.69 2.01 -12.67 1.7 -12.62 1.39 -12.57 1.07 -12.52 0.77 -12.5 0.44 -12.47 0.14 -12.39 -0.2 -12.35 -0.5 -12.31 -0.83 -12.23 -1.14 -12.22 -1.47 -12.14 -1.79 -12.06 -2.1 -12.03 -2.42 -11.98 -2.75 -11.89 -3.08 -11.82 -3.38 -11.75 -3.71 -11.67 -4.03 -11.61 -4.34 -11.53 -4.65 -11.48 -4.99 -11.38 -5.29 -11.28 -5.61 -11.21 -5.91 -11.13 -6.23 0.41 0.24zm-237.72 -315.29l86.92 -25.87 -0.01 -0.04 3.15 11.06 3.33 10.85 3.53 10.68 3.71 10.44 3.88 10.22 4.08 10.05 4.25 9.84 4.43 9.63 4.62 9.42 4.81 9.24 4.98 9.05 5.17 8.85 5.34 8.65 5.53 8.45 5.71 8.28 5.9 8.08 6.1 7.92 6.26 7.7 6.47 7.54 6.66 7.38 6.85 7.17 7.04 7 7.25 6.83 7.46 6.68 7.63 6.47 7.87 6.31 8.06 6.15 8.26 5.96 8.49 5.79 8.7 5.63 8.92 5.45 9.14 5.28 -42.78 83.13 -11.04 -6.38 -10.83 -6.61 -10.61 -6.86 -10.4 -7.09 -10.17 -7.34 -9.93 -7.56 -9.72 -7.81 -9.48 -8.05 -9.24 -8.25 -9.02 -8.5 -8.79 -8.73 -8.56 -8.98 -8.29 -9.17 -8.06 -9.39 -7.84 -9.65 -7.57 -9.84 -7.34 -10.05 -7.09 -10.27 -6.86 -10.49 -6.6 -10.7 -6.35 -10.88 -6.12 -11.09 -5.87 -11.29 -5.63 -11.51 -5.39 -11.69 -5.13 -11.87 -4.89 -12.04 -4.67 -12.28 -4.4 -12.45 -4.18 -12.61 -3.94 -12.82 -3.7 -12.99 -0.01 -0.04zm96.3 -574.52l76.58 50.12 0.02 -0.03 -9.54 16.27 -9.08 16.24 -8.63 16.18 -8.15 16.1 -7.7 16.06 -7.25 16 -6.79 15.94 -6.35 15.9 -5.89 15.83 -5.46 15.8 -5.02 15.73 -4.56 15.68 -4.13 15.63 -3.7 15.6 -3.27 15.54 -2.82 15.5 -2.41 15.46 -1.98 15.41 -1.54 15.37 -1.12 15.36 -0.71 15.32 -0.28 15.29 0.14 15.27 0.56 15.26 0.98 15.23 1.41 15.24 1.83 15.22 2.24 15.2 2.67 15.21 3.1 15.23 3.51 15.22 3.95 15.22 -86.92 25.87 -4.58 -17.7 -4.1 -17.76 -3.61 -17.77 -3.14 -17.83 -2.64 -17.86 -2.14 -17.9 -1.64 -17.92 -1.16 -17.95 -0.66 -17.96 -0.18 -17.99 0.33 -18.03 0.83 -18.02 1.32 -18.02 1.82 -18.05 2.31 -18.05 2.8 -18.04 3.29 -18.04 3.8 -18.06 4.27 -18.02 4.76 -18.03 5.25 -18.04 5.74 -18.01 6.21 -17.99 6.7 -18 7.18 -17.97 7.65 -17.97 8.13 -17.95 8.61 -17.95 9.08 -17.93 9.55 -17.91 10.02 -17.91 10.48 -17.9 0.02 -0.03zm806.84 -796.92l86.9 -25.93 -14.6 49.28 -39.92 34.7 -38.96 34.14 -38.01 33.56 -37.07 33 -36.09 32.42 -35.14 31.87 -34.21 31.28 -33.23 30.71 -32.28 30.13 -31.32 29.56 -30.38 29 -29.42 28.41 -28.46 27.84 -27.51 27.27 -26.54 26.69 -25.59 26.11 -24.64 25.53 -23.66 24.95 -22.71 24.38 -21.76 23.79 -20.78 23.18 -19.83 22.62 -18.87 22.02 -17.9 21.41 -16.93 20.81 -15.96 20.21 -15 19.6 -14.02 18.97 -13.05 18.34 -12.08 17.71 -11.09 17.04 -10.13 16.4 -76.58 -50.12 11.35 -18.39 12.27 -18.85 13.18 -19.33 14.09 -19.8 14.99 -20.29 15.9 -20.78 16.83 -21.31 17.75 -21.81 18.67 -22.34 19.58 -22.85 20.5 -23.39 21.45 -23.93 22.35 -24.44 23.28 -24.99 24.23 -25.54 25.15 -26.06 26.08 -26.62 27.02 -27.16 27.94 -27.71 28.9 -28.28 29.83 -28.81 30.75 -29.36 31.7 -29.92 32.63 -30.47 33.59 -31.03 34.52 -31.57 35.46 -32.14 36.41 -32.69 37.34 -33.25 38.29 -33.81 39.23 -34.35 40.18 -34.93 -14.6 49.28zm23.56 -257.49l63.34 231.57 -86.9 25.93 -63.34 -231.57 86.89 -25.94 0.01 0.02zm-196.97 -278.22l71.11 -58.26 -0.65 -0.84 4.12 5.47 3.98 5.7 3.87 5.97 3.82 6.27 3.73 6.52 3.68 6.78 3.68 7.15 3.67 7.45 3.66 7.77 3.66 8.09 3.68 8.43 3.69 8.79 3.73 9.15 3.74 9.49 3.76 9.84 3.8 10.2 3.83 10.56 3.87 10.94 3.91 11.33 3.92 11.66 3.99 12.04 4.02 12.45 4.07 12.82 4.1 13.16 4.16 13.56 4.2 13.97 4.24 14.33 4.29 14.69 4.34 15.11 4.4 15.49 4.43 15.86 4.48 16.26 -86.88 25.96 -4.41 -15.94 -4.35 -15.55 -4.28 -15.14 -4.24 -14.73 -4.19 -14.34 -4.12 -13.94 -4.06 -13.49 -4.02 -13.11 -3.96 -12.73 -3.89 -12.3 -3.85 -11.86 -3.8 -11.49 -3.75 -11.09 -3.66 -10.62 -3.62 -10.23 -3.57 -9.84 -3.5 -9.41 -3.44 -8.99 -3.36 -8.55 -3.29 -8.12 -3.24 -7.67 -3.17 -7.27 -3.09 -6.84 -2.99 -6.35 -2.9 -5.9 -2.81 -5.44 -2.71 -5.01 -2.57 -4.51 -2.4 -3.95 -2.27 -3.49 -2.08 -2.99 -1.84 -2.44 -0.65 -0.84zm-113.92 -72.25l25.83 -90.44 0.03 0.01 6.21 1.99 6.1 2.06 6.04 2.11 6.04 2.23 5.88 2.29 5.79 2.34 5.79 2.46 5.68 2.52 5.63 2.62 5.52 2.68 5.47 2.77 5.4 2.86 5.26 2.91 5.23 3.02 5.16 3.12 5.07 3.19 4.99 3.28 4.89 3.35 4.82 3.46 4.74 3.55 4.64 3.63 4.55 3.73 4.47 3.82 4.39 3.92 4.27 3.99 4.17 4.07 4.09 4.19 4 4.29 3.87 4.35 3.76 4.43 3.71 4.56 3.56 4.63 -71.11 58.26 -2.2 -2.86 -2.25 -2.79 -2.38 -2.79 -2.45 -2.75 -2.51 -2.69 -2.6 -2.66 -2.69 -2.64 -2.77 -2.6 -2.85 -2.55 -2.95 -2.52 -3.04 -2.49 -3.13 -2.45 -3.21 -2.41 -3.3 -2.36 -3.41 -2.35 -3.47 -2.28 -3.59 -2.26 -3.67 -2.21 -3.78 -2.17 -3.9 -2.16 -3.94 -2.09 -4.05 -2.05 -4.16 -2.03 -4.25 -1.97 -4.33 -1.93 -4.42 -1.87 -4.57 -1.85 -4.64 -1.8 -4.66 -1.72 -4.84 -1.7 -4.94 -1.66 -4.99 -1.59 0.03 0.01zm-162.02 -0.78l-23.88 -91.01 -0.01 0 6.68 -1.85 6.71 -1.75 6.68 -1.6 6.67 -1.49 6.69 -1.38 6.67 -1.26 6.71 -1.13 6.71 -1.01 6.67 -0.89 6.64 -0.76 6.69 -0.65 6.66 -0.51 6.67 -0.4 6.69 -0.28 6.64 -0.14 6.65 -0.03 6.64 0.11 6.66 0.23 6.61 0.35 6.58 0.47 6.64 0.59 6.62 0.74 6.55 0.85 6.56 0.96 6.59 1.1 6.54 1.21 6.53 1.35 6.51 1.47 6.5 1.57 6.49 1.71 6.45 1.82 6.47 1.95 -25.83 90.44 -4.96 -1.49 -4.98 -1.41 -4.96 -1.3 -4.97 -1.22 -4.96 -1.11 -4.98 -1.01 -4.97 -0.93 -4.94 -0.83 -4.97 -0.73 -5.02 -0.65 -4.95 -0.54 -4.95 -0.45 -5.05 -0.35 -5 -0.28 -4.99 -0.17 -5.03 -0.07 -5.04 0.01 -5.05 0.12 -5.04 0.2 -5.07 0.3 -5.08 0.39 -5.07 0.49 -5.16 0.6 -5.13 0.67 -5.13 0.78 -5.13 0.88 -5.21 0.98 -5.21 1.06 -5.23 1.18 -5.26 1.27 -5.25 1.36 -5.3 1.48 -0.01 0zm-215.76 129.93l-69.36 -60.51 0.41 -0.51 5.85 -6.94 6.01 -6.84 6.18 -6.71 6.33 -6.59 6.48 -6.44 6.62 -6.32 6.78 -6.2 6.93 -6.09 7.11 -5.97 7.23 -5.82 7.39 -5.7 7.53 -5.57 7.68 -5.45 7.84 -5.33 7.99 -5.19 8.09 -5.05 8.25 -4.94 8.4 -4.81 8.53 -4.67 8.7 -4.57 8.82 -4.42 8.92 -4.29 9.12 -4.18 9.24 -4.03 9.37 -3.92 9.52 -3.8 9.65 -3.67 9.77 -3.52 9.91 -3.42 10.07 -3.28 10.19 -3.17 10.33 -3.03 23.88 91.01 -9.09 2.68 -8.95 2.77 -8.77 2.87 -8.64 2.97 -8.49 3.07 -8.31 3.16 -8.16 3.25 -8.02 3.35 -7.86 3.44 -7.68 3.53 -7.58 3.64 -7.41 3.71 -7.23 3.79 -7.11 3.9 -6.94 3.96 -6.8 4.07 -6.68 4.16 -6.49 4.23 -6.34 4.31 -6.21 4.41 -6.06 4.48 -5.91 4.56 -5.79 4.66 -5.62 4.71 -5.48 4.81 -5.36 4.9 -5.22 4.99 -5.08 5.07 -4.92 5.11 -4.8 5.21 -4.65 5.28 -4.53 5.39 0.41 -0.51zm-25.45 77.72l-86.84 26.16 -0.05 -0.19 -1.35 -5.33 -1.16 -5.35 -0.98 -5.4 -0.78 -5.38 -0.61 -5.46 -0.4 -5.47 -0.22 -5.49 -0.01 -5.48 0.17 -5.43 0.35 -5.42 0.54 -5.4 0.73 -5.44 0.91 -5.42 1.06 -5.25 1.24 -5.3 1.45 -5.32 1.56 -5.15 1.73 -5.18 1.9 -5.12 2.01 -5.01 2.19 -5.07 2.33 -4.98 2.47 -4.96 2.6 -4.88 2.7 -4.79 2.86 -4.81 2.98 -4.75 3.1 -4.7 3.22 -4.67 3.35 -4.64 3.48 -4.61 3.56 -4.53 69.36 60.51 -2.48 3.16 -2.32 3.08 -2.19 3.05 -2.09 3.02 -1.96 2.97 -1.82 2.9 -1.7 2.86 -1.6 2.86 -1.48 2.75 -1.35 2.69 -1.23 2.64 -1.11 2.56 -1.04 2.61 -0.91 2.47 -0.81 2.41 -0.74 2.42 -0.6 2.25 -0.53 2.27 -0.47 2.3 -0.36 2.11 -0.28 2.09 -0.21 2.11 -0.14 2.09 -0.07 2.07 0.01 2 0.08 1.99 0.15 1.99 0.22 2 0.3 2.06 0.35 2.02 0.45 2.05 0.52 2.07 -0.05 -0.19zm83.48 82.45l-48.49 79.64 0.14 0.09 -5.78 -3.86 -5.67 -3.86 -5.54 -3.87 -5.41 -3.86 -5.3 -3.87 -5.16 -3.88 -5.03 -3.87 -4.94 -3.91 -4.81 -3.93 -4.64 -3.9 -4.54 -3.94 -4.46 -3.99 -4.3 -3.98 -4.17 -4.01 -4.03 -4.03 -3.94 -4.08 -3.84 -4.15 -3.69 -4.16 -3.53 -4.18 -3.43 -4.25 -3.29 -4.31 -3.17 -4.37 -3.05 -4.46 -2.86 -4.45 -2.77 -4.59 -2.6 -4.66 -2.43 -4.69 -2.28 -4.83 -2.09 -4.83 -1.94 -4.99 -1.76 -5.13 -1.52 -5.11 86.84 -26.16 0.4 1.36 0.46 1.36 0.6 1.52 0.73 1.7 0.83 1.74 0.97 1.88 1.08 1.95 1.22 2.02 1.41 2.2 1.51 2.21 1.69 2.32 1.86 2.42 2 2.48 2.19 2.59 2.31 2.63 2.46 2.66 2.65 2.74 2.83 2.81 2.99 2.87 3.14 2.92 3.26 2.93 3.48 3 3.64 3.08 3.77 3.07 3.91 3.11 4.12 3.17 4.24 3.2 4.4 3.21 4.58 3.28 4.71 3.28 4.87 3.32 5.04 3.34 0.14 0.09zm-0.14 -0.09l0.14 0.09 0.39 0.27 -0.53 -0.35zm167.31 204.76l-87 25.57 0.11 0.4 -1.4 -4.75 -1.53 -4.71 -1.71 -4.74 -1.85 -4.72 -1.99 -4.68 -2.17 -4.74 -2.32 -4.71 -2.49 -4.71 -2.65 -4.72 -2.81 -4.71 -3 -4.73 -3.17 -4.75 -3.32 -4.72 -3.51 -4.74 -3.69 -4.75 -3.87 -4.73 -4.05 -4.74 -4.24 -4.75 -4.43 -4.75 -4.62 -4.76 -4.78 -4.74 -4.97 -4.72 -5.18 -4.74 -5.35 -4.73 -5.55 -4.71 -5.76 -4.74 -5.91 -4.69 -6.11 -4.68 -6.29 -4.67 -6.49 -4.66 -6.7 -4.65 -6.86 -4.63 48.49 -79.64 7.95 5.36 7.76 5.4 7.63 5.47 7.45 5.54 7.29 5.59 7.11 5.66 6.92 5.68 6.79 5.77 6.61 5.83 6.42 5.88 6.28 5.98 6.1 6.04 5.9 6.08 5.74 6.17 5.58 6.25 5.39 6.31 5.22 6.4 5.03 6.46 4.85 6.53 4.66 6.63 4.47 6.68 4.28 6.78 4.09 6.86 3.88 6.92 3.69 6.99 3.48 7.09 3.28 7.12 3.09 7.24 2.85 7.3 2.64 7.34 2.44 7.45 2.2 7.48 0.11 0.4zm-36.94 268.49l-76.71 -49.88 -0.36 0.62 3.39 -6.04 3.21 -6.01 3.05 -6.02 2.87 -5.99 2.68 -5.94 2.54 -5.99 2.37 -5.97 2.17 -5.9 2.02 -5.92 1.87 -5.94 1.7 -5.92 1.53 -5.91 1.39 -5.92 1.22 -5.91 1.06 -5.92 0.91 -5.94 0.75 -5.92 0.59 -5.96 0.45 -5.98 0.28 -5.97 0.13 -5.99 -0.03 -6.07 -0.18 -6.09 -0.34 -6.1 -0.5 -6.13 -0.66 -6.18 -0.83 -6.22 -0.98 -6.26 -1.16 -6.33 -1.32 -6.36 -1.49 -6.38 -1.67 -6.47 87 -25.57 2.22 8.64 2.02 8.68 1.79 8.64 1.57 8.62 1.38 8.64 1.14 8.65 0.93 8.64 0.7 8.64 0.48 8.64 0.26 8.59 0.05 8.57 -0.19 8.59 -0.41 8.59 -0.63 8.52 -0.85 8.5 -1.08 8.5 -1.29 8.44 -1.51 8.42 -1.73 8.37 -1.94 8.34 -2.16 8.31 -2.37 8.26 -2.58 8.2 -2.78 8.18 -3.02 8.16 -3.2 8.05 -3.38 8.02 -3.62 8.03 -3.82 7.94 -3.97 7.87 -4.21 7.86 -4.38 7.79 -0.36 0.62zm-233.11 171.16l-23.8 -91.03 -0.07 0.02 7.98 -2.38 7.82 -2.48 7.63 -2.59 7.46 -2.71 7.33 -2.82 7.16 -2.94 7 -3.04 6.86 -3.17 6.67 -3.25 6.52 -3.37 6.39 -3.48 6.21 -3.57 6.08 -3.7 5.93 -3.8 5.75 -3.87 5.63 -4.01 5.49 -4.1 5.34 -4.21 5.2 -4.33 5.07 -4.42 4.94 -4.54 4.81 -4.64 4.65 -4.73 4.52 -4.85 4.4 -4.97 4.32 -5.11 4.16 -5.19 4.01 -5.28 3.9 -5.43 3.82 -5.59 3.68 -5.66 3.55 -5.79 76.71 49.88 -4.77 7.8 -4.96 7.63 -5.09 7.47 -5.3 7.36 -5.49 7.23 -5.66 7.04 -5.77 6.86 -5.99 6.76 -6.16 6.58 -6.32 6.44 -6.48 6.26 -6.63 6.1 -6.82 5.95 -6.95 5.76 -7.13 5.63 -7.26 5.44 -7.44 5.29 -7.6 5.13 -7.72 4.94 -7.87 4.78 -8.04 4.63 -8.16 4.45 -8.31 4.3 -8.48 4.13 -8.59 3.95 -8.73 3.81 -8.87 3.63 -9.02 3.49 -9.16 3.3 -9.3 3.18 -9.43 2.99 -9.55 2.83 -0.07 0.02zm-311.14 -24.43l39.38 -84.94 -0.21 -0.11 7.1 3.44 7.14 3.27 7.15 3.06 7.21 2.89 7.2 2.69 7.25 2.51 7.32 2.34 7.33 2.14 7.34 1.97 7.41 1.78 7.44 1.6 7.48 1.42 7.53 1.24 7.56 1.05 7.63 0.88 7.65 0.7 7.7 0.5 7.79 0.31 7.84 0.14 7.86 -0.04 7.94 -0.24 7.99 -0.42 8.05 -0.61 8.1 -0.8 8.17 -0.99 8.26 -1.19 8.3 -1.38 8.34 -1.56 8.43 -1.77 8.5 -1.97 8.54 -2.15 8.63 -2.37 23.8 91.03 -10.28 2.82 -10.27 2.61 -10.23 2.36 -10.2 2.14 -10.19 1.92 -10.15 1.67 -10.09 1.45 -10.08 1.23 -10.05 0.99 -10.02 0.77 -9.99 0.52 -9.96 0.3 -9.92 0.06 -9.86 -0.18 -9.84 -0.41 -9.81 -0.64 -9.78 -0.88 -9.7 -1.11 -9.69 -1.35 -9.62 -1.59 -9.57 -1.81 -9.52 -2.06 -9.47 -2.27 -9.44 -2.52 -9.35 -2.75 -9.28 -2.97 -9.25 -3.2 -9.21 -3.44 -9.12 -3.66 -9.06 -3.88 -9.01 -4.11 -8.93 -4.33 -0.21 -0.11zm-185.68 -218.48l86.82 -26.2 0.09 0.33 1.84 6.49 2 6.37 2.13 6.26 2.29 6.13 2.44 6.03 2.58 5.87 2.74 5.81 2.89 5.71 3.05 5.61 3.2 5.51 3.33 5.39 3.5 5.31 3.66 5.21 3.85 5.16 3.97 5.06 4.14 4.95 4.33 4.91 4.47 4.8 4.67 4.73 4.84 4.66 5.01 4.56 5.16 4.47 5.37 4.41 5.56 4.34 5.72 4.24 5.92 4.17 6.12 4.09 6.27 3.99 6.49 3.92 6.68 3.84 6.85 3.74 7.07 3.67 -39.38 84.94 -8.7 -4.51 -8.56 -4.66 -8.37 -4.82 -8.2 -4.95 -8.05 -5.11 -7.87 -5.27 -7.69 -5.41 -7.51 -5.58 -7.33 -5.71 -7.16 -5.88 -6.99 -6.05 -6.78 -6.2 -6.59 -6.33 -6.4 -6.5 -6.23 -6.67 -6 -6.8 -5.83 -6.97 -5.61 -7.12 -5.4 -7.25 -5.19 -7.42 -5 -7.57 -4.77 -7.71 -4.55 -7.85 -4.33 -7.99 -4.11 -8.09 -3.9 -8.25 -3.68 -8.41 -3.44 -8.51 -3.22 -8.63 -3 -8.75 -2.76 -8.85 -2.55 -8.99 0.09 0.33zm47.22 -411.34l81.18 41.5 0.1 -0.22 -5.32 11.76 -5.07 11.7 -4.79 11.62 -4.52 11.55 -4.25 11.48 -3.99 11.41 -3.73 11.34 -3.46 11.26 -3.21 11.2 -2.93 11.12 -2.68 11.08 -2.42 10.96 -2.15 10.93 -1.91 10.85 -1.65 10.79 -1.4 10.73 -1.14 10.64 -0.89 10.59 -0.64 10.52 -0.38 10.47 -0.14 10.43 0.11 10.33 0.37 10.33 0.61 10.25 0.87 10.21 1.11 10.18 1.36 10.11 1.61 10.08 1.86 10.02 2.12 10.02 2.35 9.96 2.63 9.93 -86.82 26.2 -3.24 -12.27 -2.92 -12.32 -2.62 -12.36 -2.31 -12.46 -1.99 -12.48 -1.69 -12.53 -1.37 -12.56 -1.08 -12.63 -0.75 -12.67 -0.45 -12.69 -0.15 -12.77 0.18 -12.77 0.46 -12.8 0.78 -12.84 1.08 -12.85 1.38 -12.9 1.69 -12.91 1.97 -12.93 2.28 -12.95 2.57 -12.99 2.87 -13.02 3.16 -13.01 3.44 -13.05 3.74 -13.07 4.01 -13.09 4.32 -13.11 4.58 -13.12 4.88 -13.15 5.15 -13.18 5.44 -13.19 5.71 -13.2 5.99 -13.24 0.1 -0.22zm330.06 -375.16l50.51 78.25 0.13 -0.09 -13.23 9.51 -12.99 9.59 -12.74 9.66 -12.46 9.72 -12.22 9.79 -11.95 9.86 -11.71 9.92 -11.46 10.01 -11.21 10.07 -10.95 10.13 -10.69 10.2 -10.45 10.28 -10.21 10.34 -9.93 10.41 -9.71 10.48 -9.46 10.54 -9.2 10.61 -8.95 10.66 -8.7 10.75 -8.48 10.82 -8.23 10.89 -7.97 10.95 -7.75 11.03 -7.48 11.07 -7.26 11.15 -7.02 11.23 -6.78 11.28 -6.53 11.36 -6.3 11.45 -6.07 11.52 -5.83 11.58 -5.6 11.65 -81.18 -41.5 6.38 -13.29 6.64 -13.17 6.89 -13.07 7.15 -12.98 7.42 -12.89 7.68 -12.8 7.93 -12.67 8.16 -12.57 8.45 -12.49 8.69 -12.38 8.95 -12.26 9.2 -12.17 9.44 -12.08 9.71 -11.97 9.95 -11.88 10.22 -11.75 10.44 -11.66 10.71 -11.57 10.96 -11.47 11.21 -11.36 11.44 -11.26 11.71 -11.16 11.95 -11.05 12.2 -10.96 12.44 -10.86 12.68 -10.77 12.95 -10.67 13.19 -10.57 13.42 -10.46 13.68 -10.37 13.92 -10.28 14.17 -10.18 0.13 -0.09zm-0.13 0.09l-0.29 0.2 0.41 -0.29 -0.13 0.09zm499.89 -237.93l23.9 91.01 -0.04 0.01 -16.07 4.67 -16 4.84 -15.91 4.97 -15.8 5.13 -15.74 5.28 -15.67 5.44 -15.58 5.59 -15.48 5.73 -15.41 5.9 -15.32 6.04 -15.24 6.2 -15.16 6.34 -15.06 6.5 -15 6.66 -14.92 6.81 -14.81 6.94 -14.74 7.11 -14.65 7.26 -14.59 7.42 -14.5 7.56 -14.39 7.71 -14.34 7.88 -14.26 8.03 -14.13 8.16 -14.09 8.34 -14.01 8.48 -13.9 8.64 -13.84 8.78 -13.76 8.94 -13.66 9.09 -13.58 9.24 -13.5 9.39 -50.51 -78.25 14.27 -9.94 14.37 -9.78 14.47 -9.62 14.55 -9.45 14.62 -9.29 14.72 -9.13 14.81 -8.97 14.88 -8.81 15 -8.65 15.07 -8.48 15.15 -8.33 15.25 -8.16 15.32 -8 15.41 -7.85 15.5 -7.67 15.59 -7.52 15.68 -7.36 15.75 -7.18 15.82 -7.03 15.94 -6.87 16.02 -6.7 16.09 -6.55 16.17 -6.37 16.26 -6.22 16.37 -6.07 16.42 -5.88 16.49 -5.73 16.6 -5.58 16.69 -5.41 16.76 -5.24 16.83 -5.07 16.94 -4.93 -0.04 0.01zm572.1 -5.14l-31.37 88.5 0.35 0.14 -13.13 -4.75 -13.29 -4.45 -13.5 -4.12 -13.66 -3.83 -13.84 -3.48 -14.05 -3.19 -14.26 -2.87 -14.41 -2.56 -14.62 -2.22 -14.82 -1.93 -15.03 -1.59 -15.21 -1.28 -15.4 -0.95 -15.62 -0.62 -15.84 -0.3 -16.02 0.01 -16.22 0.35 -16.43 0.68 -16.65 1 -16.84 1.34 -17.06 1.67 -17.24 2.01 -17.48 2.34 -17.68 2.67 -17.86 3.01 -18.1 3.35 -18.3 3.69 -18.51 4.02 -18.71 4.38 -18.93 4.7 -19.12 5.05 -19.34 5.4 -23.9 -91.01 20.5 -5.71 20.32 -5.36 20.13 -5.02 19.97 -4.65 19.81 -4.32 19.62 -3.94 19.45 -3.61 19.3 -3.25 19.12 -2.9 18.95 -2.54 18.79 -2.18 18.62 -1.81 18.45 -1.48 18.28 -1.1 18.13 -0.76 17.95 -0.37 17.79 -0.03 17.61 0.34 17.45 0.7 17.31 1.07 17.12 1.44 16.96 1.81 16.77 2.16 16.63 2.54 16.45 2.91 16.27 3.28 16.1 3.64 15.94 4.03 15.77 4.4 15.57 4.77 15.41 5.13 15.21 5.52 0.35 0.14zm345.12 249.46l-73.92 54.29 0.17 0.26 -5.72 -8.17 -5.97 -8.09 -6.19 -7.99 -6.41 -7.9 -6.66 -7.8 -6.87 -7.72 -7.1 -7.6 -7.35 -7.52 -7.59 -7.44 -7.84 -7.36 -8.05 -7.25 -8.31 -7.15 -8.55 -7.06 -8.8 -6.97 -9.06 -6.89 -9.29 -6.8 -9.54 -6.71 -9.79 -6.61 -10.04 -6.51 -10.3 -6.42 -10.55 -6.32 -10.78 -6.23 -11.06 -6.14 -11.31 -6.04 -11.57 -5.96 -11.8 -5.84 -12.07 -5.74 -12.31 -5.66 -12.58 -5.55 -12.82 -5.45 -13.1 -5.36 -13.35 -5.26 31.37 -88.5 14.41 5.67 14.16 5.79 13.95 5.92 13.72 6.06 13.49 6.19 13.25 6.31 13.02 6.45 12.79 6.57 12.55 6.71 12.32 6.85 12.1 6.97 11.87 7.13 11.62 7.25 11.4 7.4 11.16 7.53 10.94 7.67 10.69 7.82 10.45 7.96 10.22 8.09 10 8.26 9.75 8.41 9.51 8.55 9.25 8.69 9.03 8.83 8.78 9 8.54 9.14 8.29 9.29 8.04 9.43 7.79 9.59 7.54 9.74 7.29 9.88 7.04 10.04 0.17 0.26zm170.03 479.63l-86.9 25.93 0 -0.01 -6.27 -22.82 -6.19 -22.27 -6.11 -21.72 -6.02 -21.18 -5.94 -20.62 -5.86 -20.07 -5.78 -19.54 -5.7 -18.98 -5.62 -18.44 -5.53 -17.86 -5.45 -17.32 -5.37 -16.77 -5.28 -16.2 -5.2 -15.66 -5.11 -15.08 -5.04 -14.54 -4.94 -13.95 -4.87 -13.39 -4.76 -12.82 -4.68 -12.23 -4.59 -11.67 -4.48 -11.07 -4.38 -10.48 -4.3 -9.9 -4.17 -9.28 -4.06 -8.67 -3.95 -8.08 -3.81 -7.44 -3.66 -6.8 -3.51 -6.14 -3.31 -5.48 -3.1 -4.78 73.92 -54.29 4.81 7.4 4.73 7.8 4.69 8.24 4.68 8.68 4.67 9.13 4.68 9.58 4.73 10.09 4.74 10.56 4.79 11.04 4.85 11.57 4.88 12.06 4.93 12.54 5 13.08 5.06 13.57 5.12 14.11 5.17 14.61 5.25 15.15 5.31 15.67 5.38 16.19 5.46 16.73 5.51 17.22 5.61 17.77 5.66 18.31 5.73 18.83 5.8 19.36 5.88 19.88 5.96 20.41 6.04 20.96 6.12 21.48 6.19 22.01 6.26 22.54 6.33 23.07 0 -0.01zm157.27 918.19l-244.17 -892.26 86.9 -25.93 244.17 892.26 0.02 0.07 -86.92 25.86zm86.9 -25.93l0.02 0.07 0.14 0.51 -0.16 -0.58zm60.44 181.1l-74.94 52.74 -0.36 -0.56 -2.22 -3.68 -2.14 -3.81 -2.01 -3.77 -2.04 -4 -2.02 -4.18 -1.99 -4.3 -1.98 -4.46 -1.98 -4.59 -2.01 -4.86 -2.02 -5.03 -2.04 -5.21 -2.05 -5.39 -2.09 -5.63 -2.11 -5.86 -2.14 -6.04 -2.16 -6.26 -2.2 -6.5 -2.22 -6.69 -2.25 -6.88 -2.3 -7.14 -2.32 -7.39 -2.36 -7.56 -2.38 -7.79 -2.42 -8.02 -2.47 -8.27 -2.49 -8.49 -2.53 -8.71 -2.55 -8.92 -2.61 -9.16 -2.62 -9.39 -2.66 -9.6 -2.69 -9.85 86.94 -25.79 2.62 9.58 2.6 9.36 2.54 9.1 2.51 8.86 2.47 8.64 2.43 8.38 2.39 8.13 2.35 7.9 2.32 7.66 2.28 7.44 2.22 7.19 2.18 6.89 2.14 6.67 2.11 6.47 2.05 6.18 2.01 5.91 1.97 5.67 1.91 5.41 1.86 5.13 1.82 4.9 1.77 4.66 1.7 4.37 1.64 4.08 1.57 3.78 1.52 3.55 1.43 3.24 1.36 2.92 1.23 2.57 1.15 2.25 1.08 2.04 0.85 1.5 0.71 1.16 -0.36 -0.56zm-74.94 52.74l-0.36 -0.56 -0.07 -0.11 0.43 0.67zm107.53 -19.9l-34.34 87.3 -0.3 -0.14 -2.86 -1.3 -2.8 -1.34 -2.84 -1.47 -2.77 -1.5 -2.73 -1.57 -2.63 -1.59 -2.65 -1.68 -2.68 -1.79 -2.51 -1.77 -2.49 -1.83 -2.51 -1.93 -2.42 -1.95 -2.38 -2 -2.4 -2.09 -2.29 -2.09 -2.22 -2.09 -2.24 -2.18 -2.2 -2.23 -2.17 -2.28 -2.13 -2.31 -2.06 -2.32 -2 -2.3 -2.06 -2.45 -2.01 -2.48 -1.96 -2.47 -1.92 -2.52 -1.9 -2.55 -1.87 -2.59 -1.81 -2.58 -1.81 -2.62 -1.8 -2.69 -1.77 -2.71 74.94 -52.74 1.18 1.81 1.17 1.73 1.18 1.73 1.2 1.69 1.14 1.58 1.15 1.54 1.13 1.48 1.13 1.45 1.08 1.34 1.07 1.27 1.15 1.34 1.11 1.24 1.05 1.15 1.03 1.08 1.04 1.05 1.02 1 1.06 0.99 1.01 0.92 0.94 0.83 1 0.84 0.98 0.79 0.91 0.71 0.97 0.71 0.97 0.69 0.85 0.57 0.91 0.58 0.97 0.59 0.89 0.51 0.89 0.48 0.84 0.42 0.93 0.45 0.89 0.41 -0.3 -0.14zm30.96 1.69l23.86 91.01 0.02 0 -2.72 0.75 -2.75 0.71 -2.95 0.68 -2.74 0.57 -2.78 0.52 -2.87 0.47 -2.77 0.4 -2.79 0.34 -2.78 0.29 -2.9 0.24 -2.92 0.17 -2.79 0.1 -2.79 0.05 -2.8 -0.02 -2.91 -0.08 -2.79 -0.14 -2.79 -0.2 -2.9 -0.27 -2.79 -0.31 -2.78 -0.38 -2.77 -0.44 -2.75 -0.49 -2.88 -0.58 -2.73 -0.62 -2.75 -0.68 -2.83 -0.78 -2.68 -0.79 -2.7 -0.87 -2.68 -0.92 -2.7 -0.98 -2.65 -1.04 -2.67 -1.1 34.34 -87.3 0.89 0.37 0.91 0.35 0.89 0.33 0.93 0.31 0.93 0.3 0.97 0.3 0.83 0.23 0.94 0.23 0.96 0.23 0.84 0.17 0.98 0.18 0.96 0.15 0.97 0.13 0.98 0.12 0.88 0.09 1 0.06 1 0.06 0.89 0.02 1.01 0 1.02 -0.01 1.02 -0.04 0.91 -0.05 0.91 -0.08 1.05 -0.11 1.04 -0.13 1.04 -0.15 0.96 -0.16 1.05 -0.21 1.07 -0.22 0.89 -0.21 1.06 -0.28 1.09 -0.3 0.02 0zm132.3 -125.38l-34.82 87.08 59.63 -26.72 -2.78 7.44 -2.82 7.22 -2.89 7.1 -2.98 6.97 -3.04 6.79 -3.11 6.64 -3.2 6.49 -3.27 6.32 -3.35 6.2 -3.42 6.02 -3.51 5.87 -3.61 5.73 -3.72 5.6 -3.82 5.43 -3.89 5.24 -4 5.1 -4.12 4.95 -4.22 4.77 -4.34 4.59 -4.47 4.45 -4.59 4.27 -4.69 4.05 -4.82 3.87 -5 3.71 -5.07 3.45 -5.15 3.23 -5.31 3.03 -5.43 2.8 -5.51 2.55 -5.66 2.32 -5.69 2.05 -5.77 1.79 -23.86 -91.01 2.06 -0.65 2.06 -0.73 2 -0.83 2.07 -0.95 2.05 -1.05 2.07 -1.18 2.12 -1.34 2.15 -1.47 2.1 -1.56 2.2 -1.77 2.23 -1.93 2.25 -2.09 2.27 -2.26 2.31 -2.47 2.35 -2.65 2.35 -2.82 2.39 -3.04 2.4 -3.24 2.4 -3.42 2.4 -3.61 2.41 -3.83 2.43 -4.06 2.42 -4.25 2.41 -4.45 2.4 -4.67 2.39 -4.86 2.38 -5.08 2.37 -5.27 2.33 -5.46 2.32 -5.68 2.31 -5.92 2.27 -6.08 59.63 -26.72zm53.1 125.4l-87.92 -38.32 34.82 -87.08 87.92 38.32 25.46 58.46 -60.28 28.62zm-126.03 324.14l-66.31 -64.12 0.28 -0.31 6.11 -6.88 6.05 -7.06 6 -7.29 5.95 -7.46 5.88 -7.65 5.84 -7.86 5.78 -8.05 5.72 -8.25 5.66 -8.44 5.63 -8.64 5.55 -8.84 5.5 -9.04 5.44 -9.24 5.38 -9.43 5.32 -9.66 5.27 -9.83 5.18 -10.03 5.14 -10.25 5.08 -10.44 5.01 -10.61 4.95 -10.84 4.89 -11.03 4.82 -11.23 4.75 -11.44 4.7 -11.64 4.63 -11.84 4.56 -12.02 4.48 -12.22 4.43 -12.44 4.37 -12.63 4.29 -12.83 4.23 -13.03 85.74 29.84 -4.5 13.88 -4.58 13.7 -4.66 13.51 -4.74 13.33 -4.84 13.16 -4.92 12.98 -5.01 12.79 -5.07 12.59 -5.16 12.4 -5.25 12.25 -5.34 12.04 -5.42 11.88 -5.52 11.69 -5.6 11.51 -5.67 11.29 -5.77 11.15 -5.86 10.95 -5.93 10.76 -6.05 10.59 -6.11 10.4 -6.23 10.22 -6.29 10.02 -6.39 9.84 -6.47 9.66 -6.59 9.47 -6.65 9.27 -6.77 9.1 -6.85 8.91 -6.95 8.72 -7.02 8.51 -7.13 8.36 -7.23 8.14 0.28 -0.31zm-291.03 179.12l-23.82 -91.03 0.05 -0.02 9.52 -2.77 9.39 -2.92 9.29 -3.05 9.18 -3.18 9.06 -3.3 8.92 -3.42 8.82 -3.56 8.71 -3.7 8.61 -3.82 8.5 -3.95 8.38 -4.06 8.25 -4.2 8.13 -4.32 8.04 -4.45 7.91 -4.57 7.82 -4.71 7.71 -4.83 7.57 -4.94 7.47 -5.08 7.37 -5.19 7.24 -5.32 7.16 -5.46 7.04 -5.57 6.9 -5.69 6.82 -5.82 6.72 -5.96 6.6 -6.08 6.48 -6.19 6.38 -6.33 6.27 -6.45 6.17 -6.58 6.06 -6.71 66.31 64.12 -7.2 7.97 -7.33 7.82 -7.45 7.67 -7.58 7.51 -7.72 7.39 -7.86 7.22 -7.96 7.06 -8.09 6.92 -8.24 6.78 -8.34 6.61 -8.46 6.46 -8.62 6.32 -8.72 6.16 -8.83 5.99 -8.97 5.86 -9.07 5.67 -9.18 5.54 -9.32 5.38 -9.43 5.23 -9.55 5.07 -9.67 4.91 -9.78 4.75 -9.85 4.58 -10 4.45 -10.09 4.27 -10.22 4.13 -10.34 3.97 -10.43 3.8 -10.53 3.65 -10.63 3.48 -10.75 3.33 -10.86 3.19 0.05 -0.02zm-355.72 -8.65l36.06 -86.53 0.07 0.03 7.33 3.22 7.42 3.03 7.54 2.83 7.64 2.65 7.78 2.46 7.87 2.26 7.97 2.07 8.11 1.87 8.23 1.67 8.37 1.49 8.48 1.29 8.6 1.09 8.73 0.89 8.88 0.69 9 0.48 9.14 0.29 9.26 0.08 9.41 -0.12 9.55 -0.33 9.68 -0.54 9.82 -0.75 9.92 -0.96 10.09 -1.18 10.25 -1.39 10.35 -1.6 10.48 -1.82 10.65 -2.05 10.78 -2.24 10.89 -2.48 11.05 -2.69 11.19 -2.92 11.32 -3.14 23.82 91.03 -12.6 3.49 -12.49 3.26 -12.39 3.03 -12.32 2.79 -12.22 2.56 -12.09 2.32 -12.06 2.09 -11.94 1.84 -11.82 1.6 -11.74 1.38 -11.67 1.12 -11.57 0.89 -11.47 0.64 -11.38 0.39 -11.28 0.16 -11.19 -0.1 -11.1 -0.34 -11.01 -0.6 -10.91 -0.85 -10.82 -1.1 -10.74 -1.35 -10.62 -1.62 -10.49 -1.86 -10.42 -2.12 -10.32 -2.38 -10.23 -2.64 -10.11 -2.91 -9.96 -3.15 -9.88 -3.41 -9.77 -3.68 -9.66 -3.93 -9.53 -4.2 0.07 0.03zm36.06 -86.53l0.07 0.03 0.83 0.38 -0.89 -0.41zm-188.71 -171.49l-75.41 -52.03 79.16 7.24 4.42 10.4 4.51 10.13 4.61 9.92 4.71 9.68 4.78 9.4 4.89 9.19 4.97 8.92 5.08 8.7 5.15 8.46 5.22 8.19 5.34 7.99 5.41 7.73 5.51 7.51 5.58 7.26 5.66 7.02 5.76 6.83 5.81 6.56 5.9 6.32 6.01 6.14 6.08 5.9 6.15 5.67 6.24 5.45 6.31 5.23 6.41 5.03 6.49 4.81 6.57 4.59 6.67 4.39 6.78 4.19 6.82 3.97 6.94 3.76 7.04 3.58 7.14 3.36 -36.06 86.53 -9.42 -4.45 -9.28 -4.7 -9.17 -4.98 -9.06 -5.25 -8.88 -5.51 -8.75 -5.76 -8.64 -6.03 -8.48 -6.28 -8.34 -6.54 -8.2 -6.79 -8.06 -7.06 -7.92 -7.29 -7.75 -7.53 -7.6 -7.75 -7.49 -8.04 -7.33 -8.27 -7.16 -8.48 -7.04 -8.73 -6.87 -8.97 -6.73 -9.17 -6.59 -9.42 -6.44 -9.64 -6.32 -9.88 -6.14 -10.09 -6.01 -10.3 -5.87 -10.55 -5.73 -10.76 -5.59 -10.98 -5.44 -11.19 -5.3 -11.38 -5.18 -11.64 -5.03 -11.85 79.16 7.24zm-253.79 -988.03l210.59 769.52 -86.9 25.93 -210.59 -769.52 11.25 -46.07 75.65 20.14zm-331.64 526.77l-84.52 -33.42 0 -0.01 5.88 -15.77 6.19 -15.78 6.51 -15.8 6.82 -15.8 7.13 -15.83 7.45 -15.84 7.74 -15.84 8.05 -15.87 8.38 -15.9 8.68 -15.91 8.98 -15.91 9.29 -15.94 9.6 -15.97 9.9 -15.97 10.21 -16 10.52 -16.02 10.8 -16.03 11.12 -16.07 11.43 -16.07 11.71 -16.11 12.03 -16.11 12.32 -16.15 12.63 -16.17 12.93 -16.2 13.23 -16.21 13.51 -16.23 13.83 -16.28 14.13 -16.29 14.42 -16.31 14.72 -16.35 15.02 -16.36 15.32 -16.39 64.4 66.21 -14.75 15.79 -14.45 15.75 -14.15 15.7 -13.83 15.66 -13.54 15.6 -13.22 15.55 -12.92 15.52 -12.62 15.46 -12.3 15.41 -12 15.36 -11.69 15.32 -11.38 15.26 -11.08 15.22 -10.78 15.17 -10.45 15.11 -10.17 15.09 -9.85 15 -9.54 14.98 -9.25 14.91 -8.93 14.85 -8.63 14.8 -8.33 14.75 -8.02 14.69 -7.71 14.64 -7.41 14.58 -7.11 14.55 -6.81 14.47 -6.48 14.42 -6.21 14.37 -5.88 14.3 -5.6 14.26 -5.29 14.19 0 -0.01zm-20.2 264.94l-86.82 26.22 -0.04 -0.14 -2.48 -9.49 -2.28 -9.54 -2.08 -9.6 -1.86 -9.66 -1.65 -9.69 -1.45 -9.76 -1.22 -9.81 -1.02 -9.81 -0.82 -9.88 -0.6 -9.93 -0.4 -9.96 -0.19 -10.01 0.03 -10.01 0.22 -10.08 0.43 -10.12 0.63 -10.16 0.86 -10.19 1.03 -10.21 1.25 -10.26 1.45 -10.29 1.64 -10.33 1.85 -10.36 2.05 -10.39 2.24 -10.41 2.43 -10.43 2.64 -10.5 2.83 -10.52 3.02 -10.53 3.22 -10.57 3.39 -10.6 3.6 -10.66 3.79 -10.68 84.52 33.42 -3.31 9.32 -3.11 9.24 -2.96 9.21 -2.76 9.12 -2.59 9.04 -2.42 8.97 -2.22 8.87 -2.06 8.82 -1.89 8.77 -1.71 8.67 -1.53 8.61 -1.37 8.54 -1.19 8.46 -1.01 8.39 -0.86 8.36 -0.68 8.26 -0.51 8.19 -0.35 8.13 -0.18 8.07 -0.01 8.03 0.15 7.95 0.3 7.9 0.48 7.83 0.64 7.78 0.81 7.76 0.96 7.68 1.13 7.61 1.28 7.58 1.47 7.53 1.6 7.49 1.79 7.45 1.95 7.43 -0.04 -0.14zm-86.82 26.22l-0.04 -0.14 -0.11 -0.39 0.15 0.53zm201.41 123.49l-46.89 80.69 0.51 0.31 -7.22 -4.54 -7.06 -4.66 -6.95 -4.79 -6.79 -4.92 -6.63 -5.02 -6.53 -5.18 -6.34 -5.28 -6.2 -5.4 -6.06 -5.53 -5.92 -5.67 -5.78 -5.8 -5.59 -5.9 -5.43 -6 -5.3 -6.16 -5.15 -6.29 -4.95 -6.37 -4.8 -6.47 -4.69 -6.68 -4.47 -6.75 -4.31 -6.83 -4.15 -6.94 -4 -7.08 -3.83 -7.19 -3.65 -7.28 -3.5 -7.39 -3.3 -7.48 -3.16 -7.57 -2.98 -7.67 -2.82 -7.76 -2.67 -7.9 -2.48 -7.95 -2.32 -8.04 86.82 -26.22 1.73 6.01 1.85 5.9 1.94 5.77 2.08 5.69 2.17 5.61 2.29 5.51 2.4 5.4 2.5 5.3 2.63 5.23 2.72 5.1 2.84 5.04 2.97 4.98 3.09 4.9 3.2 4.8 3.28 4.67 3.46 4.66 3.57 4.6 3.66 4.47 3.81 4.43 3.95 4.37 4.07 4.31 4.17 4.19 4.33 4.14 4.47 4.07 4.62 4.02 4.77 3.96 4.86 3.87 5.06 3.82 5.17 3.76 5.32 3.67 5.49 3.62 5.63 3.54 0.51 0.31zm-0.51 -0.31l0.51 0.31 -0.01 0 -0.5 -0.31zm151.24 13.37l23.98 90.99 -0.05 0.01 -7.52 2.08 -7.48 1.91 -7.45 1.74 -7.44 1.59 -7.42 1.41 -7.36 1.23 -7.34 1.07 -7.29 0.89 -7.26 0.72 -7.28 0.54 -7.23 0.35 -7.15 0.17 -7.14 -0.01 -7.11 -0.2 -7.08 -0.39 -7.02 -0.58 -6.96 -0.77 -6.94 -0.95 -6.93 -1.16 -6.84 -1.36 -6.84 -1.56 -6.74 -1.76 -6.69 -1.95 -6.6 -2.14 -6.55 -2.33 -6.52 -2.56 -6.44 -2.74 -6.34 -2.94 -6.25 -3.11 -6.2 -3.32 -6.14 -3.52 -6.02 -3.7 46.89 -80.69 3.84 2.36 3.84 2.2 3.89 2.09 3.94 1.97 3.96 1.84 3.98 1.7 4.02 1.57 4.11 1.47 4.16 1.36 4.19 1.22 4.26 1.11 4.28 0.97 4.4 0.87 4.4 0.75 4.5 0.62 4.62 0.51 4.66 0.38 4.72 0.26 4.81 0.14 4.88 0.01 5.01 -0.13 5.05 -0.24 5.09 -0.38 5.25 -0.52 5.32 -0.65 5.39 -0.78 5.51 -0.93 5.55 -1.05 5.65 -1.2 5.76 -1.35 5.83 -1.49 5.91 -1.62 -0.05 0.01zm210.2 -159.02l86.9 -25.93 -6.31 39.85 -7.89 11.72 -7.9 11.45 -7.92 11.19 -7.93 10.9 -7.95 10.62 -7.96 10.35 -7.98 10.06 -8.01 9.82 -8.03 9.53 -8.05 9.24 -8.07 8.97 -8.1 8.68 -8.13 8.43 -8.17 8.14 -8.19 7.85 -8.22 7.57 -8.3 7.33 -8.34 7.03 -8.34 6.72 -8.41 6.46 -8.47 6.17 -8.5 5.86 -8.56 5.59 -8.62 5.28 -8.65 4.99 -8.7 4.67 -8.79 4.38 -8.82 4.06 -8.88 3.75 -8.94 3.42 -8.97 3.09 -9.03 2.77 -23.98 -90.99 6.1 -1.87 6.16 -2.12 6.17 -2.36 6.23 -2.63 6.28 -2.88 6.31 -3.16 6.38 -3.43 6.43 -3.69 6.47 -3.98 6.53 -4.25 6.59 -4.56 6.62 -4.81 6.66 -5.12 6.75 -5.42 6.75 -5.69 6.79 -5.99 6.85 -6.31 6.89 -6.61 6.91 -6.88 6.95 -7.19 6.98 -7.5 7.03 -7.81 7.05 -8.1 7.08 -8.39 7.1 -8.69 7.13 -9.02 7.17 -9.3 7.18 -9.62 7.22 -9.91 7.23 -10.21 7.25 -10.52 7.28 -10.82 -6.31 39.85z"/>
   </g>
   <g>
    <polygon class="fil3" points="7466.79,2984.77 5246.97,2984.77 5246.97,2827.37 7466.79,2827.37 "/>
   </g>
  </g>
 </g>
</svg>
