<?xml version="1.0" encoding="UTF-8"?>
<!DOCTYPE svg PUBLIC "-//W3C//DTD SVG 1.1//EN" "http://www.w3.org/Graphics/SVG/1.1/DTD/svg11.dtd">
<!-- Creator: CorelDRAW 2017 -->
<svg xmlns="http://www.w3.org/2000/svg" xml:space="preserve" width="138.923mm" height="40.349mm" version="1.1" style="shape-rendering:geometricPrecision; text-rendering:geometricPrecision; image-rendering:optimizeQuality; fill-rule:evenodd; clip-rule:evenodd"
viewBox="0 0 15043.52 4369.26"
 xmlns:xlink="http://www.w3.org/1999/xlink">
 <defs>
  <style type="text/css">
   <![CDATA[
    .fil5 {fill:#492957}
    .fil4 {fill:#593869}
    .fil0 {fill:#66A8DB}
    .fil3 {fill:#6A447C}
    .fil2 {fill:#7E4D9D}
    .fil1 {fill:#FEFDFF}
   ]]>
  </style>
 </defs>
 <g id="Layer_x0020_1">
  <metadata id="CorelCorpID_0Corel-Layer"/>
  <g id="_2302550867536">
   <path class="fil0" d="M1693.36 2930.71c-98.36,-93.61 -59.87,-83.63 -192.44,-141.04 -346.37,438.11 -423.34,581.65 -1103.25,304.56 209.53,-218.44 -145.39,99.85 59.87,-67.4 -560.18,-162.27 -183.88,-852.51 -4.28,-1309.34 145.39,-358.23 372.02,-996.04 701.29,-1180.78 59.87,-162.26 196.7,-227.16 401.96,-233.4 431.89,-12.49 752.6,657.79 838.13,931.14 213.8,-114.84 461.82,-337.01 765.43,-111.09 282.22,212.19 179.59,430.62 303.6,715.21 200.98,-48.69 102.62,-131.06 145.39,-358.23 81.25,-416.89 397.68,-565.42 833.85,-337.01 936.48,-401.91 821.03,571.67 979.25,697.73 136.83,-83.63 81.24,-92.37 102.62,-274.59 34.21,-292.08 188.15,-557.94 547.35,-539.21 342.1,18.72 585.83,450.59 590.11,847.51 12.83,778.86 -175.32,1999.58 -1158.84,1323.07 -534.51,469.31 -936.47,18.72 -1034.82,-29.95 -213.81,404.41 -560.18,234.66 -880.89,29.95 -701.3,449.35 -876.61,71.14 -1060.49,-99.85 -171.04,39.94 -265.12,96.1 -474.65,66.15 -136.83,-19.97 -367.74,-93.61 -359.19,-233.41zm12961.02 -470.56c307.88,101.1 282.23,384.44 128.29,539.21 -153.95,153.52 -307.89,269.6 -466.11,416.89l-183.87 -118.58c-598.66,1343.04 -1573.62,690.24 -1706.19,342 -132.56,-338.25 29.93,-506.76 243.74,-656.54l-188.15 -102.34c-590.12,405.65 -427.62,289.57 -915.1,275.84 -128.29,-3.75 -188.16,129.81 -431.89,126.07 -218.09,-4.99 -324.99,-123.57 -453.28,-184.73 -530.25,426.88 -513.14,63.65 -885.17,122.32 -671.36,107.34 -534.51,19.97 -987.79,-168.5 -457.54,267.11 -1098.97,358.22 -1436.79,-68.65 -290.77,-365.72 -290.77,-1122.11 -269.4,-1678.79 25.66,-641.57 209.53,-1048.47 889.44,-1040.98 337.81,3.75 577.28,107.34 705.56,293.33 188.15,268.36 175.33,388.18 218.08,763.88 119.73,-131.06 393.42,-290.83 709.85,-279.59 320.7,11.23 508.86,255.87 799.63,46.18 94.08,-109.85 111.19,-324.54 192.44,-456.84 179.59,-282.09 897.99,-640.31 1009.17,510.51 384.85,-22.47 530.25,-94.86 808.2,158.52 427.61,-128.57 461.82,-149.78 735.49,194.71 183.88,-146.04 132.56,-240.89 513.14,-249.63 188.16,-620.34 795.37,-449.35 974.97,-244.64 175.32,203.45 4.28,1115.87 -4.28,1460.36zm-7803.98 -1114.62l-128.29 -195.97c-55.59,-84.88 -89.8,-137.3 -166.77,-202.2 -560.18,-475.56 -949.31,-36.2 -1171.67,112.34 -295.05,-438.12 -692.73,-249.64 -940.75,-249.64 -98.35,0 -196.7,-76.14 -282.23,-76.14 -389.13,0 -478.93,180.99 -697.01,325.78 -273.67,-410.66 -658.53,-270.86 -974.97,-244.64 -282.22,-534.22 -419.06,-773.87 -979.24,-773.87 -705.56,0 -1064.76,1122.11 -1291.39,1683.78 -158.22,380.69 -205.26,516.74 -218.09,851.26l0 17.47 0 18.72 0 18.72 0 18.72 0 19.98 0 19.97 0 21.21 0 21.22 0 18.72 0 18.72c25.66,386.93 380.58,736.42 773.99,736.42 393.41,0 384.85,-23.71 773.98,-284.59 513.14,340.76 590.11,203.45 816.75,203.45 179.59,0 320.71,373.21 949.31,214.69 72.69,-18.72 230.91,-92.37 235.19,-92.37 21.38,0 517.42,220.94 816.74,84.89l51.32 -29.96c98.35,-63.65 8.55,-4.99 68.42,-54.92 538.8,284.59 897.99,0 979.24,0 85.52,0 803.92,414.4 1180.23,-244.64 115.46,-198.46 205.26,-423.13 205.26,-733.92 115.46,133.56 81.24,193.46 162.48,368.21 81.25,179.74 200.98,302.07 359.2,414.4 393.41,279.59 1034.83,245.89 1436.79,32.45 530.25,280.83 838.13,114.83 1056.22,124.81 149.66,6.25 397.68,223.43 859.5,-83.63 299.33,259.63 701.29,53.68 893.71,39.95l491.76 -39.95c21.38,942.38 1483.83,1420.43 2146.63,270.86 218.08,-374.46 786.81,-488.04 786.81,-963.59 0,-198.46 -119.73,-233.41 -119.73,-285.83 0,-423.13 81.25,-748.9 81.25,-1304.35 0,-499.27 -859.5,-856.24 -1338.43,-399.42 -423.35,408.15 -29.94,84.88 -389.13,303.31 -47.04,29.95 -38.49,31.2 -68.43,54.91 -500.31,-335.75 -461.82,-31.2 -897.99,-198.46 -128.29,-48.67 -277.95,-87.37 -444.72,-87.37 -243.74,-1032.24 -1116.08,-776.37 -1394.03,-456.84 -136.83,154.77 -183.87,356.98 -277.95,539.21 -277.95,-64.91 -658.52,-234.66 -1060.48,-41.19 -34.21,-398.16 -487.48,-842.51 -957.86,-856.24l-21.38 0 -47.04 0c-936.48,9.98 -1257.19,337.01 -1257.19,1345.54z"/>
   <path class="fil1" d="M13367.26 3791.96c89.8,-41.19 136.84,-33.71 213.81,-78.64 162.49,-94.86 -4.28,-89.87 192.43,-118.57 -25.65,123.57 -111.18,217.18 -243.74,240.89 -312.16,56.17 -106.9,3.75 -162.49,-43.68zm-4977.44 -1114.63l-265.13 19.97c128.29,-117.33 102.63,-16.22 235.19,-88.61l94.08 -111.09c8.55,-8.74 17.11,-18.72 21.39,-26.22l59.86 -49.92c-51.32,199.7 -42.76,148.53 -145.39,255.87zm-243.74 -149.78c-106.9,-161.01 -72.69,-390.68 162.49,-323.28 188.15,53.68 153.94,345.75 -162.49,323.28zm1505.21 -147.28c-209.53,66.15 -55.59,16.22 -132.56,-27.46 -42.76,-26.22 -115.46,-56.17 -149.66,-103.6 -226.63,-313.29 389.13,-513 372.03,-128.56 -4.28,161.01 -55.59,102.34 -76.97,185.97l-4.28 51.18c0,2.5 -4.28,16.23 -8.55,22.47zm2552.87 -479.3l38.49 258.37c-8.55,6.24 4.28,2.49 4.28,11.23 25.65,138.55 29.93,19.98 34.21,23.71 12.82,14.99 4.28,-21.21 38.49,61.16 -188.16,136.05 -55.59,151.04 -363.47,176l166.77 -122.32c-213.81,24.96 -431.89,-36.2 -372.03,-299.56 51.32,-238.4 312.16,-176 453.28,-108.59zm-3305.47 137.3c38.49,-17.48 -72.69,-144.79 102.62,0 -175.32,126.07 -55.58,23.71 -102.62,0zm3741.64 -83.63c-81.25,-185.97 76.97,-371.95 248.01,-421.88l-248.01 421.88zm-3664.67 -16.22c-47.04,-54.92 -38.49,6.24 -38.49,-97.36 0,-24.96 12.83,-71.14 21.38,-94.86 29.94,-69.9 299.34,-363.22 449,-278.34l-132.56 102.34c-295.05,173.5 -153.94,190.97 -299.33,368.22zm-1539.41 -599.13c21.38,122.32 51.31,139.8 -17.11,245.9 -64.14,-22.47 -106.9,48.67 -111.18,-122.32 -4.28,-144.79 42.76,-97.36 128.29,-123.58zm718.4 -305.8l-21.39 302.05 -286.5 -18.72 4.28 -292.07 303.61 8.74zm2651.21 148.54c4.28,-102.35 -38.49,-14.98 47.04,-17.48 89.79,-2.5 -47.04,138.55 -47.04,17.48zm-3386.72 59.9c-158.22,-142.29 47.04,-624.08 222.37,-609.1 21.38,107.34 -55.59,190.96 -141.12,464.32l-55.58 118.57c-4.28,-6.24 -17.11,17.48 -25.66,26.21zm3553.49 -616.59c166.76,57.41 38.49,-3.75 115.46,87.38 -149.67,112.34 -128.29,205.95 -171.05,298.31 -47.04,107.34 -8.55,42.44 -72.69,93.61 -38.49,-198.46 4.28,-259.62 94.07,-416.89 -226.63,185.98 -213.8,566.67 -213.8,838.78 -158.22,-136.05 -188.15,-264.61 -611.49,-51.18 -440.45,-247.13 -795.37,-333.26 -1154.56,180.99 -55.58,73.63 -64.14,91.11 -102.62,184.73l-98.36 199.71c-81.24,-159.77 -124,-200.96 -354.92,-244.64 115.46,-227.17 256.57,-354.49 200.98,-737.68 -106.9,-792.58 -957.86,-609.1 -1141.73,-446.84 -346.37,303.31 -222.36,2030.79 34.21,2290.4 226.64,230.91 859.51,223.43 1086.15,8.74 25.65,-23.71 34.21,-38.69 55.58,-62.41 21.39,-21.22 38.5,-33.71 59.87,-56.17l111.18 -112.34c248.02,310.79 487.48,580.39 1098.97,267.11 359.2,153.52 581.56,459.32 833.85,-642.81 42.76,248.39 59.87,585.39 230.92,706.46 286.49,199.71 423.34,-36.2 564.44,-147.28 624.33,384.44 957.86,-314.54 1060.49,-419.39 175.32,431.87 376.3,399.43 936.47,263.37 -209.53,939.87 -367.75,391.92 -731.22,636.56 -393.42,404.41 966.4,1144.58 1287.12,-184.73 38.49,-172.25 38.49,-144.79 -64.14,-242.15 4.28,3.75 17.1,9.98 21.38,12.49 0,2.49 17.11,9.98 21.39,13.73l243.73 254.63c136.84,-113.58 410.51,-262.12 440.45,-465.57 -115.46,-249.63 -260.84,-133.56 -401.96,-21.22 -119.72,-97.35 -166.76,-118.57 -188.15,-250.88 -8.55,-72.39 -4.28,-224.67 -21.38,-335.76 -25.66,-185.97 -64.15,-408.15 -192.43,-536.71 -183.88,-178.49 -389.14,-83.63 -427.62,139.8 -47.03,262.12 25.66,419.38 -230.91,495.52 -312.16,-303.3 -51.31,-782.6 -534.51,-750.14l-141.12 212.19c-29.93,48.67 -34.21,43.68 -59.86,73.65 -55.59,-197.21 -248.02,-385.7 -491.76,-405.66 -329.27,-26.21 -474.65,174.74 -615.76,285.83 8.54,-360.72 12.82,-858.75 -205.26,-1067.19l-269.4 53.67z"/>
   <path class="fil2" d="M14111.32 1167.05c183.87,-127.32 397.68,-153.53 543.07,-6.25 42.76,230.91 -64.15,1187.02 -141.12,1316.83 -393.41,84.88 -303.6,-218.44 -337.81,-513.01 -34.21,-279.59 -76.97,-511.75 -64.14,-797.57zm-3138.7 -541.71l269.4 -53.67c218.08,208.44 213.8,706.46 205.26,1067.19 141.11,-111.09 286.49,-312.04 615.76,-285.83 243.74,19.97 436.17,208.45 491.76,405.66 25.65,-29.96 29.93,-24.97 59.86,-73.65l141.12 -212.19c483.21,-32.45 222.36,446.84 534.51,750.14 256.57,-76.14 183.88,-233.4 230.91,-495.52 38.49,-223.43 243.74,-318.29 427.62,-139.8 128.28,128.56 166.76,350.74 192.43,536.71 17.1,111.09 12.82,263.37 21.38,335.76 21.39,132.3 68.43,153.53 188.15,250.88 141.12,-112.34 286.5,-228.41 401.96,21.22 -29.93,203.45 -303.6,351.99 -440.45,465.57l-243.73 -254.63c-4.28,-3.75 -21.39,-11.24 -21.39,-13.73 -4.28,-2.5 -17.1,-8.74 -21.38,-12.49 102.62,97.36 102.62,69.9 64.14,242.15 -320.71,1329.31 -1680.53,589.13 -1287.12,184.73 363.46,-244.64 521.68,303.31 731.22,-636.56 -560.18,136.05 -761.16,168.49 -936.47,-263.37 -102.63,104.85 -436.17,803.83 -1060.49,419.39 -141.11,111.08 -277.95,346.99 -564.44,147.28 -171.05,-121.08 -188.16,-458.07 -230.92,-706.46 -252.29,1102.13 -474.65,796.33 -833.85,642.81 -611.48,313.28 -850.95,43.68 -1098.97,-267.11l-111.18 112.34c-21.38,22.46 -38.49,34.94 -59.87,56.17 -21.38,23.71 -29.93,38.69 -55.58,62.41 -226.63,214.69 -859.5,222.17 -1086.15,-8.74 -256.56,-259.62 -380.57,-1987.09 -34.21,-2290.4 183.87,-162.26 1034.83,-345.74 1141.73,446.84 55.59,383.19 -85.52,510.51 -200.98,737.68 230.92,43.68 273.68,84.88 354.92,244.64l98.36 -199.71c38.49,-93.61 47.04,-111.09 102.62,-184.73 359.2,-514.25 714.12,-428.12 1154.56,-180.99 423.35,-213.43 453.28,-84.88 611.49,51.18 0,-272.1 -12.83,-652.8 213.8,-838.78 -89.79,157.28 -132.55,218.44 -94.07,416.89 64.14,-51.18 25.65,13.73 72.69,-93.61 42.76,-92.36 21.38,-185.97 171.05,-298.31 -76.97,-91.12 51.31,-29.96 -115.46,-87.38zm3681.77 1834.82c8.55,-344.49 179.59,-1256.92 4.28,-1460.36 -179.6,-204.71 -786.81,-375.7 -974.97,244.64 -380.57,8.74 -329.26,103.6 -513.14,249.63 -273.67,-344.49 -307.88,-323.28 -735.49,-194.71 -277.95,-253.38 -423.35,-180.99 -808.2,-158.52 -111.18,-1150.82 -829.57,-792.59 -1009.17,-510.51 -81.25,132.3 -98.36,346.99 -192.44,456.84 -290.77,209.69 -478.93,-34.95 -799.63,-46.18 -316.44,-11.24 -590.12,148.53 -709.85,279.59 -42.75,-375.7 -29.93,-495.52 -218.08,-763.88 -128.29,-185.98 -367.75,-289.58 -705.56,-293.33 -679.91,-7.49 -863.78,399.42 -889.44,1040.98 -21.38,556.68 -21.38,1313.07 269.4,1678.79 337.82,426.88 979.25,335.76 1436.79,68.65 453.28,188.47 316.44,275.85 987.79,168.5 372.03,-58.67 354.92,304.56 885.17,-122.32 128.29,61.16 235.19,179.73 453.28,184.73 243.73,3.75 303.6,-129.81 431.89,-126.07 487.47,13.73 324.98,129.81 915.1,-275.84l188.15 102.34c-213.81,149.78 -376.31,318.29 -243.74,656.54 132.56,348.24 1107.52,1001.03 1706.19,-342l183.87 118.58c158.22,-147.29 312.16,-263.37 466.11,-416.89 153.94,-154.77 179.59,-438.12 -128.29,-539.21z"/>
   <path class="fil2" d="M2976.2 1354.27c265.12,264.62 124.01,712.71 324.99,918.66 175.33,-57.41 21.38,-19.97 175.33,-131.06 171.04,59.91 25.65,74.89 256.56,109.85 149.66,-300.82 -55.59,-846.27 286.5,-919.91 568.73,-122.32 436.17,1380.48 179.59,1727.48 -89.79,116.07 -239.47,121.06 -380.57,9.98 -260.84,-204.71 -102.62,-258.37 -286.5,-383.19 -68.42,310.79 -222.36,459.33 -594.39,458.08 -320.71,-103.6 -821.02,-1922.2 38.49,-1789.89zm1753.23 2.5l260.84 -18.72c316.44,484.29 102.63,569.17 303.61,939.87l205.26 -142.29c128.28,94.86 64.14,81.13 209.52,109.84 230.91,-263.36 38.49,-380.69 132.56,-728.93 81.25,-302.05 376.3,-219.68 500.31,12.49 226.64,438.11 21.39,1018.51 -68.42,1464.1 -136.83,-79.88 -136.83,-48.67 -273.67,64.91 29.93,24.97 -8.55,89.87 205.26,2.5 -222.37,230.91 -478.93,13.73 -602.94,-373.21 -145.39,117.33 -64.14,190.97 -243.74,343.25 -111.18,96.12 -282.23,124.82 -474.65,102.35 -179.59,-86.12 -453.27,-1095.89 -350.64,-1494.06 38.49,-137.3 76.97,-149.78 115.46,-184.73 -145.39,310.79 -12.83,240.89 17.11,272.1 42.76,-171.01 29.93,-180.99 175.32,-232.17l-89.8 -122.32c-4.27,-3.75 -17.1,-9.98 -21.38,-14.98zm-3574.87 -820.05c354.92,-57.41 444.72,268.36 581.55,500.52 141.12,243.4 248.02,435.62 354.92,701.47 89.8,228.42 252.3,562.93 239.47,831.28 -21.38,319.53 -295.05,469.31 -637.14,360.72 -8.55,139.8 222.36,213.44 359.19,233.41 209.53,29.95 303.61,-26.22 474.65,-66.15 183.88,171 359.2,549.2 1060.49,99.85 320.71,204.71 667.08,374.46 880.89,-29.95 98.35,48.67 500.31,499.27 1034.82,29.95 983.52,676.51 1171.67,-544.21 1158.84,-1323.07 -4.28,-396.91 -248.01,-828.78 -590.11,-847.51 -359.2,-18.72 -513.14,247.13 -547.35,539.21 -21.39,182.22 34.21,190.96 -102.62,274.59 -158.22,-126.07 -42.76,-1099.64 -979.25,-697.73 -436.17,-228.41 -752.6,-79.88 -833.85,337.01 -42.76,227.17 55.59,309.55 -145.39,358.23 -124.01,-284.59 -21.39,-503.02 -303.6,-715.21 -303.61,-225.92 -551.63,-3.75 -765.43,111.09 -85.52,-273.35 -406.24,-943.62 -838.13,-931.14 -205.26,6.24 -342.09,71.14 -401.96,233.4z"/>
   <path class="fil1" d="M1932.82 2877.05c34.22,-127.31 64.15,-51.18 162.49,-168.5 55.59,-63.66 64.15,-167.26 106.91,-240.89 132.55,163.5 -68.43,396.91 -269.41,409.4zm-1287.12 -1280.63c124.01,51.18 183.87,57.41 8.55,144.79 -51.32,-64.91 -21.39,36.2 -34.21,-72.4 -17.11,-131.06 -17.11,-3.74 25.65,-72.39zm735.49 -323.28c17.11,111.09 8.55,188.47 -34.21,273.35 -226.63,34.95 -265.12,-76.14 -230.91,-270.85l265.12 -2.5zm-645.69 283.33c-55.59,-88.61 -55.59,103.61 -34.21,-118.57l119.72 -289.57c188.16,-385.7 115.47,-264.62 239.47,-290.83l-260.84 636.56c-51.32,83.63 8.55,8.74 -64.14,62.41zm-277.95 1470.36c218.08,18.72 260.84,-41.19 333.53,-118.58 299.34,-328.27 213.81,-556.68 431.89,-710.21 252.3,48.67 230.92,324.52 277.95,591.63 132.56,57.41 94.08,47.43 192.44,141.04 342.09,108.59 615.76,-41.19 637.14,-360.72 12.83,-268.36 -149.66,-602.86 -239.47,-831.28 -106.9,-265.85 -213.8,-458.07 -354.92,-701.47 -136.83,-232.17 -226.63,-557.94 -581.55,-500.52 -329.27,184.74 -555.9,822.55 -701.29,1180.78 -179.6,456.83 -555.9,1147.07 4.28,1309.34z"/>
   <path class="fil1" d="M3985.38 3107.96c59.86,-118.57 106.9,-137.3 218.08,-171.01 -17.1,169.76 0,144.79 -218.08,171.01zm-1406.86 -1314.33c4.28,-112.34 55.59,-24.96 59.87,-9.98 25.65,107.34 -59.87,28.71 -59.87,9.98zm29.93 -84.88c-76.97,-162.27 42.76,-292.07 192.44,-309.55l-192.44 309.55zm367.75 -354.49c-859.5,-132.3 -359.2,1686.29 -38.49,1789.89 372.03,1.25 525.97,-147.29 594.39,-458.08 183.88,124.82 25.66,178.49 286.5,383.19 141.11,111.08 290.78,106.09 380.57,-9.98 256.57,-346.99 389.14,-1849.8 -179.59,-1727.48 -342.1,73.63 -136.84,619.09 -286.5,919.91 -230.91,-34.95 -85.52,-49.93 -256.56,-109.85 -153.95,111.09 0,73.65 -175.33,131.06 -200.98,-205.95 -59.87,-654.04 -324.99,-918.66z"/>
   <path class="fil1" d="M4592.59 1793.63c-4.27,-158.52 55.59,-34.94 64.15,-7.49 17.1,43.69 -59.87,77.39 -64.15,7.49zm136.84 -436.86c4.28,4.99 17.11,11.23 21.38,14.98l89.8 122.32c-145.39,51.18 -132.55,61.16 -175.32,232.17 -29.94,-31.21 -162.49,38.69 -17.11,-272.1 -38.49,34.94 -76.97,47.43 -115.46,184.73 -102.62,398.17 171.05,1407.94 350.64,1494.06 192.43,22.47 363.47,-6.24 474.65,-102.35 179.6,-152.27 98.36,-225.92 243.74,-343.25 124.01,386.94 380.57,604.12 602.94,373.21 -213.81,87.37 -175.33,22.47 -205.26,-2.5 136.84,-113.58 136.84,-144.79 273.67,-64.91 89.8,-445.59 295.06,-1025.99 68.42,-1464.1 -124.01,-232.17 -419.06,-314.54 -500.31,-12.49 -94.08,348.24 98.35,465.57 -132.56,728.93 -145.39,-28.71 -81.25,-14.98 -209.52,-109.84l-205.26 142.29c-200.98,-370.71 12.82,-455.58 -303.61,-939.87l-260.84 18.72z"/>
   <path class="fil1" d="M14111.32 1167.05c-12.83,285.82 29.93,517.99 64.14,797.57 34.21,294.57 -55.59,597.88 337.81,513.01 76.97,-129.81 183.88,-1085.92 141.12,-1316.83 -145.39,-147.28 -359.2,-121.08 -543.07,6.25z"/>
   <path class="fil2" d="M457.55 3026.83c-205.26,167.25 149.66,-151.04 -59.87,67.4 679.91,277.09 756.88,133.55 1103.25,-304.56 -47.03,-267.11 -25.65,-542.96 -277.95,-591.63 -218.08,153.53 -132.55,381.94 -431.89,710.21 -72.69,77.39 -115.46,137.31 -333.53,118.58z"/>
   <path class="fil2" d="M12319.61 2255.45c-34.21,-82.37 -25.66,-46.17 -38.49,-61.16 -4.28,-3.74 -8.55,114.84 -34.21,-23.71 0,-8.74 -12.83,-4.99 -4.28,-11.23l-38.49 -258.37c-141.12,-67.41 -401.96,-129.81 -453.28,108.59 -59.86,263.36 158.22,324.52 372.03,299.56l-166.77 122.32c307.88,-24.96 175.32,-39.95 363.47,-176z"/>
   <path class="fil2" d="M9741.09 2120.65c17.1,-384.44 -598.66,-184.74 -372.03,128.56 34.21,47.43 106.9,77.38 149.66,103.6 76.97,43.68 -76.97,93.61 132.56,27.46 4.28,-6.24 8.55,-19.97 8.55,-22.47l4.28 -51.18c21.38,-83.63 72.69,-24.96 76.97,-185.97z"/>
   <path class="fil2" d="M8146.08 2527.55c316.44,22.47 350.64,-269.6 162.49,-323.28 -235.19,-67.4 -269.4,162.27 -162.49,323.28z"/>
   <polygon class="fil2" points="7851.02,1024.75 7846.74,1316.82 8133.25,1335.54 8154.63,1033.49 "/>
   <path class="fil2" d="M7419.13 1241.93c8.55,-8.73 21.39,-32.44 25.66,-26.21l55.58 -118.57c85.52,-273.36 162.49,-356.98 141.12,-464.32 -175.33,-14.98 -380.58,466.81 -222.37,609.1z"/>
   <path class="fil3" d="M735.5 1556.47c72.69,-53.67 12.82,21.22 64.14,-62.41l260.84 -636.56c-124,26.21 -51.31,-94.87 -239.47,290.83l-119.72 289.57c-21.39,222.18 -21.39,29.96 34.21,118.57z"/>
   <path class="fil2" d="M1116.08 1275.64c-34.21,194.71 4.28,305.8 230.91,270.85 42.76,-84.88 51.32,-162.26 34.21,-273.35l-265.12 2.5z"/>
   <path class="fil3" d="M8975.65 1938.42c145.39,-177.24 4.28,-194.72 299.33,-368.22l132.56 -102.34c-149.66,-84.88 -419.06,208.44 -449,278.34 -8.54,23.71 -21.38,69.9 -21.38,94.86 0,103.6 -8.55,42.44 38.49,97.36z"/>
   <path class="fil4" d="M13367.26 3791.96c55.59,47.43 -149.66,99.85 162.49,43.68 132.56,-23.71 218.09,-117.33 243.74,-240.89 -196.7,28.71 -29.93,23.71 -192.43,118.57 -76.97,44.93 -124.01,37.45 -213.81,78.64z"/>
   <path class="fil3" d="M1932.82 2877.05c200.98,-12.49 401.96,-245.9 269.41,-409.4 -42.76,73.63 -51.32,177.23 -106.91,240.89 -98.35,117.33 -128.28,41.19 -162.49,168.5z"/>
   <path class="fil3" d="M12640.32 1954.64l248.01 -421.88c-171.04,49.93 -329.26,235.91 -248.01,421.88z"/>
   <path class="fil2" d="M7419.13 1585.19c68.42,-106.1 38.49,-123.58 17.11,-245.9 -85.52,26.22 -132.56,-21.21 -128.29,123.58 4.28,171 47.04,99.85 111.18,122.32z"/>
   <path class="fil5" d="M8389.82 2677.33c102.62,-107.34 94.07,-56.17 145.39,-255.87l-59.86 49.92c-4.28,7.49 -12.83,17.48 -21.39,26.22l-94.08 111.09c-132.55,72.39 -106.9,-28.72 -235.19,88.61l265.13 -19.97z"/>
   <path class="fil3" d="M2608.45 1708.75l192.44 -309.55c-149.67,17.48 -269.41,147.28 -192.44,309.55z"/>
   <path class="fil4" d="M3985.38 3107.96c218.08,-26.22 200.98,-1.25 218.08,-171.01 -111.18,33.71 -158.22,52.43 -218.08,171.01z"/>
   <path class="fil3" d="M654.26 1741.21c175.32,-87.38 115.46,-93.61 -8.55,-144.79 -42.76,68.65 -42.76,-58.67 -25.65,72.39 12.82,108.6 -17.11,7.49 34.21,72.4z"/>
   <path class="fil3" d="M8898.68 2038.27c47.04,23.71 -72.69,126.07 102.62,0 -175.32,-144.79 -64.14,-17.48 -102.62,0z"/>
   <path class="fil4" d="M4592.59 1793.63c4.28,69.9 81.25,36.2 64.15,-7.49 -8.55,-27.45 -68.42,-151.03 -64.15,7.49z"/>
   <path class="fil3" d="M2578.52 1793.63c0,18.72 85.52,97.36 59.87,-9.98 -4.28,-14.98 -55.59,-102.35 -59.87,9.98z"/>
   <path class="fil4" d="M10805.85 1182.02c0,121.08 136.83,-19.98 47.04,-17.48 -85.52,2.5 -42.76,-84.88 -47.04,17.48z"/>
  </g>
 </g>
</svg>
