<?xml version="1.0" encoding="UTF-8"?>
<!DOCTYPE svg PUBLIC "-//W3C//DTD SVG 1.1//EN" "http://www.w3.org/Graphics/SVG/1.1/DTD/svg11.dtd">
<!-- Creator: CorelDRAW 2017 -->
<svg xmlns="http://www.w3.org/2000/svg" xml:space="preserve" width="65.3036mm" height="40.3882mm" version="1.1" style="shape-rendering:geometricPrecision; text-rendering:geometricPrecision; image-rendering:optimizeQuality; fill-rule:evenodd; clip-rule:evenodd"
viewBox="0 0 4865.46 3009.14"
 xmlns:xlink="http://www.w3.org/1999/xlink">
 <defs>
  <style type="text/css">
   <![CDATA[
    .fil0 {fill:#FEFEFE}
    .fil7 {fill:#2B2A29}
    .fil2 {fill:#D7B56D}
    .fil1 {fill:#D7B56D}
    .fil3 {fill:#96A7B1}
    .fil6 {fill:#24366C}
    .fil5 {fill:#D7B56D;fill-rule:nonzero}
    .fil4 {fill:#24366C;fill-rule:nonzero}
   ]]>
  </style>
     <clipPath id="id0">
      <path d="M1583.88 752.97c493.61,0 893.91,413.63 893.91,923.67 0.01,510.06 -400.3,923.69 -893.91,923.69 -493.61,0 -893.91,-413.63 -893.91,-923.69 0.01,-510.05 400.3,-923.67 893.92,-923.67z"/>
     </clipPath>
 </defs>
 <g id="Layer_x0020_1">
  <metadata id="CorelCorpID_0Corel-Layer"/>
  <g id="_2587723697648">
   <rect class="fil0" x="-0.02" y="0" width="4865.47" height="3009.13" rx="349.99" ry="337.53"/>
   <g>
    <path class="fil1" d="M1545.46 165.39l66.81 0c8.32,0 15.12,7.03 15.12,15.63l0 7.85c60.1,20.93 103.39,79.65 103.39,148.79 0,1.56 -0.03,3.1 -0.07,4.65 9.37,1.52 16.61,11.53 16.61,23.66 0,13.17 -8.55,23.85 -19.1,23.85 -1.98,0 -3.89,-0.37 -5.68,-1.07 -2.12,6.36 -4.62,12.53 -7.48,18.49 0.16,2.84 0.25,5.69 0.25,8.58 0,77.86 -61.1,141 -136.46,141 -75.35,0 -136.46,-63.14 -136.46,-141 0,-2.88 0.09,-5.74 0.26,-8.58 -2.86,-5.95 -5.36,-12.12 -7.49,-18.48 -1.8,0.7 -3.7,1.07 -5.68,1.07 -10.54,0 -19.09,-10.68 -19.09,-23.85 0,-12.12 7.23,-22.14 16.61,-23.66 -0.04,-1.55 -0.07,-3.09 -0.07,-4.65 0,-69.15 43.29,-127.87 103.38,-148.79l0 -7.85c0,-8.6 6.81,-15.63 15.13,-15.63zm-79.51 202.53l230.18 0c7.79,0 14.15,6.58 14.15,14.62l0 0c0,8.05 -6.36,14.63 -14.15,14.63l-230.18 0c-7.78,0 -14.15,-6.58 -14.15,-14.63l0 0c0,-8.04 6.37,-14.62 14.15,-14.62zm121.47 202.8c150.73,0 285.61,70.16 375.79,180.56 -101.17,-53.47 -226.72,-85.85 -358.72,-88.43l-47.64 -21.75c-43.95,-20.06 -89.76,-33.51 -136.2,-40.37 52.07,-19.42 108.23,-30.01 166.77,-30.01z"/>
    <path class="fil1" d="M152.15 1969.55l-11.6 -67.99c-1.45,-8.47 4.08,-16.61 12.27,-18.1l7.48 -1.36c9.51,-64.79 57.95,-119.04 123.85,-131.05 1.49,-0.27 2.97,-0.51 4.45,-0.73 -0.18,-9.8 8.11,-18.91 19.66,-21.02 12.55,-2.29 24.21,4.56 26.05,15.29 0.34,2.02 0.31,4.02 -0.04,5.98 6.43,1.05 12.74,2.53 18.92,4.4 2.68,-0.66 5.39,-1.25 8.14,-1.75 74.21,-13.52 144.99,37.69 158.08,114.37 13.08,76.68 -36.48,149.82 -110.69,163.35 -2.74,0.5 -5.48,0.9 -8.22,1.22 -5.19,3.94 -10.62,7.57 -16.32,10.83 0.98,1.71 1.67,3.58 2.01,5.6 1.83,10.73 -6.86,21.29 -19.42,23.57 -11.55,2.1 -22.35,-3.53 -25.43,-12.8 -1.47,0.31 -2.94,0.61 -4.42,0.88 -65.91,12.01 -129.38,-21.85 -159.76,-79.37l-7.48 1.36c-8.2,1.49 -16.08,-4.21 -17.52,-12.68zm206.83 45.74l-39.97 -234.24c-1.35,-7.92 3.81,-15.54 11.48,-16.94l0 0c7.67,-1.4 15.04,3.94 16.39,11.86l39.97 234.23c1.35,7.92 -3.81,15.54 -11.48,16.94l0 0c-7.67,1.39 -15.04,-3.94 -16.39,-11.86zm172.19 -158.82c-26.17,-153.38 17.27,-302.81 106.83,-413.75 -34.82,117.06 -43.19,257.13 -19.19,397.78 24,140.66 74.78,267.97 149.7,367.01 -120.88,-72.59 -211.17,-197.66 -237.34,-351.05z"/>
    <path class="fil2" d="M549.55 1386.28c39,-150.45 139.5,-266.91 266.04,-328.34 -78.22,89.48 -142.3,210.37 -178.41,345.74l-18.24 22.6c-35.51,43.99 -63.52,92.88 -83.54,144.74 -6.18,-60.27 -1.95,-122.7 14.14,-184.74z"/>
    <path class="fil3" d="M328.53 1455.01l59.57 -229.74c2.01,-7.77 9.81,-12.43 17.33,-10.33l0 0c7.53,2.07 12.03,10.14 10.01,17.9l-59.57 229.74c-2.02,7.76 -9.82,12.41 -17.33,10.34l0 0c-7.52,-2.09 -12.03,-10.14 -10.01,-17.92zm-168.74 -131.77l17.29 -66.68c2.15,-8.3 10.49,-13.28 18.52,-11.05l7.34 2.03c35.11,-54.56 101.2,-82.57 165.84,-64.68 1.47,0.4 2.9,0.83 4.34,1.27 3.84,-8.96 15.07,-13.6 26.4,-10.47 12.32,3.42 20.09,14.71 17.36,25.23 -0.51,1.97 -1.36,3.78 -2.48,5.4 5.4,3.76 10.52,7.85 15.36,12.25 2.7,0.57 5.38,1.21 8.08,1.97 72.78,20.15 115.99,97.48 96.49,172.69 -19.51,75.21 -94.35,119.86 -167.13,99.7 -2.7,-0.74 -5.34,-1.58 -7.95,-2.49 -6.31,1.32 -12.74,2.23 -19.22,2.69 0.19,1.97 0.04,3.98 -0.47,5.96 -2.73,10.51 -14.92,16.29 -27.24,12.88 -11.32,-3.14 -18.81,-12.96 -17.81,-22.7 -1.46,-0.36 -2.91,-0.75 -4.37,-1.14 -64.64,-17.9 -108.33,-76.29 -112.33,-141.7l-7.33 -2.02c-8.05,-2.24 -12.86,-10.84 -10.7,-19.16z"/>
    <path class="fil1" d="M441.94 728.57l43.83 -52.1c5.46,-6.48 15.06,-7.18 21.34,-1.53l5.74 5.15c54.71,-33.14 126,-28.38 176.5,16.99 1.14,1.03 2.25,2.06 3.35,3.11 7.26,-6.31 19.32,-5.39 28.18,2.56 9.62,8.64 11.82,22.31 4.89,30.54 -1.3,1.54 -2.83,2.78 -4.52,3.73 3.26,5.83 6.12,11.82 8.6,17.97 2.18,1.73 4.32,3.53 6.43,5.42 56.87,51.08 62.9,140.16 13.46,198.93 -49.44,58.76 -135.64,64.98 -192.51,13.9 -2.11,-1.88 -4.13,-3.84 -6.09,-5.83 -6.22,-1.68 -12.38,-3.78 -18.41,-6.3 -0.66,1.86 -1.65,3.59 -2.95,5.14 -6.91,8.22 -20.33,7.88 -29.94,-0.76 -8.85,-7.95 -11.41,-20.17 -6.37,-28.48 -1.16,-0.98 -2.31,-1.97 -3.46,-2.99 -50.5,-45.37 -64.98,-117.65 -40.84,-178.25l-5.73 -5.14c-6.28,-5.65 -6.96,-15.56 -1.5,-22.06zm95.76 194.88l151.01 -179.51c5.1,-6.07 14.09,-6.72 19.96,-1.44l0 0c5.88,5.27 6.5,14.56 1.39,20.62l-151.01 179.51c-5.11,6.06 -14.09,6.71 -19.96,1.45l0 0c-5.88,-5.28 -6.51,-14.56 -1.4,-20.63zm227.81 38.32c98.89,-117.54 238.62,-176.7 378.43,-174.6 -109.52,45.52 -219.65,126.47 -310.12,233.59l-28.78 13.97c-49.19,23.88 -93.78,55.17 -132.6,92.45 19.97,-59.08 50.92,-115.3 93.07,-165.42z"/>
    <path class="fil2" d="M1132.45 672.5c135.47,-68.28 286.47,-66.31 414.36,-7.93 -118.49,-2.33 -251.11,27.97 -375.34,90.58 -4.3,2.16 -8.57,4.35 -12.82,6.57l-14.35 -0.22c-54.02,-0.8 -107.06,7.03 -157.51,22.78 40.26,-45.06 89.12,-83.3 145.67,-111.8z"/>
    <path class="fil3" d="M937.25 545.25l206.89 -104.27c6.99,-3.52 15.5,-0.51 18.92,6.74l0 0c3.4,7.22 0.48,16.02 -6.52,19.54l-206.89 104.27c-7,3.52 -15.5,0.49 -18.92,-6.74l0 0c-3.41,-7.23 -0.48,-16.02 6.51,-19.54zm-14.46 -218.05l60.04 -30.26c7.48,-3.77 16.58,-0.54 20.24,7.2l3.32 7.05c62.9,-8.41 126.72,24.76 156.06,86.9 0.66,1.4 1.29,2.8 1.9,4.22 9.07,-2.88 19.82,2.84 24.97,13.73 5.59,11.83 2.44,25.31 -7.04,30.09 -1.79,0.9 -3.67,1.42 -5.57,1.61 0.79,6.68 1.16,13.36 1.12,20.01 1.36,2.48 2.64,4.99 3.87,7.59 33.04,69.98 4.9,154.4 -62.82,188.54 -67.73,34.13 -149.43,5.05 -182.47,-64.92 -1.22,-2.59 -2.35,-5.19 -3.4,-7.83 -5.1,-4.06 -9.98,-8.47 -14.58,-13.22 -1.31,1.44 -2.87,2.63 -4.65,3.53 -9.47,4.78 -21.69,-0.95 -27.28,-12.79 -5.14,-10.9 -2.89,-23.17 4.89,-28.79 -0.69,-1.37 -1.38,-2.75 -2.04,-4.14 -29.33,-62.15 -15.33,-134.53 29.8,-180.57l-3.33 -7.05c-3.65,-7.73 -0.51,-17.13 6.97,-20.9z"/>
    <path class="fil4" d="M2698.81 2147.26l-12.32 0c-3.08,-8.83 -8.33,-17.83 -15.85,-26.87 -7.46,-9.11 -14.92,-14.42 -22.28,-16.1 -3.19,-0.73 -7.62,-1.23 -13.24,-1.4 -5.63,-0.16 -10.33,-0.22 -14.01,-0.22l-32.6 0 0 89.84 23.14 0c5.84,0 11.14,-0.72 15.89,-2.12 4.75,-1.45 9.09,-4.19 12.98,-8.22 2.44,-2.51 4.92,-6.97 7.41,-13.29 2.43,-6.36 4.05,-11.9 4.81,-16.59l12.33 0 0 96.88 -12.33 0c-0.65,-4.57 -2.27,-10.33 -4.81,-17.26 -2.6,-6.94 -5.09,-11.74 -7.41,-14.31 -3.46,-3.97 -7.62,-6.65 -12.38,-8.11 -4.77,-1.51 -10.22,-2.24 -16.5,-2.24l-23.14 0 0 67.05c0,7.04 0.48,12.57 1.51,16.65 0.98,4.14 2.87,7.26 5.63,9.44 2.64,2.07 6.27,3.46 10.87,4.08 4.59,0.67 10.86,1 18.81,1 3.68,0 8.12,-0.04 13.31,-0.16 5.18,-0.12 9.72,-0.45 13.62,-1.01 4.43,-0.5 8.6,-1.34 12.49,-2.46 3.84,-1.07 6.71,-2.67 8.59,-4.75 5.09,-5.36 10.82,-13.57 17.14,-24.58 6.39,-11.01 10.54,-19.22 12.55,-24.7l11.68 0 -4.27 72.41 -211.16 0 0 -12.75c2.97,-0.22 6.97,-0.67 12.12,-1.27 5.07,-0.68 8.65,-1.45 10.81,-2.35 3.99,-1.74 6.7,-3.9 8.11,-6.59 1.36,-2.68 2.06,-6.09 2.06,-10.23l0 -163.93c0,-3.96 -0.6,-7.2 -1.74,-9.78 -1.19,-2.57 -4,-4.86 -8.43,-6.93 -2.76,-1.34 -6.65,-2.51 -11.63,-3.64 -4.98,-1.06 -8.75,-1.78 -11.3,-2.12l0 -12.75 199.53 0 0 59.35zm347.21 172.98l-94.09 0 0 -12.08c2.32,-0.33 4.69,-0.6 7.18,-0.83 2.54,-0.23 4.6,-0.73 6.28,-1.62 2.32,-1.12 3.78,-2.91 4.43,-5.48 0.6,-2.57 0.92,-5.87 0.92,-9.95l0 -76.43c0,-11.3 -1.94,-19.67 -5.78,-25.32 -3.84,-5.64 -9.36,-8.43 -16.5,-8.43 -4.54,0 -8.55,0.72 -12.11,2.23 -3.52,1.45 -6.76,3.31 -9.74,5.48 -3.03,2.29 -5.4,4.58 -7.08,6.88 -1.68,2.29 -3.14,4.25 -4.27,5.86l0 87.95c0,3.97 0.42,7.15 1.34,9.6 0.87,2.47 2.55,4.37 4.92,5.82 1.68,0.95 3.58,1.84 5.74,2.62 2.15,0.73 4.43,1.29 6.8,1.62l0 12.08 -89.86 0 0 -12.08c2,-0.22 4.38,-0.5 7.19,-0.83 2.87,-0.34 4.92,-0.84 6.27,-1.62 2.22,-1.18 3.67,-2.96 4.32,-5.25 0.71,-2.29 1.03,-5.65 1.03,-10.17l0 -76.43c0,-11.3 -1.94,-19.67 -5.78,-25.32 -3.84,-5.64 -9.36,-8.43 -16.49,-8.43 -4.54,0 -8.55,0.72 -12.11,2.23 -3.52,1.45 -6.77,3.31 -9.74,5.48 -3.02,2.29 -5.4,4.58 -7.08,6.88 -1.68,2.29 -3.14,4.25 -4.28,5.86l0 87.95c0,3.85 0.48,6.98 1.41,9.5 0.92,2.51 2.59,4.47 4.98,5.92 1.68,0.95 3.57,1.84 5.68,2.62 2.11,0.73 4.38,1.29 6.76,1.62l0 12.08 -94.73 0 0 -12.08c2.75,-0.22 5.41,-0.5 8.06,-0.83 2.64,-0.28 4.87,-0.84 6.81,-1.62 3.35,-1.29 5.68,-3.19 6.91,-5.64 1.25,-2.41 1.9,-5.65 1.9,-9.67l0 -94.99c0,-3.46 -0.92,-6.87 -2.7,-10.22 -1.79,-3.29 -3.95,-5.86 -6.49,-7.7 -1.9,-1.34 -4.27,-2.41 -7.2,-3.31 -2.91,-0.83 -6.1,-1.45 -9.57,-1.78l0 -12.07 75.82 -4.37 2.37 2.47 0 22.85 0.65 0c2.93,-2.73 6.44,-5.98 10.49,-9.72 4.06,-3.8 7.85,-6.81 11.47,-9.1 3.88,-2.62 8.86,-4.81 14.98,-6.53 6.11,-1.74 12.81,-2.64 20.06,-2.64 12,0 22.01,2.68 30.06,8.11 8.05,5.41 13.79,12.57 17.14,21.57l1.4 0c3.08,-2.97 6.81,-6.43 11.25,-10.4 4.43,-4.02 8.49,-7.2 12.17,-9.61 4.11,-2.73 9.36,-5.02 15.68,-6.86 6.38,-1.86 13.19,-2.81 20.5,-2.81 15.89,0 28.11,4.87 36.71,14.59 8.61,9.73 12.87,23.53 12.87,41.4l0 79.56c0,4.02 0.59,7.32 1.72,9.78 1.19,2.45 3.31,4.31 6.39,5.65 1.68,0.72 3.79,1.5 6.27,2.28 2.5,0.73 5.36,1.29 8.66,1.62l0 12.08zm208.18 -79.74c0,23.08 -7.41,42.86 -22.28,59.34 -14.86,16.47 -33.68,24.74 -56.5,24.74 -10.12,0 -18.33,-1.06 -24.66,-3.18 -6.33,-2.12 -11.57,-4.75 -15.68,-7.82l-1.25 0 0 45.81c0,3.81 0.82,7.1 2.44,9.95 1.62,2.79 3.95,4.85 6.86,6.19 2.87,1.18 6.87,2.24 12.06,3.25 5.25,0.95 9.57,1.56 13.03,1.79l0 12.41 -114.19 0 0 -12.41c2.64,-0.23 5.95,-0.62 9.95,-1.23 3.95,-0.61 6.97,-1.23 8.98,-1.84 3.35,-1.24 5.62,-3.25 6.81,-6.15 1.24,-2.91 1.84,-6.21 1.84,-9.89l0 -167.07c-0.33,-3.57 -1.13,-6.71 -2.43,-9.43 -1.3,-2.74 -3.41,-5.15 -6.22,-7.22 -2.11,-1.39 -4.92,-2.56 -8.39,-3.46 -3.46,-0.95 -6.85,-1.56 -10.21,-1.89l0 -12.07 77.11 -4.37 2.37 2.14 0 17.99 1.25 0.34c6.97,-7.32 14.71,-13.02 23.19,-17.04 8.49,-4.09 16.87,-6.1 25.2,-6.1 21.84,0 39.1,8 51.75,24.04 12.65,15.97 18.98,37.04 18.98,63.19zm-56.77 0.62c0,-8.22 -0.6,-16.09 -1.74,-23.58 -1.19,-7.49 -3.25,-14.19 -6.16,-20.12 -2.87,-5.86 -6.65,-10.56 -11.3,-14.07 -4.7,-3.52 -10.43,-5.25 -17.2,-5.25 -6.87,0 -12.33,1.23 -16.44,3.68 -4.11,2.47 -7.68,5.65 -10.77,9.62l0 93.03c0.65,2.18 1.84,4.98 3.63,8.43 1.78,3.46 3.62,6.2 5.4,8.27 2.65,2.97 5.63,5.13 9.04,6.59 3.35,1.39 7.03,2.12 11.03,2.12 10.44,0 18.82,-5.81 25.09,-17.49 6.27,-11.62 9.41,-28.71 9.41,-51.23zm173.78 79.12l-99.61 0 0 -12.08c2.76,-0.22 5.42,-0.5 8.01,-0.83 2.59,-0.34 4.92,-0.84 6.91,-1.62 3.41,-1.29 5.74,-3.19 6.93,-5.64 1.24,-2.47 1.83,-5.71 1.83,-9.72l0 -181.14c0,-4.14 -0.8,-7.99 -2.44,-11.51 -1.62,-3.52 -3.83,-6.26 -6.53,-8.1 -2.12,-1.4 -5.3,-2.79 -9.57,-4.08 -4.27,-1.28 -8.05,-2.06 -11.3,-2.29l0 -12.05 79.71 -4.37 2.38 2.63 0 218.79c0,4.02 0.7,7.32 2.06,9.78 1.41,2.51 3.62,4.47 6.71,5.92 2.11,0.95 4.33,1.84 6.65,2.62 2.32,0.73 5.07,1.29 8.27,1.62l0 12.08zm176.81 -142.92c7.79,7.54 13.8,16.53 17.9,27.05 4.11,10.44 6.16,21.79 6.16,34.02 0,12.12 -2.06,23.52 -6.1,34.31 -4.06,10.72 -10.01,19.89 -17.8,27.54 -8.33,8.16 -18.28,14.47 -29.84,18.83 -11.58,4.36 -24.77,6.54 -39.64,6.54 -12.87,0 -24.71,-1.91 -35.58,-5.76 -10.82,-3.8 -20.38,-9.5 -28.71,-17.15 -8,-7.32 -14.33,-16.32 -18.99,-27.1 -4.65,-10.73 -6.97,-22.74 -6.97,-36.09 0,-13.08 2.06,-24.71 6.12,-34.93 4.06,-10.17 10.16,-19.27 18.28,-27.26 7.79,-7.6 17.4,-13.52 28.88,-17.72 11.46,-4.18 24.27,-6.32 38.39,-6.32 14.77,0 27.79,2.14 39.04,6.32 11.24,4.19 20.87,10.12 28.87,17.72zm-40.49 113.3c2.32,-6.08 4.05,-13.46 5.13,-22.18 1.14,-8.7 1.68,-18.83 1.68,-30.38 0,-7.61 -0.54,-16.32 -1.57,-26.09 -1.08,-9.84 -2.65,-17.55 -4.76,-23.25 -2.54,-6.82 -6.06,-12.24 -10.54,-16.15 -4.49,-3.9 -10.17,-5.86 -17.03,-5.86 -7.52,0 -13.52,2.12 -18.01,6.37 -4.49,4.25 -7.95,9.72 -10.38,16.48 -2.22,6.21 -3.73,13.47 -4.6,21.79 -0.8,8.33 -1.24,17.05 -1.24,26.05 0,11.9 0.37,21.73 1.13,29.5 0.71,7.76 2.49,15.59 5.36,23.41 2.43,6.76 5.95,12.12 10.49,16.03 4.54,3.92 10.27,5.87 17.25,5.87 6.33,0 11.78,-1.85 16.32,-5.48 4.54,-3.64 8.12,-9 10.77,-16.1zm263.97 -120.56c-4.75,0.77 -9.35,2.62 -13.84,5.54 -4.54,2.96 -8.23,7.53 -11.2,13.74 -9.08,19.84 -18.43,40.96 -28.07,63.31 -9.62,22.4 -20.27,46.6 -32,72.63 -6.55,14.64 -12.93,26.37 -19.04,35.09 -6.17,8.77 -11.9,15.47 -17.31,20.17 -5.08,4.37 -10.11,7.55 -15.09,9.5 -4.98,1.96 -10.01,2.97 -15.08,2.97 -10.07,0 -18.17,-2.91 -24.33,-8.72 -6.22,-5.75 -9.31,-12.29 -9.31,-19.49 0,-3.08 0.33,-5.93 1.02,-8.55 0.71,-2.62 2.18,-5.36 4.39,-8.16 1.68,-2.4 4.28,-4.47 7.84,-6.15 3.52,-1.73 7.52,-2.57 11.96,-2.57 5.95,0 11.56,2.12 16.98,6.43 5.4,4.24 10.97,10.17 16.82,17.72 3.46,-3.64 7.78,-9.06 12.92,-16.27 5.13,-7.2 8.92,-14.58 11.35,-22.18 -12.61,-27.15 -23.69,-50.73 -33.42,-70.67 -9.67,-20.01 -20.54,-42.24 -32.6,-66.83 -2.64,-5.25 -6.16,-9.27 -10.59,-12.18 -4.44,-2.91 -9.13,-4.63 -14.11,-5.3l0 -12.08 97.01 0 0 12.08c-3.57,0.1 -7.68,0.95 -12.39,2.46 -4.65,1.51 -6.97,3.46 -6.97,5.86 0,0.89 0.11,1.85 0.44,2.85 0.32,1.07 0.92,2.56 1.72,4.46 3.62,7.6 8.71,18.16 15.26,31.63 6.59,13.52 14.27,29.33 23.04,47.43 6.47,-15.42 12.05,-28.67 16.59,-39.79 4.6,-11.06 9.02,-22.01 13.36,-32.74 1.08,-2.68 1.68,-4.86 1.84,-6.43 0.16,-1.56 0.21,-2.62 0.21,-3.18 0,-1.95 -0.92,-3.68 -2.75,-5.13 -1.84,-1.46 -4.06,-2.74 -6.55,-3.87 -2.64,-1.06 -5.19,-1.89 -7.62,-2.45 -2.43,-0.5 -4.44,-0.9 -6.01,-1.12l0 -12.08 65.53 0 0 12.08zm317.63 150.19l-94.09 0 0 -12.08c2.32,-0.33 4.7,-0.6 7.19,-0.83 2.54,-0.23 4.59,-0.73 6.28,-1.62 2.32,-1.12 3.78,-2.91 4.43,-5.48 0.6,-2.57 0.92,-5.87 0.92,-9.95l0 -76.43c0,-11.3 -1.94,-19.67 -5.78,-25.32 -3.84,-5.64 -9.36,-8.43 -16.5,-8.43 -4.54,0 -8.55,0.72 -12.11,2.23 -3.52,1.45 -6.77,3.31 -9.74,5.48 -3.03,2.29 -5.4,4.58 -7.08,6.88 -1.68,2.29 -3.14,4.25 -4.28,5.86l0 87.95c0,3.97 0.43,7.15 1.35,9.6 0.87,2.47 2.55,4.37 4.92,5.82 1.68,0.95 3.57,1.84 5.73,2.62 2.16,0.73 4.44,1.29 6.81,1.62l0 12.08 -89.86 0 0 -12.08c2,-0.22 4.38,-0.5 7.19,-0.83 2.87,-0.34 4.92,-0.84 6.27,-1.62 2.22,-1.18 3.67,-2.96 4.32,-5.25 0.71,-2.29 1.03,-5.65 1.03,-10.17l0 -76.43c0,-11.3 -1.94,-19.67 -5.78,-25.32 -3.84,-5.64 -9.36,-8.43 -16.49,-8.43 -4.54,0 -8.55,0.72 -12.12,2.23 -3.51,1.45 -6.76,3.31 -9.73,5.48 -3.02,2.29 -5.41,4.58 -7.09,6.88 -1.67,2.29 -3.14,4.25 -4.27,5.86l0 87.95c0,3.85 0.48,6.98 1.41,9.5 0.92,2.51 2.59,4.47 4.98,5.92 1.68,0.95 3.56,1.84 5.68,2.62 2.11,0.73 4.37,1.29 6.76,1.62l0 12.08 -94.73 0 0 -12.08c2.75,-0.22 5.4,-0.5 8.06,-0.83 2.64,-0.28 4.86,-0.84 6.81,-1.62 3.35,-1.29 5.68,-3.19 6.91,-5.64 1.25,-2.41 1.9,-5.65 1.9,-9.67l0 -94.99c0,-3.46 -0.92,-6.87 -2.7,-10.22 -1.79,-3.29 -3.95,-5.86 -6.49,-7.7 -1.9,-1.34 -4.27,-2.41 -7.2,-3.31 -2.91,-0.83 -6.1,-1.45 -9.57,-1.78l0 -12.07 75.82 -4.37 2.37 2.47 0 22.85 0.65 0c2.93,-2.73 6.43,-5.98 10.49,-9.72 4.06,-3.8 7.85,-6.81 11.47,-9.1 3.88,-2.62 8.86,-4.81 14.98,-6.53 6.11,-1.74 12.81,-2.64 20.06,-2.64 12,0 22.01,2.68 30.06,8.11 8.06,5.41 13.8,12.57 17.15,21.57l1.4 0c3.08,-2.97 6.81,-6.43 11.25,-10.4 4.43,-4.02 8.49,-7.2 12.17,-9.61 4.11,-2.73 9.35,-5.02 15.68,-6.86 6.39,-1.86 13.19,-2.81 20.5,-2.81 15.9,0 28.11,4.87 36.72,14.59 8.6,9.73 12.87,23.53 12.87,41.4l0 79.56c0,4.02 0.59,7.32 1.72,9.78 1.19,2.45 3.31,4.31 6.39,5.65 1.68,0.72 3.78,1.5 6.27,2.28 2.49,0.73 5.36,1.29 8.66,1.62l0 12.08zm185.47 -38.95c-3.68,6.21 -8.17,12.08 -13.36,17.61 -5.25,5.48 -11.2,10.17 -17.84,14.13 -7.03,4.14 -14.17,7.27 -21.41,9.39 -7.25,2.12 -15.52,3.19 -24.92,3.19 -15.63,0 -29.09,-2.29 -40.46,-6.88 -11.3,-4.57 -20.71,-10.72 -28.06,-18.49 -7.41,-7.76 -12.93,-16.88 -16.55,-27.43 -3.62,-10.51 -5.46,-21.96 -5.46,-34.25 0,-11.12 2,-21.79 5.95,-32.02 3.96,-10.17 9.57,-19.27 16.88,-27.2 7.14,-7.77 16.23,-14.02 27.14,-18.83 10.92,-4.81 23.14,-7.22 36.6,-7.22 14.82,0 26.93,1.86 36.45,5.6 9.47,3.69 17.36,8.83 23.58,15.37 6,6.19 10.37,13.52 13.14,21.96 2.76,8.43 4.11,17.32 4.11,26.59l0 10.61 -107.06 0c0,22.41 4.16,39.45 12.49,51.19 8.38,11.67 21.63,17.53 39.74,17.53 9.95,0 18.87,-2.79 26.77,-8.43 7.95,-5.63 14.7,-12.79 20.27,-21.39l12.01 8.99zm-60.35 -62.29c0,-6.47 -0.33,-13.18 -0.98,-20 -0.59,-6.88 -1.73,-12.46 -3.29,-16.83 -1.78,-5.08 -4.27,-8.93 -7.41,-11.56 -3.08,-2.62 -7.02,-3.91 -11.79,-3.91 -8.17,0 -14.65,4.24 -19.52,12.74 -4.86,8.43 -7.52,21.84 -7.94,40.23l50.93 -0.67zm284.8 101.25l-95.38 0 0 -12.08c2,-0.22 4.49,-0.5 7.35,-0.83 2.86,-0.34 5.02,-0.84 6.53,-1.62 2.22,-1.18 3.84,-2.96 4.77,-5.25 0.97,-2.29 1.45,-5.65 1.45,-10.17l0 -76.6c0,-11.12 -1.94,-19.5 -5.89,-25.15 -3.95,-5.64 -9.78,-8.43 -17.46,-8.43 -4.21,0 -8.11,0.67 -11.73,1.95 -3.62,1.34 -7.2,3.24 -10.65,5.75 -3.08,2.18 -5.51,4.42 -7.35,6.71 -1.84,2.29 -3.41,4.31 -4.65,6.03l0 87.95c0,3.85 0.53,7.04 1.56,9.6 1.03,2.58 2.76,4.48 5.19,5.82 1.68,0.95 3.78,1.84 6.28,2.62 2.53,0.73 4.98,1.29 7.41,1.62l0 12.08 -96.37 0 0 -12.08c2.66,-0.22 5.3,-0.5 7.96,-0.89 2.7,-0.39 4.97,-0.89 6.91,-1.56 3.35,-1.18 5.68,-3.02 6.93,-5.54 1.24,-2.51 1.88,-5.75 1.88,-9.78l0 -94.99c0,-3.4 -0.86,-6.7 -2.53,-9.94 -1.68,-3.31 -3.9,-5.92 -6.66,-7.99 -1.88,-1.34 -4.27,-2.41 -7.18,-3.31 -2.93,-0.83 -6.12,-1.45 -9.57,-1.78l0 -12.07 75.81 -4.37 2.38 2.47 0 23.52 0.65 0c2.91,-2.73 6.49,-5.98 10.71,-9.83 4.21,-3.81 8.11,-6.94 11.68,-9.34 3.89,-2.62 8.96,-4.85 15.29,-6.69 6.34,-1.86 13.04,-2.81 20.23,-2.81 17.14,0 30.01,5.04 38.56,15.15 8.6,10.12 12.87,23.47 12.87,40.17l0 80.23c0,4.02 0.6,7.27 1.73,9.67 1.19,2.4 3.36,4.29 6.55,5.76 1.68,0.72 3.78,1.5 6.27,2.28 2.49,0.73 5.3,1.29 8.49,1.62l0 12.08zm132.37 -7.49c-6.76,3.01 -13.95,5.75 -21.63,8.22 -7.73,2.4 -17.08,3.62 -28.17,3.62 -16.44,0 -28.6,-4.14 -36.55,-12.4 -7.96,-8.27 -11.96,-20.11 -11.96,-35.49l0 -100.28 -28.54 0 0 -17.78 29.19 0 0 -49.61 51.27 0 0 49.61 44.45 0 0 17.78 -44.12 0 0 89.56c0,12.73 1.72,21.79 5.13,27.16 3.46,5.3 9.57,7.99 18.44,7.99 2.86,0 6.81,-0.22 11.9,-0.62 5.07,-0.39 8.59,-0.89 10.59,-1.39l0 13.63z"/>
    <path class="fil4" d="M3270.48 2477.99c0,7.53 -1.48,14.01 -4.49,19.42 -3,5.41 -7.13,9.8 -12.43,13.19 -5.46,3.52 -11.69,6.06 -18.68,7.63 -7,1.56 -14.88,2.33 -23.63,2.33l-10.54 0 0 37.42c0,2.24 0.39,4.2 1.24,5.86 0.83,1.63 2.41,2.99 4.75,3.98 1.24,0.51 3.23,1.02 5.98,1.6 2.76,0.55 5.13,0.93 7.02,1.12l0 7.31 -70.15 0 0 -7.31c1.77,-0.19 4.09,-0.45 7.03,-0.8 2.92,-0.35 4.93,-0.77 6.12,-1.28 2.35,-0.99 3.94,-2.21 4.69,-3.66 0.77,-1.44 1.14,-3.42 1.14,-5.98l0 -94.02c0,-2.21 -0.37,-4.09 -1.08,-5.7 -0.75,-1.6 -2.32,-2.91 -4.75,-3.96 -1.71,-0.77 -3.97,-1.45 -6.79,-2.03 -2.85,-0.61 -4.95,-0.99 -6.36,-1.19l0 -7.29 71.2 0c16.68,0 29.12,2.75 37.36,8.23 8.26,5.48 12.37,13.84 12.37,25.12zm-35.35 4.75c0,-10.03 -1.96,-17.49 -5.89,-22.33 -3.92,-4.87 -10.92,-7.31 -20.97,-7.31l-7.56 0 0 58.64 3.84 0c9.98,0 17.55,-2.37 22.75,-7.12 5.21,-4.75 7.82,-12.01 7.82,-21.88zm134.55 19.13c0,4.78 -1.44,8.94 -4.25,12.52 -2.85,3.62 -6.61,5.42 -11.26,5.42 -4.4,0 -8.13,-1.15 -11.15,-3.46 -3.08,-2.31 -4.6,-5.67 -4.6,-10.16 0,-2.18 0.16,-3.87 0.47,-5.1 0.28,-1.22 0.55,-2.34 0.8,-3.4 -2.76,0.13 -5.71,1.13 -8.78,2.94 -3.07,1.86 -5.77,4.33 -8.13,7.44l0 51.51c0,2.18 0.35,4.01 1,5.42 0.68,1.44 1.8,2.56 3.35,3.4 1.33,0.67 3.49,1.25 6.47,1.73 2.98,0.48 5.15,0.73 6.48,0.8l0 6.91 -60.84 0 0 -6.91c1.52,-0.13 3.04,-0.29 4.56,-0.52 1.55,-0.22 2.85,-0.51 3.96,-0.89 1.93,-0.68 3.26,-1.73 3.97,-3.17 0.72,-1.44 1.09,-3.3 1.09,-5.6l0 -54.47c0,-2.24 -0.52,-4.26 -1.55,-6.06 -1.03,-1.76 -2.26,-3.17 -3.72,-4.23 -1.09,-0.77 -2.45,-1.38 -4.13,-1.89 -1.68,-0.48 -3.51,-0.83 -5.48,-1.02l0 -6.92 43.47 -2.5 1.36 1.4 0 13.49 0.38 0c4.15,-4.99 8.59,-8.94 13.24,-11.79 4.68,-2.85 9.55,-4.26 14.63,-4.26 5.61,0 10.1,1.8 13.52,5.42 3.42,3.59 5.13,8.24 5.13,13.94zm63.63 76l-57.12 0 0 -6.91c1.55,-0.13 3.08,-0.29 4.57,-0.48 1.48,-0.16 2.76,-0.48 3.84,-0.93 1.88,-0.74 3.26,-1.83 4.03,-3.24 0.77,-1.37 1.14,-3.23 1.14,-5.54l0 -54.47c0,-2.18 -0.49,-4.11 -1.45,-5.77 -0.96,-1.63 -2.17,-2.97 -3.59,-3.97 -1.1,-0.73 -2.73,-1.48 -4.93,-2.15 -2.21,-0.7 -4.22,-1.12 -6.01,-1.31l0 -6.92 44.58 -2.5 1.36 1.4 0 74.44c0,2.18 0.43,4.03 1.33,5.57 0.9,1.53 2.17,2.7 3.84,3.43 1.21,0.55 2.52,1.06 3.94,1.51 1.42,0.41 2.91,0.73 4.46,0.93l0 6.91zm-13.02 -127.91c0,4.78 -1.77,8.81 -5.33,12.14 -3.54,3.36 -7.73,5.04 -12.57,5.04 -4.92,0 -9.14,-1.68 -12.68,-5.04 -3.56,-3.33 -5.33,-7.37 -5.33,-12.14 0,-4.74 1.77,-8.81 5.33,-12.18 3.54,-3.36 7.76,-5.05 12.68,-5.05 4.9,0 9.12,1.69 12.62,5.05 3.51,3.38 5.27,7.44 5.27,12.18zm124.94 41.78c-2.73,0.45 -5.37,1.51 -7.93,3.17 -2.58,1.7 -4.72,4.32 -6.42,7.88 -4.22,9.1 -8.41,18.3 -12.46,27.56 -4.09,9.28 -8.13,18.25 -12.06,26.94 -1.21,2.62 -2.58,5.99 -4.13,10.09 -1.55,4.14 -2.82,7.89 -3.84,11.25l-16.71 0c-6.98,-16.66 -12.93,-30.5 -17.86,-41.49 -4.93,-11 -10.14,-22.78 -15.67,-35.38 -1.27,-2.94 -3.25,-5.25 -5.95,-6.94 -2.7,-1.68 -5.43,-2.7 -8.23,-3.08l0 -6.92 56.01 0 0 6.92c-2.12,0.07 -4.6,0.55 -7.45,1.41 -2.85,0.87 -4.27,2 -4.27,3.37 0,0.39 0.11,0.93 0.37,1.7 0.25,0.74 0.52,1.57 0.9,2.53 1.94,4.75 4.9,11.6 8.84,20.57 3.94,8.93 8.09,18.38 12.46,28.29 3.04,-6.85 5.95,-13.52 8.72,-20.09 2.75,-6.53 6.17,-14.89 10.23,-25.06 0.56,-1.47 0.87,-2.69 0.96,-3.65 0.1,-0.93 0.12,-1.53 0.12,-1.86 0,-1.13 -0.52,-2.12 -1.57,-2.95 -1.06,-0.83 -2.32,-1.57 -3.79,-2.21 -1.52,-0.61 -2.97,-1.09 -4.37,-1.41 -1.39,-0.29 -2.58,-0.51 -3.48,-0.64l0 -6.92 37.59 0 0 6.92zm105.64 84.18c-2.64,1.21 -5.77,2.3 -9.4,3.33 -3.6,0.99 -7.41,1.51 -11.44,1.51 -7.41,0 -12.83,-1.15 -16.34,-3.43 -3.47,-2.28 -5.86,-5.54 -7.13,-9.8l-0.54 0c-2.07,2.11 -4.05,3.94 -5.95,5.45 -1.93,1.51 -3.97,2.79 -6.17,3.84 -2.86,1.38 -5.58,2.4 -8.26,3.11 -2.63,0.67 -6.33,1.02 -11.03,1.02 -7.07,0 -13.08,-2.14 -18.05,-6.43 -5,-4.3 -7.47,-9.98 -7.47,-17.05 0,-4.08 0.56,-7.53 1.65,-10.38 1.08,-2.85 2.63,-5.39 4.65,-7.57 1.8,-2.01 3.93,-3.68 6.33,-4.99 2.38,-1.31 5.02,-2.53 7.88,-3.66 5.45,-2.05 12.03,-4.19 19.66,-6.44 7.65,-2.2 13.23,-4.19 16.76,-5.95l0 -9c0,-1.57 -0.11,-3.65 -0.37,-6.23 -0.25,-2.56 -0.75,-4.7 -1.55,-6.46 -0.83,-2.03 -2.2,-3.72 -4.03,-5.1 -1.8,-1.39 -4.22,-2.06 -7.2,-2.06 -2.69,0 -4.93,0.38 -6.73,1.18 -1.8,0.77 -3.22,1.57 -4.34,2.37 0.19,1.25 0.72,3.17 1.55,5.74 0.84,2.56 1.28,5.04 1.28,7.44 0,1.07 -0.28,2.38 -0.81,3.98 -0.56,1.59 -1.33,2.88 -2.38,3.81 -1.37,1.25 -2.94,2.21 -4.65,2.91 -1.74,0.67 -4.41,1.04 -7.97,1.04 -5.09,0 -8.93,-1.28 -11.54,-3.81 -2.6,-2.53 -3.9,-5.83 -3.9,-9.9 0,-3.49 1.33,-6.63 4.03,-9.42 2.7,-2.79 5.99,-5.1 9.86,-6.89 3.81,-1.88 8.21,-3.33 13.17,-4.38 5,-1.03 9.59,-1.54 13.83,-1.54 5.86,0 11.26,0.35 16.19,1.1 4.9,0.7 9.31,2.17 13.24,4.45 3.79,2.18 6.77,5.35 8.96,9.51 2.21,4.13 3.32,9.54 3.32,16.24 0,7.09 -0.13,15.44 -0.38,25.12 -0.24,9.68 -0.37,16.06 -0.37,19.13 0,2.82 0.4,5.04 1.21,6.67 0.8,1.6 2.04,2.82 3.69,3.65 1.02,0.48 2.61,0.8 4.78,0.9 2.21,0.09 4.16,0.12 5.95,0.12l0 6.9zm-44.84 -48.81c-3.4,1.19 -6.82,2.56 -10.17,4.11 -3.37,1.54 -6.1,3.14 -8.24,4.84 -2.26,1.77 -4.03,4.02 -5.33,6.74 -1.27,2.73 -1.92,5.93 -1.92,9.64 0,4.87 1.09,8.43 3.26,10.61 2.17,2.21 4.84,3.3 8.03,3.3 3.35,0 6.11,-0.71 8.28,-2.12 2.18,-1.42 4.09,-3.14 5.74,-5.22l0.37 -31.9zm119.39 46.47c-3.87,1.73 -7.99,3.3 -12.41,4.71 -4.43,1.37 -9.79,2.09 -16.15,2.09 -9.42,0 -16.41,-2.38 -20.97,-7.12 -4.56,-4.75 -6.85,-11.53 -6.85,-20.35l0 -57.51 -16.37 0 0 -10.18 16.74 0 0 -28.45 29.39 0 0 28.45 25.5 0 0 10.18 -25.3 0 0 51.37c0,7.3 0.99,12.49 2.94,15.56 1.99,3.05 5.48,4.58 10.57,4.58 1.65,0 3.91,-0.13 6.82,-0.35 2.91,-0.22 4.92,-0.51 6.07,-0.8l0 7.82zm104.1 -18.04c-2.11,3.55 -4.68,6.91 -7.65,10.09 -3.02,3.14 -6.42,5.83 -10.24,8.11 -4.03,2.37 -8.11,4.16 -12.27,5.39 -4.16,1.21 -8.9,1.82 -14.3,1.82 -8.96,0 -16.68,-1.31 -23.19,-3.93 -6.5,-2.63 -11.89,-6.15 -16.1,-10.61 -4.25,-4.45 -7.41,-9.68 -9.48,-15.73 -2.09,-6.03 -3.14,-12.6 -3.14,-19.64 0,-6.38 1.15,-12.5 3.4,-18.36 2.27,-5.83 5.49,-11.06 9.68,-15.61 4.1,-4.45 9.3,-8.05 15.56,-10.8 6.27,-2.75 13.28,-4.14 21,-4.14 8.49,0 15.44,1.07 20.9,3.2 5.43,2.11 9.95,5.07 13.52,8.81 3.44,3.56 5.95,7.76 7.53,12.59 1.59,4.84 2.36,9.94 2.36,15.26l0 6.08 -61.41 0c0,12.85 2.4,22.63 7.17,29.36 4.81,6.69 12.41,10.06 22.8,10.06 5.7,0 10.82,-1.6 15.34,-4.84 4.56,-3.23 8.43,-7.34 11.64,-12.27l6.88 5.16zm-34.6 -35.73c0,-3.72 -0.19,-7.56 -0.57,-11.47 -0.34,-3.93 -0.98,-7.14 -1.88,-9.64 -1.03,-2.91 -2.45,-5.12 -4.25,-6.63 -1.77,-1.51 -4.04,-2.24 -6.76,-2.24 -4.69,0 -8.41,2.43 -11.2,7.31 -2.79,4.83 -4.31,12.53 -4.57,23.07l29.22 -0.39zm212.96 15.39l-2.54 42.68 -118.95 0 0 -7.31c2.14,-0.19 4.62,-0.48 7.47,-0.89 2.86,-0.42 4.75,-0.81 5.68,-1.19 2.17,-0.86 3.69,-2.09 4.56,-3.66 0.83,-1.56 1.27,-3.55 1.27,-5.98l0 -94.02c0,-2.27 -0.34,-4.13 -0.99,-5.6 -0.69,-1.47 -2.29,-2.78 -4.84,-3.97 -1.89,-0.89 -4.16,-1.6 -6.82,-2.12 -2.64,-0.55 -4.75,-0.93 -6.33,-1.19l0 -7.29 70.69 0 0 7.29c-1.91,0.2 -4.22,0.45 -6.82,0.8 -2.64,0.36 -4.9,0.84 -6.82,1.44 -2.35,0.84 -3.94,2.09 -4.72,3.81 -0.77,1.74 -1.17,3.7 -1.17,5.86l0 87.7c0,4.14 0.28,7.37 0.8,9.78 0.56,2.37 1.61,4.13 3.2,5.25 1.58,1.19 3.78,1.95 6.61,2.31 2.82,0.35 6.72,0.51 11.67,0.51 4.87,0 9.6,-0.29 14.18,-0.9 4.56,-0.57 7.88,-1.89 9.86,-3.9 3.1,-3.17 6.27,-7.7 9.52,-13.49 3.26,-5.8 5.83,-11.09 7.79,-15.92l6.7 0zm62.6 42.68l-57.12 0 0 -6.91c1.55,-0.13 3.07,-0.29 4.56,-0.48 1.48,-0.16 2.76,-0.48 3.84,-0.93 1.89,-0.74 3.26,-1.83 4.03,-3.24 0.77,-1.37 1.14,-3.23 1.14,-5.54l0 -54.47c0,-2.18 -0.49,-4.11 -1.45,-5.77 -0.95,-1.63 -2.17,-2.97 -3.59,-3.97 -1.1,-0.73 -2.73,-1.48 -4.93,-2.15 -2.21,-0.7 -4.22,-1.12 -6.01,-1.31l0 -6.92 44.58 -2.5 1.37 1.4 0 74.44c0,2.18 0.42,4.03 1.33,5.57 0.9,1.53 2.17,2.7 3.84,3.43 1.21,0.55 2.52,1.06 3.94,1.51 1.42,0.41 2.91,0.73 4.46,0.93l0 6.91zm-13.02 -127.91c0,4.78 -1.77,8.81 -5.33,12.14 -3.54,3.36 -7.72,5.04 -12.57,5.04 -4.92,0 -9.14,-1.68 -12.67,-5.04 -3.57,-3.33 -5.34,-7.37 -5.34,-12.14 0,-4.74 1.77,-8.81 5.34,-12.18 3.53,-3.36 7.75,-5.05 12.67,-5.05 4.9,0 9.12,1.69 12.63,5.05 3.5,3.38 5.27,7.44 5.27,12.18zm201.59 127.91l-53.96 0 0 -6.91c1.33,-0.2 2.7,-0.37 4.13,-0.48 1.46,-0.13 2.63,-0.42 3.59,-0.93 1.34,-0.64 2.18,-1.67 2.55,-3.14 0.34,-1.47 0.52,-3.36 0.52,-5.7l0 -43.83c0,-6.47 -1.11,-11.28 -3.31,-14.51 -2.2,-3.23 -5.37,-4.84 -9.47,-4.84 -2.59,0 -4.89,0.42 -6.94,1.29 -2.01,0.83 -3.87,1.88 -5.58,3.13 -1.73,1.31 -3.1,2.64 -4.05,3.95 -0.96,1.31 -1.8,2.43 -2.45,3.36l0 50.44c0,2.27 0.25,4.09 0.77,5.5 0.49,1.42 1.45,2.5 2.82,3.34 0.97,0.55 2.06,1.06 3.29,1.51 1.24,0.41 2.54,0.73 3.9,0.93l0 6.91 -51.54 0 0 -6.91c1.15,-0.13 2.51,-0.29 4.12,-0.48 1.65,-0.2 2.83,-0.48 3.61,-0.93 1.27,-0.68 2.1,-1.7 2.47,-3.01 0.4,-1.31 0.6,-3.24 0.6,-5.83l0 -43.83c0,-6.47 -1.13,-11.28 -3.32,-14.51 -2.2,-3.23 -5.36,-4.84 -9.45,-4.84 -2.61,0 -4.9,0.42 -6.94,1.29 -2.02,0.83 -3.87,1.88 -5.59,3.13 -1.74,1.31 -3.11,2.64 -4.06,3.95 -0.96,1.31 -1.8,2.43 -2.45,3.36l0 50.44c0,2.21 0.28,4 0.8,5.44 0.53,1.45 1.49,2.56 2.85,3.4 0.96,0.55 2.05,1.06 3.26,1.51 1.21,0.41 2.51,0.73 3.87,0.93l0 6.91 -54.32 0 0 -6.91c1.58,-0.13 3.1,-0.29 4.62,-0.48 1.52,-0.16 2.79,-0.48 3.9,-0.93 1.93,-0.74 3.26,-1.83 3.97,-3.24 0.71,-1.37 1.09,-3.23 1.09,-5.54l0 -54.47c0,-1.99 -0.54,-3.94 -1.55,-5.86 -1.03,-1.89 -2.26,-3.37 -3.72,-4.43 -1.09,-0.77 -2.45,-1.38 -4.13,-1.89 -1.68,-0.48 -3.51,-0.83 -5.49,-1.02l0 -6.92 43.47 -2.5 1.36 1.4 0 13.11 0.38 0c1.67,-1.57 3.69,-3.43 6.01,-5.57 2.32,-2.18 4.49,-3.92 6.56,-5.23 2.24,-1.51 5.09,-2.75 8.6,-3.75 3.5,-0.99 7.35,-1.51 11.5,-1.51 6.88,0 12.62,1.54 17.24,4.64 4.63,3.11 7.91,7.21 9.83,12.38l0.81 0c1.77,-1.7 3.9,-3.68 6.44,-5.97 2.54,-2.3 4.87,-4.14 6.98,-5.51 2.35,-1.57 5.36,-2.88 8.99,-3.94 3.67,-1.06 7.57,-1.6 11.75,-1.6 9.12,0 16.13,2.79 21.06,8.36 4.93,5.57 7.38,13.49 7.38,23.74l0 45.63c0,2.3 0.34,4.19 0.98,5.6 0.69,1.42 1.89,2.47 3.67,3.23 0.95,0.42 2.17,0.87 3.59,1.33 1.42,0.41 3.07,0.73 4.96,0.93l0 6.91zm66.18 0l-57.12 0 0 -6.91c1.55,-0.13 3.07,-0.29 4.57,-0.48 1.48,-0.16 2.76,-0.48 3.84,-0.93 1.88,-0.74 3.26,-1.83 4.03,-3.24 0.77,-1.37 1.14,-3.23 1.14,-5.54l0 -54.47c0,-2.18 -0.49,-4.11 -1.45,-5.77 -0.96,-1.63 -2.17,-2.97 -3.59,-3.97 -1.1,-0.73 -2.73,-1.48 -4.93,-2.15 -2.21,-0.7 -4.22,-1.12 -6.01,-1.31l0 -6.92 44.58 -2.5 1.36 1.4 0 74.44c0,2.18 0.43,4.03 1.33,5.57 0.9,1.53 2.18,2.7 3.85,3.43 1.21,0.55 2.52,1.06 3.94,1.51 1.42,0.41 2.91,0.73 4.46,0.93l0 6.91zm-13.03 -127.91c0,4.78 -1.76,8.81 -5.33,12.14 -3.53,3.36 -7.72,5.04 -12.56,5.04 -4.93,0 -9.14,-1.68 -12.68,-5.04 -3.56,-3.33 -5.33,-7.37 -5.33,-12.14 0,-4.74 1.77,-8.81 5.33,-12.18 3.54,-3.36 7.75,-5.05 12.68,-5.05 4.9,0 9.12,1.69 12.62,5.05 3.51,3.38 5.27,7.44 5.27,12.18zm88.85 123.62c-3.87,1.73 -8,3.3 -12.41,4.71 -4.43,1.37 -9.8,2.09 -16.15,2.09 -9.42,0 -16.41,-2.38 -20.96,-7.12 -4.56,-4.75 -6.86,-11.53 -6.86,-20.35l0 -57.51 -16.37 0 0 -10.18 16.75 0 0 -28.45 29.39 0 0 28.45 25.5 0 0 10.18 -25.3 0 0 51.37c0,7.3 0.98,12.49 2.94,15.56 1.99,3.05 5.48,4.58 10.56,4.58 1.65,0 3.92,-0.13 6.83,-0.35 2.91,-0.22 4.92,-0.51 6.07,-0.8l0 7.82zm104.09 -18.04c-2.1,3.55 -4.68,6.91 -7.65,10.09 -3.01,3.14 -6.42,5.83 -10.24,8.11 -4.03,2.37 -8.12,4.16 -12.27,5.39 -4.16,1.21 -8.9,1.82 -14.3,1.82 -8.96,0 -16.68,-1.31 -23.19,-3.93 -6.49,-2.63 -11.88,-6.15 -16.1,-10.61 -4.24,-4.45 -7.41,-9.68 -9.48,-15.73 -2.09,-6.03 -3.14,-12.6 -3.14,-19.64 0,-6.38 1.15,-12.5 3.41,-18.36 2.26,-5.83 5.49,-11.06 9.68,-15.61 4.1,-4.45 9.3,-8.05 15.56,-10.8 6.27,-2.75 13.27,-4.14 21,-4.14 8.49,0 15.44,1.07 20.9,3.2 5.42,2.11 9.95,5.07 13.52,8.81 3.44,3.56 5.95,7.76 7.53,12.59 1.59,4.84 2.37,9.94 2.37,15.26l0 6.08 -61.41 0c0,12.85 2.39,22.63 7.17,29.36 4.81,6.69 12.4,10.06 22.79,10.06 5.71,0 10.83,-1.6 15.35,-4.84 4.56,-3.23 8.43,-7.34 11.63,-12.27l6.88 5.16zm-34.6 -35.73c0,-3.72 -0.18,-7.56 -0.56,-11.47 -0.34,-3.93 -0.99,-7.14 -1.89,-9.64 -1.02,-2.91 -2.45,-5.12 -4.24,-6.63 -1.77,-1.51 -4.04,-2.24 -6.77,-2.24 -4.69,0 -8.4,2.43 -11.2,7.31 -2.79,4.83 -4.31,12.53 -4.56,23.07l29.21 -0.39zm160.72 56.14l-44.78 2.69 -1.36 -1.31 0 -8.63 -0.62 -0.16c-2.97,3.3 -6.97,6.21 -12.03,8.69 -5.03,2.46 -10.11,3.71 -15.26,3.71 -12.21,0 -22.25,-4.7 -30.17,-14.09 -7.91,-9.42 -11.88,-21.57 -11.88,-36.49 0,-13.2 4.43,-24.54 13.27,-34.03 8.84,-9.45 19.57,-14.19 32.13,-14.19 4.96,0 9.61,0.58 13.95,1.74 4.34,1.15 7.82,2.53 10.42,4.1l0 -30.56c0,-2.32 -0.46,-4.5 -1.36,-6.51 -0.9,-2.05 -2.11,-3.62 -3.63,-4.74 -1.86,-1.35 -4.19,-2.35 -7,-2.96 -2.79,-0.57 -5.61,-0.99 -8.47,-1.24l0 -6.93 49.05 -2.5 1.36 1.51 0 123.08c0,2.37 0.38,4.38 1.12,5.98 0.77,1.64 1.98,2.92 3.69,3.84 1.24,0.71 3.1,1.22 5.55,1.51 2.45,0.32 4.44,0.51 6.02,0.57l0 6.93zm-46.33 -16.76l0 -53.22c-0.43,-1.44 -1.02,-3.05 -1.77,-4.81 -0.74,-1.76 -1.8,-3.42 -3.13,-4.99 -1.21,-1.31 -2.82,-2.5 -4.84,-3.49 -2.02,-0.99 -4.31,-1.51 -6.83,-1.51 -6.04,0 -11,3.55 -14.85,10.63 -3.87,7.12 -5.8,17.11 -5.8,30.06 0,5.1 0.35,9.68 1.06,13.72 0.69,4.07 1.9,7.76 3.67,11.09 1.73,3.34 3.99,5.93 6.73,7.82 2.76,1.89 6.07,2.82 9.92,2.82 3.7,0 6.74,-0.74 9.15,-2.21 2.42,-1.48 4.66,-3.43 6.7,-5.89z"/>
    <g>
     <path class="fil5" d="M2490.21 1676.64l-24.84 0 0 0 -1.15 -46.88 -3.4 -46.25 -5.61 -45.57 -7.75 -44.85 -9.84 -44.05 -11.88 -43.22 -13.86 -42.31 -15.78 -41.35 -17.66 -40.34 -19.47 -39.27 -21.23 -38.15 -22.93 -36.95 -24.58 -35.71 -26.17 -34.41 -27.71 -33.06 -29.19 -31.63 -30.61 -30.17 -31.99 -28.63 -33.3 -27.05 -34.56 -25.4 -35.77 -23.69 -36.91 -21.94 -38 -20.11 -39.05 -18.25 -40.02 -16.31 -40.95 -14.31 -41.82 -12.28 -42.64 -10.18 -43.41 -8 -44.11 -5.8 -44.76 -3.52 -45.37 -1.18 0 -25.66 46.62 1.21 46.01 3.61 45.36 5.96 44.63 8.24 43.85 10.46 43.01 12.62 42.11 14.73 41.16 16.77 40.15 18.75 39.09 20.69 37.95 22.55 36.77 24.36 35.53 26.11 34.24 27.79 32.89 29.44 31.48 31.02 30.01 32.52 28.48 33.98 26.9 35.38 25.26 36.71 23.59 38 21.82 39.22 20.02 40.37 18.15 41.49 16.23 42.53 14.26 43.52 12.21 44.44 10.13 45.31 7.97 46.12 5.76 46.86 3.51 47.55 1.18 48.18 0 0zm-906.33 936.52l0 -25.66 0 0 45.37 -1.18 44.76 -3.52 44.11 -5.8 43.41 -8 42.64 -10.18 41.82 -12.28 40.96 -14.31 40.02 -16.31 39.05 -18.25 38 -20.11 36.91 -21.94 35.77 -23.69 34.56 -25.4 33.3 -27.05 31.99 -28.64 30.61 -30.16 29.19 -31.63 27.71 -33.05 26.17 -34.42 24.59 -35.71 22.93 -36.95 21.23 -38.15 19.47 -39.27 17.66 -40.34 15.79 -41.35 13.85 -42.31 11.88 -43.22 9.84 -44.06 7.76 -44.84 5.61 -45.58 3.4 -46.25 1.15 -46.88 24.84 0 -1.18 48.18 -3.5 47.55 -5.76 46.86 -7.98 46.11 -10.13 45.31 -12.21 44.44 -14.25 43.52 -16.23 42.53 -18.15 41.49 -20.02 40.37 -21.82 39.22 -23.58 38 -25.27 36.72 -26.9 35.38 -28.48 33.97 -30.01 32.53 -31.48 31.01 -32.89 29.43 -34.24 27.81 -35.53 26.11 -36.77 24.36 -37.95 22.55 -39.09 20.69 -40.15 18.75 -41.16 16.77 -42.12 14.73 -43.01 12.62 -43.85 10.46 -44.63 8.24 -45.36 5.96 -46.01 3.61 -46.62 1.21 0 0zm-906.33 -936.52l24.84 0 0 0 1.15 46.88 3.4 46.25 5.61 45.58 7.75 44.84 9.84 44.06 11.88 43.22 13.86 42.31 15.78 41.35 17.66 40.34 19.47 39.27 21.23 38.15 22.93 36.95 24.58 35.72 26.17 34.41 27.72 33.05 29.18 31.63 30.62 30.16 31.99 28.64 33.3 27.05 34.56 25.4 35.77 23.69 36.91 21.93 38.01 20.12 39.04 18.25 40.02 16.31 40.96 14.31 41.82 12.28 42.64 10.18 43.41 8 44.11 5.8 44.76 3.52 45.37 1.18 0 25.66 -46.62 -1.21 -46.01 -3.61 -45.36 -5.96 -44.63 -8.24 -43.85 -10.46 -43.01 -12.62 -42.12 -14.73 -41.16 -16.77 -40.14 -18.75 -39.09 -20.68 -37.95 -22.56 -36.77 -24.36 -35.53 -26.11 -34.24 -27.81 -32.88 -29.43 -31.49 -31.01 -30 -32.53 -28.49 -33.97 -26.9 -35.38 -25.26 -36.72 -23.59 -38 -21.82 -39.22 -20.02 -40.37 -18.15 -41.49 -16.23 -42.53 -14.26 -43.52 -12.21 -44.44 -10.13 -45.31 -7.97 -46.11 -5.76 -46.86 -3.51 -47.55 -1.18 -48.18 0 0zm906.34 -936.5l0 25.66 0 0 -45.37 1.18 -44.77 3.52 -44.1 5.8 -43.41 8 -42.64 10.18 -41.83 12.28 -40.95 14.31 -40.02 16.31 -39.05 18.25 -38 20.12 -36.92 21.93 -35.77 23.69 -34.56 25.39 -33.3 27.05 -31.99 28.64 -30.61 30.16 -29.19 31.63 -27.71 33.06 -26.17 34.41 -24.59 35.71 -22.93 36.95 -21.23 38.14 -19.47 39.28 -17.66 40.34 -15.79 41.36 -13.86 42.31 -11.88 43.22 -9.84 44.05 -7.75 44.85 -5.61 45.57 -3.4 46.25 -1.15 46.88 -24.84 0 1.18 -48.18 3.51 -47.55 5.76 -46.86 7.97 -46.12 10.13 -45.31 12.21 -44.44 14.26 -43.52 16.23 -42.54 18.15 -41.48 20.02 -40.38 21.82 -39.21 23.58 -38 25.27 -36.72 26.9 -35.37 28.48 -33.98 30.01 -32.53 31.48 -31.01 32.89 -29.43 34.24 -27.81 35.53 -26.11 36.77 -24.36 37.96 -22.56 39.09 -20.68 40.15 -18.75 41.16 -16.77 42.11 -14.73 43.02 -12.62 43.85 -10.46 44.63 -8.24 45.35 -5.96 46.02 -3.61 46.62 -1.21 0 0z"/>
    </g>
    <path id="1" class="fil6" d="M1583.88 752.97c493.61,0 893.91,413.63 893.91,923.67 0.01,510.06 -400.3,923.69 -893.91,923.69 -493.61,0 -893.91,-413.63 -893.91,-923.69 0.01,-510.05 400.3,-923.67 893.92,-923.67z"/>
    <g style="clip-path:url(#id0)">
     <g>
      <g>
       <path id="2" class="fil2" d="M1096.85 1708.54l10.68 -0.6c2.86,2.75 14.62,1.32 17.84,-13.87 3.22,-15.19 14.48,-13.87 20.46,-12.52 5.98,1.36 19.42,-13.05 19.42,-13.05 0,0 6.62,10.97 8.92,13.25 2.29,2.29 2.64,-8.49 2.64,-8.49 0,0 36.1,1.2 38.08,1.65 1.99,0.46 8.05,6.61 5.49,7.09 -2.56,0.48 11.48,4.31 15.42,-0.76 3.95,-5.07 12.02,1.77 19.48,6.33 7.46,4.55 18.63,-3.07 23.79,-6.53 5.16,-3.46 4.45,12.35 -1.55,16.51 -6.01,4.16 30.31,23.93 37.39,30.54 7.08,6.62 4.85,13.28 5.48,19.93 0.62,6.64 11.14,28.14 16.7,31.33 5.56,3.18 4.38,-5.3 7.88,-8.76 3.49,-3.44 14.16,4.52 19.3,6.79 5.16,2.27 7.13,-20.44 12.02,-25.5 4.9,-5.07 14.05,18.28 16.23,21.24 2.17,2.98 11.26,7.29 11.67,11.19 0.42,3.9 -6.41,11.71 -9.49,13.34 -3.08,1.62 -6.24,8.52 -4.5,10.34 1.74,1.83 11.56,-0.98 14.49,-3.5 2.92,-2.54 10.93,-7.62 15.36,-3.97 4.44,3.64 -5.92,14.69 -2.56,19.03 3.36,4.34 16.55,-18.41 20.15,-21.17 3.6,-2.77 18.78,7.93 20.57,8.62 1.78,0.67 3.96,7.99 5.02,11.43 1.05,3.43 3.06,1.14 4.68,-2.09 1.61,-3.22 8.51,2.25 13.31,5.22 4.8,2.95 27.49,-0.13 35.34,0.98 7.83,1.11 12.9,7.04 20.09,12.96 7.21,5.93 8.42,4.54 14.69,7.73 6.27,3.18 17.64,6.8 19.89,10.22 2.25,3.43 3.23,10.76 5.15,20.85 1.92,10.07 0.22,8.48 -1.58,10.55 -1.81,2.07 -6.7,5.77 -8.11,7.38 -1.4,1.61 -4.71,7.58 -8.02,7.83 -3.31,0.24 -5.28,9.88 -7.15,13.1 -1.86,3.22 -6.52,3.93 -9.24,4.86 -2.72,0.93 6.82,49.49 5.48,52.94 -1.34,3.44 -0.11,15.12 0.54,19.02 0.65,3.9 -3.47,6.44 -8.8,10.36 -5.32,3.92 0.34,13.52 -2.41,18.58 -2.75,5.04 -2.21,3.9 -5.39,7.81 -3.17,3.92 -5.3,1.18 -10.12,0.97 -4.83,-0.2 -14.94,3.73 -20.41,6.75 -5.48,3 -11.75,-0.18 -16.44,3.29 -4.69,3.46 -9.58,12.87 -15.44,14.97 -5.87,2.1 -0.66,20.41 -0.03,25.68 0.65,5.27 1.14,8.24 0.96,11.47 -0.19,3.2 -8.13,5.76 -9.71,9.21 -1.58,3.44 -2.21,13.99 -5.43,17.67 -3.21,3.69 -7.51,9.43 -10.59,15.41 -3.07,5.98 -5.59,13.78 -9.82,20 -4.22,6.21 -15.25,10.39 -16.61,10.86 -1.36,0.45 -18.06,2.14 -21.67,4.91 -3.61,2.76 11.13,15.08 11.13,15.08 0,0 -7.5,16.78 -8.25,22.28 -0.75,5.51 -36.9,6.81 -41.86,8.66 -4.95,1.87 -0.04,18.35 -2.08,23.41 -2.02,5.04 -21.39,5.14 -26.18,7.91 -4.81,2.76 16.96,7.03 19.09,15.5 2.12,8.48 -8.05,6.23 -14.58,11.53 -6.53,5.3 1.97,19.02 0.46,19.95 -1.53,0.92 -8.55,6.23 -14.6,5.8 -6.05,-0.42 -4.53,4.38 -4.6,9.66 -0.08,5.27 12.11,10.94 15.27,14.14 3.17,3.2 6.71,13.04 6.15,15.33 -0.57,2.29 -5.32,8.28 -11.68,11.75 -6.35,3.47 -0.88,7.56 -0.01,14.21 0.86,6.65 -13.4,14.28 -15.55,17.27 -2.12,2.99 12.42,12.78 13.35,16.91 0.92,4.12 1.01,8.93 3.58,11.44 2.57,2.51 -0.79,5.27 -0.54,9.63 0.25,4.36 14.04,13.92 17.92,17.11 3.88,3.2 11.15,5.22 20.12,5.86 8.95,0.65 12.58,0.86 14.39,4.52 0,0 0.15,0.92 -2.34,1.85 -2.47,0.92 -5.57,0.94 -7.85,0.27 -2.26,-0.68 -3.01,-2.28 -8.78,-2.48 -5.77,-0.2 -10.13,13.81 -12.49,15.42 -2.36,1.62 -2.19,4.14 -3.93,8.05 -1.74,3.9 -5.52,-2.95 -12.69,-7.27 -7.19,-4.33 -11.94,-2.7 -20.88,-6.1 -8.93,-3.39 -12.33,-2.24 -13.88,-2.91 -1.55,-0.68 -3.56,-2.73 -3.56,-2.73 0,0 -0.49,-0.01 -1.23,-1.61 -0.75,-1.6 0.03,-5.49 -5.83,-9.14 -5.89,-3.64 -36.22,-39.26 -37.64,-42.01 -1.42,-2.74 -4.75,-4.09 -4.85,-6.15 -0.11,-2.07 2.19,-6.9 1.46,-9.87 -0.74,-2.98 -3.43,-4.8 -4.58,-11.67 -1.15,-6.87 3.48,-6.44 3.23,-10.78 -0.25,-4.36 -5.01,-14.99 -6.26,-19.58 -1.25,-4.6 3.48,-5.07 4.02,-13.35 0.54,-8.28 -2.97,-9.17 -6.14,-2.27 -3.17,6.91 2.26,19.3 -5.57,6.92 -7.82,-12.37 2.5,-13.79 5.19,-20.71 2.69,-6.91 -1.57,-3.68 -2.73,-10.56 -1.14,-6.89 1.86,-3.23 3.39,-5.54 1.54,-2.3 0.75,-4.14 -5.1,-13.31 -5.84,-9.16 2.31,-9.2 5.22,-14.73 2.91,-5.54 -0.05,-14.72 -1.74,-24.82 -1.68,-10.11 -1.51,-11.95 -2.14,-15.63 -0.61,-3.67 6.53,-6.92 5.44,-10.59 -1.09,-3.68 -4.81,-9.15 -6.59,-12.58 -1.77,-3.43 0.62,-2.06 2.06,-4.83 1.45,-2.76 -2.44,-3.2 -4.09,-5.95 -1.66,-2.74 0.88,-6.18 4.37,-15.38 3.49,-9.18 5.17,-20.65 5.97,-24.56 0.77,-3.9 -0.73,-10.08 0.48,-12.83 1.22,-2.76 -0.04,-4.6 -2.12,-8.49 -2.09,-3.88 -4.01,-15.34 -3.72,-16.49 0.28,-1.14 4.82,-5.53 4.76,-7.35 -0.07,-1.83 0.46,-10.09 -0.94,-14.21 -1.41,-4.12 -9.66,-3.4 -12,-8.88 -2.36,-5.5 11.32,-2.35 11.32,-2.35 0,0 -1.49,-26.14 -0.83,-27.97 0.66,-1.84 0.47,-10.1 -0.21,-15.59 -0.68,-5.5 0.37,-13.53 0.92,-16.06 0.53,-2.52 0.26,-2.76 -2.68,-10.3 -2.94,-7.55 -4.59,-18.9 -4.65,-30.86 -0.09,-11.97 -48.82,-21.87 -64.88,-37.45 -16.04,-15.58 -17,-15.57 -29.44,-44.07 -12.43,-28.48 -36.37,-39.42 -41.89,-49.52 -5.54,-10.11 7.38,-24.89 7.38,-24.89 0,0 -9.2,-21.61 -8.04,-28.98 1.18,-7.36 19.07,-29.51 27.95,-42.43 8.88,-12.91 -4.73,-19.75 -5.96,-27.1 -1.22,-7.36 -6.21,-2.73 -15.76,-8.2l-0.24 -8.65z"/>
       <path class="fil2" d="M722.02 1113.13c-23.31,61.84 -25.15,198.96 -19.04,249.03 6.12,50.08 36.06,2.2 50.56,8.98 14.51,6.78 26.42,17.25 33.18,30.2 6.76,12.96 2.88,32.83 4.74,42.45 1.85,9.6 1.57,1.77 6.31,14.68 4.74,12.93 13.49,51.05 22.12,62.85 8.63,11.81 7.35,-12.71 9.48,-19.59 2.13,-6.88 -4.87,-21.88 3.16,-21.21 8.04,0.67 11.06,15.91 16.6,22.85 5.53,6.94 13.89,8.93 16.58,18.78 2.69,9.84 -5.87,24.39 -1.59,35.92 4.28,11.52 16.15,19.54 25.28,27.75 9.12,8.2 20.04,16.28 29.24,21.23 9.19,4.95 17.32,8.15 25.26,8.15 7.95,0 14.13,-8 19.75,-8.15 5.62,-0.15 5.51,4.75 10.27,7.35 4.76,2.59 15.22,3.4 18.17,8.17 2.95,4.77 -11.76,8.22 -5.53,12.24 6.23,4.02 20.59,-1.2 30.81,4.08 10.21,5.27 19.56,16.4 27.65,26.12 8.09,9.72 11.67,22.94 20.54,31.84 8.87,8.9 21.01,13.57 31.52,20.36 1.24,-1.17 2.47,-2.34 3.72,-3.51 -1.32,-1.71 -2.62,-3.43 -3.94,-5.13 -2.83,-4.14 -2.76,-5.82 -8.49,-12.42 -5.74,-6.61 -21.47,-16.99 -25.88,-27.12 -4.42,-10.13 0.39,-20.76 1.57,-28.57 1.18,-7.81 5.81,-11.96 5.54,-17.96 -0.28,-5.99 -0.34,-14.92 -7.11,-15.5 -6.77,-0.6 -12.95,12.59 -20.54,13.06 -7.6,0.46 -16.47,-2.38 -18.96,-10.62 -2.5,-8.23 2.41,-18.86 7.11,-28.57 4.69,-9.71 12.27,-24.27 20.54,-28.57 8.26,-4.29 -3.74,-8.2 -15.8,-8.97 -12.05,-0.78 -14.9,13.9 -22.13,21.23 -7.22,7.32 -15.12,15.37 -23.69,16.32 -8.58,0.95 -11.63,-9.87 -20.54,-11.42 -8.91,-1.55 -25.98,4.69 -30.81,2.44 -4.84,-2.25 6.21,-18.02 5.53,-27.75 -0.68,-9.72 -18.52,-28.25 -9.48,-28.57 9.04,-0.31 24.77,-8.47 18.95,-14.7 -5.81,-6.23 -4.69,-19.1 -1.57,-26.93 3.11,-7.83 12.84,-8.79 18.16,-14.7 5.33,-5.92 4.29,-16.46 13.43,-20.41 9.13,-3.95 26.39,-2.96 35.55,-0.81 9.16,2.15 9.41,14.63 16.59,13.06 7.18,-1.56 6.02,-15.92 13.43,-19.59 7.4,-3.67 19.33,-0.4 26.07,0 6.74,0.41 9.89,0.63 14.22,2.45 4.32,1.82 9.13,2.64 11.06,8.17 1.93,5.53 -1.05,15.35 -0.8,21.22 0.26,5.88 -1.93,8 2.37,13.87 4.3,5.87 13.12,21.99 22.12,19.59 9,-2.39 6.93,-17.29 5.53,-26.94 -1.39,-9.66 -11.26,-18.21 -13.43,-27.75 -2.18,-9.54 -5.09,-19.61 0.79,-27.75 5.88,-8.14 21.15,-11.52 29.22,-13.88 8.08,-2.36 12.79,6.39 18.17,0 5.38,-6.39 0.56,-25.09 7.91,-31.02 7.35,-5.92 17.72,11.9 24.48,4.89 6.77,-7 -1.12,-23.19 3.17,-33.47 4.28,-10.27 12.37,-19.96 21.32,-25.3 8.95,-5.33 20.93,-3.13 29.24,-4.89 8.3,-1.77 16.43,-0.24 20.53,-5.71 4.11,-5.48 -5.49,-12.74 -1.57,-19.59 3.92,-6.84 12.79,-14.14 22.11,-16.32 9.34,-2.18 18.82,3.13 30.02,4.08 11.2,0.95 26.8,5.04 37.13,1.64 10.33,-3.4 22.96,-9.82 19.76,-20.41 -3.2,-10.58 -25.75,-9.7 -31.61,-18.78 -5.86,-9.07 -3.19,-20.68 1.59,-27.75 4.78,-7.08 11.06,-6.24 22.12,-7.34 11.06,-1.1 30.61,5.66 43.44,0.8 12.83,-4.86 24.29,-17.17 27.65,-27.75 3.37,-10.59 -5.31,-19.16 -11.05,-24.48 -5.74,-5.32 -15.53,0.1 -19.75,-4.09 -4.22,-4.19 2.15,-8.4 0,-15.5 -2.15,-7.11 -4.3,-22.08 -12.64,-26.12 -8.34,-4.04 -19.1,5.31 -26.08,7.34 -6.97,2.03 -12.3,11.17 -15.8,4.9 -3.49,-6.27 3.43,-17.92 3.96,-26.11 0.53,-8.2 6.7,-18.02 -0.79,-22.87 -7.5,-4.84 -20.6,-2.1 -30.82,2.46 -10.21,4.56 -22.35,16.61 -27.65,23.66 -5.29,7.05 -0.22,10.77 -2.37,16.33 -2.15,5.56 -5.67,12.46 -10.26,16.32 -4.58,3.87 -11.58,2.9 -15.8,5.71 -4.22,2.82 -5.52,5.13 -8.69,10.62 -3.17,5.48 -5.52,13.98 -10.27,22.04 -4.75,8.06 -10.78,21.9 -18.16,26.12 -7.38,4.22 -15.34,1.88 -18.96,-4.89 -3.62,-6.77 2.24,-17.8 2.37,-26.12 0.13,-8.32 9.88,-16.55 -1.58,-23.67 -11.45,-7.13 -44.65,-6.71 -56.09,-12.24 -11.44,-5.53 -7.17,-10.33 -6.32,-17.96 0.85,-7.64 -0.34,-15.75 11.06,-24.5 11.38,-8.75 38.37,-19.69 53.72,-25.3 15.36,-5.6 27.66,-4.44 37.92,-8.16 10.26,-3.73 16.15,-11.37 22.91,-13.88 6.77,-2.52 9.17,0.69 16.58,-0.81 7.41,-1.5 21.06,-3.43 27.65,-8.17 6.59,-4.74 7.86,-11.73 8.69,-17.96 0.83,-6.22 1.32,-12.82 -3.96,-17.15 -5.27,-4.32 -15.53,-3.67 -22.91,-4.89 -7.38,-1.22 -20.21,5.16 -21.32,-2.44 -1.11,-7.61 15.1,-8.43 18.95,-13.87 3.85,-5.45 6.03,-11.78 2.37,-16.32 -3.67,-4.55 -11.53,-4.4 -18.16,-3.27 -6.63,1.13 -13.31,4.54 -19.76,9.8 -6.44,5.26 -9.37,14.19 -18.16,21.21 -8.79,7.02 -24.32,15.63 -33.97,20.41 -9.66,4.78 -15.74,7.74 -23.69,8.17 -7.95,0.42 -13.12,-7.46 -22.12,-5.72 -9,1.74 -20.1,13.11 -28.44,15.51 -8.34,2.4 -12.97,-2.03 -19.75,-1.63 -6.77,0.41 -10.13,4.62 -20.54,4.08 -10.41,-0.54 -31.64,-2.24 -41.07,-7.35 -9.44,-5.1 -4.84,-14.37 -10.27,-20.41 -5.42,-6.03 -13.68,-14.19 -21.33,-14.69 -7.65,-0.49 -10.8,13.57 -16.58,12.24 -5.78,-1.33 7.5,-7.78 2.37,-15.5 -5.13,-7.73 3.31,-34.2 -30.02,-26.12 -33.33,8.08 -107.56,42.47 -151.68,70.2 -44.11,27.73 -87.28,32.84 -110.58,94.68z"/>
      </g>
     </g>
    </g>
    <g>
     <polygon class="fil7" points="3907.58,1326.93 4013.47,1326.93 4013.47,1961.58 3907.58,1961.58 "/>
     <path class="fil7" d="M3903.52 1303.38l114 0c8.27,0 15.04,6.99 15.04,15.53l0 0.01c0,8.55 -6.77,15.53 -15.04,15.53l-114 0c-8.27,0 -15.04,-6.99 -15.04,-15.53l0 -0.01c0,-8.55 6.77,-15.53 15.04,-15.53z"/>
     <path class="fil7" d="M3903.52 1954.03l114 0c8.27,0 15.04,6.99 15.04,15.53l0 0.01c0,8.55 -6.77,15.53 -15.04,15.53l-114 0c-8.27,0 -15.04,-6.98 -15.04,-15.53l0 -0.01c0,-8.55 6.77,-15.53 15.04,-15.53z"/>
    </g>
    <g>
     <polygon class="fil1" points="3577.19,1326.93 3683.08,1326.93 3683.08,1961.58 3577.19,1961.58 "/>
     <path class="fil1" d="M3573.13 1303.38l114 0c8.28,0 15.04,6.99 15.04,15.53l0 0.01c0,8.55 -6.76,15.53 -15.04,15.53l-114 0c-8.27,0 -15.04,-6.99 -15.04,-15.53l0 -0.01c0,-8.55 6.77,-15.53 15.04,-15.53z"/>
     <path class="fil1" d="M3573.13 1954.03l114 0c8.28,0 15.04,6.99 15.04,15.53l0 0.01c0,8.55 -6.76,15.53 -15.04,15.53l-114 0c-8.27,0 -15.04,-6.98 -15.04,-15.53l0 -0.01c0,-8.55 6.77,-15.53 15.04,-15.53z"/>
    </g>
    <g>
     <polygon class="fil1" points="2774.5,1326.93 2880.4,1326.93 2880.4,1961.58 2774.5,1961.58 "/>
     <path class="fil1" d="M2770.45 1303.38l114 0c8.27,0 15.03,6.99 15.03,15.53l0 0.01c0,8.55 -6.76,15.53 -15.03,15.53l-114 0c-8.28,0 -15.04,-6.99 -15.04,-15.53l0 -0.01c0,-8.55 6.76,-15.53 15.04,-15.53z"/>
     <path class="fil1" d="M2770.45 1954.03l114 0c8.27,0 15.03,6.99 15.03,15.53l0 0.01c0,8.55 -6.76,15.53 -15.03,15.53l-114 0c-8.28,0 -15.04,-6.98 -15.04,-15.53l0 -0.01c0,-8.55 6.76,-15.53 15.04,-15.53z"/>
    </g>
    <g>
     <polygon class="fil1" points="2516.13,1326.93 2622.02,1326.93 2622.02,1961.58 2516.13,1961.58 "/>
     <path class="fil1" d="M2512.07 1303.38l114 0c8.27,0 15.04,6.99 15.04,15.53l0 0.01c0,8.55 -6.77,15.53 -15.04,15.53l-114 0c-8.27,0 -15.04,-6.99 -15.04,-15.53l0 -0.01c0,-8.55 6.77,-15.53 15.04,-15.53z"/>
     <path class="fil1" d="M2512.07 1954.03l114 0c8.27,0 15.04,6.99 15.04,15.53l0 0.01c0,8.55 -6.77,15.53 -15.04,15.53l-114 0c-8.27,0 -15.04,-6.98 -15.04,-15.53l0 -0.01c0,-8.55 6.77,-15.53 15.04,-15.53z"/>
    </g>
    <g>
     <polygon class="fil1" points="1971.93,1326.93 2077.83,1326.93 2077.83,1961.58 1971.93,1961.58 "/>
     <path class="fil1" d="M1967.87 1303.38l114 0c8.28,0 15.04,6.99 15.04,15.53l0 0.01c0,8.55 -6.76,15.53 -15.04,15.53l-114 0c-8.27,0 -15.04,-6.99 -15.04,-15.53l0 -0.01c0,-8.55 6.77,-15.53 15.04,-15.53z"/>
     <path class="fil1" d="M1967.87 1954.03l114 0c8.28,0 15.04,6.99 15.04,15.53l0 0.01c0,8.55 -6.76,15.53 -15.04,15.53l-114 0c-8.27,0 -15.04,-6.98 -15.04,-15.53l0 -0.01c0,-8.55 6.77,-15.53 15.04,-15.53z"/>
    </g>
    <polygon class="fil1" points="2606.15,1525.06 2791.36,1525.06 2791.36,1610.31 2606.15,1610.31 "/>
    <path class="fil1" d="M2338.65 1351.13c7.53,7.7 14.25,16.23 19.95,25.6 19.8,32.57 23.48,69.67 14.16,106.26 -9.52,37.36 -31.65,71.63 -57.29,101.14 34.82,38.62 62.7,83.41 76.79,133.71 13.34,47.62 13.3,97.83 -2.15,144.96 -25.99,79.27 -98.03,148.65 -185.61,148.65l-215.56 0 23.86 31.09 191.7 0c98.82,0 183.28,-75.76 214.11,-169.77 17.41,-53.09 17.6,-109.87 2.56,-163.58 -13.01,-46.45 -36.51,-88.44 -66.08,-125.52 20.9,-27.72 42.84,-46.95 46.25,-105.31 3.4,-58.36 -6.49,-89.15 -52.04,-137.29l-10.63 10.05z"/>
    <path class="fil1" d="M2081.87 1985.11l122.62 0c133.18,0 262.26,-217.44 69.7,-413.06 151.26,-158.41 40.29,-268.67 -78.28,-268.67l-144.09 0 0 681.73 30.06 0z"/>
    <path class="fil6" d="M2077.83 1432.49c0,-11.54 7.12,-25.69 18.28,-25.63l85.04 0.44c26.27,0.14 41.67,15.89 42.21,32.13l0.45 13.78c1.39,42.07 -40.99,67.85 -76.96,67.52l-47.59 -0.45c-11.74,-0.1 -21.44,-16.76 -21.44,-28.9l0 -58.89z"/>
    <path class="fil6" d="M2077.83 1640.96c0,-28.71 15.04,-34.43 26.2,-34.24l62.88 1.11c41.04,0.72 68.69,86.17 75.97,121.94l5.21 25.58c22.16,108.89 -54.7,135.9 -96.98,134.78l-41.8 -1.11c-11.73,-0.31 -31.48,-13.82 -31.48,-44.03l0 -204.02z"/>
    <g>
     <polygon class="fil1" points="3113.7,1326.93 3219.6,1326.93 3106.96,1961.58 3001.07,1961.58 "/>
     <path class="fil1" d="M3113.83 1303.38l113.99 0c8.27,0 13.8,7 12.28,15.54l0 0c-1.51,8.55 -9.53,15.54 -17.8,15.54l-113.99 0c-8.27,0 -13.8,-6.99 -12.28,-15.54l0 0c1.51,-8.55 9.52,-15.54 17.8,-15.54z"/>
     <path class="fil1" d="M2998.35 1954.04l113.99 0c8.28,0 13.81,6.99 12.29,15.54l0 0c-1.52,8.55 -9.53,15.53 -17.8,15.53l-113.99 0c-8.27,0 -13.8,-6.99 -12.28,-15.53l0 0c1.51,-8.55 9.52,-15.54 17.8,-15.54z"/>
    </g>
    <g>
     <polygon class="fil1" points="3290.26,1326.93 3184.36,1326.93 3314.69,1961.58 3420.58,1961.58 "/>
     <path class="fil1" d="M3289.47 1303.38l-113.99 0c-8.27,0 -13.6,7 -11.85,15.54l0 0c1.75,8.55 9.95,15.54 18.23,15.54l113.99 0c8.27,0 13.6,-6.99 11.85,-15.54l0 0c-1.76,-8.55 -9.96,-15.54 -18.23,-15.54z"/>
     <path class="fil1" d="M3423.08 1954.04l-113.99 0c-8.27,0 -13.6,6.99 -11.85,15.54l0 0c1.76,8.55 9.96,15.53 18.23,15.53l113.99 0c8.27,0 13.6,-6.99 11.85,-15.53l0 0c-1.75,-8.55 -9.96,-15.54 -18.23,-15.54z"/>
    </g>
    <polygon class="fil1" points="3122.92,1562.26 3308.13,1562.26 3308.13,1647.51 3122.92,1647.51 "/>
    <polygon class="fil1" points="3446.61,1303.22 3812.13,1303.22 3812.13,1404.13 3446.61,1404.13 "/>
    <path class="fil1" d="M3446.61 1421.79l0 -93.24c0,-8.55 6.77,-15.54 15.04,-15.54l0 0c8.28,0 15.04,7 15.04,15.54l0 93.24c0,8.55 -6.77,15.54 -15.04,15.54l0 0c-8.27,0 -15.04,-6.99 -15.04,-15.54z"/>
    <path class="fil1" d="M3782.05 1421.79l0 -93.24c0,-8.55 6.77,-15.54 15.04,-15.54l0 0c8.28,0 15.04,7 15.04,15.54l0 93.24c0,8.55 -6.77,15.54 -15.04,15.54l0 0c-8.27,0 -15.04,-6.99 -15.04,-15.54z"/>
    <g>
     <polygon class="fil1" points="4255.84,1326.93 4361.73,1326.93 4249.1,1961.58 4143.2,1961.58 "/>
     <path class="fil1" d="M4255.97 1303.38l113.99 0c8.27,0 13.8,7 12.29,15.54l0 0c-1.52,8.55 -9.53,15.54 -17.81,15.54l-113.99 0c-8.28,0 -13.8,-6.99 -12.29,-15.54l0 0c1.52,-8.55 9.53,-15.54 17.8,-15.54z"/>
     <path class="fil1" d="M4140.49 1954.04l113.99 0c8.27,0 13.8,6.99 12.29,15.54l0 0c-1.52,8.55 -9.53,15.53 -17.8,15.53l-113.99 0c-8.28,0 -13.81,-6.99 -12.29,-15.53l0 0c1.52,-8.55 9.53,-15.54 17.8,-15.54z"/>
    </g>
    <g>
     <polygon class="fil1" points="4432.39,1326.93 4326.5,1326.93 4456.83,1961.58 4562.72,1961.58 "/>
     <path class="fil1" d="M4431.61 1303.38l-113.99 0c-8.28,0 -13.6,7 -11.85,15.54l0 0c1.76,8.55 9.96,15.54 18.23,15.54l113.99 0c8.27,0 13.6,-6.99 11.85,-15.54l0 0c-1.75,-8.55 -9.95,-15.54 -18.23,-15.54z"/>
     <path class="fil1" d="M4565.22 1954.04l-113.99 0c-8.28,0 -13.6,6.99 -11.85,15.54l0 0c1.76,8.55 9.96,15.53 18.24,15.53l113.99 0c8.28,0 13.6,-6.99 11.85,-15.53l0 0c-1.76,-8.55 -9.96,-15.54 -18.23,-15.54z"/>
    </g>
    <polygon class="fil1" points="4265.06,1562.26 4450.27,1562.26 4450.27,1647.51 4265.06,1647.51 "/>
    <path class="fil1" d="M2652.11 1389.35l0 98.17 30.09 0 0 -84.12c7.4,-8.28 12.91,-18.13 16.06,-28.86l-28.75 -33.04c1.1,3.79 1.68,7.79 1.68,11.93 0,14.81 -7.55,27.94 -19.09,35.93zm277.47 -35.93c0,14.81 -7.55,27.94 -19.09,35.93l0 542.17c11.54,7.98 19.09,21.11 19.09,35.92 0,24.27 -20.25,44.01 -45.13,44.01l-92.71 0 -29.54 30.64c2.72,0.3 5.47,0.45 8.26,0.45l113.99 0c40.48,0 75.22,-32.67 75.22,-75.1 0,-18.86 -7.06,-36.5 -19.09,-49.97l0 -514.07c6.06,-6.77 10.85,-14.61 14.12,-23.13l-25.12 -26.84zm-185.17 335.42l0 -31.09 -92.3 0 0 273.77c11.54,7.98 19.09,21.11 19.09,35.92 0,24.27 -20.25,44.01 -45.13,44.01l-84.58 0 -14.93 31.09 99.51 0c33.41,0 62.9,-22.25 72.2,-53.87l0 -42.33c-3.15,-10.74 -8.66,-20.59 -16.06,-28.87l0 -228.63 32.13 0 30.09 0zm-84.24 -364.2c4.28,4.82 7.51,10.55 9.34,16.85l-2.49 -18.86 -6.85 2.01z"/>
    <path class="fil1" d="M3237.43 1690.12l-49.66 0 -45.55 244.31c9.75,9.34 14.75,23.24 12.01,37.98 -4.13,22.08 -24.51,39.04 -47.4,39.04l-95.02 0 -18.98 31.09 113.99 0c36.61,0 69.96,-26.84 76.94,-64.25 3.42,-18.35 -0.07,-36.82 -9.38,-52.09l33.16 -177.84 5.77 -29.35 32.28 0.51 -8.18 -29.39zm55.57 349.01c2,0.62 4.03,1.15 6.07,1.61l-6.07 -1.61zm6.15 1.62c5.32,1.18 10.79,1.79 16.32,1.79l113.99 0c45.66,0 80.76,-41.6 70.65,-88.39 -3.99,-18.46 -14.57,-34.55 -28.98,-45.79l-112.47 -521.34c3.11,-5.45 5.48,-11.26 7.08,-17.29l-28.61 -28.1c3.16,14.63 -1.44,28.6 -10.86,38.12l118.24 548.06c13.05,6.52 23.12,18.69 26.23,33.11 5.69,26.35 -13.77,50.53 -41.28,50.53l-92.28 0 -38.03 29.3z"/>
    <path class="fil1" d="M3743.27 1498.39l0 418.45c12.05,13.56 19.09,31.29 19.09,50.22 0,42.5 -34.61,75.47 -75.22,75.47l-106.18 0 16.12 -31.09 90.06 0c24.88,0 45.13,-19.92 45.13,-44.38 0,-14.94 -7.55,-28.19 -19.09,-36.23l0 -472.38 40.69 0c5.6,18.26 22.86,31.61 43.22,31.61 24.88,0 45.14,-19.92 45.14,-44.38l0 -103.17 30.09 34.9 0 68.27c0,42.49 -34.61,75.47 -75.23,75.47 -20.48,0 -39.85,-8.43 -53.82,-22.76zm-226.26 -1.62l-26.02 -17.4c6.47,-5.46 11.37,-12.69 13.89,-20.91l42.22 0 0 17.11 -30.09 21.2z"/>
    <path class="fil1" d="M4073.65 1398l0 518.85c12.05,13.56 19.09,31.29 19.09,50.22 0,42.5 -34.6,75.47 -75.22,75.47l-101.72 0 19.04 -31.09 82.69 0c24.88,0 45.14,-19.92 45.14,-44.38 0,-14.94 -7.55,-28.19 -19.1,-36.23l0 -546.83c11.54,-8.05 19.1,-21.29 19.1,-36.23 0,-5.33 -0.96,-10.45 -2.73,-15.19l30.17 35.02c-3.07,11.32 -8.73,21.71 -16.45,30.4z"/>
    <path class="fil1" d="M4013.47 1334.46l0 619.57 4.05 0c8.27,0 15.04,6.99 15.04,15.54l0 0c0,8.55 -6.77,15.53 -15.04,15.53l-113.99 0c-8.27,0 -15.04,-6.99 -15.04,-15.53l0 0c0,-8.55 6.77,-15.54 15.04,-15.54l4.05 0 0 -619.57 -4.05 0c-8.27,0 -15.04,-6.99 -15.04,-15.54l0 0c0,-8.55 6.77,-15.54 15.04,-15.54l113.99 0c8.27,0 15.04,7 15.04,15.54l0 0c0,8.55 -6.77,15.54 -15.04,15.54l-4.05 0z"/>
    <path class="fil1" d="M4379.56 1690.12l-49.66 0 -45.55 244.31c9.75,9.34 14.76,23.24 12.01,37.98 -4.12,22.08 -24.5,39.04 -47.39,39.04l-95.02 0 -18.98 31.09 113.99 0c36.6,0 69.96,-26.84 76.94,-64.25 3.41,-18.35 -0.07,-36.82 -9.38,-52.09l33.16 -177.84 5.77 -29.35 32.28 0.51 -8.19 -29.39zm55.57 349.01c2,0.62 4.02,1.15 6.07,1.61l-6.07 -1.61zm6.15 1.62c5.31,1.18 10.78,1.79 16.32,1.79l113.99 0c45.67,0 80.76,-41.6 70.65,-88.39 -3.98,-18.46 -14.56,-34.55 -28.97,-45.79l-112.47 -521.34c3.1,-5.45 5.47,-11.26 7.08,-17.29l-28.62 -28.1c3.16,14.63 -1.44,28.6 -10.86,38.12l118.24 548.06c13.06,6.52 23.13,18.69 26.23,33.11 5.69,26.35 -13.76,50.53 -41.28,50.53l-92.27 0 -38.03 29.3z"/>
   </g>
  </g>
 </g>
</svg>
