<?xml version="1.0" encoding="UTF-8"?>
<!DOCTYPE svg PUBLIC "-//W3C//DTD SVG 1.1//EN" "http://www.w3.org/Graphics/SVG/1.1/DTD/svg11.dtd">
<!-- Creator: CorelDRAW 2017 -->
<svg xmlns="http://www.w3.org/2000/svg" xml:space="preserve" width="119.016mm" height="16.5615mm" version="1.1" style="shape-rendering:geometricPrecision; text-rendering:geometricPrecision; image-rendering:optimizeQuality; fill-rule:evenodd; clip-rule:evenodd"
viewBox="0 0 10533.05 1465.71"
 xmlns:xlink="http://www.w3.org/1999/xlink">
 <defs>
  <style type="text/css">
   <![CDATA[
    .str0 {stroke:#E31E24;stroke-width:9.52;stroke-miterlimit:2.61313}
    .fil1 {fill:none}
    .fil0 {fill:#E31E24}
   ]]>
  </style>
 </defs>
 <g id="Layer_x0020_1">
  <metadata id="CorelCorpID_0Corel-Layer"/>
  <g id="_2551796486944">
   <path class="fil0" d="M2533.24 1338.93c-131.5,-34.79 -62.92,-244.64 25.75,-270.68 117.59,-34.52 177.85,-53.32 203.22,-265.74 31.21,-261.2 -114.79,-287.27 -73.88,-218.61 137.16,230.26 -148.72,367.48 -258.69,298.82 -237.82,-148.38 -150.12,-441.61 1.91,-525.4 157.68,-86.93 355.22,-20.35 526.1,-60.38 118.34,-27.75 288.18,-57.98 393.14,13.87 160.56,109.92 180.2,255.75 183.83,415.12 2.35,102.01 -77.44,295.39 -137.84,385.94 -104.02,155.88 -309.63,266.2 -529.84,213.28 -94.48,-22.73 -331.96,14.2 -333.69,13.78zm466.89 -321.88c69.15,38.86 207.99,-74.31 242.78,-206.88 53.05,-201.97 -168.86,-293.27 -186.04,-213.08 -24.69,115.15 -84.04,263.3 -98.23,329.29 -6.17,28.73 13.65,74.97 41.49,90.67z"/>
   <path class="fil0" d="M3587.96 1339.5c-124.25,-3.48 -103.19,-129.81 -74.54,-192.61 70.2,-154.12 206.77,-300.64 186.44,-474.08 -11.33,-97.03 -274.87,-17.13 -12.28,-280.41 57.84,-57.98 236.77,-210.03 282.89,-58.49 66.35,218.01 -199.47,402.5 55.09,316.22 97.32,-32.98 193.47,40.21 126.13,205.64 -106.28,261.1 93.3,122.56 51.07,258.4 -60.83,195.69 -460.13,326.68 -362.84,88.02 16.18,-39.69 133.34,-231.5 46.96,-244.1 -44.24,-6.46 -97.66,117.76 -104.64,144.3 -16.51,62.85 69.09,222.55 -158.84,238.1l-35.46 -1z"/>
   <path class="fil0" d="M4239.45 1178.69c-16.23,-99.25 -0.21,-160.95 41.68,-252.91 59.97,-131.48 175.73,-258.94 351.18,-281.79 75.23,-9.79 95.71,104.18 128.96,90.24 5.79,-2.47 71.95,-117.41 154.75,-70.75 77.15,43.45 -29.95,192.9 -54.83,342.03 -12.33,73.93 116.59,27.01 64.54,154.84 -36.73,90.21 -206.15,246.77 -304.33,153.18 -0.54,-0.55 -6.09,-20.15 -26.74,-23.85 -9.78,-1.75 -83.32,64.35 -176.16,52.84 -99.01,-12.31 -164.22,-73.13 -179.06,-163.82zm306.06 -112.71c104.26,47.47 148.07,-183.86 9.35,-158.54 -94.01,17.19 -79.47,126.63 -9.35,158.54z"/>
   <path class="fil0" d="M5047.02 1339.85c-45.56,-15.85 -95.43,-74.83 -61.72,-157.63 60.59,-148.79 142.88,-165.03 66.7,-269.53 -114.39,-156.99 343.21,-362.89 329.31,-169.83 -4.26,59.36 -181.19,286.15 -101.59,355.17 22.78,19.72 154.74,25.09 9.48,170.63 -1.49,1.5 -72.52,42.05 -105.16,54.79 -24.69,9.64 -111.45,25.28 -137.03,16.39z"/>
   <path class="fil0" d="M5404.94 1118.85c2.28,-20.87 -4.93,-65.7 14,-126.64 38.44,-123.7 118.12,-267.97 283.46,-306.78 53.26,-12.48 300.88,-36.88 150.14,-105.5 -53.64,-24.45 -207.01,-6.66 66.56,-263.79 147.35,-138.51 303.23,-5.51 245.31,136.79 -30.11,73.99 -206.39,526.02 -167.16,578.55 23.21,31.03 98.58,-43.31 133.23,26.83 41.17,83.26 -112.82,327.53 -296.54,283.31 -43.44,-10.48 -63.3,-42.16 -111.49,-23.34 -173.19,67.65 -336.85,-25.43 -317.52,-199.44zm283.51 -84.47c121.97,29.36 95.24,-185.89 -14.25,-89.89 -29.81,26.18 -38.67,77.21 14.25,89.89z"/>
   <path class="fil0" d="M6511.45 1346.1c-83.47,-47.02 10.01,-235.84 83.17,-271.97 124,-61.25 146.24,-91.27 166.38,-211.87 9.91,-59.3 0.11,-112.19 4.09,-167.36 9.4,-130.21 -143.2,-176.3 -71.97,-74.19 79.14,113.43 -32.36,260.41 -121.52,276.68 -41.58,7.58 -102.09,-0.49 -138.84,-21.21 -2.64,-1.52 -5.5,3.93 -8.27,2.67 -69.28,-31.58 -164.88,-137.08 -156.23,-203.58 8.7,-66.76 1.13,33.58 6.46,-40.23 7.95,-110.44 75.7,-233.86 176.91,-306.9 171.9,-124.1 384.11,-29.65 621.72,-60.59 22.29,-2.89 82.42,-10.9 101.54,-17.36l30.32 -10.74c9.02,-3.52 90.72,-9.21 148.72,-47.78 33.98,-22.62 68.34,-22.7 102.3,-49.11 37.56,-29.24 96.4,-76.2 146.78,-79.64 117.1,-8.01 155.31,167.47 51.86,336.38 -32.39,52.86 -27.82,65.95 -112.04,112.36 -53.8,29.65 -97.7,8.61 -153.46,18.8 -78.47,14.35 -8.45,-1.52 -142.14,1.81 -75.75,1.89 -124.06,16.11 -168.46,73.24 -36.37,46.82 -174.06,380.09 -82.29,459.65 63.5,55.02 78.79,52.76 56.28,157.51 -7.19,33.5 -55.68,133.57 -109.67,126.86 -18.77,-2.35 -35.46,-10.53 -54.31,-13.05 -58.38,-7.87 -176.43,-32.09 -234.7,-12.35 -60.96,20.64 -1.75,9.42 -87.94,20.64 -13.01,1.66 -46.83,5.8 -54.68,1.35z"/>
   <path class="fil0" d="M7860.5 1378.02c-153.05,-4.27 -225.35,-190.49 -157.42,-379.74 138.54,-385.88 409.86,-363.96 430.86,-299.75 51.7,157.91 90.71,-185.07 222.04,-28.47 76.91,91.73 -116.17,353.91 -37.21,403.19 105.56,65.84 -89.1,436.95 -248.51,218.24 -56.9,-78.12 28.79,93.19 -209.76,86.54zm100.86 -326.33c130.38,59.44 108.49,-235.29 -33.25,-93.31 -37.24,37.31 -8.57,74.31 33.25,93.31z"/>
   <path class="fil0" d="M7181.98 1301.3c-57.08,-115.57 122.17,-290.74 36.49,-374.29 -16.51,-16.12 -123,-73.93 -9.43,-173.49 49.74,-43.63 48.42,-68.08 117.08,-94.89 91.17,-35.65 139.43,30.8 146.75,32.95 29.83,8.79 38.99,-26.26 69.53,-50.02 49.84,-38.78 136.39,-62.6 177.77,-6.58 66.11,89.46 29,256.1 -105.93,308.85 -91.32,35.67 -111.13,-74.23 -164.47,21.41 -20.22,36.28 5.41,144.54 -2.56,216.47 -4.69,42.24 6.24,93.73 -69.21,148.18 -57.52,41.56 -164.06,36.16 -196.03,-28.59z"/>
   <path class="fil0" d="M8565.69 1368.86c-77.15,-43.45 86.06,-397.13 -82.1,-331.44 -33.93,13.23 -55.29,27.47 -70.42,-25.08 -19.92,-69.26 104.26,-451.06 254.22,-339.36 121.74,90.66 -15.51,262.35 32.21,358.93 41.84,84.63 101.19,-92.79 95.86,-121.49 -13.3,-72.09 -91.37,-141.06 -0.76,-303.17 54.18,-96.98 174.98,-131.76 222.86,-63.08l7.91 11.77c52.89,82.57 -28.19,279.12 -50.35,382.61 -19.01,88.89 -210.65,542.53 -409.42,430.31z"/>
   <path class="fil0" d="M9210.34 1375.29c-25.55,-3.42 -102.94,-28.62 -137.7,-67.37 -117.18,-130.56 -55.68,-297.2 -0.33,-433.06 45.97,-112.86 178.15,-227.57 315.1,-259.72 54.26,-12.74 95.03,5.51 140.86,50.14 3.47,3.35 32.67,46.81 27.84,90.26 -37.59,339.53 -399.46,266.42 -287.26,350 45.43,33.81 124.18,-37.14 162.59,-56.11 31.53,-15.56 62.69,-43.2 104.26,-17.28 113.33,70.66 -139.83,367.97 -325.37,343.12zm26.13 -397.71c95.05,40.72 100.92,-207.05 -3.72,-72.27 -14.95,19.31 -38.45,54.15 3.72,72.27z"/>
   <path class="fil0" d="M9612.34 1138.22l99.09 -476.49c24.35,-113.11 -80.4,2.2 -121.19,-72.68 -79.47,-145.89 267.57,-361.71 298.54,-364.13 106.9,-8.29 95.18,88.66 84.01,140.96 -36.62,171.17 -64.74,341.08 -124.46,507.55 -133.32,371.59 95.46,63.34 108.63,251.33 8.53,121.74 -63.92,260.95 -189.36,257.44 -177.88,-4.96 -169.1,-133.11 -155.26,-243.98z"/>
   <path class="fil0" d="M10182.71 1390.93c-263.02,-63.34 -226.67,-263.71 -118.77,-283.39 131.99,-24.08 161.59,122.35 182.45,25.31 26.36,-122.52 -272.12,-32.81 -213.91,-303.36 20.74,-96.24 122.79,-153.96 211.84,-170.2 170.96,-31.17 379.88,188.14 222.79,274.73 -80.27,44.25 -158.95,-37.37 -188.06,-19.66 -138.3,84.07 235.48,63.57 251.87,203.35 14.57,123.88 -46.88,213.56 -167.38,252.28 -39.15,12.59 -140.8,30.56 -180.84,20.95z"/>
   <path class="fil0" d="M5223.34 611.38c-180.96,-29.07 12.22,-289.05 169.23,-217.55 72.97,33.21 104.04,170.58 -92.6,211.07 -14.79,3.02 -75.83,6.66 -76.63,6.49z"/>
   <path class="fil1 str0" d="M375.94 1361.74c378.43,-164.89 767.25,-154.89 1164.76,0"/>
   <path class="fil1 str0" d="M375.94 1144.37c378.43,-164.89 767.25,-154.84 1164.76,0.03"/>
   <line class="fil1 str0" x1="958.31" y1="205.64" x2="958.31" y2= "1350.46" />
   <line class="fil1 str0" x1="375.94" y1="792.15" x2="1540.69" y2= "792.15" />
   <path class="fil1 str0" d="M958.31 205.64c-335.46,399.69 -312.81,785.06 0,1144.82"/>
   <path class="fil1 str0" d="M958.31 205.64c-478.49,166.13 -648.59,818.78 0,1144.82"/>
   <path class="fil1 str0" d="M969.49 205.64c335.46,399.69 312.81,785.06 0,1144.82"/>
   <path class="fil1 str0" d="M969.49 205.64c478.46,166.13 648.59,818.78 0,1144.82"/>
   <path class="fil1 str0" d="M375.94 252.54c378.43,164.89 767.25,154.9 1164.76,0.03"/>
   <path class="fil1 str0" d="M375.94 469.89c378.43,164.89 767.25,154.9 1164.76,0.04"/>
   <path class="fil0" d="M530.68 820.04c0,35.76 -4.9,45 39.29,44.68 17.48,-0.12 34.96,-0.03 52.45,-0.03 36.03,0 72.06,0 108.09,0 34.92,0 69.91,0.17 104.83,0 40.58,-0.23 62.23,5.66 62.23,48.07l0 398.28c1.48,35.99 -34.28,29.56 -62.23,27.5 -599.85,-30.26 -655.48,-1133.11 114.65,-1133.11 670.29,0 761.31,939.64 170.83,1126.76 -21.28,6.72 -87.09,19.86 -94.27,4.88 -6.63,-13.86 -1.21,-188.62 -1.21,-235.46 0,-41.22 0,-139.69 0,-180.91 0,-32.37 10.12,-55.85 44.4,-52.58 48.47,0 81.22,-3.44 135.77,-3.44l156.72 -0.78c33.33,2.33 22.16,-27.04 22.16,-64.46 0,-10.57 -34.52,-13.75 -44.57,-13.75l-782.93 0c-30.03,0 -26.21,13.37 -26.21,34.33zm811.2 -820.04l-1341.88 9.74 0 1455.85 1372.58 0c739.22,15.61 820.81,-1443.85 -30.7,-1465.58z"/>
  </g>
 </g>
</svg>
