<?xml version="1.0" encoding="UTF-8"?>
<!DOCTYPE svg PUBLIC "-//W3C//DTD SVG 1.1//EN" "http://www.w3.org/Graphics/SVG/1.1/DTD/svg11.dtd">
<!-- Creator: CorelDRAW 2017 -->
<svg xmlns="http://www.w3.org/2000/svg" xml:space="preserve" width="84.7347mm" height="36.0094mm" version="1.1" style="shape-rendering:geometricPrecision; text-rendering:geometricPrecision; image-rendering:optimizeQuality; fill-rule:evenodd; clip-rule:evenodd"
viewBox="0 0 4291.19 1823.61"
 xmlns:xlink="http://www.w3.org/1999/xlink">
 <defs>
  <style type="text/css">
   <![CDATA[
    .str0 {stroke:#FEFEFE;stroke-width:17.87;stroke-miterlimit:2.61313}
    .fil3 {fill:#2B2A29;fill-rule:nonzero}
    .fil5 {fill:#E31E24;fill-rule:nonzero}
    .fil2 {fill:#552018;fill-rule:nonzero}
    .fil0 {fill:url(#id1)}
    .fil1 {fill:url(#id2);fill-rule:nonzero}
    .fil4 {fill:url(#id3);fill-rule:nonzero}
   ]]>
  </style>
    <clipPath id="id0">
     <path d="M6.15 0l4285.03 0 -6.14 1823.6 -4285.04 0 6.15 -1823.6z"/>
    </clipPath>
  <radialGradient id="id1" gradientUnits="userSpaceOnUse" gradientTransform="matrix(1.38453 -0 -0 1.4392 -596 -458)" cx="1550.75" cy="1042.99" r="2441.1" fx="1550.75" fy="1042.99">
   <stop offset="0" style="stop-opacity:1; stop-color:#FEFEFE"/>
   <stop offset="1" style="stop-opacity:1; stop-color:#DFE0E0"/>
  </radialGradient>
  <linearGradient id="id2" gradientUnits="userSpaceOnUse" x1="1625.72" y1="526.04" x2="1625.72" y2="1665.88">
   <stop offset="0" style="stop-opacity:1; stop-color:#E31E24"/>
   <stop offset="0.439216" style="stop-opacity:1; stop-color:#E31E24"/>
   <stop offset="1" style="stop-opacity:1; stop-color:#952420"/>
  </linearGradient>
  <radialGradient id="id3" gradientUnits="userSpaceOnUse" gradientTransform="matrix(1.54274 -0 -0 1.52553 -1876 -397)" cx="3456.29" cy="755.82" r="754.75" fx="3456.29" fy="755.82">
   <stop offset="0" style="stop-opacity:1; stop-color:#E31E24"/>
   <stop offset="1" style="stop-opacity:1; stop-color:#7A231C"/>
  </radialGradient>
 </defs>
 <g id="Layer_x0020_1">
  <metadata id="CorelCorpID_0Corel-Layer"/>
  <g id="_2551631727408">
   <g style="clip-path:url(#id0)">
    <image x="-0" y="0" width="4291.19" height="1823.6" xlink:href="Digi-1_Images\Digi-1_ImgID1.png"/>
   </g>
   <path class="fil0 str0" d="M217.45 44.8l3862.16 0c91.27,0 165.94,76.55 165.94,170.08l0 1411.05c0,93.55 -74.67,170.07 -165.94,170.07l-3862.16 0c-91.24,0 -182.52,-92.52 -182.52,-186.07l0 -1411.05c0,-93.54 91.28,-154.09 182.52,-154.09z"/>
   <g>
    <path class="fil1" d="M636.34 526.04l197.33 0c127.4,0 213.34,5.69 258.24,17.28 44.94,11.56 79.1,30.3 102.45,56.6 23.5,26.33 38.04,55.81 44.02,88.02 5.78,32.21 8.76,95.6 8.76,190.28l0 349.76c0,89.7 -4.25,149.47 -13.02,179.8 -8.55,30.06 -23.33,53.88 -44.71,70.92 -21.36,17.06 -47.64,28.86 -78.87,35.8 -31.45,6.76 -78.49,10.13 -141.56,10.13l-332.66 0 0 -998.6zm263.8 170.73l0 656.89c37.88,0 61.37,-7.36 70.17,-22.33 8.73,-15.16 13.03,-56 13.03,-122.52l0 -388.03c0,-45.27 -1.52,-74.06 -4.29,-86.92 -2.99,-12.65 -9.6,-22.12 -20.08,-28.04 -10.53,-5.86 -30.18,-9.04 -58.82,-9.04zm698.28 -170.73l0 130.12 -260.61 0 0 -130.12 260.61 0zm0 180l0 818.59 -260.61 0 0 -818.59 260.61 0zm665.81 0l0 630.38c0,85.23 -1.91,140.21 -5.74,165.04 -4.11,24.83 -18.2,51.14 -42.4,78.94 -24.12,27.76 -57.91,49.09 -101.09,63.6 -43.18,14.53 -97.7,21.88 -163.34,21.88 -80.39,0 -145.22,-13.48 -194.16,-40.43 -48.75,-26.95 -73.97,-79.78 -75.67,-158.7l245.45 0c0,35.97 13.52,54.07 40.2,54.07 19.22,0 31.86,-5.47 38.05,-16.6 6.42,-10.95 9.39,-34.35 9.39,-69.68l0 -61.73c-21.57,19.4 -44.45,33.9 -68.41,43.84 -24.15,9.87 -49.16,14.91 -75.48,14.91 -45.54,0 -83.17,-9.05 -112.46,-27.12 -29.47,-18.13 -49.59,-41.89 -60.5,-71.4 -10.93,-29.29 -16.24,-71.16 -16.24,-125.48l0 -297.29c0,-77.68 14.08,-133.68 42.57,-167.77 28.43,-34.11 71.59,-51.15 129.55,-51.15 31.83,0 60.7,6.3 86.85,19.17 26.03,12.62 49.35,31.75 69.86,57.26l18.17 -61.71 235.41 0zm-253.58 217.25c0,-37.44 -2.13,-61.23 -6.61,-71.57 -4.28,-10.3 -14.13,-15.58 -29.06,-15.58 -14.54,0 -25.01,5.91 -31.05,17.69 -5.94,11.79 -9.2,34.72 -9.2,69.45l0 274.99c0,36.62 2.41,60.45 7.07,71.4 4.49,10.7 14.12,16.2 28.66,16.2 16.87,0 27.57,-6.58 32.7,-19.79 4.92,-13.07 7.48,-42.96 7.48,-89.29l0 -253.5zm604.43 -397.26l0 130.12 -260.65 0 0 -130.12 260.65 0zm0 180l0 818.59 -260.65 0 0 -818.59 260.65 0z"/>
    <path class="fil2" d="M3644.15 1666.12l-738.57 0 -31.15 -37.78 0 -63.8c83.97,-39.23 149.76,-87.59 161.14,-142.54 1.67,-8.09 6.17,-19.26 6.17,-36.01l0 -41.54 0 -843.75 -184.69 0 0 -223.62c120.27,-15.67 217.1,-90.05 318.8,-164.83l296.28 0 40.39 79.06 0 1183.68 0 33.11c0,10.75 1.92,16.78 2.07,19.58 2.61,48.71 29.44,80.62 86.28,91.66l43.27 45.19 0 101.59z"/>
    <g>
     <path class="fil3" d="M2883.23 1616.77l710.63 0 0 14.66 -710.63 0 -8.01 -7.33 8.01 -7.33zm0 14.66l-8.01 0 0 -7.33 8.01 7.33zm8.01 -104.7l0 97.38 -16.02 0 0 -97.38 4.35 -6.52 11.68 6.52zm-16.02 0l0 -4.47 4.35 -2.05 -4.35 6.52zm131.03 -138.05l15.75 2.69 -0.01 0.01 -1.15 5.16 -1.34 5.12 -1.52 5.08 -1.71 5.04 -1.9 5 -2.09 4.96 -2.27 4.92 -2.47 4.87 -2.66 4.83 -2.86 4.78 -3.06 4.74 -3.26 4.68 -3.45 4.63 -3.66 4.59 -3.86 4.53 -4.06 4.49 -4.26 4.43 -4.47 4.38 -4.68 4.32 -4.89 4.27 -5.1 4.22 -5.31 4.17 -5.52 4.11 -5.74 4.06 -5.95 4 -6.17 3.95 -6.39 3.89 -6.61 3.84 -6.83 3.79 -7.06 3.73 -7.28 3.68 -7.51 3.62 -7.33 -13.04 7.25 -3.49 7.01 -3.53 6.78 -3.59 6.55 -3.63 6.32 -3.67 6.09 -3.71 5.86 -3.76 5.65 -3.8 5.42 -3.83 5.21 -3.88 4.99 -3.91 4.78 -3.96 4.57 -3.99 4.36 -4.03 4.16 -4.07 3.95 -4.1 3.75 -4.14 3.56 -4.18 3.36 -4.2 3.16 -4.25 2.98 -4.29 2.79 -4.32 2.61 -4.36 2.42 -4.39 2.24 -4.43 2.07 -4.46 1.89 -4.5 1.72 -4.54 1.55 -4.58 1.38 -4.61 1.22 -4.65 1.05 -4.69 -0.01 0.01zm15.75 2.69l-0.01 0.01 0.43 -2.1 -0.43 2.09zm-10.02 -35.84l16.02 0 0 0 -0.02 1.61 -0.04 1.56 -0.06 1.53 -0.09 1.51 -0.11 1.46 -0.12 1.44 -0.15 1.42 -0.16 1.37 -0.18 1.36 -0.2 1.32 -0.2 1.28 -0.22 1.27 -0.23 1.24 -0.23 1.18 -0.24 1.15 -0.25 1.15 -0.26 1.11 -0.25 1.05 -0.26 1.05 -0.25 1.01 -0.25 1 -0.25 0.95 -0.24 0.92 -0.24 0.89 -0.23 0.88 -0.22 0.83 -0.2 0.78 -0.2 0.8 -0.18 0.72 -0.16 0.68 -0.15 0.68 -0.14 0.63 -15.75 -2.69 0.18 -0.83 0.18 -0.82 0.2 -0.86 0.21 -0.85 0.21 -0.83 0.22 -0.87 0.23 -0.86 0.23 -0.87 0.24 -0.89 0.23 -0.9 0.24 -0.91 0.23 -0.92 0.24 -0.94 0.23 -0.95 0.24 -0.99 0.23 -0.98 0.21 -1 0.22 -1.04 0.21 -1.06 0.2 -1.06 0.18 -1.08 0.18 -1.12 0.17 -1.14 0.16 -1.15 0.14 -1.19 0.12 -1.21 0.11 -1.24 0.09 -1.27 0.08 -1.28 0.05 -1.33 0.04 -1.35 0.01 -1.37 0 0zm16.02 -39.93l0 39.93 -16.02 0 0 -39.93 0 0 16.02 0zm0 -809.1l0 809.1 -16.02 0 0 -809.1 8.01 -7.33 8.01 7.33zm-8.01 -7.33l8.01 0 0 7.33 -8.01 -7.33zm-175.93 0l175.93 0 0 14.66 -175.93 0 -8.01 -7.33 8.01 -7.33zm0 14.66l-8.01 0 0 -7.33 8.01 7.33zm8.01 -221.76l0 214.43 -16.02 0 0 -214.43 6.88 -7.26 9.15 7.26zm-16.02 0l0 -6.36 6.88 -0.9 -6.88 7.26zm331.17 -170.3l0 14.66 5.04 -1.63 -9.15 6.75 -9.24 6.77 -9.32 6.77 -9.41 6.77 -9.5 6.75 -9.57 6.71 -9.65 6.67 -9.72 6.62 -9.8 6.55 -9.87 6.48 -9.95 6.38 -10.01 6.28 -10.08 6.16 -10.14 6.03 -10.2 5.9 -10.27 5.74 -10.33 5.58 -10.38 5.4 -10.44 5.22 -10.49 5.01 -10.55 4.81 -10.6 4.57 -10.65 4.35 -10.7 4.09 -10.74 3.82 -10.79 3.55 -10.83 3.26 -10.87 2.96 -10.9 2.65 -10.95 2.32 -10.97 1.98 -11.01 1.63 -2.27 -14.51 10.45 -1.54 10.45 -1.88 10.43 -2.21 10.43 -2.54 10.42 -2.84 10.4 -3.13 10.38 -3.42 10.36 -3.69 10.34 -3.96 10.32 -4.2 10.29 -4.44 10.26 -4.67 10.22 -4.88 10.19 -5.09 10.15 -5.28 10.11 -5.46 10.07 -5.63 10.02 -5.79 9.97 -5.93 9.91 -6.06 9.87 -6.19 9.8 -6.29 9.75 -6.39 9.68 -6.48 9.62 -6.55 9.56 -6.6 9.49 -6.66 9.41 -6.69 9.34 -6.72 9.27 -6.73 9.19 -6.74 9.11 -6.72 5.04 -1.63zm-5.04 1.63l2.2 -1.63 2.84 0 -5.04 1.63zm306.33 13.03l-301.29 0 0 -14.66 301.29 0 8.01 7.33 -8.01 7.33zm0 -14.66l8.01 0 0 7.33 -8.01 -7.33zm-8.01 1223.15l0 -1215.82 16.02 0 0 1215.82 0 0 -16.02 0zm0 31.77l0 -31.77 16.02 0 0 31.77 0 0 -16.02 0zm17.94 17.9l-15.91 1.67 0 0.02 -0.02 -0.16 -0.03 -0.17 -0.04 -0.21 -0.05 -0.27 -0.06 -0.31 -0.06 -0.32 -0.07 -0.39 -0.08 -0.42 -0.08 -0.4 -0.08 -0.46 -0.09 -0.47 -0.1 -0.53 -0.09 -0.55 -0.09 -0.53 -0.09 -0.58 -0.1 -0.63 -0.09 -0.65 -0.08 -0.64 -0.09 -0.66 -0.09 -0.73 -0.08 -0.75 -0.08 -0.75 -0.07 -0.76 -0.07 -0.82 -0.07 -0.86 -0.05 -0.86 -0.05 -0.89 -0.04 -0.91 -0.03 -0.94 -0.02 -0.96 -0.02 -0.99 -0.01 -1.02 16.02 0 0.01 0.88 0.01 0.87 0.02 0.84 0.03 0.81 0.03 0.78 0.04 0.75 0.05 0.74 0.05 0.69 0.06 0.68 0.07 0.68 0.07 0.66 0.06 0.6 0.07 0.57 0.08 0.6 0.08 0.58 0.07 0.52 0.08 0.5 0.08 0.5 0.08 0.51 0.08 0.45 0.08 0.43 0.08 0.44 0.08 0.42 0.08 0.44 0.07 0.37 0.07 0.35 0.07 0.38 0.07 0.36 0.06 0.35 0.07 0.39 0.06 0.38 0.05 0.35 0 0.02zm0 -0.02l0 0.02 -0.11 -0.9 0.11 0.88zm123.44 132.15l-16.02 0 4.72 6.68 -6.51 -2.75 -6.39 -2.83 -6.25 -2.91 -6.13 -2.99 -5.99 -3.07 -5.85 -3.17 -5.71 -3.26 -5.56 -3.35 -5.41 -3.44 -5.25 -3.53 -5.1 -3.64 -4.94 -3.73 -4.78 -3.84 -4.61 -3.95 -4.43 -4.05 -4.27 -4.16 -4.08 -4.27 -3.9 -4.39 -3.71 -4.5 -3.51 -4.61 -3.32 -4.73 -3.12 -4.85 -2.92 -4.97 -2.69 -5.08 -2.49 -5.21 -2.27 -5.33 -2.05 -5.44 -1.82 -5.58 -1.6 -5.69 -1.36 -5.81 -1.12 -5.94 -0.89 -6.06 15.91 -1.67 0.81 5.5 1.02 5.38 1.23 5.25 1.43 5.12 1.64 5.01 1.83 4.89 2.04 4.78 2.23 4.67 2.42 4.56 2.61 4.46 2.8 4.36 2.99 4.25 3.17 4.16 3.36 4.07 3.53 3.98 3.71 3.88 3.89 3.8 4.07 3.71 4.24 3.63 4.41 3.54 4.58 3.46 4.75 3.38 4.91 3.3 5.07 3.22 5.23 3.14 5.38 3.07 5.54 2.99 5.68 2.92 5.83 2.85 5.97 2.78 6.12 2.71 6.25 2.64 4.72 6.68zm-4.72 -6.68l4.72 1.94 0 4.74 -4.72 -6.68zm-11.3 104.06l0 -97.38 16.02 0 0 97.38 -8.01 7.33 -8.01 -7.33zm16.02 0l0 7.33 -8.01 0 8.01 -7.33z"/>
     <path id="1" class="fil4" d="M3593.86 1624.09l-710.63 0 0 -97.38c79.95,-37.66 120.03,-83.98 130.89,-136.7 1.57,-7.7 5.86,-18.47 5.86,-34.49l0 -39.93 0 -809.1 -175.93 0 0 -214.43c114.55,-15.01 226.27,-91.24 323.16,-162.97l301.29 0 0 1215.82 0 31.77c0,10.27 1.63,16.09 1.97,18.73 7.82,62.32 54.61,102.93 123.39,131.3l0 97.38z"/>
    </g>
    <g>
     <path class="fil5" d="M2903.31 1597.46l668.5 0 0 14.51 -668.5 0 -7.15 -7.26 7.15 -7.26zm0 14.51l-7.15 0 0 -7.26 7.15 7.26zm7.15 -74.6l0 67.34 -14.29 0 0 -67.34 4.51 -6.75 9.78 6.75zm-14.29 0l0 -4.93 4.51 -1.82 -4.51 6.75zm136.67 -156.87l13.77 3.85 0.01 -0.04 -1.81 6.55 -1.96 6.47 -2.11 6.4 -2.26 6.32 -2.42 6.23 -2.57 6.16 -2.72 6.07 -2.89 5.98 -3.05 5.88 -3.21 5.79 -3.38 5.7 -3.54 5.59 -3.71 5.49 -3.89 5.39 -4.06 5.28 -4.24 5.16 -4.41 5.05 -4.59 4.94 -4.77 4.82 -4.96 4.69 -5.14 4.57 -5.32 4.44 -5.5 4.31 -5.7 4.18 -5.88 4.05 -6.08 3.9 -6.26 3.77 -6.46 3.62 -6.66 3.48 -6.84 3.33 -7.04 3.19 -7.25 3.03 -5.27 -13.49 6.88 -2.88 6.68 -3.02 6.49 -3.15 6.28 -3.29 6.08 -3.42 5.9 -3.54 5.71 -3.67 5.53 -3.79 5.33 -3.91 5.16 -4.04 4.98 -4.15 4.8 -4.26 4.62 -4.38 4.45 -4.49 4.28 -4.6 4.12 -4.71 3.95 -4.82 3.79 -4.92 3.63 -5.02 3.47 -5.14 3.32 -5.23 3.16 -5.32 3.01 -5.43 2.86 -5.52 2.71 -5.61 2.56 -5.7 2.42 -5.79 2.27 -5.88 2.14 -5.97 2 -6.05 1.86 -6.14 1.72 -6.21 0.01 -0.04zm-0.01 0.04l0.01 -0.04 0.03 -0.09 -0.04 0.13zm3.74 -31.64l14.29 0 0 0 -0.01 1.51 -0.02 1.47 -0.03 1.45 -0.04 1.42 -0.05 1.4 -0.07 1.37 -0.07 1.35 -0.09 1.32 -0.09 1.26 -0.1 1.28 -0.11 1.23 -0.12 1.21 -0.13 1.18 -0.13 1.15 -0.14 1.14 -0.15 1.12 -0.15 1.08 -0.16 1.04 -0.16 1.05 -0.17 1.02 -0.17 0.98 -0.18 0.96 -0.18 0.96 -0.19 0.94 -0.18 0.87 -0.19 0.89 -0.2 0.86 -0.2 0.85 -0.2 0.8 -0.19 0.78 -0.2 0.79 -0.2 0.74 -13.77 -3.85 0.17 -0.65 0.17 -0.65 0.17 -0.7 0.18 -0.71 0.17 -0.71 0.17 -0.73 0.16 -0.75 0.17 -0.81 0.16 -0.78 0.15 -0.81 0.16 -0.86 0.15 -0.88 0.15 -0.89 0.14 -0.89 0.14 -0.95 0.14 -0.97 0.13 -0.97 0.12 -1 0.12 -1.04 0.12 -1.06 0.1 -1.08 0.1 -1.11 0.09 -1.12 0.09 -1.18 0.08 -1.18 0.06 -1.22 0.06 -1.25 0.05 -1.27 0.04 -1.31 0.02 -1.34 0.02 -1.36 0.01 -1.38 0 0zm14.29 -38.78l0 38.78 -14.29 0 0 -38.78 14.29 -0.01 0 0.01zm0 -0.01l0 0 0 0.01 0 -0.01zm-1.12 -825.31l1.12 825.31 -14.29 0.02 -1.12 -825.31 7.15 -7.27 7.15 7.25zm-7.15 -7.25l7.14 0 0.01 7.25 -7.15 -7.25zm-174.75 0l174.75 0 0 14.51 -174.75 0 -7.15 -7.3 7.15 -7.21zm0 14.51l-7.19 0 0.05 -7.3 7.15 7.3zm8.21 -176.45l-1.07 169.24 -14.29 -0.09 1.07 -169.24 6.18 -7.15 8.11 7.24zm-14.29 -0.09l0.04 -6.29 6.14 -0.85 -6.18 7.15zm306.27 -165.6l0 14.51 4.37 -1.51 -8.4 6.56 -8.5 6.58 -8.59 6.59 -8.68 6.58 -8.77 6.56 -8.85 6.53 -8.93 6.49 -9.01 6.43 -9.09 6.37 -9.17 6.29 -9.23 6.2 -9.3 6.1 -9.37 5.99 -9.42 5.87 -9.49 5.73 -9.54 5.58 -9.6 5.42 -9.64 5.25 -9.7 5.07 -9.74 4.86 -9.78 4.66 -9.82 4.44 -9.86 4.21 -9.9 3.97 -9.94 3.71 -9.96 3.44 -9.99 3.17 -10.02 2.87 -10.04 2.56 -10.06 2.25 -10.08 1.91 -10.09 1.58 -1.93 -14.38 9.62 -1.5 9.62 -1.83 9.63 -2.15 9.63 -2.46 9.63 -2.76 9.63 -3.05 9.62 -3.33 9.61 -3.59 9.6 -3.85 9.59 -4.09 9.55 -4.32 9.54 -4.54 9.51 -4.75 9.48 -4.95 9.44 -5.15 9.4 -5.31 9.36 -5.47 9.32 -5.63 9.27 -5.77 9.22 -5.89 9.17 -6.01 9.11 -6.12 9.04 -6.21 8.98 -6.29 8.91 -6.36 8.84 -6.42 8.77 -6.47 8.7 -6.51 8.61 -6.53 8.53 -6.54 8.45 -6.54 8.35 -6.53 4.37 -1.51zm-4.37 1.51l1.93 -1.51 2.44 0 -4.37 1.51zm280.69 13l-276.32 0 0 -14.51 276.32 0 7.15 7.26 -7.15 7.26zm0 -14.51l7.15 0 0 7.26 -7.15 -7.26zm-7.15 1188.7l0 -1181.44 14.29 0 0 1181.44 0 0 -14.29 0zm0 30.86l0 -30.86 14.29 0 0 30.86 0 0 -14.29 0zm16.09 17.91l-14.27 0.7 0.04 0.5 -0.02 -0.12 -0.02 -0.15 -0.04 -0.24 -0.05 -0.3 -0.05 -0.29 -0.05 -0.26 -0.07 -0.37 -0.07 -0.41 -0.08 -0.42 -0.07 -0.44 -0.08 -0.46 -0.08 -0.48 -0.09 -0.54 -0.08 -0.55 -0.09 -0.57 -0.09 -0.62 -0.08 -0.6 -0.08 -0.63 -0.09 -0.68 -0.08 -0.72 -0.07 -0.71 -0.07 -0.73 -0.07 -0.75 -0.07 -0.8 -0.06 -0.85 -0.05 -0.84 -0.04 -0.86 -0.04 -0.88 -0.03 -0.92 -0.03 -0.97 -0.01 -0.96 -0.01 -0.99 14.29 0 0.01 0.87 0.01 0.83 0.02 0.78 0.03 0.78 0.03 0.77 0.04 0.74 0.04 0.71 0.05 0.66 0.06 0.66 0.06 0.66 0.06 0.63 0.06 0.6 0.06 0.56 0.07 0.56 0.07 0.55 0.08 0.53 0.07 0.48 0.07 0.48 0.07 0.47 0.07 0.44 0.08 0.45 0.07 0.43 0.07 0.42 0.07 0.39 0.07 0.36 0.06 0.35 0.08 0.44 0.06 0.36 0.06 0.31 0.05 0.35 0.06 0.4 0.05 0.39 0.04 0.5zm-0.04 -0.5l0.03 0.25 0.01 0.25 -0.04 -0.5zm125.7 150.47l-14.29 0 5.27 7 -6.93 -2.07 -6.8 -2.35 -6.66 -2.61 -6.52 -2.86 -6.37 -3.11 -6.22 -3.34 -6.06 -3.57 -5.89 -3.79 -5.73 -3.99 -5.56 -4.19 -5.38 -4.38 -5.19 -4.56 -5 -4.72 -4.81 -4.89 -4.61 -5.04 -4.41 -5.19 -4.21 -5.33 -3.99 -5.45 -3.77 -5.57 -3.55 -5.68 -3.32 -5.78 -3.09 -5.87 -2.85 -5.96 -2.61 -6.03 -2.35 -6.1 -2.1 -6.16 -1.84 -6.2 -1.57 -6.25 -1.3 -6.28 -1.02 -6.31 -0.73 -6.32 -0.45 -6.32 14.27 -0.7 0.4 5.65 0.66 5.65 0.92 5.67 1.17 5.66 1.42 5.64 1.67 5.64 1.91 5.6 2.14 5.56 2.38 5.51 2.61 5.45 2.83 5.38 3.06 5.31 3.27 5.23 3.47 5.13 3.68 5.03 3.87 4.91 4.08 4.79 4.26 4.66 4.45 4.52 4.62 4.37 4.8 4.21 4.96 4.05 5.13 3.86 5.28 3.69 5.44 3.49 5.59 3.29 5.72 3.08 5.86 2.86 6 2.64 6.12 2.4 6.24 2.16 6.37 1.9 5.27 7zm-5.27 -7l5.27 1.46 0 5.55 -5.27 -7zm-9.02 74.35l0 -67.34 14.29 0 0 67.34 -7.15 7.26 -7.15 -7.26zm14.29 0l0 7.26 -7.15 0 7.15 -7.26z"/>
    </g>
   </g>
  </g>
 </g>
</svg>
