<?xml version="1.0" encoding="UTF-8"?>
<!DOCTYPE svg PUBLIC "-//W3C//DTD SVG 1.1//EN" "http://www.w3.org/Graphics/SVG/1.1/DTD/svg11.dtd">
<!-- Creator: CorelDRAW 2017 -->
<svg xmlns="http://www.w3.org/2000/svg" xml:space="preserve" width="65.0138mm" height="47.6575mm" version="1.1" style="shape-rendering:geometricPrecision; text-rendering:geometricPrecision; image-rendering:optimizeQuality; fill-rule:evenodd; clip-rule:evenodd"
viewBox="0 0 6337.17 4645.38"
 xmlns:xlink="http://www.w3.org/1999/xlink">
 <defs>
  <style type="text/css">
   <![CDATA[
    .str0 {stroke:#E31E24;stroke-width:34.39;stroke-miterlimit:2.61313}
    .str1 {stroke:#E31E24;stroke-width:38.43;stroke-miterlimit:2.61313}
    .fil2 {fill:none}
    .fil0 {fill:#FEFEFE}
    .fil1 {fill:#E31E24}
   ]]>
  </style>
 </defs>
 <g id="Layer_x0020_1">
  <metadata id="CorelCorpID_0Corel-Layer"/>
  <g id="_2551624518944">
   <path class="fil0 str0" d="M1012.38 17.2l4312.37 0c547.4,0 995.22,433.51 995.22,963.31l0 2684.36c0,529.84 -447.83,963.31 -995.22,963.31l-4312.37 0c-547.35,0 -995.18,-433.47 -995.18,-963.31l0 -2684.36c0,-529.8 447.84,-963.31 995.18,-963.31z"/>
   <path class="fil0 str0" d="M1216.65 282.61l3903.86 0c495.49,0 900.93,383.54 900.93,852.37l0 2375.42c0,468.84 -405.43,852.42 -900.93,852.42l-3903.86 0c-495.53,0 -900.92,-383.58 -900.92,-852.42l0 -2375.42c0,-468.83 405.39,-852.37 900.92,-852.37z"/>
   <polygon class="fil1" points="5397.04,1228.65 5397.96,1213.04 5398.84,1197.37 5399.18,1181.71 5399.47,1166.64 5399.22,1152.12 5398.34,1137.59 5396.91,1123.07 5395.48,1109.13 5393.41,1095.15 5391.39,1081.77 5388.74,1068.92 5385.54,1056.09 5382.3,1043.87 5378.51,1031.58 5374.09,1020.47 5369.66,1008.76 5364.65,998.23 5359.1,988.26 5353.5,978.28 5347.31,968.86 5341.08,960.01 5334.3,951.76 5326.93,943.5 5319.52,936.35 5311.57,929.23 5302.98,923.26 5294.39,917.28 5285.21,912.44 5276.03,907.59 5266.26,903.93 5255.87,900.22 5245.47,897.7 5224.13,892.02 5203.32,888.1 5183.08,884.81 5163.42,882.63 5144.3,881.11 5125.73,881.28 5107.71,882.08 5090.88,884.06 5074.54,887.17 5058.2,890.92 5043.01,896.39 5028.4,902.46 5014.29,909.15 5001.37,917.57 4988.44,926.58 4976.61,936.82 4964.79,948.14 4954.09,960.14 4944.53,973.27 4934.93,987 4926.51,1001.9 4918.05,1017.98 4910.73,1035.25 4904.58,1053.09 4898.39,1071.54 4893.34,1091.16 4888.83,1111.96 4884.91,1133.93 4881.55,1155.91 4879.32,1179.65 4877.63,1203.98 4876.54,1228.91 4765.81,1169.76 4660.65,1119.4 4561.12,1079.03 4466.01,1047.46 4376.55,1024.72 4292.13,1010.19 4212.23,1003.33 4136.78,1004.09 4066.38,1011.92 4000.54,1026.24 3939.16,1047.58 3881.73,1074.82 3828.86,1107.37 3779.89,1145.22 3734.92,1187.82 3693.88,1235.69 3656.83,1287.14 3623.19,1342.16 3592.96,1401.31 3566.73,1462.83 3543.33,1527.36 3523.41,1594.22 3506.32,1662.93 3492.64,1733.44 3481.31,1804.56 3473.44,1876.93 3467.84,1949.93 3464.6,2022.39 3464.26,2094.93 3466.23,2166.92 3470.57,2237.78 3476.68,2306.94 3309.08,2359.2 3480.21,2443.98 3459.5,2520.7 3445.1,2598.75 3435.37,2676.89 3431.42,2755.11 3432.72,2832.92 3438.66,2910.21 3449.27,2986.42 3464.56,3060.43 3483.92,3133.35 3507.42,3204.08 3534.44,3271.95 3565.6,3336.4 3600.29,3398.04 3638.56,3455.72 3679.77,3509.35 3724.03,3558.45 3770.72,3602.36 3820.35,3641.08 3871.88,3674.68 3926.44,3701.33 3982.31,3722.21 4040.04,3736.15 4099.69,3743.23 4160.61,3742.17 4222.88,3733.58 4285.91,3716.91 4349.68,3690.97 4414.82,3656.33 4479.53,3612.42 4545.08,3558.65 4610.8,3494.44 4676.18,3419.81 4680.51,3462.83 4688.93,3503.63 4700.93,3541.02 4715.88,3575.53 4733.23,3607.24 4753.48,3636.07 4776.17,3662.09 4801.22,3685.25 4828.08,3704.95 4856.16,3722.34 4885.46,3736.86 4915.99,3747.98 4947.14,3756.74 4978.93,3762.63 5011.35,3765.62 5043.26,3765.71 5074.62,3762.84 5106.07,3757.7 5136.43,3749.08 5165.1,3738.04 5193.23,3724.11 5219.7,3707.27 5243.87,3688.03 5265.81,3665.88 5285.47,3640.75 5302.89,3612.67 5316.87,3582.23 5328.03,3548.81 5335.73,3512.97 5339.44,3473.6 5339.15,3432.39 5334.81,3388.19 5307.32,3427.09 5281.22,3455.55 5257.04,3473.02 5234.82,3481.86 5213.94,3481.44 5194.99,3472.35 5177.89,3455.72 5162.15,3432.77 5148.26,3402.88 5136.81,3367.85 5126.62,3327.61 5117.69,3282.72 5111.12,3234.43 5106.41,3183.28 5103.46,3129.27 5102.88,3074.12 5103.46,3017.86 5105.78,2961.03 5110.45,2904.28 5116.81,2848.71 5125.48,2794.35 5135.83,2742.31 5147.88,2693.26 5162.19,2647.71 5178.15,2606.29 5196.3,2570.08 5216.67,2539.18 5238.65,2514.13 5262.81,2496.02 5289.13,2485.58 5317.63,2482.68 5347.64,2489.07 5343.36,2473.33 5337.29,2457.54 5330.64,2442.35 5322.26,2427.66 5313.84,2412.96 5303.69,2398.81 5293.55,2385.85 5282.18,2373.42 5269.68,2361 5257.13,2350.27 5243.41,2339.53 5229.68,2330.56 5215.36,2322.15 5199.83,2314.27 5184.3,2308.12 5168.76,2303.2 5152.6,2298.78 5135.83,2296.12 5119.04,2295.2 5102.19,2294.87 5084.77,2296.21 5067.88,2299.37 5050.38,2304.21 5032.81,2310.23 5015.85,2318.02 4998.8,2328.09 4981.75,2339.32 4965.2,2352.92 4948.65,2368.25 4932.62,2385.89 4916.54,2405.3 4901.04,2426.43 4879.32,2410.34 4858.18,2394.82 4836.41,2381 4814.61,2368.37 4792.8,2357.46 4771.54,2347.75 4750.23,2339.78 4729.48,2332.97 4708.68,2327.87 4687.88,2323.95 4668.22,2321.81 4647.93,2320.79 4628.73,2322.15 4610.13,2324.67 4591.47,2328.34 4573.96,2334.35 4556.95,2341.56 4539.94,2350.48 4524.66,2361.18 4509.29,2373.64 4495.11,2387.27 4481.42,2403.23 4468.88,2420.96 4456.88,2439.86 4445.97,2461.08 4436.2,2484.11 4427.58,2508.32 4419.48,2534.84 4413.09,2563.72 4407.24,2593.74 4403.11,2625.57 4400.08,2659.75 4405.56,2648.26 4411.57,2637.35 4417.59,2627.04 4424.16,2617.31 4430.73,2608.18 4437.89,2599.59 4445,2591.64 4452.7,2584.27 4460.41,2577.44 4468.62,2571.26 4476.88,2566.21 4485.09,2561.16 4493.29,2557.24 4502.09,2553.37 4510.26,2551.21 4519.02,2549.07 4527.73,2547.51 4536.44,2547.09 4545.16,2547.31 4553.83,2548.65 4562.51,2550 4570.55,2553.03 4579.22,2556.15 4587.26,2560.36 4595.26,2565.15 4603.26,2571.13 4611.26,2577.66 4618.62,2585.36 4625.99,2593.65 4632.77,2603.09 4639.51,2613.66 4645.65,2624.22 4653.7,2656.3 4660.01,2688.34 4664.55,2720.97 4667.38,2753.51 4669.02,2786.61 4668.35,2819.06 4666.49,2851.52 4662.92,2883.94 4657.65,2915.18 4651.21,2945.79 4642.46,2975.8 4632.56,3004.61 4620.98,3031.64 4607.68,3057.49 4593.24,3082.11 4576.53,3104.38 4559.26,3124.93 4539.73,3143.66 4518.51,3160.04 4496.2,3173.51 4472.74,3184.63 4447.02,3192.79 4420.25,3198.65 4392.34,3200.37 4362.19,3199.74 4330.95,3195.02 4298.62,3186.82 4264.64,3175.11 4228.98,3158.69 4191.68,3138.78 4153.92,3114.2 4113.87,3085.52 4108.49,3066.24 4103.1,3046.41 4098.26,3027.17 4094.05,3007.93 4089.8,2988.69 4086.13,2968.9 4083.06,2949.66 4079.99,2929.87 4077.51,2910.09 4074.98,2890.89 4073.08,2871.14 4071.74,2851.4 4070.43,2831.61 4069.67,2811.91 4068.92,2792.12 4068.74,2772.41 4069.16,2752.71 4069.54,2732.96 4069.97,2713.27 4070.98,2693.57 4074.13,2653.56 4077.84,2613.61 4082.72,2573.7 4088.78,2533.75 4095.99,2493.88 4103.81,2453.42 4283.97,2383.49 4256.39,2370.73 4230.58,2355.12 4206.63,2336.62 4184.4,2315.83 4164.02,2292.22 4145.96,2266.87 4129.12,2239.25 4114.09,2209.36 4100.78,2178.33 4089.29,2145.61 4079.56,2111.72 4071.57,2076.74 4065.33,2041.25 4060.88,2004.58 4058.18,1968 4057.21,1930.23 4057.38,1893.1 4059.9,1856.05 4063.57,1818.96 4068.96,1782.54 4076.11,1746.71 4084.95,1711.47 4094.93,1677.45 4107.23,1644.65 4120.66,1613.59 4135.77,1583.73 4152.57,1556.21 4171.09,1530.52 4190.75,1507.11 4212.06,1485.52 4235.08,1466.82 4259.21,1451.08 4312.59,1423.75 4361.77,1402.74 4407.32,1388.6 4449.85,1380.22 4488.75,1377.53 4524.7,1380.01 4558.17,1387.67 4589.29,1399.33 4617.37,1415.59 4644.22,1435.29 4668.73,1458.44 4691.96,1483.87 4714.03,1512.17 4734.87,1542.18 4754.48,1573.93 4773.56,1606.81 4811.03,1674.93 4848.5,1743.01 4867.53,1775.88 4887.74,1807.63 4908.58,1837.64 4930.64,1865.39 4954.51,1890.83 4979.56,1913.39 5006.42,1933.09 5035.68,1948.79 5067.34,1960.5 5100.85,1967.57 5137.94,1970.05 5177.47,1966.82 5189.69,1964.75 5201.35,1962.1 5212.42,1959.45 5222.95,1955.62 5233.51,1951.15 5243.44,1946.73 5252.84,1941.72 5262.27,1935.54 5271.07,1929.3 5279.36,1922.52 5287.61,1915.74 5295.91,1907.79 5303.02,1899.79 5310.77,1890.7 5317.34,1881.52 5324.49,1871.84 5331.1,1862.11 5337.13,1851.2 5343.14,1840.3 5349.2,1828.8 5354.63,1817.31 5360.15,1804.68 5365.63,1792.01 5370.51,1778.79 5380.41,1751.13 5389.12,1722.29 5397.87,1691.72 5406.08,1659.39 5365.33,1693.37 5328.29,1718.12 5294.31,1733.11 5264.59,1740.01 5238.48,1739.47 5215.41,1732.02 5196,1717.7 5179.58,1698.21 5166.15,1672.99 5155.16,1643.78 5147.72,1611.1 5142.07,1575.02 5139.42,1536.66 5139.08,1496.63 5141.1,1455.46 5145.43,1413.78 5150.95,1372.1 5159.33,1331.67 5168.85,1292.99 5180.05,1256.1 5192.92,1222.13 5206.9,1191.65 5222.53,1165.88 5239.23,1144.16 5256.37,1128.83 5275.1,1119.4 5294.35,1116.29 5313.97,1121.34 5334.01,1133.97 5355.01,1155.86 5375.85,1187.06 "/>
   <polygon class="fil1" points="1871.41,1204.28 1850.61,2208.22 1989.37,2258.11 1844.38,2283.54 1845.35,2627.63 1845.43,2680.43 1847.33,2729.22 1850.99,2775.15 1856.54,2817.05 1863.29,2855.48 1871.24,2890.46 1881.05,2922 1892.08,2950.08 1904.29,2975.26 1917.77,2997.02 1931.91,3015.88 1946.65,3031.84 1962.65,3044.35 1979.24,3054.58 1996.49,3061.32 2013.84,3065.73 2031.77,3067.25 2050.38,3066.49 2069.03,3062.83 2087.72,3056.26 2106.46,3047.92 2124.69,3036.72 2143.55,3023.17 2161.82,3007.89 2179.63,2989.7 2196.85,2969.74 2213.56,2948.02 2229.73,2923.98 2245.35,2897.63 2259.87,2870.09 2273.81,2840.2 2286.65,2809.13 2301.89,2772.88 2320,2739.62 2340.38,2708.71 2362.44,2680.13 2386.77,2654.54 2412.79,2631.29 2440.49,2610.41 2469.29,2592.44 2499.18,2576.81 2529.66,2563.52 2560.65,2552.52 2592.13,2544.48 2623.59,2538.16 2655,2534.76 2685.77,2534.25 2716.46,2535.47 2746.56,2539.56 2774.86,2545.37 2802.56,2554.08 2829,2565.07 2853.12,2578.33 2875.98,2593.91 2895.89,2612.3 2914.08,2632.39 2929.83,2655.38 2942.67,2680.59 2952.56,2707.46 2958.92,2737.18 2961.7,2769.18 2961.57,2803.4 2956.78,2839.87 2948.44,2877.97 2919.76,2832.7 2892.02,2799.06 2865.25,2776.46 2839.98,2763.75 2815.65,2760.92 2792.92,2766.27 2771.74,2780.33 2752.17,2800.8 2734.18,2828.29 2717.85,2861.04 2703.16,2898.43 2690.65,2940.53 2679.88,2985.57 2670.74,3033.53 2664.51,3082.7 2659.97,3133.68 2657.77,3184.71 2657.86,3235.19 2660.34,3284.53 2665.73,3331.68 2673.52,3375.93 2683.66,3417.32 2696.84,3454.16 2713.01,3485.82 2732.2,3511.76 2753.84,3530.78 2779.15,3542.91 2807.48,3546.99 2838.93,3541.82 2874.05,3527.46 2912.27,3502.15 2954.2,3466.45 2954.63,3501.86 2951.64,3534.32 2944.06,3564.88 2933.62,3592.54 2919.73,3617.76 2903.01,3641.21 2883.44,3661.67 2861.58,3680.41 2837.46,3696.74 2811.02,3711.27 2782.94,3722.85 2753.72,3733.29 2722.78,3741.33 2691.32,3747.06 2659.33,3751.05 2626.24,3753.25 2593.73,3753.75 2560.69,3751.89 2528.27,3748.91 2496.44,3744.19 2465.24,3737.75 2435.23,3729.58 2406.43,3719.69 2379.4,3708.7 2354.14,3695.98 2331.23,3681.58 2310.65,3666.64 2292.42,3649.42 2277.14,3631.7 2264.76,3612.29 2256.46,3591.83 2251.12,3570.23 2228.14,3587.75 2204.6,3604.12 2180.47,3619.28 2156.39,3633.26 2131.76,3646.09 2107.18,3657.76 2082,3668.28 2056.82,3677.63 2031.73,3685.8 2006.05,3692.24 1980.41,3698.09 1954.77,3702.22 1929.17,3705.71 1903.61,3706.93 1878.11,3707.56 1853.18,3706.47 1827.66,3704.2 1802.79,3700.79 1777.95,3695.61 1753.15,3688.75 1728.94,3681.25 1704.78,3671.49 1681.2,3660.54 1657.67,3648.45 1634.72,3634.64 1612.45,3619.06 1590.72,3602.4 1569.04,3583.95 1548.58,3563.79 1528.16,3542.49 1508.92,3518.87 1489.68,3494.11 1474.1,3518.74 1456.21,3542.15 1435.46,3564.33 1412.93,3585.35 1388.17,3605.14 1362.28,3622.6 1334.67,3638.85 1305.95,3653.34 1276.06,3666.05 1245.12,3676.45 1214.22,3684.54 1182.13,3690.81 1150.18,3694.22 1117.63,3695.86 1085.77,3694 1054.53,3689.92 1023.32,3682.89 992.81,3672.36 963.46,3659.57 935.38,3642.77 908.52,3623.07 882.88,3599.91 859.64,3573.3 838.25,3542.69 818.63,3508.64 802.05,3469.99 787.22,3427.89 776.02,3381.24 767.23,3330.59 761.37,3275.35 759.73,3215.53 761.08,3151.16 772.79,3174.02 785.08,3196.33 797.42,3217.47 809.75,3237.46 822.13,3256.87 835.09,3275.15 847.51,3292.19 860.52,3308.15 873.54,3322.93 885.99,3337.12 899.13,3349.58 911.64,3361.41 924.18,3372.14 937.31,3381.11 949.36,3389.49 961.94,3396.14 974.62,3401.62 986.7,3405.91 998.23,3409.07 1010.4,3411.04 1021.43,3411.3 1033.01,3410.92 1044.13,3408.27 1054.61,3404.98 1065.18,3400.02 1075.15,3393.83 1084.63,3385.92 1094.1,3376.23 1103.03,3365.95 1111.4,3353.37 1119.23,3339.65 1126.52,3324.11 1157,2275.08 1005.18,2235.96 1165.25,2184.14 1177.46,1092.97 1168.24,1088.13 1159.06,1083.32 1150.47,1079.07 1141.84,1075.4 1133.21,1072.33 1125.13,1069.26 1117.05,1067.36 1108.97,1065.43 1101.42,1064.71 1093.89,1064 1086.35,1064.42 1079.36,1064.84 1072.42,1065.85 1065.38,1067.45 1058.99,1069.05 1052.55,1071.83 1046.65,1075.16 1040.21,1078.52 1034.32,1083.03 1029.01,1087.58 1023.67,1093.26 1018.31,1098.94 1012.97,1105.21 1008.22,1112.07 1003.37,1119.53 998.58,1127.57 994.36,1135.61 990.11,1144.79 986.45,1154.01 982.75,1164.37 979.04,1174.72 975.33,1185.67 979.54,1149.8 984.34,1115.66 991.37,1083.32 998.99,1052.71 1008.29,1023.88 1018.69,996.85 1030.27,971.55 1042.91,948.6 1056.71,927.42 1071.61,908.01 1087.66,890.33 1104.21,874.46 1121.89,860.9 1140.16,849.07 1159.49,839.06 1179.4,831.35 1199.81,825.96 1220.78,821.75 1242.85,820.44 1264.9,820.31 1287.47,823.14 1310.58,827.68 1334.25,833.96 1357.87,842.59 1382.03,853.53 1406.11,866.21 1430.74,881.24 1455.33,898.55 1479.87,918.21 1504.42,939.59 1528.87,963.34 1553.25,989.35 1580.45,964.98 1608.2,942.92 1635.31,923.17 1662.34,906.34 1689.33,892.4 1715.64,880.74 1741.95,871.43 1767.63,864.44 1793.27,859.72 1818.28,857.36 1842.65,857.29 1866.4,858.92 1889.51,862.88 1912.04,869.16 1933.93,876.57 1954.6,886.29 1974.68,897.15 1993.54,910.33 2011.23,924.6 2028.32,940.65 2044.19,958.37 2058.93,977.23 2072.4,997.23 2084.73,1018.95 2095.26,1041.82 2104.65,1065.22 2112.81,1090.36 2119.26,1115.99 2123.94,1142.77 2127.43,1170.72 2129.15,1198.59 2129.11,1228.2 2118.46,1211.73 2108.27,1197.59 2098.12,1184.03 2087.94,1172.2 2078.3,1161.55 2068.61,1152.08 2059.52,1143.78 2049.8,1136.63 2040.61,1130.6 2032.03,1125.21 2023.39,1121.55 2014.76,1118.48 2006.14,1116.54 1998.01,1115.23 1989.88,1115.07 1981.76,1115.45 1973.63,1116.46 1966.06,1118.61 1958.43,1121.34 1950.81,1124.71 1943.74,1129.17 1936.71,1133.67 1929.64,1138.77 1922.56,1144.42 1915.45,1150.65 1908.93,1157.47 1902.4,1164.28 1895.88,1171.69 1883.37,1187.7 "/>
   <polygon class="fil2 str1" points="4717.9,959.89 4730.36,960.14 4741.81,959.33 4754.32,958.53 4765.77,956.73 4777.23,954.88 4788.72,952.01 4800.25,948.05 4810.69,944.14 4821.18,940.18 4831.65,935.22 4842.14,930.25 4851.62,924.22 4861.13,918.16 4870.56,912.15 4879.02,905.03 4887.53,897.95 4894.94,889.78 4903.4,882.72 4909.8,873.45 4917.25,865.33 4923.69,856.11 4929.08,846.85 4934.47,837.63 4939.86,827.35 4944.24,817.04 4948.61,806.72 4951.94,796.4 4954.26,786.09 4956.53,774.73 4958.89,763.31 4960.16,751.91 4960.36,740.49 4960.61,729.04 4959.81,717.64 4957.96,706.14 4956.15,694.69 4954.26,684.29 4951.35,673.81 4947.43,663.32 4943.48,652.88 4938.51,642.4 4933.5,632.93 4928.53,623.49 4922.47,613.98 4915.36,605.56 4909.33,596.05 4901.21,588.6 4894.1,580.18 4877.76,565.27 4859.32,552.43 4850.14,545.99 4839.87,540.6 4829.55,535.21 4819.29,530.84 4808.96,526.46 4797.64,522.03 4786.27,518.71 4774.91,516.39 4763.54,514.08 4751.07,512.77 4739.67,511.51 4727.2,511.25 4714.74,511 4703.33,511.8 4690.83,512.56 4679.34,514.41 4667.89,516.26 4656.4,519.13 4644.89,523.05 4634.42,527 4623.98,530.91 4613.45,535.88 4603.97,540.89 4593.5,546.92 4584.02,552.93 4575.56,559 4566.09,566.07 4557.63,573.19 4550.17,581.31 4542.76,588.47 4535.31,597.64 4527.86,605.81 4521.41,615.03 4516.07,624.25 4510.64,633.51 4505.25,643.79 4500.87,654.06 4497.54,664.42 4493.17,674.69 4490.89,685.05 4488.57,696.41 4486.26,707.78 4486.01,719.23 4484.74,730.6 4485.54,742.05 4485.29,753.51 4487.14,764.96 4488.99,776.45 4490.86,786.85 4494.81,797.33 4497.72,807.77 4501.63,818.26 4506.6,828.74 4511.61,838.21 4516.62,847.65 4522.63,857.11 4529.75,865.58 4536.82,875.1 4543.94,882.5 4551.02,890.96 4559.19,898.42 4568.4,905.87 4576.56,912.27 4585.79,918.71 4596.02,925.11 4605.28,930.54 4615.55,935.93 4625.83,940.31 4636.14,944.64 4647.47,949.07 4658.83,952.39 4670.2,954.75 4681.61,957.02 4694.07,958.33 4705.44,959.63 "/>
   <path class="fil1" d="M4624.74 893.54l6.81 -329.19 120.5 2.49 17.64 0.38 14.47 2.35 12.42 3.37 10.32 4.38 8.17 5.35 8.21 6.43 7.07 9.47 4.97 9.47 4.97 11.54 3.91 11.49 1.81 13.55 0.76 13.52 -1.27 9.3 -1.18 8.3 -1.22 8.3 -2.27 8.26 -3.25 7.19 -3.24 6.19 -4.34 7.2 -4.25 5.1 -5.31 6.1 -6.36 5.05 -6.27 4.05 -6.37 4 -7.32 2.99 -8.38 2.94 -8.33 1.89 -9.39 1.9 7.2 4.29 6.1 5.35 5.1 4.25 4.07 4.25 8.09 10.57 7.03 10.49 6.06 10.53 5.98 11.58 45.89 90.3 -44.62 -0.93 -34.94 -69.29 -8.97 -18.91 -9.01 -14.73 -7.04 -12.59 -5.01 -8.46 -6.1 -6.32 -5.05 -5.3 -5.14 -4.29 -4.08 -3.21 -6.19 -2.18 -6.19 -2.23 -7.28 -0.13 -8.26 -1.22 -41.55 -0.85 -3.03 146.43 -36.37 -0.75zm40.16 -183.06l76.84 1.6 11.44 0.2 10.45 -1.85 9.34 -0.84 7.33 -2.99 6.32 -2.94 5.3 -5.1 5.3 -5.09 4.25 -5.1 3.28 -7.19 2.19 -7.24 2.27 -8.26 0.17 -8.33 -0.8 -11.45 -2.9 -10.44 -1.98 -5.22 -1.98 -4.21 -3.03 -4.21 -3.03 -3.15 -4.08 -4.26 -4.12 -2.18 -5.14 -3.21 -5.14 -2.18 -11.37 -2.32 -13.51 -1.31 -85.13 -1.76 -2.27 109.04z"/>
   <path class="fil1" d="M3255.27 3410.75c96.45,0 174.63,78.18 174.63,174.63 0,96.45 -78.18,174.63 -174.63,174.63 -96.45,0 -174.63,-78.18 -174.63,-174.63 0,-96.45 78.18,-174.63 174.63,-174.63z"/>
  </g>
 </g>
</svg>
