<?xml version="1.0" encoding="UTF-8"?>
<!DOCTYPE svg PUBLIC "-//W3C//DTD SVG 1.1//EN" "http://www.w3.org/Graphics/SVG/1.1/DTD/svg11.dtd">
<!-- Creator: CorelDRAW 2017 -->
<svg xmlns="http://www.w3.org/2000/svg" xml:space="preserve" width="1210.35mm" height="579.037mm" version="1.1" style="shape-rendering:geometricPrecision; text-rendering:geometricPrecision; image-rendering:optimizeQuality; fill-rule:evenodd; clip-rule:evenodd"
viewBox="0 0 124060.47 59351.02"
 xmlns:xlink="http://www.w3.org/1999/xlink">
 <defs>
  <style type="text/css">
   <![CDATA[
    .fil1 {fill:#FEFEFE}
    .fil0 {fill:#ED3237}
   ]]>
  </style>
 </defs>
 <g id="Layer_x0020_1">
  <metadata id="CorelCorpID_0Corel-Layer"/>
  <g id="_2587303768560">
   <path class="fil0" d="M55507.56 44431.52c858.43,0 1451.1,168.98 1777.4,505.71 328.33,338.25 491.77,930.25 491.77,1781.45 0,396.18 -43.82,745.28 -131.45,1050.05 -85.9,304.75 -213.9,546.14 -382.23,725.97 -163.16,177.72 -355.14,306.57 -573.93,382.3 -218.8,75.74 -579.11,112.84 -1082.41,112.84l-89.07 0 -868.53 0 0 3055.08 -1587.44 0 0 -7613.4 2445.88 0zm-878.62 1198.2l0 2137.2 503.29 0c441.04,0 735.35,-77.55 882.08,-232.64 146.43,-155.09 218.79,-440.53 218.79,-856.32 0,-396.48 -69.18,-669.56 -205.53,-821.02 -136.34,-151.47 -390.3,-227.21 -762.44,-227.21l-636.18 0zm9747.19 -1198.2l0 4769.55c0,1066.04 -191.98,1829.12 -577.38,2285.35 -383.96,458.04 -1016.69,687.35 -1897.03,687.35 -848.35,0 -1473.01,-223.89 -1875.13,-671.36 -400.68,-447.78 -601.03,-1140.26 -601.03,-2079.26l0 -4991.62 1513.36 0 0 4577.65c0,872.01 70.62,1423.58 212.15,1658.03 141.25,234.15 397.23,350.62 769.08,350.62 358.58,0 607.65,-130.35 747.45,-392.86 139.52,-261 208.7,-800.2 208.7,-1615.79l0 -4577.65 1499.81 0zm3503.79 3087.07l858.43 0c308.15,0 537.04,-82.98 685.2,-248.63 148.16,-163.85 222.25,-419.42 222.25,-762.79 0,-289.06 -77.54,-511.14 -234.07,-666.24 -156.53,-155.09 -380.51,-232.34 -673.38,-232.34l-858.43 0 0 1910zm0 3333.58l725.55 0c387.13,0 671.64,-86.3 851.8,-260.71 180.16,-172.89 270.97,-445.96 270.97,-817.7 0,-368.12 -89.07,-639.68 -265.78,-815.59 -176.99,-174.71 -447.95,-262.82 -813.18,-262.82l-769.36 0 0 2156.81zm-1464.36 1192.76l0 -7613.4 2573.87 0c720.36,0 1255.65,153.29 1605.6,459.85 350.23,306.56 525.21,770.03 525.21,1393.72 0,512.65 -109.25,930.25 -326.32,1254.61 -217.34,322.26 -511.94,503.9 -882.07,540.72 417.4,76.03 742.27,273.38 972.87,592.01 232.34,317.42 348.51,725.97 348.51,1224.75 0,747.1 -175.26,1291.43 -526.94,1635.11 -351.96,341.87 -909.17,512.64 -1671.61,512.64l-2619.13 0zm6707.22 0l0 -7613.4 1533.54 0 0 6270.99 2223.63 0 0 1342.42 -3757.17 0zm5293.3 0l0 -7613.4 1484.54 0 0 7613.4 -1484.54 0zm8146.21 -2602.47c6.92,40.73 10.37,86.29 11.82,133.98 1.73,49.48 3.46,121.6 3.46,216.64 0,757.66 -195.16,1340.92 -587.48,1753.39 -390.59,410.37 -949.24,616.75 -1676.51,616.75 -334.96,0 -648.01,-45.87 -939.15,-139.4 -291.43,-93.24 -523.48,-220.27 -698.74,-382.3 -297.77,-271.26 -509.93,-657.19 -636.19,-1155.95 -124.53,-498.48 -186.78,-1307.42 -186.78,-2426.26 0,-766.41 38.62,-1362.03 115.88,-1784.76 77.54,-424.85 205.53,-776.98 387.42,-1059.1 179.88,-285.44 437.58,-503.9 770.81,-653.56 334.96,-149.97 727.29,-223.89 1176.67,-223.89 737.37,0 1291.11,195.83 1664.7,588.69 373.87,392.86 560.66,976.11 560.66,1749.46l0 144.53 -1525.18 0 0 -144.53c0,-403.42 -58.8,-701.23 -180.16,-894.94 -119.34,-195.53 -302.96,-292.69 -550.29,-292.69 -341.58,0 -575.65,171.08 -705.37,511.14 -127.98,340.05 -191.97,1133.02 -191.97,2375.26 0,1041.29 67.44,1735.29 200.34,2082.58 132.89,345.19 372.14,518.08 717.19,518.08 247.32,0 432.68,-105.91 555.48,-315.62 122.79,-209.41 185.06,-526.84 185.06,-955 0,-26.25 -1.73,-68.49 -4.9,-124.92 -3.46,-58.24 -5.19,-102.29 -5.19,-137.6l1538.44 0zm1814.02 2602.47l0 -7613.4 1484.82 0 0 7613.4 -1484.82 0zm4698.91 0l0 -6364.21 -1656.05 0 0 -1249.19 4886.57 0 0 1249.19 -1666.43 0 0 6364.21 -1564.09 0zm5899.51 0l0 -2864.98 -1898.76 -4748.42 1686.6 0 1050.41 3175.18 1168.03 -3175.18 1589.17 0 -2051.83 4748.42 0 2864.98 -1543.62 0zm13789.45 -2602.47c6.63,40.73 10.09,86.29 11.53,133.98 1.73,49.48 3.45,121.6 3.45,216.64 0,757.66 -195.15,1340.92 -587.47,1753.39 -390.31,410.37 -949.24,616.75 -1676.52,616.75 -334.95,0 -648,-45.87 -939.14,-139.4 -291.44,-93.24 -523.49,-220.27 -698.74,-382.3 -297.77,-271.26 -509.93,-657.19 -636.19,-1155.95 -124.53,-498.48 -186.8,-1307.42 -186.8,-2426.26 0,-766.41 38.63,-1362.03 115.89,-1784.76 77.54,-424.85 205.53,-776.98 387.42,-1059.1 180.16,-285.44 437.58,-503.9 770.81,-653.56 334.96,-149.97 727.27,-223.89 1176.67,-223.89 737.37,0 1291.11,195.83 1664.69,588.69 373.88,392.86 560.67,976.11 560.67,1749.46l0 144.53 -1525.18 0 0 -144.53c0,-403.42 -58.8,-701.23 -180.16,-894.94 -119.34,-195.53 -302.96,-292.69 -550.29,-292.69 -341.59,0 -575.65,171.08 -705.37,511.14 -127.98,340.05 -191.98,1133.02 -191.98,2375.26 0,1041.29 67.45,1735.29 200.35,2082.58 133.18,345.19 372.14,518.08 717.19,518.08 247.32,0 432.67,-105.91 555.48,-315.62 122.79,-209.41 185.06,-526.84 185.06,-955 0,-26.25 -1.73,-68.49 -4.9,-124.92 -3.46,-58.24 -5.2,-102.29 -5.2,-137.6l1538.73 0zm4153.52 2720.76c-334.96,0 -648,-45.87 -937.42,-139.4 -291.43,-93.24 -523.48,-220.27 -697.01,-382.3 -299.5,-271.26 -513.39,-665.93 -643.11,-1182.2 -129.43,-516.27 -195.15,-1284.49 -195.15,-2306.47 0,-791.15 38.63,-1409.71 117.89,-1853.57 78.99,-444.15 208.7,-805.33 388.86,-1083.83 178.43,-281.82 435.85,-498.47 772.54,-649.94 336.69,-151.77 730.45,-227.51 1185.03,-227.51 346.78,0 666.75,47.67 954.43,142.72 289.69,93.53 526.93,225.69 710.27,394.66 286.24,264.33 490.04,632.75 612.83,1101.34 122.8,470.41 185.06,1164.7 185.06,2082.58 0,956.81 -38.62,1658.04 -117.89,2104.01 -78.99,445.67 -211.88,814.08 -398.95,1106.47 -178.44,281.82 -435.85,502.08 -774.27,658.99 -338.13,156.9 -725.54,234.45 -1163.12,234.45zm-944.34 -3943.39c0,1120.65 67.45,1860.51 202.07,2218.07 134.62,357.86 375.31,537.69 723.82,537.69 360.33,0 609.38,-172.9 745.72,-518.08 136.34,-347.3 203.51,-1118.83 203.51,-2315.22 0,-1059.1 -67.17,-1762.14 -201.78,-2105.82 -134.91,-343.37 -377.04,-515.97 -729.01,-515.97 -356.86,0 -604.19,176.22 -740.54,526.84 -136.34,350.62 -203.8,1074.78 -203.8,2172.5zm4912.8 3825.11l0 -1414.84 1213.86 0 0 1414.84 -1213.86 0z"/>
   <path class="fil0" d="M8644.99 10791.28l6660.22 -3054.78 2048.95 5041.41c17996.59,-10035.14 26642.92,7762.16 7585.53,17854.63 -57.94,30.47 147.88,419.71 92.24,455.62l6757.08 9083.77c1861.29,2017.7 4658.56,1686.7 7161.22,-1602.53 -3038.82,-9585.55 5517.28,-17815.4 12994.43,-12321.99l642.25 -1968.82 6656.47 -1181.3c-1595.22,4917.39 -2762.96,9233.42 -2330.57,13109.52 445.07,1213.58 1043.21,1110.99 1979.19,77.24l1950.36 -2777.78 -862.76 -3359.83 993.33 -1001.46c308.15,1050.95 616.59,2411.47 924.17,2906.01l3479.57 -5058.9c-2886.91,-4564.66 -718.92,-9058.72 1524.02,-10396.32 3247.82,-1936.25 6645.25,-701.24 3460.56,5474.1 1603.01,2625.1 2669.57,5211.59 3291.34,7836.99l3573.84 -6201.88 543.66 -4190.21 6133.29 -1361.13 -1598.69 12540.76c-324,2413.29 1031.97,2336.34 2486.24,-38.62 1856.1,-3170.04 3311.81,-6340.38 4284.97,-9510.42l2069.13 -16931.61c210.43,-1429.63 59.09,-2409.67 -1484.24,-2401.21 1695.82,-2190.61 7343.97,-2885.21 7691.04,727.48 -197.74,5089.39 -1029.08,12499.11 -1880.89,19983.68l7711.79 -8072.35 2526.02 27.46 -5509.5 5949.03 11837.65 21390.37 12023.57 0 0 12895.6 -3866.13 0c592.09,1280.27 1729.56,2084.99 3019.8,2756.35 -2626.32,3345.65 -7717.84,2107.33 -12508.13,-2756.35l-60470.42 0 0 -12896.2 53538.65 0 -8679.48 -15651.66 -789.25 6415.81 -6713.85 2033.1 637.92 -6873.84c-1871.09,3408.71 -3374.94,5771.91 -5232.19,7082.05 -3200.83,2257.28 -6248.88,1386.47 -6617.27,-2652.27l93.97 -4626.52c-1500.1,2783.52 -2579.92,5479.22 -4289.3,8307.4 -2216.72,4261.42 -7778.96,3657.64 -10700.46,-727.49 -3528.59,5268.92 -7499.93,7900.05 -10009.8,3740.63 -3304.32,4402.94 -8385.75,5992.48 -11959.87,984.57 -4229.62,6774.88 -9844.62,7410.04 -15443.2,1673.43l-5246.6 -7003.9 -846.33 -280.61c-2157.91,9785.6 -7414.31,16451.86 -10983.25,17385.13 -4498.86,605.28 -7230.4,-2672.18 -6979.33,-11872.71 841.43,-9642.88 5546.1,-18689.84 11285.35,-22641.37 -413.65,-1831.53 -1354.53,-3969.94 -2656.3,-6318.05zm3068.8 8151.39c1927.3,7427.54 905.13,18420.69 -2486.24,25624.33 -2780.83,5201.62 -6195.55,6282.75 -6885.06,-2135.38 217.35,-10096.39 3489.38,-18546.51 9371.3,-23488.95zm6733.45 13388.34c923.01,-6235.68 694.41,-12116.51 -582.29,-17674.79 5143.13,-3284.4 11984.67,-643.31 10480.53,5942.39 -1954.97,5392.32 -5484.71,9049.06 -9898.24,11732.41zm32253.89 4078.86l670.78 -7986.95c-2537.55,-2252.46 -6506.87,1550.62 -6707.79,6538.92 104.64,3993.47 3332.85,4827.17 6037.01,1448.03zm11824.39 -2675.2l3534.35 -4945.45c545.09,971.89 1001.12,2020.12 1327.14,3144.39 923.29,4335.94 -3329.97,5299.09 -4861.49,1801.06zm7335.04 -13506.3c285.09,-762.79 451.42,-1560.59 368.39,-2409.07 -240.4,-818.91 -997.37,-749.51 -1304.08,257.08 -60.25,913.96 49.87,1548.51 276.15,1991.46 168.63,546.14 429.5,615.54 659.53,160.52zm9636.51 -7903.08c-1557.18,1097.72 -2148.4,2906.33 -1316.48,4026.37 831.63,1119.73 2779.97,1137.85 4336.86,40.13 1556.9,-1097.72 2148.4,-2906.32 1316.48,-4026.36 -831.92,-1119.75 -2779.97,-1137.85 -4336.86,-40.14z"/>
   <path class="fil1" d="M53133.17 44287l0 7738.62 1746.85 0 0 -3020.37 515.41 0c1646.24,0 2413.01,-655.37 2413.01,-2106.43l0 -505.1c0,-1590.76 -816.92,-2106.72 -2727.21,-2106.72l-1948.05 0zm1746.85 1150.22l163.45 0c691.24,0 904.84,257.68 904.84,977.93l0 462.25c0,719.95 -213.61,988.79 -904.84,988.79l-163.45 0 0 -2428.97zm4568.9 -1150.22l0 5115.93c0,1988.44 515.12,2753.34 2475.85,2753.34 1947.77,0 2500.94,-754.04 2500.94,-2753.34l0 -5115.93 -1872.82 0 0 5470.78c0,816.8 -62.83,1193.06 -615.71,1193.06 -565.57,0 -628.4,-376.27 -628.4,-1193.06l0 -5470.78 -1859.85 0zm6956.56 0l0 7738.62 2400.33 0c1746.86,0 2500.94,-494.54 2500.94,-1795.02l0 -687.96c0,-849.09 -527.8,-1397.05 -1520.56,-1547.61 917.52,-171.99 1369.8,-698.52 1369.8,-1590.75l0 -322.26c0,-1300.48 -741.4,-1795.02 -2488.26,-1795.02l-2262.26 0zm1746.85 1139.35l163.45 0c729.01,0 967.69,193.42 967.69,816.8l0 397.69c0,623.39 -251.36,816.8 -967.69,816.8l-163.45 0 0 -2031.28zm0 3138.36l201.21 0c829.32,0 1093.37,225.69 1093.37,945.94l0 451.4c0,719.95 -264.05,945.64 -1093.37,945.64l-201.21 0 0 -2342.97zm4895.51 -4277.71l0 7738.62 4009.11 0 0 -1193.06 -2148.97 0 0 -6545.55 -1860.14 0zm5335.38 0l0 7738.62 1872.53 0 0 -7738.62 -1872.53 0zm8766.54 2139c0,-1655.33 -603.33,-2257.28 -2362.86,-2257.28 -1998.22,0 -2538.71,741.67 -2538.71,2740.97l0 2493.25c0,1999.3 527.81,2753.34 2526.02,2753.34 1797.3,0 2425.7,-614.33 2425.7,-2269.66l0 -429.98 -1860.14 0 0 440.83c0,730.81 -100.31,1063.92 -603.04,1063.92 -553.17,0 -628.4,-397.69 -628.4,-1203.62l0 -3202.93c0,-805.93 62.84,-1193.06 615.72,-1193.06 552.88,0 615.71,387.13 615.71,1193.06l0 171.99 1809.99 0 0 -300.84zm1829 -2139l0 7738.62 1872.53 0 0 -7738.62 -1872.53 0zm3425.09 0l0 1193.06 1394.88 0 0 6545.55 1922.98 0 0 -6545.55 1394.88 0 0 -1193.06 -4712.75 0zm5586.75 0l1633.56 4621.69 0 3116.93 1860.13 0 0 -3116.93 1684.02 -4621.69 -1658.93 0 -754.09 3256.63 -87.91 0 -791.85 -3256.63 -1884.92 0zm14157.84 2139c0,-1655.33 -603.32,-2257.28 -2362.86,-2257.28 -1998.21,0 -2538.7,741.67 -2538.7,2740.97l0 2493.25c0,1999.3 528.09,2753.34 2526.3,2753.34 1797.01,0 2425.41,-614.33 2425.41,-2269.66l0 -429.98 -1859.85 0 0 440.83c0,730.81 -100.6,1063.92 -603.32,1063.92 -552.88,0 -628.4,-397.69 -628.4,-1203.62l0 -3202.93c0,-805.93 62.83,-1193.06 615.71,-1193.06 553.17,0 616.01,387.13 616.01,1193.06l0 171.99 1809.69 0 0 -300.84zm4958.35 128.84l0 3202.93c0,816.8 -75.53,1193.06 -666.17,1193.06 -603.32,0 -666.16,-376.27 -666.16,-1193.06l0 -3202.93c0,-816.8 75.52,-1193.06 666.16,-1193.06 603.33,0 666.17,376.27 666.17,1193.06zm1859.84 354.84c0,-1999.3 -540.19,-2740.97 -2526.02,-2740.97 -1985.53,0 -2526.01,741.67 -2526.01,2740.97l0 2493.25c0,1999.3 527.8,2753.34 2526.01,2753.34 1985.82,0 2526.02,-754.04 2526.02,-2753.34l0 -2493.25z"/>
  </g>
 </g>
</svg>
