<?xml version="1.0" encoding="UTF-8"?>
<!DOCTYPE svg PUBLIC "-//W3C//DTD SVG 1.1//EN" "http://www.w3.org/Graphics/SVG/1.1/DTD/svg11.dtd">
<!-- Creator: CorelDRAW 2017 -->
<svg xmlns="http://www.w3.org/2000/svg" xml:space="preserve" width="125.86mm" height="36.4687mm" version="1.1" style="shape-rendering:geometricPrecision; text-rendering:geometricPrecision; image-rendering:optimizeQuality; fill-rule:evenodd; clip-rule:evenodd"
viewBox="0 0 11707.8 3392.4"
 xmlns:xlink="http://www.w3.org/1999/xlink">
 <defs>
  <style type="text/css">
   <![CDATA[
    .fil0 {fill:#B8292F;fill-rule:nonzero}
   ]]>
  </style>
 </defs>
 <g id="Layer_x0020_1">
  <metadata id="CorelCorpID_0Corel-Layer"/>
  <g id="_2551621851104">
   <path class="fil0" d="M1536.12 56.59l-4.54 0.43c-6.77,24.33 -13.82,48.64 -21.53,75.98 20.99,-1.53 38.65,-2.62 59.13,-4 -11.75,-26.24 -21.7,-49.73 -33.06,-72.41zm111.38 145.21c-4.31,1.53 -5.8,2.35 -7.48,2.63 -33.4,3.99 -33.4,3.99 -47.66,-26.52 -8.26,-17.54 -8.26,-17.42 -28.04,-15.9 -16.46,1.37 -32.74,2.78 -49.03,3.33 -11.05,0.55 -17.54,4.54 -19.9,16.29 -1.95,10.93 -5.95,21.42 -9.67,33.17 -13.12,0.94 -25.69,1.92 -40.49,2.9 1.96,-7.33 3.33,-12.73 4.86,-17.98 18.21,-59.25 36.73,-118.38 55.26,-177.79 4.27,-14.64 4.43,-15.08 19.63,-15.47 33.28,-0.98 24.59,-7.2 39.9,23.5 24.75,50.13 48.64,100.69 72.97,150.97 3.05,6.49 6.07,13.27 9.66,20.86z"/>
   <path class="fil0" d="M1862.97 133.81c-0.39,-0.12 -1.1,-0.12 -1.65,-0.27 0,-3.33 0.43,-6.62 0,-10.22 -1.92,-18.64 -14.65,-32.19 -31.76,-34 -18.53,-1.92 -34,8.15 -39.79,26.67 -4.15,13 -5.52,26.4 -1.25,39.95 4.81,15.86 17.26,26.07 32.89,27.06 15.74,0.7 29.84,-7.76 35.48,-23.23 3.17,-8.14 4.15,-17.12 6.07,-25.96zm-114.79 4.43c-0.55,-47.27 30.55,-80.29 75.15,-80.13 44.21,0 76.8,31.65 77.39,74.6 0.27,47.12 -30.82,80.13 -75.19,80.4 -36.19,0.28 -78.32,-21.14 -77.35,-74.87z"/>
   <path class="fil0" d="M1964.36 230.97c-12.3,-2.78 -22.95,-5.13 -35.52,-8.03 11.04,-48.21 21.85,-95.16 33.01,-143.53 11.91,2.35 21.57,4.27 32.34,6.62 -0.55,6.34 -0.82,11.59 -1.26,19.5 5.8,-2.78 10.22,-5.13 15.2,-7.04 20.87,-8.47 40.76,-7.05 59.4,5.91 10.93,7.6 17,18.09 16.46,31.53 -0.28,7.72 -0.83,15.75 -2.51,23.46 -5.92,27.49 -12.41,54.99 -18.75,82.36 -0.6,3.32 -2.08,6.34 -3.77,11.2 -11.59,-2.78 -22.79,-5.4 -35.2,-8.15 5.25,-22.95 10.22,-44.21 14.92,-65.64 2.19,-9.94 4.7,-19.78 5.64,-29.72 1.68,-16.85 -3.45,-25.26 -16.14,-29.57 -13.43,-4.54 -28.2,-0.11 -35.67,11.64 -3.72,5.64 -6.07,12.3 -7.71,18.64 -5.95,23.06 -11.2,46.13 -16.84,69.2 -0.71,3.21 -1.96,6.38 -3.61,11.63z"/>
   <path class="fil0" d="M1674.71 0l35.92 0c2.5,33.87 0,67.55 0,100.99 0,33.72 -1.1,67.44 -1.53,102.37l-37.28 0c-0.71,-67.67 3.28,-134.41 2.89,-203.36z"/>
   <path class="fil0" d="M2892.37 1773.4c-43.39,610.49 -561.34,1128.84 -1222.39,1128.57 -658.86,-0.28 -1175.01,-515.3 -1221.31,-1122.5 52.79,296.22 308.91,512.7 610.49,510.63 303.71,-1.92 510.24,-211.67 575.17,-408.38 -7.6,-4.7 -15.47,-9.83 -23.5,-14.65 -67.83,-41.59 -122.42,-95.87 -160.53,-166.36 -23.77,-43.78 -37.43,-90.73 -38.97,-140.62 -1.68,-56.79 12.15,-110.24 41.59,-158.45 15.86,-25.85 34.39,-50.56 54.01,-73.51 38.97,-45.74 76.13,-92.43 103.19,-146.43 22.79,-45.47 37.05,-93.28 39.52,-144.39 1.53,-35.79 -3.99,-70.88 -10.77,-105.97 -4.7,-23.78 -8.3,-47.66 -12.3,-71.55 -0.7,-4.31 -0.11,-8.85 -0.11,-15.19 5.8,3.01 9.94,4.42 13.51,7.04 112.05,79.15 203.91,176.27 264.42,300.77 39.24,80.67 59.01,166.04 55.96,255.73 -3.29,97.39 -25.53,190.09 -78.2,273.54 -30.67,49.03 -70.45,89.52 -115.22,125.56 -14.92,12.02 -29.68,24.32 -44.33,36.61 -4.7,3.99 -8.85,8.85 -13.4,13.12 -7.48,6.93 -8.46,14.53 -4.86,24.33 14.1,37.71 30.28,74.32 51.54,108.47 97.55,158.17 237.2,257.49 420,290.51 288.47,51.96 558.69,-103.31 671.28,-357.12 19.47,-43.94 37.71,-104.17 45.19,-149.76z"/>
   <path class="fil0" d="M304.01 2131.11c-3.84,-13.82 -7.72,-26.67 -11.59,-40.22 2.34,-1.92 4.27,-3.88 6.61,-4.82 33.88,-14.64 50.99,-40.06 46.84,-83.02 -1.8,-21.02 -6.77,-41.31 -16.45,-59.99 -7.44,-14.76 -17.93,-25.97 -33.56,-31.88 -27.06,-10.54 -55.96,2.89 -62.15,31.33 -4.43,20.33 -5.4,41.31 -6.93,62.19 -1.65,24.72 -1.93,49.74 -3.72,74.33 -0.71,10.61 -3.33,21.26 -6.23,31.37 -19.62,69.47 -96.14,87.17 -149.05,53.57 -23.06,-14.76 -39.12,-35.76 -49.34,-60.89 -16.41,-40.5 -23.62,-82.63 -14.33,-125.87 9.79,-46.57 39.36,-76.25 84.12,-91.17 1.92,-0.71 4.27,-0.59 8.03,-0.98 4.27,13.54 8.26,26.67 12.57,40.18 -3.6,2.23 -5.67,4.04 -8.3,4.98 -33.56,13.7 -51.66,38.97 -55.26,74.76 -3.88,39.79 4.15,76.4 29.29,108.16 12.3,15.47 28.86,23.62 48.75,22.25 20.17,-1.38 36.19,-10.93 43.66,-29.96 4.98,-12.85 7.99,-27.1 9.4,-40.92 2.19,-24.6 1.92,-49.58 3.83,-74.45 1.53,-19.63 2.78,-39.67 7.76,-58.59 10.65,-41.44 38.26,-64.78 80.12,-68.38 37.71,-3.17 66.73,13.55 88.16,43.94 15.9,22.51 24.16,48.2 29.01,75.14 4,21.81 4.27,43.79 0.12,65.76 -7.87,41.86 -40.18,75.86 -81.38,83.18z"/>
   <path class="fil0" d="M433.68 2424.47c-9.36,7.87 -17.23,14.48 -25.14,21.14 0.16,1.1 0.28,2.35 0.43,3.6 33.29,0.39 60.94,11.87 81.5,37.83 20.76,26.67 27.93,55.14 11.09,89.25 7.16,0.82 12.96,1.8 18.91,2.07 34.93,2.34 60.51,19.62 78.32,49.03 19.07,31.25 16.02,63.28 -8.7,90.5 -5.13,5.67 -10.92,11.32 -17,16.18 -47.23,36.88 -94.33,73.78 -141.45,110.67 -2.35,1.65 -4.7,3.17 -9,5.92 -8.54,-10.89 -17.12,-21.54 -26.4,-33.01 5.4,-4.43 9.4,-8.31 13.82,-11.75 38.15,-29.96 76.57,-59.53 114.67,-89.65 9.67,-7.76 19.51,-15.63 28.04,-24.6 14.81,-15.63 17,-32.34 7.48,-51.26 -14.21,-28.2 -49.02,-47.11 -83.17,-31.21 -10.06,4.82 -19.9,10.61 -28.75,17.39 -36.85,28.2 -73.19,56.94 -109.69,85.38 -4.81,3.6 -9.66,7.21 -15.58,11.63 -9,-11.63 -17.15,-22.24 -26.12,-33.72 5.13,-4.58 9.24,-8.3 13.54,-11.59 39.52,-31.25 79.31,-61.92 118.67,-93.12 9.94,-8.15 19.89,-16.87 27.92,-27.1 12.58,-15.86 12.03,-33.29 0.94,-50.13 -18.36,-28.32 -50.67,-38.97 -81.22,-25.02 -14.76,6.77 -28.59,16.06 -41.59,25.84 -32.31,24.33 -64.11,49.74 -96.3,74.88 -4.71,3.72 -9.8,7.32 -15.59,11.75 -9.13,-11.48 -17.42,-21.97 -27.22,-34.11 71.27,-55.84 141.73,-110.83 213.43,-166.91 8.31,10.49 15.63,19.47 24.17,30.12z"/>
   <path class="fil0" d="M981.87 668.96c9.28,11.75 17,21.97 25.41,32.74 -9.94,8.46 -18.91,16.06 -28.59,24.32 46.99,60.23 92.85,119.37 140.24,180.03 -5.25,1.53 -8.7,3.17 -12.19,3.6 -6.73,0.67 -13.66,0 -20.28,1.1 -15.75,2.9 -25.85,-3.05 -35.37,-15.9 -31.53,-41.98 -64.38,-83.02 -96.73,-124.45 -3.71,-4.86 -7.71,-9.55 -12.41,-15.36 -19.23,13.28 -38.15,25.03 -53.34,45.04 52.63,54.44 104.87,108.71 159.98,165.77 -19.08,3.33 -34.82,6.65 -50.68,8.3 -3.76,0.43 -9,-3.88 -12.3,-7.16 -18.25,-18.53 -36.22,-37.44 -54.32,-56.12 -3.88,-3.84 -7.99,-7.44 -13.66,-12.97 -16.18,17.66 -31.38,34.66 -47.54,52.48 13.43,12.57 25.57,23.93 37.71,35.25 -4.98,8.42 -11.43,9.24 -18.21,9.24 -20.44,-0.27 -40.76,-0.55 -60.93,-0.82 -10.38,-0.12 -19.35,-2.74 -23.35,-13.66 -3.87,-10.5 -1.64,-19.35 6.23,-27.77 21.66,-23.62 43.08,-47.93 64.38,-71.87 3.84,-4.11 7.32,-8.42 12.3,-14.37 -11.2,-11.59 -21.97,-22.79 -33.44,-34.5 -40.61,34.5 -71.16,76.25 -108.32,113.69 -10.38,-9.13 -20.33,-17.82 -31.37,-27.65 27.92,-31.06 54.43,-60.62 81.53,-90.74 4.82,3.45 8.69,6.19 12.57,8.7 0.39,-0.43 0.83,-0.83 1.1,-1.26 -2.5,-3.6 -4.86,-7.05 -7.6,-11.04 52.64,-59.29 115.22,-106.09 179.17,-154.61z"/>
   <path class="fil0" d="M2029.41 564.75c1.26,11.99 2.5,23.46 3.76,36.03 -13.43,1.14 -25.02,2.23 -36.61,3.77 -5.13,0.55 -10.1,1.64 -14.81,3.44 -11.15,4.15 -14.64,9.67 -13.93,20.29 0.82,9.67 6.07,17.54 16.45,18.68 11.47,1.37 23.34,0 35.09,-1.26 5.95,-0.55 11.75,-3.17 19.46,-5.4 -0.55,6.93 -1.1,12.85 -1.64,18.64 8.03,-9.79 34.93,-81.89 37.98,-102.64 -41.59,-11.75 -83.57,-23.46 -127.24,-35.64 3.99,-14.21 7.32,-26.24 11.2,-39.64 4.98,0.83 8.7,0.94 12.14,2.08 26.83,7.32 53.34,15.03 80.01,22.79 20.84,5.91 41.71,11.75 65.32,18.48 -5.91,-7.72 -9.79,-14.21 -15.19,-19.46 -25.53,-24.87 -52.36,-48.37 -86.19,-61.49 -11.32,-4.27 -15.63,-10.93 -15.63,-22.63 0,-11.21 -1.65,-22.25 -2.9,-37.05 18.37,8.42 35.37,13.94 49.35,23.5 14.49,9.52 25.96,22.91 40.61,36.61 -0.55,-4.97 -0.28,-8.03 -1.26,-10.65 -4.82,-14.37 -9.8,-28.74 -15.04,-43.12 -3.76,-10.06 -8.03,-19.74 -19.78,-23.89 -2.62,-1.1 -5.67,-5.53 -6.22,-8.97 -1.77,-14.53 -2.47,-29.02 -3.99,-46.99 17.54,8.03 33.55,13.54 47.39,22.52 7.2,4.7 12.29,14.8 15.19,23.65 8.15,25.26 15.63,50.68 21.69,76.53 6.5,27.92 11.75,56.23 16.02,84.71 1.96,13.4 6.07,22.36 20.33,24.71 2.47,0.44 4.98,2.35 9.67,4.55 -4.43,12.57 -8.85,25.02 -13.55,38.57 -12.02,-3.76 -22.67,-7.04 -35.52,-11.36 -14.92,35.4 -26.51,71.87 -39.79,107.51 -13.24,35.36 -25.97,70.72 -40.06,109.41 -11.16,-15.35 -20.72,-27.65 -29.13,-40.88 -2.07,-3.33 -0.83,-9.67 0.55,-14.09 4.26,-14.37 9.66,-28.59 15.35,-45.31 -8.46,0 -14.8,-0.16 -21.14,0 -38.15,0.55 -66.46,-26.24 -69.36,-64.38 -1.26,-20.18 6.61,-35.1 22.67,-46.57 16.96,-12.03 42.14,-17.97 68.77,-15.04z"/>
   <path class="fil0" d="M1556.6 493.2c-1.26,-5.65 -2.62,-9.8 -2.94,-14.21 -0.66,-8.43 -0.82,-16.88 -1.37,-26.67 18.52,-1.65 35.79,-3.17 53.18,-4.55 14.1,-0.98 28.08,-2.23 42.14,-2.89 8.86,-0.6 17.54,-2.51 25.57,4.38 2.78,2.51 8.86,1.26 13.27,1.26 26.36,0.16 53.03,0 79.58,0l17.39 0c4.86,14.09 3.06,27.22 1.38,41.75 -11.6,0.66 -22.64,1.21 -35.49,1.65 -0.27,6.88 -0.98,12.96 -0.98,18.91 0,63.28 0.16,126.57 -0.39,189.82 0,10.49 2.74,17.26 11.87,23.77 20.72,14.8 27.49,42.3 19.07,68.65 -7.87,24.32 -26.55,37.44 -53.89,38.42 -21.81,0.82 -41.43,-5.09 -58.43,-18.64 -8.73,-6.89 -17.27,-14.64 -24.6,-23.07 -19.35,-21.96 -34.82,-46.84 -50.99,-72.52 14.64,-3.49 23.77,-0.83 31.09,11.59 12.03,20.6 27.89,38.42 46.29,53.61 18.37,15.31 38.93,22.36 62.98,15.31 13.66,-4.11 21.26,-13.12 22.13,-26.63 1.37,-18.24 -13.83,-30.15 -30.98,-23.22 -7.17,2.74 -13.4,8.15 -19.63,12.96 -3.72,3.06 -6.61,7.21 -11.15,12.19 -8.04,-11.59 -14.92,-21.54 -21.86,-31.37 12.19,-23.5 31.92,-29.02 55.41,-29.02 -1.37,-8.42 -7.75,-10.49 -12.57,-13.24 -8.42,-4.98 -10.93,-11.63 -10.65,-21.14 0.43,-27.11 0.27,-54.17 0.16,-81.23 0,-6.11 -0.55,-12.18 -0.98,-20.48 -26.52,2.23 -51.81,3.49 -76.69,6.66 -12.57,1.53 -20.01,13.66 -17.81,26.67 1.26,8.15 4.31,16.41 7.75,23.89 10.22,21.15 24.6,39.36 41.16,55.69 3.72,3.44 7.76,6.46 13.4,11.16 -6.5,4.86 -11.2,8.3 -16.73,12.29 -3.44,-2.73 -6.89,-4.54 -9.4,-7.43 -16.02,-18.92 -32.86,-37.32 -47.66,-57.22 -14.92,-20.29 -23.06,-43.79 -22.51,-69.63 0.27,-12.3 3.17,-23.74 12.3,-32.32 4.7,-4.42 11.2,-8.97 17.26,-9.55 30.12,-3.29 60.51,-5.37 92.58,-7.71 1.37,9.94 2.73,18.36 3.99,27.33 3.99,-12.14 4.43,-46.56 0.55,-64.22 -5.09,-0.43 -10.61,-0.71 -16.02,-0.98 -3.33,-0.28 -7.71,0.71 -9.94,-1.1 -10.06,-8.15 -21.42,-4.7 -32.46,-4 -23.62,1.53 -47.24,3.45 -70.73,5.1 -4.42,0.27 -8.85,0 -13.66,0z"/>
   <path class="fil0" d="M2076.6 3158.01c2.2,30.23 12.57,64.5 34.27,94.62 13.39,18.52 31.92,30.38 55.1,32.46 41.2,3.87 75.42,-29.84 73.79,-74.05 -1.53,-38.66 -14.77,-74.02 -38.97,-104.57 -19.74,-24.86 -51.11,-33.56 -79.03,-23.62 -28.04,9.95 -45.03,35.76 -45.15,75.15zm113.84 -99.2c-15.19,-44.21 -28.74,-84.71 -42.96,-126.57 14.21,-4.82 26.63,-9.25 40.88,-14.06 40.88,118.38 81.11,235.4 122.11,354.49 -12.97,4.43 -24.87,8.58 -37.44,12.85 -4.15,-9.83 -7.44,-17.97 -11.87,-28.47 -2.89,5.13 -4.97,8.03 -6.34,11.2 -16.33,36.19 -56.78,58.86 -96.57,54.99 -39.94,-4.15 -69.91,-24.05 -91.49,-56.9 -24.86,-37.16 -36.03,-78.64 -33.01,-123.67 4.86,-75.86 88.71,-119.49 144.78,-88.27 2.51,1.25 5.13,1.8 11.91,4.42z"/>
   <path class="fil0" d="M1945.91 2988.01c3.33,17.66 6.23,33.01 9.4,49.46 -14.53,2.9 -27.11,5.53 -40.49,8.15 -2.08,-3.06 -4.16,-5.8 -7.6,-10.65 -1.26,2.23 -2.35,3.6 -2.74,5.25 -18.25,50.99 -36.22,102.09 -54.16,153.08 -21.58,60.94 -42.85,121.6 -64.27,182.22 -5.36,15.75 -5.52,15.75 -22.63,16.18 -8.46,0.28 -16.73,0.43 -25.41,0.71 -1.68,0 -3.33,-0.43 -7.21,-0.87 -51.92,-121.28 -104.29,-243.54 -157.9,-368.7 18.24,-0.83 33.71,-1.53 51.53,-2.23 43.08,108.59 86.07,216.92 129.7,327.31 2.07,-4.03 4.15,-6.77 5.25,-9.94 34,-104.05 67.99,-208.22 102.25,-312.12 4.27,-13.52 4.82,-13.67 18.92,-14.49 7.21,-0.27 14.53,-0.71 22.13,-0.98 0.94,-5.37 1.92,-9.52 3.01,-14.92 12.85,-2.47 25.41,-4.7 40.21,-7.44z"/>
   <path class="fil0" d="M2686.81 2890.85c-11.47,14.92 -21.14,28.2 -31.48,40.77 -10.81,12.96 -22.4,25.41 -33.33,38.1 -3.01,3.49 -5.53,7.2 -7.87,11.08 -10.34,17 -9.95,34.11 1.4,48.76 11.32,14.76 29.84,20.05 48.6,13.66 30.98,-10.22 57.61,-47.23 58.74,-79.97 0.66,-30 -17.54,-49.89 -36.07,-72.41zm129.87 68.81c-5.4,4.7 -9.13,8.15 -12.85,11.47 -7.05,5.65 -13.94,11.16 -21.7,17.27 -9.24,-5.8 -17.54,-11.36 -26.51,-17 -6.77,4.82 -5.67,12.96 -7.75,19.46 -11.2,39.13 -35.21,67.71 -70.3,87.18 -14.53,8.03 -30.12,12.73 -46.99,10.76 -48.91,-5.64 -79.14,-54.44 -63.01,-101.12 5.83,-16.84 15.9,-30.94 27.8,-44.06 18.92,-20.87 37.83,-41.86 56.47,-63.01 4.43,-5.09 7.76,-10.92 12.88,-18.25 -7.64,-7.98 -14.25,-16.13 -21.97,-23.34 -10.22,-9.24 -23.11,-11.86 -36.34,-8.14 -28.31,8.42 -49.89,25.96 -64.81,51.26 -6.34,10.77 -5.64,22.8 -3.01,34.55 1.1,6.07 3.44,12.02 5.91,20.28 -11.43,6.78 -23.06,13.98 -35.64,21.58 -13.39,-24.86 -19.34,-49.19 -8.42,-74.32 21.15,-48.92 58.71,-80.68 108.71,-97.12 23.78,-7.87 44.76,-0.16 62.19,16.45 9.79,9.25 18.36,20.01 27.06,30.39 15.07,18.36 29.44,37.16 44.91,55.1 21.7,25.69 40.46,54.44 73.36,70.61z"/>
   <path class="fil0" d="M1294.57 3210.49c-3.6,-0.94 -5.67,-1.65 -7.87,-1.93 -25.29,-1.92 -50.56,-4.15 -75.86,-5.95 -11.15,-0.66 -22.51,-1.8 -33.67,-1.09 -19.23,1.37 -31.65,12.29 -36.77,29.84 -4.82,16.84 0.27,34.65 15.63,44.76 10.06,6.77 22.08,12.29 33.83,14.37 32.19,6.22 62.19,1.64 83.84,-26.52 11.75,-15.62 16.06,-34.42 20.87,-53.49zm-119.21 -91.72c-12.46,-5.53 -24.47,-11.04 -37.71,-16.88 16.57,-34.22 42.26,-51.77 77.78,-53.18 39.36,-1.53 76.25,7.88 109.69,28.9 29.41,18.76 39.52,43.36 31.1,77.23 -9.28,37.17 -20.6,74.05 -30.43,110.91 -4.82,17.97 -9.36,36.06 -12.42,54.44 -1.8,10.81 -0.27,22.12 -0.27,35.09 -9.95,-2.74 -17.98,-4.7 -25.97,-7.01 -18.52,-5.4 -19.34,-6.38 -18.13,-26 0.16,-3.17 0.44,-6.5 0.71,-10.34 -7.87,-3.05 -13.55,1.93 -19.46,3.84 -40.77,14.53 -80.13,10.93 -117.72,-9.25 -37.72,-19.89 -51.11,-59.95 -33.72,-98.09 13.12,-29.14 37.44,-43.36 68.42,-44.61 19.03,-0.98 38.1,2.35 57.17,4.16 21.97,2.19 43.66,4.97 65.48,6.89 14.53,1.09 15.75,-0.28 19.62,-14.77 8.03,-28.74 0,-49.07 -26.94,-61.37 -14.49,-6.89 -30.66,-11.04 -46.57,-13.93 -19.19,-3.61 -35.36,3.87 -48.05,18.79 -4.16,4.71 -7.88,9.4 -12.58,15.2z"/>
   <path class="fil0" d="M707.07 2922.34c-4.27,-2.9 -5.95,-4.15 -7.76,-5.1 -22.52,-12.73 -45.03,-25.45 -67.55,-38.02 -8.97,-4.82 -17.54,-10.34 -26.95,-13.94 -22.79,-8.86 -46.4,0.98 -54.71,22.4 -6.07,16.02 -3.01,31.33 7.48,44.6 11.87,15.47 27.22,27.22 45.74,33.44 28.99,9.52 55.66,5.95 78.18,-16.17 8.3,-8.15 16.01,-17.12 25.57,-27.22zm-45.75 139.8c-12.69,-11.04 -22.63,-20.01 -33.71,-29.68 4.31,-10.1 8.03,-19.78 12.88,-31.25 -8.03,-0.83 -14.53,-1.49 -21.03,-2.2 -44.88,-4.7 -80.24,-26.12 -104.84,-63.56 -28.47,-43.51 -6.11,-100.02 44.21,-113.13 20.45,-5.4 40.46,-2.2 59.1,7.16 13.54,6.77 26.28,15.19 39.39,23.11 19.74,11.98 39.09,24.28 59.26,35.76 13.12,7.32 14.64,6.49 24.05,-4.82 20.05,-24.2 20.86,-44.65 0.82,-68.7 -9.4,-11.04 -21.11,-20.28 -32.74,-28.98 -18.48,-13.55 -38.53,-14.25 -58.86,-3.17 -3.84,2.04 -7.87,4.11 -12.97,6.73 -9.13,-10.33 -17.81,-20.29 -27.65,-31.49 23.5,-18.79 48.36,-27.76 76.57,-20.33 46.84,12.58 81.77,41.87 106.79,82.91 16.14,26.83 12.42,53.61 -6.77,77.23 -22.52,27.65 -46.02,54.32 -69.24,81.22 -1.8,2.08 -3.56,4.16 -5.37,6.39 -19.07,22.9 -39.79,44.6 -49.9,76.79z"/>
   <path class="fil0" d="M3201.52 2108.51c-2.2,21.81 -4.27,42.57 -6.5,63.12 -1.8,15.08 -4.98,30.12 -6.07,45.19 -1.37,23.35 10.77,39.91 31.77,45.7 18.52,5.13 37.71,-3.28 48.52,-22.08 12.96,-22.95 16.84,-47.81 10.22,-73.51 -8.31,-32.19 -36.89,-53.61 -77.93,-58.43zm-94.61 114.39c-5.95,12.46 -11.75,24.32 -17.98,37 -34.81,-18.09 -51.26,-45.7 -50.72,-82.86 0.71,-35.52 10.38,-69.08 29.18,-99.47 20.72,-33.88 46.68,-44.21 85.1,-33.29 32.46,9.09 64.5,20.57 96.85,30.39 31.65,9.67 62.7,22.52 98.61,19.19 -4,12.85 -7.6,24.05 -11.04,35.37 -1.8,5.8 -6.07,7.87 -11.59,7.6 -7.33,-0.28 -14.49,-0.83 -24.17,-1.26 2.04,7.91 3.56,14.64 5.64,21.14 12.46,38.97 7.32,75.86 -11.31,111.5 -17.43,33.01 -49.19,48.64 -82.91,41.31 -35.91,-8.14 -59.68,-35.79 -60.5,-73.78 -0.39,-18.37 2.78,-37.01 4.97,-55.41 2.9,-23.62 6.89,-46.8 9.67,-70.3 1.8,-14.37 0.44,-15.35 -12.57,-19.51 -29.41,-9.67 -51.26,-1.76 -64.66,26.28 -7.32,15.59 -11.59,32.86 -14.92,49.86 -2.89,15.9 3.72,29.83 15.63,41.15 5.25,4.98 10.77,9.67 16.73,15.08z"/>
   <path class="fil0" d="M3154.18 2553.43c-6.89,12.85 -13.27,24.05 -20.72,37.55 -109.97,-60.34 -218.56,-120.85 -328.26,-181.78 7.6,-13.4 13.94,-25.14 21.54,-38.42 38.85,21.53 76.56,42.41 116.73,64.65 -1.09,-8.69 -1.8,-13.66 -2.62,-18.52 -8.42,-41.55 11.75,-88.66 47.66,-111.61 18.25,-11.87 37.99,-14.65 58.32,-8.7 13,4 25.68,9.13 37.43,15.47 49.19,26.67 97.94,54.01 146.74,81.11 2.47,1.37 4.66,3.01 8.54,5.64 -6.89,12.46 -13.4,24.32 -20.45,37.32 -6.34,-3.17 -11.32,-5.52 -16.18,-8.14 -43.9,-24.33 -87.83,-48.92 -131.78,-72.97 -8.97,-4.86 -18.25,-9.4 -27.93,-12.02 -21.53,-6.22 -40.06,-0.28 -54.55,17.12 -20.45,24.47 -31.37,73.78 10.77,103.23 25.68,18.09 54,32.59 81.38,48.32 20.99,11.91 42.53,23.5 63.67,35.25 2.78,1.53 5.4,3.6 9.67,6.5z"/>
   <path class="fil0" d="M2639.67 1207.2c-7.48,3.6 -12.85,6.61 -18.53,9.13 -12.3,5.25 -21.14,-0.28 -21.69,-13.83 0,-3.44 0,-6.93 0.87,-10.1 5.36,-17.26 10.61,-34.54 16.56,-51.66 1.65,-4.54 5.1,-8.69 8.58,-12.02 11.99,-10.77 19.47,-9.4 28.05,3.99 1.8,2.78 3.83,5.4 6.89,9.4 18.91,-10.5 37.59,-20.57 57.21,-31.49 -7.59,-22.79 -24.2,-38.42 -35.24,-59.84 -65.49,40.77 -129.59,80.72 -195.23,121.72 -0.67,-5.53 -1.65,-9.25 -1.53,-12.85 0.31,-8.97 1.8,-17.93 1.53,-26.95 -0.55,-10.88 3.44,-17.26 13,-23.06 46.68,-28.32 92.97,-57.73 139.25,-86.74 5.25,-3.33 10.22,-6.78 17.12,-11.2 -5.09,-9.25 -9.8,-17.82 -15.47,-28.2 11.63,-7.16 22.79,-14.37 35.25,-22.24 42.69,67.99 86.9,133.19 122.11,206.27 -11.44,6.38 -23.07,12.73 -35.92,19.9 -7.44,-12.97 -14.37,-24.44 -21.81,-37.17 -19.9,11.09 -38.58,21.42 -59.01,32.74 10.37,18.95 19.89,36.5 30.7,56.23 -13.7,7.76 -26.67,15.08 -41.2,23.23 -10.6,-18.64 -20.56,-36.19 -31.48,-55.26z"/>
   <path class="fil0" d="M999.45 651.34c21.81,-12.15 42.42,-23.62 63.01,-35.1 20.72,-11.43 41.31,-23.06 63.12,-35.09 -3.72,-3.28 -5.8,-6.07 -8.58,-7.44 -17.54,-7.59 -34.93,-15.74 -52.9,-22.12 -18.25,-6.34 -36.73,-6.07 -53.89,4.58 -11.32,7.17 -20.56,6.07 -30.23,-3.17 -7.76,-7.48 -17,-13.12 -27.5,-21.02 28.16,-14.33 52.91,-30.23 85.38,-19.47 35.64,11.59 69.75,25.85 101.55,45.59 8.97,5.67 17,9.13 27.76,-0.55 7.05,12.85 13.55,24.16 20.87,37.04 -12.6,7.44 -24.05,14.22 -37.59,22.25 13.12,24 25.96,47.5 39.63,72.64 -11.71,6.5 -22.52,12.57 -33.28,18.52 -7.44,4 -14.92,7.99 -22.09,12.3 -17.7,10.61 -22.24,29.13 -11.63,46.41 13.16,21.26 45.35,25.57 65.25,7.87 -1.13,-1.53 -1.96,-3.56 -3.33,-5.09 -10.22,-11.91 -11.75,-21.3 -5.13,-33.72 6.5,-12.46 20.45,-20.17 33.72,-17.97 4.15,0.71 9.28,2.34 11.91,5.4 12.69,14.64 25.26,29.68 18.21,51.53 -0.55,1.53 0,3.29 0,5.92 13.54,7.32 29.56,12.02 41.04,27.38 -9.13,5.25 -17.7,10.06 -25.14,14.48 -11.32,-6.73 -21.54,-12.57 -31.65,-18.36 -5.4,-2.9 -10.22,-2.74 -15.9,0.27 -43.24,22.24 -96.58,7.21 -121.56,-35.36 -6.22,-10.34 -10.65,-22.52 -12.85,-34.55 -3.72,-20.17 3.45,-32.46 22.09,-42.96 9.83,-5.52 19.78,-11.2 29.45,-16.72 0.94,-0.67 1.65,-1.65 3.99,-4.43 -5.52,-10.22 -11.59,-21.26 -18.36,-33.99 -32.19,17.54 -62.59,34.15 -94.77,51.8 -6.94,-12.41 -13.55,-24 -20.6,-36.88z"/>
   <path class="fil0" d="M259.29 2231.71c-36.77,3.45 -73.12,17.7 -101.82,47.12 -23.38,24.05 -28.9,53.18 -15.19,84.55 13.66,31.21 39.24,47.27 72.37,46.02 40.88,-1.53 77.39,-16.88 105.97,-46.57 22.95,-24.32 28.86,-53.34 15.08,-84.71 -13.82,-31.05 -38.58,-45.86 -76.41,-46.41zm-44.21 222.44c-23.23,0.39 -46.99,-8.58 -67.71,-25.85 -28.59,-23.89 -45.03,-54.99 -49.19,-91.71 -4.7,-42.03 10.1,-76.69 42.42,-103.36 31.37,-25.68 67.55,-40.88 107.77,-45.58 25.42,-2.78 49.31,3.17 71.16,16.84 42.96,26.79 68.22,83.3 59.52,133.19 -3.88,22.8 -13.82,42.81 -29.56,59.68 -28.71,31.1 -88.28,56.9 -134.41,56.79z"/>
   <path class="fil0" d="M637.75 1117.63c-6.22,9.13 -11.75,17.43 -18.09,26.67 -11.75,-7.2 -22.68,-13.82 -34.82,-21.26 37.56,-67.98 77.9,-132.64 127.36,-193.14 11.2,7.99 21.54,15.47 33.17,23.62 -7.21,10.37 -13.66,20.05 -21.14,31.37 61.48,44.87 122.26,89.37 185.82,135.65 -16.84,8.15 -32.19,13.4 -47.82,17.15 -4.54,0.82 -11.47,-3.6 -16.13,-7.05 -44.09,-31.64 -87.77,-63.56 -131.54,-95.32 -5.37,-3.88 -11.04,-7.75 -17.54,-12.3 -15.04,16.14 -24.05,34.5 -35.64,54.28 65.63,39.36 130.13,78.32 196.59,118.27 -15.2,10.77 -30.83,16.73 -46.02,22.36 -4,1.53 -10.61,-2.74 -15.2,-5.37 -46.01,-27.49 -91.99,-55.26 -137.89,-82.74 -6.61,-4.04 -13.4,-7.76 -21.11,-12.19z"/>
   <path class="fil0" d="M2244.91 3010.96c14.22,-7.6 26.95,-14.53 41.32,-22.13 56.23,51.26 112.31,102.65 169.5,154.89 0.43,-3.06 1.13,-5.13 0.86,-6.89 -8.46,-56.24 -17.26,-112.63 -25.84,-168.83 -2.08,-13.98 -3.45,-28.05 -5.95,-41.87 -1.26,-7.32 0.82,-11.91 7.32,-15.08 9.67,-4.54 18.91,-9.52 30,-15.19 3.72,27.1 7.32,52.08 10.49,77.11 10.06,74.88 20.17,149.88 29.57,225.03 2.73,21.69 4.7,43.82 4.26,65.79 -0.7,33.4 -20.28,57.34 -50.83,66.03 -12.46,3.45 -13.66,3.17 -21.26,-7.48 -4.86,-6.73 -9.4,-13.93 -14.8,-22.08 6.49,-2.9 11.9,-4.98 17.42,-7.48 23.62,-10.34 32.31,-24.44 31.33,-50.29 -0.28,-0.66 -0.28,-1.21 -0.28,-1.65 0,-23.77 -7.98,-41.86 -27.33,-58.15 -62.31,-52.09 -122.7,-106.68 -183.75,-160.41 -3.72,-3.17 -7.21,-6.62 -12.03,-11.32z"/>
   <path class="fil0" d="M940.51 2920.85c15.47,8.14 28.16,14.92 41.71,22.12 -11.32,76.14 -22.36,151.01 -33.56,227.42 57.88,-52.24 113.96,-103.24 170.74,-154.5 12.46,6.78 23.93,12.73 36.77,19.35 -3.05,4.15 -4.86,7.6 -7.48,9.83 -80.4,70.99 -160.68,142.28 -241.47,212.61 -12.58,11.04 -27.11,20.6 -42.3,27.49 -26.24,12.18 -50.44,5.67 -72.25,-12.57 -6.07,-4.98 -8.15,-10.22 -5.1,-17.66 3.72,-8.58 7.17,-17.58 11.32,-27.65 6.61,4.54 11.87,8.3 17.66,11.75 21.96,13.24 38.69,11.31 59.13,-4.31 18.68,-14.22 29.72,-30.51 32.34,-55.81 7.44,-75.54 18.37,-151 27.89,-226.55 1.25,-9.4 2.77,-18.8 4.58,-31.53z"/>
   <path class="fil0" d="M2351.59 685.8c7.99,-6.89 16.18,-13.79 25.53,-21.96 3.21,2.5 9.13,6.93 14.65,11.2 21.85,17.15 43.66,34.26 65.36,51.11 5.25,4.03 10.1,7.75 5.68,15.62 2.73,-1.65 5.36,-3.33 9.79,-5.67 33.72,31.37 67.98,63.17 103.63,96.45 -9.25,10.49 -18.09,20.29 -27.77,31.1 -47.12,-38.97 -85.92,-85.8 -139.42,-119.37 -46.56,59.52 -93.09,119.21 -141.88,181.51 -6.07,-18.09 -11.44,-32.89 -15.32,-47.81 -0.98,-3.72 1.93,-9.52 4.71,-13.24 8.26,-11.91 17.54,-23.23 27.61,-36.34 -5.65,-1.38 -8.7,-2.2 -11.75,-2.9 -44.49,-10.49 -65.32,-67.55 -38.11,-104.32 14.92,-19.62 34.39,-26.35 58.28,-20.84 30.27,7.17 33.6,11.75 31.1,42.26 -0.12,3.17 -0.99,6.34 -1.8,10.92 -6.77,-2.78 -12.14,-5.52 -17.93,-6.89 -12.19,-2.5 -24.2,-5.4 -36.5,-6.1 -6.07,-0.12 -13.12,3.44 -18.21,7.2 -9.4,6.89 -9.13,16.57 0.12,24.17 9.94,8.03 21.69,11.47 34.43,11.75l35.75 0c16.6,-21.54 34.7,-44.49 53.34,-68.81 -6.77,-5.53 -12.3,-10.06 -17.97,-14.65 -4.54,-3.72 -8.7,-7.59 -3.72,-13.93l0.43 -0.44z"/>
   <path class="fil0" d="M1280.39 516.19c4.71,9.09 7.88,15.47 11.05,21.66 0.7,-0.12 1.53,-0.55 2.19,-0.82 -1.76,-7.99 -3.44,-15.86 -5.09,-23.78 14.65,-8.14 96.14,-31.21 111.89,-31.49 3.33,11.91 6.66,24.17 10.26,37.33 -12.46,3.99 -22.84,7.71 -35.4,11.86 20.75,73.08 41.32,145.49 62.59,219.93 -19.03,-1.92 -33.68,-9.24 -48.76,-14.37 -2.89,-1.1 -4.97,-7.16 -6.34,-11.16 -3.99,-12.18 -7.48,-24.6 -11.75,-38.69 -5.52,4.27 -9.79,7.6 -14.37,10.77 -36.73,25.41 -93.52,3.17 -102.37,-40.34 -5.95,-29.72 15.47,-63.55 45.2,-70.05 2.89,-0.67 6.77,0.27 9.24,2.07 8.31,6.34 16.29,13.4 25.14,20.87 -9.25,6.22 -17.39,11.2 -24.86,17 -9.8,7.6 -19.08,16.02 -22.52,28.74 -2.35,8.15 -2.2,15.86 4.43,21.97 6.49,5.8 13.66,3.56 20.72,0.39 13.82,-6.34 23.5,-17 31.37,-29.68 3.6,-5.53 7.32,-10.93 12.3,-18.41 -7.87,-26.79 -16.18,-55.92 -25.3,-87.45 -42.96,15.36 -82.59,34 -125.71,49.9 -5.25,-12.58 -10.22,-24.75 -16.18,-39.09 31.38,-12.46 61.22,-24.6 92.31,-37.16z"/>
   <path class="fil0" d="M2374.62 1004.42c-11.59,-1.37 -17.82,-6.07 -18.37,-17.26 -1.37,-32.19 -1.8,-64.22 5.95,-95.87 5.64,-22.24 18.48,-38.7 37.44,-50.29 33.99,-20.99 68.92,-2.89 71.54,36.73 0.28,3.88 0.44,7.76 0.71,11.64 36.62,-1.26 46.02,7.98 43.51,43.66 5.26,-1.8 10.22,-3.61 16.02,-5.56 4.59,5.13 9.13,9.94 13.28,15.19 11.75,15.91 41.04,6.39 47.5,-10.88 2.78,-7.05 0.32,-13.12 -4.38,-18.96 -8.19,-9.94 -16.18,-20.01 -25.14,-31.33 10.49,-8.73 20.29,-16.87 31.88,-26.55 26.12,28.9 48.64,59.56 74.48,90.66 -11.2,9.25 -21.26,17.54 -32.19,26.51 -7.05,-7.87 -13.4,-14.92 -20.87,-23.06 -3.17,3.99 -6.07,7.16 -8.7,10.49 -12.02,15.9 -27.93,25.57 -47.39,30.11 -14.21,3.45 -26.51,-1.37 -38.69,-6.89 -7.17,11.6 -7.17,17.54 0.7,27.89 9.52,12.57 22.36,20.44 37.01,25.57 6.77,2.47 14.25,3.6 23.93,6.07 -13,12.29 -26.12,22.4 -39.67,31.92 -2.19,1.53 -7.71,0.27 -10.92,-1.26 -38.65,-17.82 -58,-46.02 -44.33,-89.65 4.43,-13.82 11.75,-26.83 17.54,-40.33 -11.86,-19.78 -25.41,-21.58 -41.43,-5.28 -9.55,9.67 -18.52,19.62 -29.45,31.37 -5.52,-12.3 -10.06,-22.79 -15.31,-34.66 7.6,-8.3 15.04,-16.45 22.63,-24.75 5.8,-6.34 12.46,-12.02 7.05,-22.08 -5.52,-9.4 -18.52,-15.9 -28.86,-13 -12.73,3.61 -21.53,12.03 -27.1,23.78 -9.94,20.17 -12.41,42.14 -14.76,64.1 -1.53,13.83 -2.35,27.77 -3.6,41.98z"/>
   <path class="fil0" d="M2656.58 2742.11c10.5,-11.32 19.78,-21.7 30.67,-33.56 69.36,29.95 138.31,59.95 209.16,90.5 -4.15,-15.79 -13.24,-27.8 -19.46,-41.04 -6.5,-13.82 -13.82,-27.1 -20.72,-40.77 -6.93,-13.54 -13.82,-27.06 -20.6,-40.6 -7.05,-13.67 -13.93,-27.11 -20.87,-40.77 -6.89,-13.4 -13.66,-27.06 -20.99,-41.32 10.37,-11.04 19.89,-21.11 30.27,-32.46 5.64,10.38 10.06,18.8 14.21,27.38 35.79,72.26 71.27,144.63 107.07,217.04 7.33,15.19 7.48,15.35 -3.99,27.49 -20.06,21 -13.55,19.46 -39.39,9.13 -76.8,-31.21 -153.32,-62.73 -230,-94.1 -4.59,-1.77 -9.01,-4 -15.36,-6.89z"/>
   <path class="fil0" d="M222.75 1102.95c6.47,14.76 11.43,28.04 17.93,40.33 2.51,4.27 8.42,7.32 13.27,9.52 14.37,6.38 29.02,12.18 45.43,18.8 -4.82,12.57 -9.36,23.77 -14.49,36.61 -63.95,-25.84 -126.41,-51.11 -190.36,-76.95 5.25,-12.58 9.52,-23.35 14.92,-36.34 27.61,10.92 54.44,21.42 81.22,32.19 0.83,-0.98 1.8,-1.92 2.9,-2.89 -2.47,-5.4 -4.71,-10.77 -7.33,-16.18 -12.96,-27.49 -25.96,-55.1 -39.51,-82.59 -3.72,-7.75 -4.43,-14.53 -0.67,-22.4 5.09,-11.04 9.52,-22.63 15.31,-36.61 4.15,8.3 7.05,14.25 9.83,20.17 9.67,21.58 19.19,43.39 28.86,64.93 6.61,14.65 7.04,14.8 23.22,11.63 36.46,-7.2 72.92,-14.37 109.53,-21.57 5.95,-1.1 11.91,-1.77 20.45,-2.9 -6.19,15.47 -10.88,28.9 -16.84,41.48 -1.93,3.28 -7.88,5.8 -12.46,6.46 -29.57,4.86 -59.26,9 -88.66,13.43 -3.33,0.39 -6.5,1.49 -12.58,2.9z"/>
   <path class="fil0" d="M1066.5 226.19c0.55,15.86 6.34,30.39 15.9,43.24 9.13,12.42 22.63,17.12 35.36,12.85 14.22,-4.7 24.05,-17.82 23.35,-33.44 -0.83,-17.4 -6.34,-33.13 -18.53,-45.86 -10.49,-11.2 -23.61,-13.67 -36.89,-8.03 -13.24,5.95 -19.03,16.72 -19.18,31.25zm7.87 119.21c11.91,-3.17 23.61,-6.49 35.36,-9.24 2.51,-0.55 5.8,0.66 7.76,2.2 7.71,5.94 15.74,5.13 24.05,2.23 24.16,-8.04 29.95,-19.78 21.26,-43.94 -2.07,-5.67 -4.54,-11.32 -7.76,-19.19 -3.17,4.82 -5.52,7.6 -7.16,10.77 -17.54,30.94 -54.44,39.79 -82.47,17.54 -27.77,-22.24 -40.22,-52.91 -35.25,-88.58 5.52,-37.28 40.21,-57.18 76.01,-45.15 3.01,0.98 6.19,1.8 10.89,3.44 -1.1,-6.49 -1.93,-11.2 -3.17,-18.09 9.4,-3.44 19.07,-7.32 29.56,-11.2 2.07,3.33 4,5.8 5.25,8.86 14.92,38.97 30.39,77.78 44.65,117.01 4.81,13 7.16,27.06 9.08,41.04 1.8,13.12 -4.11,24.33 -14.06,32.74 -22.24,19.07 -48.52,28.74 -77.65,29.01 -18.53,0 -29.84,-9.55 -36.34,-29.45z"/>
   <path class="fil0" d="M439.74 630.27c10.11,-9.67 17.7,-17 26.4,-25.14 28.2,14.92 56.51,29.68 84.71,44.33 0.83,-0.66 1.8,-1.53 2.74,-2.34 -14.65,-28.16 -33.13,-54.28 -48.91,-83.18 8.3,-8.54 16.33,-16.96 24.74,-25.8 28.59,16.01 56.08,31.48 86.19,48.63 -4.81,-18.95 -15.31,-31.53 -22.79,-45.62 -7.44,-14.37 -15.9,-28.32 -24.32,-43.24 8.03,-8.42 15.35,-16.02 22.52,-23.78 10.1,8.73 63.28,104.72 75.3,135.54 -7.75,7.21 -15.9,14.65 -26.12,23.89 -25.96,-14.21 -53.18,-29.13 -80.67,-44.18 -0.83,0.94 -1.8,2.04 -2.78,3.02 14.64,26.94 31.92,52.35 47.81,80.4 -8.15,8.73 -16.18,17.26 -25.29,26.82 -45.7,-22.95 -91.17,-45.31 -139.54,-69.35z"/>
   <path class="fil0" d="M932.41 273.66c-22.95,0 -37.17,15.03 -36.23,34.5 1.14,19.5 11.21,35.13 24.48,48.52 10.61,11.16 26.39,13.24 38.69,6.34 12.3,-6.89 18.48,-21 15.31,-36.07 -3.44,-16.56 -11.2,-30.93 -23.34,-42.25 -6.22,-5.8 -15.08,-8.86 -18.91,-11.04zm2.73 -102.25c33.45,60.11 65.76,118.66 99.2,178.89 -9.79,5.83 -18.8,11.2 -28.46,16.87 -4,-5.13 -7.28,-9.4 -11.6,-14.53 -1.8,3.21 -3.44,5.4 -4.42,7.87 -15.86,42.03 -60.35,54.05 -94.22,24.87 -20.45,-17.54 -32.86,-40.34 -36.73,-66.85 -6.07,-39.63 26.94,-71.43 67.12,-65.91 2.78,0.27 5.4,0.16 10.93,0.16 -11.59,-21.85 -22.63,-42.02 -34.38,-63.4 10.88,-6.11 20.56,-11.48 32.58,-17.97z"/>
   <path class="fil0" d="M2607.75 484.98c0.15,26.23 24.44,40.6 47.11,27.22 17.54,-10.38 28.86,-26.56 34.82,-46.02 3.6,-11.75 0,-22.4 -9.13,-30.67 -8.86,-8.03 -19.07,-11.08 -31.1,-7.32 -20.17,6.34 -41.7,35.64 -41.7,56.79zm-20.73 8.81c-6.07,5.25 -9.94,8.85 -14.64,13.15 -8.42,-6.49 -16.18,-12.73 -25.96,-20.33 41.59,-54.28 83.41,-107.07 125.82,-161.5 5.56,3.99 10.54,7.32 15.24,10.92 4.39,3.56 8.54,7.32 13.94,11.87 -14.37,18.8 -28.05,36.89 -43.24,57.06 6.61,0.7 10.22,1.1 13.79,1.53 37.16,2.07 63.28,36.19 53.61,72.09 -7.87,29.73 -25.8,52.91 -53.34,66.73 -37.98,18.96 -78.17,-2.89 -83.29,-41.98 -0.28,-2.23 -0.83,-4.31 -1.93,-9.55z"/>
   <path class="fil0" d="M3365.3 1980.84c-2.51,14.26 -4.59,27.22 -6.93,42.57 -89.8,-15.9 -177.68,-31.37 -267.21,-47.11 2.62,-13.4 4.7,-24.75 7.05,-37.71 12.02,1.37 22.95,2.73 36.77,4.27 -10.22,-12.42 -19.62,-22.09 -26.83,-33.01 -7.87,-11.75 -8.26,-25.42 -4.42,-38.97 4.03,-13.4 9.94,-25.14 21.3,-36.46 11.75,6.78 23.61,13.67 35.91,20.87 -2.78,5.25 -5.13,9.25 -7.2,13.12 -15.2,28.86 -7.01,56.91 22.83,70.73 16.14,7.32 33.68,12.85 51.11,16.29 40.46,8.03 81.11,14.37 121.56,21.58 4.43,0.82 8.73,2.04 16.06,3.83z"/>
   <path class="fil0" d="M805.25 1274.28l0 26.4c-9.13,3.17 -18.96,7.16 -28.9,10.1 -11.04,3.17 -18.64,8.42 -22.52,20.17 -2.47,7.17 -7.87,13.52 -13.12,19.46 -6.5,7.33 -15.19,9.67 -24.6,6.07 -9.52,-3.45 -16.13,-9.8 -18.21,-20.45 -2.89,-16.72 4.71,-33.16 23.46,-42.8 11.09,-5.68 12.73,-13.55 11.75,-23.5 -1.37,-12.3 -10.06,-17.54 -20.29,-11.32 -11.75,6.73 -21.96,15.75 -32.73,24.01 -9.28,7.21 -17.97,15.47 -27.93,21.69 -7.05,4.59 -15.35,7.87 -23.34,9.01 -19.5,3.28 -32.89,-10.11 -31.25,-29.73 0.15,-1.65 0.15,-3.44 0.86,-4.97 14.06,-37.56 28.16,-75.04 42.53,-112.87 14.53,1.1 25.57,7.72 39.13,12.69 -11.36,30.71 -22.4,60.39 -33.6,89.96 1.13,0.71 2.07,1.1 3.17,1.65 3.76,-3.84 7.2,-8.43 11.36,-11.75 12.3,-9.95 23.77,-21 37.43,-28.59 21.26,-12.02 41.04,-6.07 53.3,15.2 6.11,10.49 9.13,22.79 14.26,36.49 4.54,-0.7 11.04,-1.68 17.39,-2.62 6.5,-1.25 13,-2.62 21.85,-4.31z"/>
   <path class="fil0" d="M2578.18 1363.34c4.27,-19.08 7.71,-33.84 10.77,-48.64 1.53,-7.87 8.14,-8.7 13.66,-11.04 41.86,-16.88 83.57,-33.84 125.32,-50.56 15.31,-6.23 30.23,-12.58 46.68,-19.23 -3.28,-10.34 -6.22,-19.74 -9.67,-30.94 12.19,-4.98 24.05,-9.67 38.15,-15.47 14.64,36.19 28.74,70.88 43.79,107.89 -12.85,5.53 -24.99,10.49 -38.7,16.18 -5.09,-11.59 -9.79,-22.24 -15.47,-34.7 -35.91,14.53 -70.85,28.62 -105.54,42.57 -34.93,14.1 -69.9,28.2 -108.98,43.94z"/>
   <path class="fil0" d="M2970.04 834.73c-10.77,-9.67 -20.72,-20.48 -32.35,-28.74 -12.14,-8.7 -27.61,-0.83 -28.16,14.21 -0.27,6.61 2.35,14.8 6.62,19.9 13.55,16.72 33.56,14.8 53.89,-5.37zm-53.07 49.42c2.62,-5.37 4.86,-9.8 7.21,-14.92 -4.86,-2.2 -8.73,-4.11 -12.85,-5.8 -16.33,-7.17 -27.22,-19.74 -33.44,-36.31 -7.32,-18.52 -2.23,-36.89 12.57,-48.52 16.02,-12.58 34.82,-13.4 51.39,-0.67 9,6.73 16.72,15.04 24.86,22.8 6.66,5.91 13.12,12.29 19.9,18.2 1.53,1.53 3.87,2.07 5.52,3.06 14.1,-8.58 16.6,-13.13 13.98,-23.9 -4.31,-16.45 -15.47,-25.29 -37.04,-27.49 -2.08,-4.43 -4.43,-9.4 -6.62,-14.64 -1.8,-4.32 -3.33,-9.13 -5.13,-14.65 18.68,-5.67 34.54,-3.88 48.24,8.15 15.75,13.66 26.36,30.94 33.13,50.44 6.34,17.82 2.5,33.56 -13.24,44.76 -14.26,10.22 -29.02,19.58 -43.66,29.13 -16.45,10.65 -33.44,21 -46.29,39.25 -6.5,-10.11 -12.14,-18.96 -18.53,-28.9z"/>
   <path class="fil0" d="M427.02 722.92c-25.57,-0.31 -42.69,23.19 -34.54,47.24 6.34,19.07 31.92,37.32 52.08,37 25.53,-0.28 42.14,-24.17 33.4,-48.06 -6.46,-18.36 -31.48,-36.06 -50.95,-36.19zm7.44 -35.52c42.42,0.27 79.3,36.73 79.3,78.59 -0.27,40.06 -37.43,77.78 -76.68,77.51 -41.86,-0.55 -81.11,-38.7 -80.24,-78.32 0.55,-42.26 36.31,-78.2 77.62,-77.78z"/>
   <path class="fil0" d="M805.12 386.76c-15.58,-20.45 -33.28,-24.01 -47.66,-11.98 -13.24,11.43 -13.66,30.5 0.43,45.03 15.31,-10.65 30.78,-21.57 47.23,-33.05zm23.78 33.17c10.65,-4.82 20.6,-9.4 31.64,-14.37 6.5,20.44 3.06,37.44 -8.3,52.63 -11.59,15.35 -26.95,25.85 -45.43,30.66 -20.47,5.4 -39.39,0.99 -55.68,-12.41 -18.92,-15.47 -31.92,-35.09 -36.61,-59.26 -5.26,-26.12 3.44,-47.97 24.44,-63.99 21.41,-16.29 45.07,-20.99 69.93,-9.13 16.69,7.87 28.71,21.15 39.79,38.58 -25.85,20.29 -53.62,37 -78.91,56.9 11.2,17.12 25.29,22.95 40.33,17.54 14.53,-4.98 19.78,-14.49 18.8,-37.16z"/>
   <path class="fil0" d="M1301.07 164.56c-8.42,-25.41 -24.74,-34.66 -42.69,-26.67 -15.74,7.2 -21.53,24.16 -12.85,41.86 17.94,-4.82 36.34,-9.94 55.53,-15.19zm-52.24 37.59c6.66,21 17.54,30.67 32.46,30.78 15.08,0.16 23.11,-6.89 30.71,-28.74 10.33,-0.94 21.81,-1.76 35.09,-2.89 -1.8,20.87 -9.94,35.36 -25.3,45.9 -14.64,10.06 -31.76,14.64 -49.46,14.48 -17,0 -32.19,-5.94 -43.39,-19.18 -21.26,-25.3 -29.84,-54.17 -22.24,-86.51 6.5,-26.79 25.02,-42.42 51.69,-47.51 27.77,-5.25 51.66,1.92 67.99,26.24 8.26,12.14 14.6,25.29 15.86,41.59 -31.1,8.69 -61.76,17.12 -93.4,25.84z"/>
   <path class="fil0" d="M3114.58 1071.31c21.26,-8.15 29.56,-24.86 21.69,-41.59 -7.6,-16.29 -25.3,-21.14 -46.13,-10.92 8.14,17.54 16.29,35.09 24.44,52.51zm-3.61 44.33c-14.21,-29.96 -27.61,-58.44 -40.88,-86.63 -17.54,4.86 -25.84,15.79 -25.57,31.53 0.59,17.12 8.31,24.44 33.6,30.23 2.74,10.11 5.8,20.6 8.97,31.93 -19.73,4.31 -34.97,-1.65 -47.66,-13.83 -15.35,-14.48 -24.33,-33.13 -25.14,-54 -0.43,-10.77 2.35,-22.68 6.89,-32.46 14.92,-30.67 66.89,-51.39 97.12,-43.12 48.09,13.12 66.45,75.46 32.19,111.22 -10.61,11.04 -23.06,19.51 -39.52,25.14z"/>
   <path class="fil0" d="M2807.79 603.75c18.09,-17.66 19.35,-35.48 4.98,-48.36 -13.24,-11.98 -30.78,-9.94 -45.04,6.66 13,13.4 26.12,27.22 40.06,41.7zm10.77 42.85c-23.34,-24.05 -45.31,-46.57 -67.28,-68.97 -14.64,10.66 -19.19,24.33 -13.66,38.58 5.67,14.92 15.63,19.19 42.02,17.54 3.72,5.25 7.99,11.16 11.98,17.27 2.07,3.28 3.88,6.77 6.23,10.88 -19.35,10.1 -37.99,9.13 -54.99,-1.92 -10.77,-6.89 -20.29,-16.29 -28.16,-26.4 -16.06,-20.56 -17,-43.78 -4.7,-66.58 11.31,-21.14 27.77,-36.88 49.85,-46.45 27.1,-11.86 54.99,-5.25 75.31,17 20.56,22.67 24.44,50.59 10.06,76.84 -6.62,11.75 -14.92,22.35 -26.67,32.19z"/>
   <path class="fil0" d="M2213.03 211.04c6.78,-15.63 4.98,-27.93 -5.25,-37.71 -8.73,-8.31 -19.62,-11.48 -31.09,-5.95 -10.38,4.98 -18.8,11.75 -18.09,26.12 18.24,5.92 36.06,11.59 54.43,17.54zm29.02 32.59c-31.26,-10.06 -61.21,-19.62 -90.94,-29.14 -8.14,15.75 -5.91,30.55 5.4,40.61 13.28,11.2 24.6,10.22 44.88,-4.7 9.4,4.86 19.23,9.94 30.43,15.9 -12.88,19.19 -30.43,26.95 -50.87,24.72 -13.12,-1.22 -26.67,-5.37 -38.53,-11.16 -23.07,-11.09 -33.56,-31.26 -33.17,-56.39 0.16,-23.35 7.48,-44.49 21.69,-62.86 17.43,-22.64 45.47,-30.55 72.81,-21.42 29.84,9.67 46.01,30.82 46.84,61.09 0.27,14.21 -1.38,28.16 -8.54,43.36z"/>
   <path class="fil0" d="M412.18 931.42c-18.09,-10.49 -35.25,-20.33 -52.36,-30 -10.1,-5.64 -20.33,-11.86 -30.94,-17.11 -15.79,-7.44 -26.55,-5.26 -34.82,5.8 -9.12,12.45 -8.58,29.01 2.47,40.21 5.95,5.92 13.27,10.77 20.33,15.2 17,10.22 33.99,19.74 51.11,29.84 4.27,2.47 8.3,5.36 13.66,8.69 -6.07,10.65 -11.48,20.33 -18.21,31.92 -42.73,-24.59 -84.43,-48.63 -127.66,-73.78 5.52,-10.34 10.77,-19.62 15.9,-29.13 6.34,2.47 11.32,4.42 17.93,6.89 -0.82,-7.17 -1.53,-12.58 -1.92,-18.09 -1.1,-11.87 0.55,-23.35 6.5,-34.27 14.48,-26.67 37,-34.93 63.79,-21 31.1,16.18 60.93,34.11 93,52.36 -6.49,11.32 -12.29,21.26 -18.79,32.46z"/>
   <path class="fil0" d="M3206.57 1251.92c-5.37,-9.52 -10.93,-18.75 -16.57,-28.59 14.1,-16.18 9.67,-32.46 0.39,-48.36 -3.17,-5.37 -7.71,-10.61 -15.19,-7.99 -6.19,2.07 -7.72,7.6 -7.32,13.66 0.27,8.97 0.98,18.09 1.53,26.95 0.43,12.45 1.95,25.02 1.1,37.32 -1.93,28.59 -27.22,44.6 -54.44,35.36 -11.16,-3.87 -20.17,-10.65 -26.51,-20.33 -13.55,-20.17 -21.15,-42.41 -19.08,-66.85 1.26,-16.73 8.43,-30 24.2,-40.77 5.8,10.77 11.32,20.87 17,31.49 -16.45,15.47 -16.17,32.19 -6.5,50.01 1.8,3.33 4.43,6.66 7.44,9.01 9.67,7.99 20.72,3.83 22.13,-8.58 0.39,-5.53 -0.71,-11.2 -0.98,-16.88 -0.71,-14.6 -1.93,-29.13 -1.93,-43.79 0,-18.2 8.27,-31.37 25.69,-37.98 16.73,-6.34 33.72,-2.47 46.02,11.75 16.96,19.74 24.28,43.24 24.28,68.65 0,14.8 -7.01,26.94 -21.26,35.91z"/>
   <path class="fil0" d="M760.56 3124.99c-12.45,-8.03 -23.65,-15.47 -36.88,-24.05 49.14,-75.85 97.66,-150.73 147.4,-227.13 12.69,8.14 24.16,15.62 37,23.89 -49.46,76.29 -98.21,151.16 -147.52,227.29z"/>
   <path class="fil0" d="M3082.9 2662.3c-8.58,12.3 -16.18,23.22 -25.26,36.22 -73.94,-51.97 -147.02,-103.08 -221.89,-155.43 8.58,-12.3 16.29,-23.5 24.99,-36.34 74.6,52.24 147.72,103.35 222.16,155.55z"/>
   <path class="fil0" d="M2017.43 3356.25c-15.91,2.9 -28.86,5.13 -43.24,7.76 -17.27,-88.98 -34.27,-176.04 -51.69,-265.4 14.8,-2.78 28.04,-5.4 43.39,-8.31 17.12,89.13 34.11,176.04 51.54,265.95z"/>
   <path class="fil0" d="M2428.94 173.52c12.69,6.89 22.91,12.73 34.66,19.07 -27.77,49.85 -54.72,98.65 -82.59,149.33 30.11,17 59.26,33.44 90.18,50.86 -5.25,9.52 -9.79,18.09 -15.19,28.59 -42.26,-23.5 -82.9,-46.02 -125.71,-69.79 32.86,-59.26 65.21,-117.68 98.65,-178.07z"/>
   <path class="fil0" d="M3012.6 986.64c-7.32,5.4 -13.82,10.49 -22.24,16.84 -6.5,-7.87 -13.24,-14.76 -18.09,-22.63 -13.4,-21.53 -9.8,-37.99 11.59,-51.53 17.7,-11.32 36.06,-21.42 54.05,-31.92 5.8,-3.45 11.47,-7.05 17.93,-11.05 -1.65,-5.67 -3.29,-10.65 -5.25,-17.14 6.93,-4.27 14.25,-8.27 22.12,-12.97 4,4.54 7.72,8.42 11.48,12.69 2.62,-0.94 5.09,-1.1 6.61,-2.47 13.55,-12.03 26.4,-8.97 39.36,0.82 4.43,3.33 9.28,5.95 16.18,10.38 -15.19,9.09 -28.47,17.12 -42.85,25.8 3.77,7.6 7.05,14.65 11.09,23.39 -7.32,4.66 -14.65,9.24 -22.79,14.33 -5.56,-7.32 -10.38,-13.93 -16.33,-22.24 -22.79,13.55 -45.15,26.4 -67.28,39.67 -6.77,4.27 -7.71,10.77 -3.01,17.54 2.2,3.17 4.43,6.22 7.44,10.49z"/>
   <path class="fil0" d="M588.72 404.03c10.65,-8.54 19.07,-15.59 28.86,-23.74 44.21,52.48 87.17,103.75 131.54,156.65 -9.28,8.15 -17.81,15.75 -28.2,24.75 -44.21,-52.79 -87.61,-104.32 -132.21,-157.66z"/>
   <path class="fil0" d="M2087.48 689.21c8.54,-16.6 15.75,-31.26 23.34,-45.59 3.33,-5.95 8.98,-5.95 14.77,-4.86 18.13,4.43 31.79,14.92 40.21,31.21 22.36,43.94 4.15,93.68 -31.92,118 -11.59,8.03 -24.16,6.89 -34.38,-1.8 -13,-10.88 -10.5,-26.78 4.82,-33.4 8.3,-3.76 16.72,-7.32 23.89,-12.6 5.95,-4.55 11.47,-11.05 14.8,-17.82 6.62,-13.12 0.98,-26.94 -13.12,-31.05 -9.01,-2.62 -18.8,-2.78 -28.2,-3.61 -3.72,-0.43 -7.6,0.83 -14.22,1.53z"/>
   <path class="fil0" d="M2818.28 745.25c-8.03,-9.79 -15.35,-18.76 -23.5,-28.71 38.86,-31.53 76.29,-61.92 114.95,-93.12 7.32,8.97 13.7,16.72 20.86,25.14 -3.6,4.54 -6.89,8.69 -11.2,14.21 13.82,1.95 27.5,0.82 36.5,12.18 5.53,6.62 9.67,13.66 9.09,24.17 -9.09,3.44 -18.37,6.89 -28.44,10.76 -2.23,-4.26 -3.72,-7.71 -5.67,-11.04 -7.87,-14.48 -18.64,-18.8 -33.84,-11.47 -10.65,5.13 -20.32,12.18 -29.84,19.34 -16.17,12.03 -31.79,24.87 -48.91,38.54z"/>
   <path class="fil0" d="M513.45 1296.41c18.91,-49.3 36.73,-95.87 55.26,-143.96 13.54,5.4 25.57,9.94 39.67,15.2 -18.69,48.36 -36.62,95.47 -55.26,143.95 -13.7,-5.25 -25.45,-9.94 -39.66,-15.19z"/>
   <path class="fil0" d="M2561.03 316.54c11.04,6.89 20.45,12.69 31.76,19.73 -25.96,41.71 -51.53,82.75 -78.2,125.32 -10.88,-6.77 -20.72,-12.85 -31.92,-19.62 26.39,-42.41 51.97,-83.18 78.36,-125.43z"/>
   <path class="fil0" d="M2529.27 1288.3c18.52,7.6 27.65,20.73 34.7,36.07 4.54,9.67 5.25,19.74 0.55,29.29 -4.7,9.52 -9.67,19.3 -16.3,27.49 -13.27,16.85 -27.49,32.86 -41.74,48.87 -7.05,8.03 -7.33,7.76 -21.54,2.78 2.35,-3.72 4.15,-7.75 6.5,-11.04 12.69,-17.97 25.69,-35.64 38.1,-54.05 8.58,-12.41 7.87,-15.74 -2.47,-26.08 -7.6,-7.59 -15.74,-14.8 -25.02,-23.22 4.58,-5.13 8.58,-10.1 13,-14.92 4.54,-5.13 9.24,-9.94 14.21,-15.2z"/>
   <path class="fil0" d="M2251.84 640.34c-30.38,-15.63 -59.4,-30.44 -89.4,-45.63 6.5,-12.85 12.18,-24.28 19.07,-37.71 30.12,15.19 58.99,29.84 89.41,45.31 -6.5,13.15 -12.46,24.86 -19.08,38.03z"/>
   <path class="fil0" d="M2351.59 685.8l-0.43 0.44c-4.15,5.52 -8.7,3.72 -13.24,0.82 -25.18,-15.9 -50.59,-31.65 -77.39,-48.48 7.32,-12.02 14.37,-23.22 22.24,-35.91 28.2,17.66 55.81,34.81 84.12,52.47 -5.52,10.92 -10.33,20.72 -15.31,30.66z"/>
   <path class="fil0" d="M2792.09 2512.35c-14.65,-10.22 -27.65,-19.35 -41.87,-29.18 8.86,-12.57 16.57,-23.45 25.42,-35.91 13.93,9.83 27.06,18.91 41.43,28.86 -8.42,12.18 -16.02,23.22 -24.99,36.22z"/>
   <path class="fil0" d="M927.86 2786.28c12.58,8.15 23.62,15.36 35.53,23.23 -6.5,15.47 -16.45,28.04 -26.67,43.24 -12.03,-7.88 -23.5,-15.36 -36.5,-23.62 9.55,-14.64 18.13,-28.2 27.65,-42.85z"/>
   <path class="fil0" d="M2573.4 297.11c6.34,-10.26 11.6,-18.79 17.94,-28.89 10.76,6.65 20.6,12.57 31.64,19.34 -6.22,9.95 -11.59,18.92 -17.93,29.02 -10.81,-6.62 -20.05,-12.3 -31.65,-19.47z"/>
   <polygon class="fil0" points="3988.44,2748.46 3843.93,2359.14 3806.38,2354.33 3806.38,2307.34 3966.63,2307.34 3966.63,2354.33 3926.69,2360.79 4018.44,2629.52 4026.58,2658.11 4028.39,2658.11 4036.81,2629.64 4129.93,2360.52 4084.19,2354.33 4084.19,2307.34 4239.62,2307.34 4239.62,2354.33 4201.36,2359.14 4062.22,2748.46 "/>
   <polygon class="fil0" points="4273.82,2748.46 4273.82,2701.93 4321.9,2692.8 4321.9,2363.41 4273.82,2354.33 4273.82,2307.34 4446.08,2307.34 4446.08,2354.33 4398.31,2363.41 4398.31,2692.8 4446.08,2701.93 4446.08,2748.46 "/>
   <path class="fil0" d="M4611.31 2689.72l58.16 0c25.84,0 47.97,-6.89 66.19,-20.72 18.36,-13.94 32.34,-32.74 42.02,-56.24 9.67,-23.89 14.49,-50.56 14.49,-80.28l0 -9.09c0,-30.55 -4.82,-57.49 -14.49,-81.11 -9.67,-23.34 -23.66,-42.02 -42.02,-55.53 -18.21,-13.43 -40.34,-20.17 -66.19,-20.17l-58.16 0 0 323.13zm-124.89 58.7l0 -46.56 48.48 -9.36 0 -328.41 -48.48 -9.67 0 -47.12 48.48 0 136.36 0c39.52,0 73.94,9.4 103.51,28.05 29.41,18.52 52.64,44.09 69.2,76.56 16.57,32.59 24.87,69.75 24.87,111.89l0 8.7c0,41.31 -8.15,78.36 -24.17,111.1 -16.18,32.46 -39.13,58.28 -68.42,76.8 -29.4,18.8 -63.67,28.04 -102.91,28.04l-186.93 0z"/>
   <polygon class="fil0" points="5012.68,2748.46 5012.68,2701.93 5060.5,2692.8 5060.5,2593.34 4928.01,2360.52 4887.79,2354.33 4887.79,2307.34 5053.84,2307.34 5053.84,2354.33 5011.71,2359.69 5093.63,2514.42 5100.29,2527.54 5101.54,2526.99 5107.88,2514.69 5196.31,2359.69 5146.3,2354.33 5146.3,2307.34 5308.9,2307.34 5308.9,2354.33 5267.43,2360.52 5136.62,2587.38 5136.62,2692.8 5184.68,2701.93 5184.68,2748.46 "/>
   <path class="fil0" d="M5414.99 2568.23l124.45 0 -57.18 -163.3 -4.03 -11.75 -1.77 0 -4.15 12.41 -57.33 162.64zm-152.38 180.15l0 -46.56 32.04 -4.55 146.03 -389.89 74.33 0 144.23 389.89 32.04 4.55 0 46.56 -140.2 0 0 -46.56 31.33 -5.8 -23.18 -69.24 -164.29 0 -23.89 69.24 31.76 5.8 0 46.56 -140.19 0z"/>
   <polygon class="fil0" points="5833.71,2748.46 5689.2,2359.14 5651.6,2354.33 5651.6,2307.34 5811.9,2307.34 5811.9,2354.33 5771.84,2360.79 5863.7,2629.52 5871.85,2658.11 5873.66,2658.11 5882.08,2629.64 5975.16,2360.52 5929.3,2354.33 5929.3,2307.34 6084.73,2307.34 6084.73,2354.33 6046.6,2359.14 5907.49,2748.46 "/>
   <polygon class="fil0" points="6119.08,2748.46 6119.08,2701.93 6167.13,2692.8 6167.13,2363.41 6119.08,2354.33 6119.08,2307.34 6291.35,2307.34 6291.35,2354.33 6243.54,2363.41 6243.54,2692.8 6291.35,2701.93 6291.35,2748.46 "/>
   <polygon class="fil0" points="6331.74,2748.46 6331.74,2701.93 6379.78,2692.8 6379.78,2363.41 6331.74,2354.33 6331.74,2307.34 6504.39,2307.34 6504.39,2354.33 6456.19,2363.41 6456.19,2501.03 6649.17,2501.03 6649.17,2363.41 6601.13,2354.33 6601.13,2307.34 6649.17,2307.34 6725.31,2307.34 6773.4,2307.34 6773.4,2354.33 6725.31,2363.41 6725.31,2692.8 6773.4,2701.93 6773.4,2748.46 6601.13,2748.46 6601.13,2701.93 6649.17,2692.8 6649.17,2560.44 6456.19,2560.44 6456.19,2692.8 6504.39,2701.93 6504.39,2748.46 "/>
   <path class="fil0" d="M6945.16 2568.23l124.46 0 -57.18 -163.3 -4.04 -11.75 -1.76 0 -4.31 12.41 -57.18 162.64zm-152.38 180.15l0 -46.56 32.04 -4.55 146.04 -389.89 74.32 0 144.24 389.89 32.03 4.55 0 46.56 -140.19 0 0 -46.56 31.33 -5.8 -23.18 -69.24 -164.29 0 -23.89 69.24 31.76 5.8 0 46.56 -140.2 0z"/>
   <path class="fil0" d="M7544.34 2748.46l-84.12 -202.94 71.43 -11.75 71.43 160.25 34.54 7.2 0 47.24 -93.28 0zm-162.33 -242.84l76.13 0c28.59,0 49.74,-5.95 63.56,-17.54 13.66,-11.64 20.56,-28.47 20.56,-50.72 0,-21.58 -6.73,-38.81 -20.01,-51.54 -13.27,-12.84 -33.56,-19.46 -60.94,-19.46l-79.3 0 0 139.26zm-124.61 242.84l0 -46.53 48.37 -9.13 0 -329.39 -48.37 -9.08 0 -46.99 203.91 0c33.29,0 61.33,5.25 84.83,15.35 23.5,10.22 41.32,24.86 53.73,43.66 12.3,19.03 18.53,42.14 18.53,68.93 0,25.84 -6.23,48.36 -18.37,67.39 -12.3,19.23 -29.29,34.27 -51.26,44.64 -21.96,10.77 -47.66,16.3 -77.07,16.73l-89.68 0.82 0 127.94 48.21 9.13 0 46.53 -172.83 0z"/>
   <path class="fil0" d="M8046.36 2754.84c-33.01,0 -62.04,-5.95 -87.56,-17.98 -25.46,-12.02 -45.36,-29.4 -59.57,-52.08 -14.21,-22.52 -21.26,-50.01 -21.26,-82.05l0 -239.27 -48.2 -9.13 0 -46.96 172.27 0 0 46.96 -48.09 9.13 0 239.27c0,20.45 3.88,37.56 11.48,51.54 7.71,13.66 18.52,24.05 32.59,30.94 13.82,6.77 30,10.37 48.63,10.37 19.24,0 35.79,-3.6 49.9,-10.37 13.94,-6.89 24.86,-17.27 32.73,-30.94 7.72,-13.67 11.75,-30.94 11.75,-51.54l0 -239.27 -48.36 -9.13 0 -46.96 172.44 0 0 46.96 -47.82 9.13 0 239.27c0,32.59 -7.16,60.12 -21.42,82.63 -14.21,22.8 -34.1,39.91 -59.95,51.78 -25.53,11.75 -55.53,17.7 -89.52,17.7z"/>
   <polygon class="fil0" points="8301.11,2748.46 8301.11,2701.93 8349.2,2692.8 8349.2,2363.41 8301.11,2354.33 8301.11,2307.34 8349.2,2307.34 8426.54,2307.34 8628.81,2629.52 8630.89,2628.81 8630.89,2363.41 8574.93,2354.33 8574.93,2307.34 8699.54,2307.34 8747.63,2307.34 8747.63,2354.33 8699.54,2363.41 8699.54,2748.46 8627.01,2748.46 8419.92,2427.68 8418.12,2427.95 8418.12,2692.8 8473.81,2701.93 8473.81,2748.46 "/>
   <polygon class="fil0" points="8785.22,2748.46 8785.22,2701.93 8833.31,2692.8 8833.31,2363.41 8785.22,2354.33 8785.22,2307.34 8957.5,2307.34 8957.5,2354.33 8909.72,2363.41 8909.72,2692.8 8957.5,2701.93 8957.5,2748.46 "/>
   <polygon class="fil0" points="9174.22,2748.46 9029.71,2359.14 8992.11,2354.33 8992.11,2307.34 9152.37,2307.34 9152.37,2354.33 9112.46,2360.79 9204.17,2629.52 9212.32,2658.11 9214.13,2658.11 9222.55,2629.64 9315.67,2360.52 9269.93,2354.33 9269.93,2307.34 9425.36,2307.34 9425.36,2354.33 9387.1,2359.14 9247.96,2748.46 "/>
   <polygon class="fil0" points="9459.55,2748.46 9459.55,2701.93 9507.64,2692.8 9507.64,2363.41 9459.55,2354.33 9459.55,2307.34 9795.4,2307.34 9795.4,2421.06 9736.15,2421.06 9731.02,2366.04 9584.05,2366.04 9584.05,2490.96 9738.89,2490.96 9738.89,2550.06 9584.05,2550.06 9584.05,2690.3 9739.16,2690.3 9744.3,2634.34 9803,2634.34 9803,2748.46 "/>
   <path class="fil0" d="M10142.41 2748.46l-84.27 -202.94 71.58 -11.75 71.43 160.25 34.54 7.2 0 47.24 -93.28 0zm-162.32 -242.84l75.97 0c28.75,0 49.9,-5.95 63.72,-17.54 13.66,-11.64 20.56,-28.47 20.56,-50.72 0,-21.58 -6.73,-38.81 -20.01,-51.54 -13.4,-12.84 -33.56,-19.46 -60.94,-19.46l-79.3 0 0 139.26zm-124.61 242.84l0 -46.53 48.2 -9.13 0 -329.39 -48.2 -9.08 0 -46.99 203.91 0c33.17,0 61.33,5.25 84.83,15.35 23.5,10.22 41.32,24.86 53.61,43.66 12.42,19.03 18.37,42.14 18.37,68.93 0,25.84 -5.95,48.36 -18.25,67.39 -12.3,19.23 -29.13,34.27 -51.11,44.64 -21.97,10.77 -47.66,16.3 -77.07,16.73l-89.68 0.82 0 127.94 48.09 9.13 0 46.53 -172.7 0z"/>
   <path class="fil0" d="M10450.15 2754.84c-30.11,0 -58.16,-3.61 -83.96,-11.2 -25.73,-7.44 -50.87,-19.74 -75.31,-37.16l0 -101.55 59.13 0 9.52 65.79c10.77,7.6 23.93,13.79 39.67,18.48 15.59,4.7 32.59,6.93 50.95,6.93 17.98,0 33.17,-2.62 45.19,-7.75 12.3,-5.1 21.7,-12.42 28.2,-21.7 6.34,-9.24 9.67,-20.29 9.67,-33.01 0,-11.75 -2.9,-22.08 -8.47,-31.21 -5.8,-9.13 -15.19,-17.27 -28.32,-24.33 -12.96,-7.16 -30.78,-13.82 -53.18,-19.89 -33.01,-8.86 -60.39,-19.35 -82.47,-31.65 -22.24,-12.02 -38.97,-26.51 -50.17,-43.51 -11.16,-17 -16.68,-36.89 -16.68,-59.96 0,-23.61 6.34,-44.48 19.19,-62.73 12.84,-18.2 30.66,-32.46 53.34,-42.96 22.9,-10.49 49.3,-15.9 79.14,-16.02 32.73,-0.55 61.76,3.72 86.9,12.69 25.14,8.85 46.29,20.33 63.67,34.7l0 94.89 -57.72 0 -10.93 -61.88c-8.42,-5.67 -19.07,-10.77 -32.46,-14.76 -13.12,-4.31 -28.74,-6.38 -46.68,-6.38 -15.36,0 -28.9,2.62 -40.65,7.59 -11.59,5.13 -20.84,12.19 -27.61,21.42 -6.5,9.13 -9.83,20.17 -9.83,32.9 0,11.04 2.9,20.72 8.73,29.01 5.8,8.26 15.58,15.86 29.41,22.52 13.66,6.89 32.19,13.66 55.68,20.44 47.93,12.85 84.12,30.39 108.71,52.75 24.75,22.52 36.89,50.99 36.89,85.69 0,24.55 -6.62,45.86 -19.74,64.22 -13.16,18.25 -31.8,32.31 -55.69,42.53 -23.89,10.1 -52.08,15.08 -84.16,15.08z"/>
   <polygon class="fil0" points="10651.64,2748.46 10651.64,2701.93 10699.73,2692.8 10699.73,2363.41 10651.64,2354.33 10651.64,2307.34 10823.91,2307.34 10823.91,2354.33 10776.14,2363.41 10776.14,2692.8 10823.91,2701.93 10823.91,2748.46 "/>
   <polygon class="fil0" points="10969.17,2748.46 10969.17,2701.93 11017.26,2692.8 11017.26,2365.77 10928.55,2365.77 10921.89,2422.28 10864.56,2422.28 10864.56,2307.34 11246.71,2307.34 11246.71,2422.28 11188.98,2422.28 11182.33,2365.77 11093.62,2365.77 11093.62,2692.8 11141.87,2701.93 11141.87,2748.46 "/>
   <polygon class="fil0" points="11411.46,2748.46 11411.46,2701.93 11459.24,2692.8 11459.24,2593.34 11326.63,2360.52 11286.57,2354.33 11286.57,2307.34 11452.62,2307.34 11452.62,2354.33 11410.48,2359.69 11492.25,2514.42 11499.02,2527.54 11500.28,2526.99 11506.62,2514.69 11595.05,2359.69 11545.04,2354.33 11545.04,2307.34 11707.8,2307.34 11707.8,2354.33 11666.21,2360.52 11535.36,2587.38 11535.36,2692.8 11583.46,2701.93 11583.46,2748.46 "/>
   <path class="fil0" d="M4247.61 2021.81c-83.29,0 -160.8,-10.22 -232.39,-30.98 -71.54,-20.84 -141.18,-55.11 -209,-103.19l0 -280.99 163.69 0 26.83 181.79c29.68,21.42 66.15,38.42 109.53,51.26 43.24,13 90.51,19.34 141.34,19.34 49.74,0 91.6,-7.2 125.44,-21.42 33.87,-14.21 59.56,-34.1 77.65,-60.07 17.82,-25.73 26.79,-56.11 26.79,-91.32 0,-32.46 -7.88,-61.37 -23.46,-86.51 -15.79,-25.26 -41.75,-47.66 -78.09,-67.39 -36.3,-19.9 -85.49,-38.26 -147.68,-55.14 -91.16,-24.44 -167.45,-53.46 -228.51,-87.17 -61.32,-33.56 -107.46,-73.79 -138.44,-120.89 -31.05,-46.85 -46.56,-102.21 -46.56,-165.93 0,-65.48 17.69,-123.48 53.22,-173.8 35.48,-50.28 84.83,-89.92 148.07,-118.93 63.16,-29.29 136.08,-44.06 218.99,-44.61 90.62,-1.13 170.74,10.61 240.26,35.37 69.75,24.44 128.6,56.63 176.82,96.3l0 262.74 -160.37 0 -30.11 -171.18c-23.11,-16.29 -52.95,-30.11 -89.52,-41.55 -36.62,-11.47 -79.74,-17.15 -129.47,-17.15 -42.58,0 -80.13,6.94 -112.47,20.87 -32.47,13.94 -57.89,33.72 -76.37,59.13 -18.52,25.42 -27.65,55.96 -27.65,91.17 0,30.67 8.15,57.49 24.32,80.4 16.18,22.95 43.39,43.82 81.39,62.59 37.98,18.79 89.37,37.59 154.3,56.51 132.64,35.36 233.09,84 301.2,146.04 68.37,62.03 102.36,141.17 102.36,237.48 0,67.55 -18.24,126.84 -54.86,177.4 -36.58,50.56 -88.11,89.95 -154.3,117.84 -66.3,27.92 -143.96,42.02 -232.94,42.02z"/>
   <path class="fil0" d="M5339.92 1853.96c73.79,0 134.71,-18.91 182.5,-56.63 47.81,-37.71 83.29,-90.5 106.52,-158.05 23.06,-67.83 34.81,-146.58 34.81,-236.66l0 -20.17c0,-88.98 -11.75,-166.86 -35.2,-234.03 -23.5,-67.12 -59.29,-119.64 -106.96,-157.63 -47.93,-38.14 -108.71,-57.05 -182.65,-57.05 -70.3,0 -129.31,18.91 -176.82,57.05 -47.54,37.99 -83.3,90.51 -107.5,157.63 -24.05,67.17 -35.92,145.06 -35.92,234.03l0 20.17c0,89.41 11.87,168.28 35.92,236.27 24.2,67.83 59.95,120.73 107.78,158.44 47.78,37.72 107.18,56.63 177.51,56.63zm0 167.89c-81.11,0 -154.3,-15.35 -219.65,-45.74 -65.64,-30.55 -121.72,-73.35 -168.29,-128.76 -46.84,-55.42 -82.63,-120.9 -107.89,-196.44 -25.14,-75.46 -37.71,-158.21 -37.71,-248.29l0 -18.52c0,-89.37 12.57,-171.84 37.71,-247.27 25.26,-75.58 61.05,-141.22 107.89,-196.86 46.57,-55.69 102.65,-98.81 168.29,-129.2 65.36,-30.5 138.28,-45.86 218.68,-45.86 83.45,0 158.21,15.36 224.08,45.86 66.07,30.39 122.27,73.51 168.83,129.2 46.3,55.65 81.81,121.28 106.53,196.86 24.47,75.43 36.88,157.91 36.88,247.27l0 18.52c0,90.07 -12.41,172.83 -36.88,248.29 -24.72,75.54 -60.23,141.02 -106.53,196.44 -46.56,55.41 -102.75,98.21 -168.83,128.76 -65.87,30.39 -140.35,45.74 -223.1,45.74z"/>
   <polygon class="fil0" points="5990.12,2004.14 5990.12,1874.99 6122.6,1849.85 6122.6,937.89 5990.12,912.74 5990.12,782.6 6122.6,782.6 6425.6,782.6 6783.81,1666.1 6788.95,1666.1 7136.12,782.6 7576.69,782.6 7576.69,912.74 7443.22,937.89 7443.22,1849.85 7576.69,1874.99 7576.69,2004.14 7099.22,2004.14 7099.22,1874.99 7239.31,1849.85 7239.31,1565.38 7240.99,1030.85 7236.84,1030.19 6858.58,1976.53 6704.94,1976.53 6315.63,1035.16 6311.48,1036.1 6322.37,1551.16 6322.37,1849.85 6467.59,1874.99 6467.59,2004.14 "/>
   <path class="fil0" d="M8053.99 1504.99l344.82 0 -158.61 -452.2 -10.88 -32.74 -5.13 0 -11.59 34.43 -158.6 450.52zm-422.05 499.16l0 -129.19 88.94 -12.58 404.39 -1079.81 205.6 0 399.37 1079.81 88.98 12.58 0 129.19 -388.6 0 0 -129.19 87.29 -15.86 -64.66 -192.21 -454.66 0 -66.31 192.21 88.16 15.86 0 129.19 -388.49 0z"/>
   <polygon class="fil0" points="8919,2004.14 8919,1874.99 9052.31,1849.85 9052.31,937.89 8919,912.74 8919,782.6 9396.46,782.6 9396.46,912.74 9263.82,937.89 9263.82,1849.85 9396.46,1874.99 9396.46,2004.14 "/>
   <polygon class="fil0" points="9828.42,2004.14 9828.42,1874.99 9960.9,1849.85 9960.9,1574.66 9593.41,929.31 9482.74,912.74 9482.74,782.6 9942.54,782.6 9942.54,912.74 9825.79,927.66 10052.5,1355.67 10070.98,1392.55 10074.2,1390.91 10091.86,1356.36 10336.82,927.66 10198.38,912.74 10198.38,782.6 10648.78,782.6 10648.78,912.74 10533.95,929.31 10171.6,1557.78 10171.6,1849.85 10304.9,1874.99 10304.9,2004.14 "/>
   <path class="fil0" d="M10942.53 1504.99l344.86 0 -158.61 -452.2 -10.92 -32.74 -5.09 0 -11.64 34.43 -158.6 450.52zm-422.05 499.16l0 -129.19 88.98 -12.58 404.39 -1079.81 205.56 0 399.42 1079.81 88.98 12.58 0 129.19 -388.65 0 0 -129.19 87.33 -15.86 -64.65 -192.21 -454.67 0 -66.34 192.21 88.16 15.86 0 129.19 -388.49 0z"/>
  </g>
 </g>
</svg>
