<?xml version="1.0" encoding="UTF-8"?>
<!DOCTYPE svg PUBLIC "-//W3C//DTD SVG 1.1//EN" "http://www.w3.org/Graphics/SVG/1.1/DTD/svg11.dtd">
<!-- Creator: CorelDRAW 2017 -->
<svg xmlns="http://www.w3.org/2000/svg" xml:space="preserve" width="78.4483mm" height="38.3459mm" version="1.1" style="shape-rendering:geometricPrecision; text-rendering:geometricPrecision; image-rendering:optimizeQuality; fill-rule:evenodd; clip-rule:evenodd"
viewBox="0 0 6284.93 3072.1"
 xmlns:xlink="http://www.w3.org/1999/xlink">
 <defs>
  <style type="text/css">
   <![CDATA[
    .str0 {stroke:#2B2A29;stroke-width:6.1;stroke-miterlimit:22.9256}
    .str2 {stroke:#FEFEFE;stroke-width:6.85;stroke-miterlimit:2.61313}
    .str1 {stroke:#FEFEFE;stroke-width:6.85;stroke-miterlimit:2.61313}
    .fil1 {fill:none;fill-rule:nonzero}
    .fil0 {fill:#2B2A29;fill-rule:nonzero}
   ]]>
  </style>
 </defs>
 <g id="Layer_x0020_1">
  <metadata id="CorelCorpID_0Corel-Layer"/>
  <g id="_2551704872112">
   <path class="fil0" d="M5894.53 1058.44c19.17,0 33.9,-7.98 33.9,-27.18 0,-20.55 -15.88,-25.38 -33.05,-25.38l-41.09 0 0 52.56 40.23 0zm-40.23 11l0 62.02 -12.89 0 0 -136.61 53.63 0c29.79,0 46.37,10.69 46.37,35.88 0,17.33 -6.39,26.36 -22.14,33.37 16.1,5.61 16.94,22.62 17.43,37.02 0.6,20.69 2.24,26.44 5.66,29.08l0 1.27 -14.17 0c-5.35,-9.29 -4.03,-34.84 -6.07,-45.34 -3.08,-14.77 -14.25,-16.68 -27.08,-16.68l-40.74 0z"/>
   <path class="fil0" d="M5776.96 1063.2c0.14,63.48 51.4,114.75 114.96,114.87 63.4,-0.12 114.77,-51.45 114.89,-114.87 -0.11,-63.45 -51.48,-114.85 -114.89,-114.98 -63.56,0.14 -114.82,51.53 -114.96,114.98zm-23.81 0c0.06,-76.63 62.11,-138.61 138.77,-138.69 76.54,0.08 138.54,62.06 138.62,138.69 -0.08,76.58 -62.07,138.66 -138.62,138.66 -76.65,0 -138.7,-62.07 -138.77,-138.66z"/>
   <path class="fil0 str0" d="M5595.07 3026.19l-880.99 0 0 -90.46 880.99 0c328.79,0 596.34,-267.49 596.34,-596.32l0 -1649.55c0,-328.78 -267.55,-596.31 -596.34,-596.31l-4905.25 0c-328.78,0 -596.32,267.53 -596.32,596.31l0 1649.55c0,328.83 267.55,596.32 596.32,596.32l934.96 0 0 90.46 -934.96 0c-378.72,0 -686.78,-308.08 -686.78,-686.78l0 -1649.55c0,-378.71 308.06,-686.81 686.78,-686.81l4905.25 0c378.72,0 686.8,308.1 686.8,686.81l0 1649.55c0,378.7 -308.08,686.78 -686.8,686.78z"/>
   <g>
    <path class="fil1 str1" d="M1963.61 2935.78c0,-9.32 -1.22,-18.43 -3.66,-27.28 -2.48,-8.82 -6.18,-13.96 -11.24,-15.35 -4.96,-1.38 -9.78,-2.12 -14.45,-2.19 -4.65,-0.08 -8.13,-0.13 -10.43,-0.13l0 91.85c3.26,-0.17 6.65,-0.34 10.09,-0.51 3.43,-0.12 7.96,-0.75 13.62,-1.8 5.64,-1.09 9.69,-6.01 12.26,-14.75 2.55,-8.76 3.82,-18.72 3.82,-29.84zm-9.84 129.94l-119.86 0 0 -3.93 7.64 0c3.4,-0.48 6.79,-0.95 10.09,-1.36 3.24,-0.4 5.83,-1.61 7.72,-3.69 1.83,-2.02 3.03,-5.67 3.58,-10.9l0.47 -11.29 0 -116.43 -0.47 -11.31c-0.55,-5.26 -1.75,-8.92 -3.73,-11.04 -1.98,-2.16 -4.68,-3.44 -8.2,-3.93 -3.51,-0.5 -6.7,-0.79 -9.55,-0.86 -2.91,-0.08 -5.46,-0.2 -7.78,-0.38l0 -3.93 114.73 -0.25c26.7,0 44.43,2.96 53.15,8.82 8.75,5.9 14.88,12.27 18.29,19.06 3.44,6.78 5.18,14.12 5.18,22 0,7.34 -1.15,14.4 -3.41,21.09 -2.33,6.73 -5.86,12.27 -10.58,16.59 -4.77,4.32 -10.68,7.59 -17.67,9.69 -7.06,2.16 -16.11,3.22 -27.27,3.22 -10.62,0 -19.28,0.05 -25.78,0.12 -6.58,0.07 -12.08,0.19 -16.46,0.35l0 47.19 0.47 11.29c0.49,5.23 1.7,8.88 3.58,10.9 1.87,2.08 4.62,3.32 8.2,3.81 3.61,0.5 7.15,0.79 10.56,0.87 3.44,0.07 5.86,0.19 7.13,0.38l0 3.93z"/>
    <path id="1" class="fil0" d="M1963.61 2935.78c0,-9.32 -1.22,-18.43 -3.66,-27.28 -2.48,-8.82 -6.18,-13.96 -11.24,-15.35 -4.96,-1.38 -9.78,-2.12 -14.45,-2.19 -4.65,-0.08 -8.13,-0.13 -10.43,-0.13l0 91.85c3.26,-0.17 6.65,-0.34 10.09,-0.51 3.43,-0.12 7.96,-0.75 13.62,-1.8 5.64,-1.09 9.69,-6.01 12.26,-14.75 2.55,-8.76 3.82,-18.72 3.82,-29.84zm-9.84 129.94l-119.86 0 0 -3.93 7.64 0c3.4,-0.48 6.79,-0.95 10.09,-1.36 3.24,-0.4 5.83,-1.61 7.72,-3.69 1.83,-2.02 3.03,-5.67 3.58,-10.9l0.47 -11.29 0 -116.43 -0.47 -11.31c-0.55,-5.26 -1.75,-8.92 -3.73,-11.04 -1.98,-2.16 -4.68,-3.44 -8.2,-3.93 -3.51,-0.5 -6.7,-0.79 -9.55,-0.86 -2.91,-0.08 -5.46,-0.2 -7.78,-0.38l0 -3.93 114.73 -0.25c26.7,0 44.43,2.96 53.15,8.82 8.75,5.9 14.88,12.27 18.29,19.06 3.44,6.78 5.18,14.12 5.18,22 0,7.34 -1.15,14.4 -3.41,21.09 -2.33,6.73 -5.86,12.27 -10.58,16.59 -4.77,4.32 -10.68,7.59 -17.67,9.69 -7.06,2.16 -16.11,3.22 -27.27,3.22 -10.62,0 -19.28,0.05 -25.78,0.12 -6.58,0.07 -12.08,0.19 -16.46,0.35l0 47.19 0.47 11.29c0.49,5.23 1.7,8.88 3.58,10.9 1.87,2.08 4.62,3.32 8.2,3.81 3.61,0.5 7.15,0.79 10.56,0.87 3.44,0.07 5.86,0.19 7.13,0.38l0 3.93z"/>
   </g>
   <g>
    <path class="fil1 str1" d="M2163.55 2909.25c-4.94,-13.74 -13.32,-20.62 -25.3,-20.62 -6.1,0 -11.29,1.95 -15.74,5.89 -4.39,3.93 -7.84,9.61 -10.18,17.06 -2.37,7.47 -4.11,17.03 -5.18,28.75 -1.07,11.71 -1.55,23.71 -1.55,35.99 0,16.86 0.65,30.6 1.93,41.26 1.31,10.62 3.78,21.04 7.39,31.18 3.57,10.17 11.34,15.22 23.33,15.22 6.04,0 11.3,-1.95 15.73,-5.88 4.4,-3.93 7.78,-9.59 10.18,-17.06 2.36,-7.47 4.05,-17.03 5.11,-28.75 1.07,-11.69 1.61,-23.69 1.61,-35.98 0,-14.58 -0.5,-27.22 -1.46,-37.94 -0.97,-10.73 -2.95,-20.42 -5.88,-29.12zm74.65 67.06c0,26.18 -9.93,48.13 -29.71,65.81 -19.83,17.67 -43.21,26.54 -70.24,26.54 -28.19,0 -51.71,-8.74 -70.65,-26.17 -18.88,-17.43 -28.34,-39.5 -28.34,-66.18 0,-27.5 9.65,-49.78 28.97,-66.82 19.32,-17.02 42.62,-25.54 70.01,-25.54 27.32,0 50.83,8.66 70.49,25.92 19.64,17.28 29.47,39.42 29.47,66.44z"/>
    <path id="1" class="fil0" d="M2163.55 2909.25c-4.94,-13.74 -13.32,-20.62 -25.3,-20.62 -6.1,0 -11.29,1.95 -15.74,5.89 -4.39,3.93 -7.84,9.61 -10.18,17.06 -2.37,7.47 -4.11,17.03 -5.18,28.75 -1.07,11.71 -1.55,23.71 -1.55,35.99 0,16.86 0.65,30.6 1.93,41.26 1.31,10.62 3.78,21.04 7.39,31.18 3.57,10.17 11.34,15.22 23.33,15.22 6.04,0 11.3,-1.95 15.73,-5.88 4.4,-3.93 7.78,-9.59 10.18,-17.06 2.36,-7.47 4.05,-17.03 5.11,-28.75 1.07,-11.69 1.61,-23.69 1.61,-35.98 0,-14.58 -0.5,-27.22 -1.46,-37.94 -0.97,-10.73 -2.95,-20.42 -5.88,-29.12zm74.65 67.06c0,26.18 -9.93,48.13 -29.71,65.81 -19.83,17.67 -43.21,26.54 -70.24,26.54 -28.19,0 -51.71,-8.74 -70.65,-26.17 -18.88,-17.43 -28.34,-39.5 -28.34,-66.18 0,-27.5 9.65,-49.78 28.97,-66.82 19.32,-17.02 42.62,-25.54 70.01,-25.54 27.32,0 50.83,8.66 70.49,25.92 19.64,17.28 29.47,39.42 29.47,66.44z"/>
   </g>
   <g>
    <path class="fil1 str1" d="M2393.18 2932.84l-10.03 -26.04c-2.34,-4.74 -4.25,-8.27 -5.82,-10.58 -1.53,-2.28 -4.87,-3.83 -9.94,-4.65l-7.64 -0.99 0 -3.92 108.1 0 0 3.92 -3.46 0c-1.15,0 -3.23,0.3 -6.38,0.87 -3.08,0.59 -5.74,1.27 -7.86,2.1 -2.13,0.79 -3.19,3.24 -3.19,7.34 0,3.77 1.11,9 3.34,15.72 2.2,6.74 4.77,14.23 7.71,22.48 2.95,8.28 6.8,18.99 11.54,32.05 4.73,13.11 8.22,22.59 10.34,28.48 2.12,-5.56 4.71,-12.28 7.71,-20.12 3.04,-7.86 7.19,-18.94 12.51,-33.3 5.38,-14.32 8.85,-24.15 10.49,-29.47 1.63,-5.31 2.48,-9.94 2.48,-13.88 0,-3.75 -1.03,-6.47 -2.98,-8.09 -1.98,-1.64 -4.33,-2.65 -7.14,-3.07 -2.8,-0.42 -5.39,-0.65 -7.87,-0.74 -2.48,-0.08 -4.73,-0.21 -6.85,-0.38l0 -3.92 63.35 0 0 3.92 -10.82 1.24c-5.22,0.82 -9.33,2.3 -12.25,4.4 -2.98,2.13 -5.62,5.9 -7.89,11.3l-7.39 18.94 -52.57 140.23 -19.68 0 -44.73 -126.74 -46.96 126.74 -19.65 0 -50.14 -140.75 -7.61 -19.14c-2.47,-5.26 -4.75,-8.96 -6.79,-11.17 -2.07,-2.2 -5.1,-3.56 -9.21,-4.05l-8.63 -0.99 0 -3.92 106.13 0 0 3.92 -7.88 0.75c-3.77,0.5 -6.43,1.29 -7.96,2.35 -1.56,1.04 -2.32,3.07 -2.32,6.01 0,3.61 1.31,9.37 4.05,17.3 2.72,7.96 6.08,17.58 10.18,28.87 4.1,11.3 7.79,21.26 11.08,29.96 3.24,8.67 5.94,15.87 8.11,21.61l24.52 -64.6z"/>
    <path id="1" class="fil0" d="M2393.18 2932.84l-10.03 -26.04c-2.34,-4.74 -4.25,-8.27 -5.82,-10.58 -1.53,-2.28 -4.87,-3.83 -9.94,-4.65l-7.64 -0.99 0 -3.92 108.1 0 0 3.92 -3.46 0c-1.15,0 -3.23,0.3 -6.38,0.87 -3.08,0.59 -5.74,1.27 -7.86,2.1 -2.13,0.79 -3.19,3.24 -3.19,7.34 0,3.77 1.11,9 3.34,15.72 2.2,6.74 4.77,14.23 7.71,22.48 2.95,8.28 6.8,18.99 11.54,32.05 4.73,13.11 8.22,22.59 10.34,28.48 2.12,-5.56 4.71,-12.28 7.71,-20.12 3.04,-7.86 7.19,-18.94 12.51,-33.3 5.38,-14.32 8.85,-24.15 10.49,-29.47 1.63,-5.31 2.48,-9.94 2.48,-13.88 0,-3.75 -1.03,-6.47 -2.98,-8.09 -1.98,-1.64 -4.33,-2.65 -7.14,-3.07 -2.8,-0.42 -5.39,-0.65 -7.87,-0.74 -2.48,-0.08 -4.73,-0.21 -6.85,-0.38l0 -3.92 63.35 0 0 3.92 -10.82 1.24c-5.22,0.82 -9.33,2.3 -12.25,4.4 -2.98,2.13 -5.62,5.9 -7.89,11.3l-7.39 18.94 -52.57 140.23 -19.68 0 -44.73 -126.74 -46.96 126.74 -19.65 0 -50.14 -140.75 -7.61 -19.14c-2.47,-5.26 -4.75,-8.96 -6.79,-11.17 -2.07,-2.2 -5.1,-3.56 -9.21,-4.05l-8.63 -0.99 0 -3.92 106.13 0 0 3.92 -7.88 0.75c-3.77,0.5 -6.43,1.29 -7.96,2.35 -1.56,1.04 -2.32,3.07 -2.32,6.01 0,3.61 1.31,9.37 4.05,17.3 2.72,7.96 6.08,17.58 10.18,28.87 4.1,11.3 7.79,21.26 11.08,29.96 3.24,8.67 5.94,15.87 8.11,21.61l24.52 -64.6z"/>
   </g>
   <g>
    <path class="fil1 str1" d="M2637.34 3060.79c6.86,-0.17 13.9,-0.28 21.12,-0.36 7.19,-0.1 14.8,-0.65 22.81,-1.71 8.04,-1.07 17.98,-9.17 29.75,-24.32 11.79,-15.16 20.45,-30.73 26.02,-46.78l3.9 0 0 78.1 -193.01 0 0 -3.93c2.13,0 4.58,-0.13 7.4,-0.38 2.74,-0.22 5.88,-0.58 9.39,-0.99 3.53,-0.39 6.23,-1.63 8.13,-3.69 1.89,-2.03 3.08,-5.67 3.56,-10.9l0.49 -11.3 0 -116.42 -0.49 -11.32c-0.47,-5.26 -1.72,-8.92 -3.65,-11.04 -1.98,-2.16 -4.75,-3.44 -8.26,-3.93 -3.53,-0.5 -6.72,-0.79 -9.56,-0.88 -2.9,-0.08 -5.47,-0.18 -7.72,-0.35l0 -3.93 188.86 0 0 72.7 -3.95 0c-8.36,-18.34 -18.48,-33.76 -30.45,-46.29 -11.95,-12.51 -21.98,-19.2 -30.1,-20.03 -8.09,-0.82 -14.92,-1.29 -20.46,-1.47 -5.61,-0.17 -9.27,-0.25 -11.06,-0.25l-2.21 0 -0.5 80.55 10.29 -0.47c9.52,-0.99 16.66,-5.43 21.49,-13.4 4.81,-7.93 7.23,-17.3 7.23,-28.13l4.69 0 0 89.42 -4.69 0c0,-10.98 -2.42,-20.54 -7.23,-28.72 -4.83,-8.22 -11.98,-12.78 -21.49,-13.77l-10.29 -0.47 0 84.47z"/>
    <path id="1" class="fil0" d="M2637.34 3060.79c6.86,-0.17 13.9,-0.28 21.12,-0.36 7.19,-0.1 14.8,-0.65 22.81,-1.71 8.04,-1.07 17.98,-9.17 29.75,-24.32 11.79,-15.16 20.45,-30.73 26.02,-46.78l3.9 0 0 78.1 -193.01 0 0 -3.93c2.13,0 4.58,-0.13 7.4,-0.38 2.74,-0.22 5.88,-0.58 9.39,-0.99 3.53,-0.39 6.23,-1.63 8.13,-3.69 1.89,-2.03 3.08,-5.67 3.56,-10.9l0.49 -11.3 0 -116.42 -0.49 -11.32c-0.47,-5.26 -1.72,-8.92 -3.65,-11.04 -1.98,-2.16 -4.75,-3.44 -8.26,-3.93 -3.53,-0.5 -6.72,-0.79 -9.56,-0.88 -2.9,-0.08 -5.47,-0.18 -7.72,-0.35l0 -3.93 188.86 0 0 72.7 -3.95 0c-8.36,-18.34 -18.48,-33.76 -30.45,-46.29 -11.95,-12.51 -21.98,-19.2 -30.1,-20.03 -8.09,-0.82 -14.92,-1.29 -20.46,-1.47 -5.61,-0.17 -9.27,-0.25 -11.06,-0.25l-2.21 0 -0.5 80.55 10.29 -0.47c9.52,-0.99 16.66,-5.43 21.49,-13.4 4.81,-7.93 7.23,-17.3 7.23,-28.13l4.69 0 0 89.42 -4.69 0c0,-10.98 -2.42,-20.54 -7.23,-28.72 -4.83,-8.22 -11.98,-12.78 -21.49,-13.77l-10.29 -0.47 0 84.47z"/>
   </g>
   <g>
    <path class="fil1 str1" d="M2870.16 2971.16c6.23,-0.99 10.9,-5.49 14.09,-13.52 3.18,-8.01 4.84,-16.94 4.84,-26.77 0,-8.01 -1.71,-15.92 -4.94,-23.67 -3.26,-7.8 -7.24,-12.35 -11.82,-13.66 -4.6,-1.31 -8.64,-2.05 -12.26,-2.2 -3.6,-0.17 -6.83,-0.34 -9.57,-0.51l0 81.06 8.36 0c4.6,0 8.36,-0.22 11.3,-0.71zm-19.65 5.13l0 57.48 0.49 11.3c0.47,5.23 1.83,9 3.91,11.3 2.13,2.32 5.74,3.79 10.81,4.41l12.55 1 0 3.93 -117.9 0 0 -3.93 7.56 0c3.63,-0.5 7.05,-0.95 10.39,-1.36 3.23,-0.39 5.84,-1.63 7.68,-3.69 1.89,-2.04 3.08,-5.68 3.62,-10.9l0.44 -11.31 0 -116.41 -0.44 -11.31c-0.54,-5.26 -1.73,-8.92 -3.72,-11.05 -1.98,-2.16 -4.75,-3.44 -8.36,-3.93 -3.59,-0.5 -6.72,-0.79 -9.33,-0.88 -2.64,-0.08 -5.06,-0.18 -7.38,-0.34l0 -3.93 109.81 -0.25c15.24,0 27.56,0.65 37.07,1.98 9.5,1.28 17.23,3.93 23.22,7.84 5.98,3.93 10.73,8.8 14.24,14.63 3.54,5.79 5.27,12.57 5.27,20.26 0,5.76 -1.02,11.43 -3.05,17.17 -2.07,5.74 -5.21,10.66 -9.46,14.76 -4.26,4.09 -9.57,7.29 -15.83,9.57 -6.31,2.3 -16.38,3.43 -30.08,3.43l0 1.74c8.36,1.81 15.35,3.56 20.93,5.19 5.71,1.63 10.78,4.03 15.37,7.14 4.58,3.14 8.73,7.77 12.39,13.92 3.73,6.18 6.67,12.91 9,20.22 2.33,7.31 4.36,12.49 6.13,15.53 1.78,3.04 4.35,4.55 7.61,4.55 4.25,0 7.09,-2.72 8.46,-8.23 1.41,-5.49 2.12,-11.75 2.12,-18.77l3.91 0c0,8.01 -0.46,14.42 -1.48,19.14 -0.96,4.77 -3.43,9.71 -7.34,14.89 -3.96,5.14 -9.57,9.32 -16.81,12.51 -7.29,3.19 -15.2,4.79 -23.76,4.79 -13.22,0 -23.85,-3.81 -31.77,-11.47 -7.96,-7.61 -12.88,-17.63 -14.73,-30.01 -1.93,-12.4 -3.4,-22.86 -4.57,-31.39 -1.78,-9.54 -4.15,-15.09 -7.09,-16.64 -2.93,-1.55 -6.13,-2.43 -9.61,-2.59 -3.44,-0.18 -6.85,-0.26 -10.29,-0.26z"/>
    <path id="1" class="fil0" d="M2870.16 2971.16c6.23,-0.99 10.9,-5.49 14.09,-13.52 3.18,-8.01 4.84,-16.94 4.84,-26.77 0,-8.01 -1.71,-15.92 -4.94,-23.67 -3.26,-7.8 -7.24,-12.35 -11.82,-13.66 -4.6,-1.31 -8.64,-2.05 -12.26,-2.2 -3.6,-0.17 -6.83,-0.34 -9.57,-0.51l0 81.06 8.36 0c4.6,0 8.36,-0.22 11.3,-0.71zm-19.65 5.13l0 57.48 0.49 11.3c0.47,5.23 1.83,9 3.91,11.3 2.13,2.32 5.74,3.79 10.81,4.41l12.55 1 0 3.93 -117.9 0 0 -3.93 7.56 0c3.63,-0.5 7.05,-0.95 10.39,-1.36 3.23,-0.39 5.84,-1.63 7.68,-3.69 1.89,-2.04 3.08,-5.68 3.62,-10.9l0.44 -11.31 0 -116.41 -0.44 -11.31c-0.54,-5.26 -1.73,-8.92 -3.72,-11.05 -1.98,-2.16 -4.75,-3.44 -8.36,-3.93 -3.59,-0.5 -6.72,-0.79 -9.33,-0.88 -2.64,-0.08 -5.06,-0.18 -7.38,-0.34l0 -3.93 109.81 -0.25c15.24,0 27.56,0.65 37.07,1.98 9.5,1.28 17.23,3.93 23.22,7.84 5.98,3.93 10.73,8.8 14.24,14.63 3.54,5.79 5.27,12.57 5.27,20.26 0,5.76 -1.02,11.43 -3.05,17.17 -2.07,5.74 -5.21,10.66 -9.46,14.76 -4.26,4.09 -9.57,7.29 -15.83,9.57 -6.31,2.3 -16.38,3.43 -30.08,3.43l0 1.74c8.36,1.81 15.35,3.56 20.93,5.19 5.71,1.63 10.78,4.03 15.37,7.14 4.58,3.14 8.73,7.77 12.39,13.92 3.73,6.18 6.67,12.91 9,20.22 2.33,7.31 4.36,12.49 6.13,15.53 1.78,3.04 4.35,4.55 7.61,4.55 4.25,0 7.09,-2.72 8.46,-8.23 1.41,-5.49 2.12,-11.75 2.12,-18.77l3.91 0c0,8.01 -0.46,14.42 -1.48,19.14 -0.96,4.77 -3.43,9.71 -7.34,14.89 -3.96,5.14 -9.57,9.32 -16.81,12.51 -7.29,3.19 -15.2,4.79 -23.76,4.79 -13.22,0 -23.85,-3.81 -31.77,-11.47 -7.96,-7.61 -12.88,-17.63 -14.73,-30.01 -1.93,-12.4 -3.4,-22.86 -4.57,-31.39 -1.78,-9.54 -4.15,-15.09 -7.09,-16.64 -2.93,-1.55 -6.13,-2.43 -9.61,-2.59 -3.44,-0.18 -6.85,-0.26 -10.29,-0.26z"/>
   </g>
   <g>
    <path class="fil1 str2" d="M3162.54 3045.49c-28.15,0 -51.26,-8.76 -69.38,-26.19 -18.09,-17.43 -27.11,-39.47 -27.11,-66.17 0,-27.34 8.96,-49.57 26.89,-66.7 17.94,-17.1 41.08,-25.66 69.36,-25.66 12.11,0 22.59,2.06 31.44,6.13l26.01 14.77c4.94,0 8.2,-1.68 9.86,-5.04 1.63,-3.36 2.8,-8.16 3.44,-14.36l4.91 0 0 77.62 -4.15 0c-7.24,-20 -12.35,-33.5 -15.36,-40.54 -3.04,-7.03 -8.09,-13.84 -15.12,-20.41 -7.05,-6.55 -16.07,-9.81 -27.02,-9.81 -14.26,0 -24.83,8 -31.69,24.05 -6.85,16.04 -10.33,34.81 -10.33,56.27 0,23.08 4.15,43.07 12.41,60.05 8.24,16.92 20.45,25.4 36.46,25.4 14.91,0 26.9,-5.38 35.87,-16.2 9.02,-10.82 15.02,-24.88 17.98,-42.26l4.15 0.74c-2.32,19.63 -9.77,35.94 -22.38,48.9 -12.58,12.92 -31.32,19.4 -56.25,19.4z"/>
    <path id="1" class="fil0" d="M3162.54 3045.49c-28.15,0 -51.26,-8.76 -69.38,-26.19 -18.09,-17.43 -27.11,-39.47 -27.11,-66.17 0,-27.34 8.96,-49.57 26.89,-66.7 17.94,-17.1 41.08,-25.66 69.36,-25.66 12.11,0 22.59,2.06 31.44,6.13l26.01 14.77c4.94,0 8.2,-1.68 9.86,-5.04 1.63,-3.36 2.8,-8.16 3.44,-14.36l4.91 0 0 77.62 -4.15 0c-7.24,-20 -12.35,-33.5 -15.36,-40.54 -3.04,-7.03 -8.09,-13.84 -15.12,-20.41 -7.05,-6.55 -16.07,-9.81 -27.02,-9.81 -14.26,0 -24.83,8 -31.69,24.05 -6.85,16.04 -10.33,34.81 -10.33,56.27 0,23.08 4.15,43.07 12.41,60.05 8.24,16.92 20.45,25.4 36.46,25.4 14.91,0 26.9,-5.38 35.87,-16.2 9.02,-10.82 15.02,-24.88 17.98,-42.26l4.15 0.74c-2.32,19.63 -9.77,35.94 -22.38,48.9 -12.58,12.92 -31.32,19.4 -56.25,19.4z"/>
   </g>
   <g>
    <path class="fil1 str2" d="M3332.26 2981.38l-21.58 -60.42 -20.86 60.42 42.45 0zm-44.18 5.16l-7.64 25.53c-1.63,5.89 -2.44,10.58 -2.44,14.02 0,3.77 0.95,6.36 2.83,7.87 1.89,1.45 4.31,2.48 7.25,3.06 2.95,0.57 5.78,0.94 8.6,1.09 2.73,0.2 5.44,0.34 8.12,0.46l0 3.98 -69.55 0 0 -3.98 14.59 -0.96c5.46,-0.64 9.56,-2 12.35,-4.05 2.8,-2.03 4.86,-4.62 6.28,-7.72 1.41,-3.1 2.98,-6.83 4.67,-11.05 1.75,-4.28 3.19,-8.12 4.35,-11.54l46.89 -140.51 27.01 0 51.83 140.51 7.64 19.13c2.24,5.1 4.61,8.72 6.99,10.95 2.43,2.2 5.69,3.64 9.94,4.28l10.09 0.96 0 3.98 -116.68 0 0 -3.98c1.98,0 3.7,0 5.31,-0.08 1.54,-0.1 4.37,-0.48 8.44,-1.11 4.09,-0.67 7.06,-1.53 8.84,-2.62 1.83,-1.04 2.69,-3.29 2.69,-6.69 0,-3.64 -1.11,-8.8 -3.44,-15.5l-8.83 -26.04 -46.15 0z"/>
    <path id="1" class="fil0" d="M3332.26 2981.38l-21.58 -60.42 -20.86 60.42 42.45 0zm-44.18 5.16l-7.64 25.53c-1.63,5.89 -2.44,10.58 -2.44,14.02 0,3.77 0.95,6.36 2.83,7.87 1.89,1.45 4.31,2.48 7.25,3.06 2.95,0.57 5.78,0.94 8.6,1.09 2.73,0.2 5.44,0.34 8.12,0.46l0 3.98 -69.55 0 0 -3.98 14.59 -0.96c5.46,-0.64 9.56,-2 12.35,-4.05 2.8,-2.03 4.86,-4.62 6.28,-7.72 1.41,-3.1 2.98,-6.83 4.67,-11.05 1.75,-4.28 3.19,-8.12 4.35,-11.54l46.89 -140.51 27.01 0 51.83 140.51 7.64 19.13c2.24,5.1 4.61,8.72 6.99,10.95 2.43,2.2 5.69,3.64 9.94,4.28l10.09 0.96 0 3.98 -116.68 0 0 -3.98c1.98,0 3.7,0 5.31,-0.08 1.54,-0.1 4.37,-0.48 8.44,-1.11 4.09,-0.67 7.06,-1.53 8.84,-2.62 1.83,-1.04 2.69,-3.29 2.69,-6.69 0,-3.64 -1.11,-8.8 -3.44,-15.5l-8.83 -26.04 -46.15 0z"/>
   </g>
   <g>
    <path class="fil1 str2" d="M3568.07 2912.61c0,-9.32 -1.26,-18.42 -3.7,-27.3 -2.48,-8.8 -6.18,-13.95 -11.18,-15.33 -5.03,-1.41 -9.84,-2.12 -14.46,-2.2 -4.7,-0.08 -8.2,-0.13 -10.49,-0.13l0 91.85c3.32,-0.18 6.65,-0.33 10.09,-0.5 3.44,-0.13 8,-0.77 13.62,-1.81 5.69,-1.09 9.74,-6.01 12.31,-14.76 2.5,-8.74 3.81,-18.71 3.81,-29.84zm-9.84 129.92l-119.84 0 0 -3.96 7.64 0c3.42,-0.46 6.76,-0.91 10.04,-1.33 3.28,-0.39 5.83,-1.62 7.71,-3.68 1.88,-2.03 3.1,-5.69 3.59,-10.9l0.47 -11.3 0 -116.43 -0.47 -11.3c-0.49,-5.27 -1.76,-8.93 -3.68,-11.07 -1.98,-2.12 -4.73,-3.41 -8.27,-3.93 -3.51,-0.47 -6.69,-0.77 -9.53,-0.84 -2.92,-0.08 -5.46,-0.2 -7.74,-0.38l0 -3.93 114.68 -0.25c26.69,0 44.42,2.96 53.2,8.83 8.76,5.9 14.89,12.26 18.3,19.04 3.44,6.79 5.12,14.14 5.12,21.99 0,7.36 -1.08,14.42 -3.42,21.12 -2.27,6.72 -5.8,12.26 -10.58,16.56 -4.72,4.35 -10.63,7.59 -17.67,9.72 -7.05,2.16 -16.13,3.19 -27.27,3.19 -10.63,0 -19.24,0.05 -25.79,0.12 -6.51,0.1 -12.04,0.22 -16.46,0.37l0 47.2 0.51 11.3c0.5,5.22 1.67,8.88 3.54,10.9 1.88,2.06 4.62,3.31 8.26,3.8 3.57,0.51 7.1,0.81 10.54,0.9 3.46,0.03 5.83,0.17 7.14,0.31l0 3.96z"/>
    <path id="1" class="fil0" d="M3568.07 2912.61c0,-9.32 -1.26,-18.42 -3.7,-27.3 -2.48,-8.8 -6.18,-13.95 -11.18,-15.33 -5.03,-1.41 -9.84,-2.12 -14.46,-2.2 -4.7,-0.08 -8.2,-0.13 -10.49,-0.13l0 91.85c3.32,-0.18 6.65,-0.33 10.09,-0.5 3.44,-0.13 8,-0.77 13.62,-1.81 5.69,-1.09 9.74,-6.01 12.31,-14.76 2.5,-8.74 3.81,-18.71 3.81,-29.84zm-9.84 129.92l-119.84 0 0 -3.96 7.64 0c3.42,-0.46 6.76,-0.91 10.04,-1.33 3.28,-0.39 5.83,-1.62 7.71,-3.68 1.88,-2.03 3.1,-5.69 3.59,-10.9l0.47 -11.3 0 -116.43 -0.47 -11.3c-0.49,-5.27 -1.76,-8.93 -3.68,-11.07 -1.98,-2.12 -4.73,-3.41 -8.27,-3.93 -3.51,-0.47 -6.69,-0.77 -9.53,-0.84 -2.92,-0.08 -5.46,-0.2 -7.74,-0.38l0 -3.93 114.68 -0.25c26.69,0 44.42,2.96 53.2,8.83 8.76,5.9 14.89,12.26 18.3,19.04 3.44,6.79 5.12,14.14 5.12,21.99 0,7.36 -1.08,14.42 -3.42,21.12 -2.27,6.72 -5.8,12.26 -10.58,16.56 -4.72,4.35 -10.63,7.59 -17.67,9.72 -7.05,2.16 -16.13,3.19 -27.27,3.19 -10.63,0 -19.24,0.05 -25.79,0.12 -6.51,0.1 -12.04,0.22 -16.46,0.37l0 47.2 0.51 11.3c0.5,5.22 1.67,8.88 3.54,10.9 1.88,2.06 4.62,3.31 8.26,3.8 3.57,0.51 7.1,0.81 10.54,0.9 3.46,0.03 5.83,0.17 7.14,0.31l0 3.96z"/>
   </g>
   <g>
    <path class="fil1 str2" d="M3796.98 2989.97c0,16.19 -6.84,29.49 -20.57,39.93 -13.72,10.37 -28.58,15.6 -44.67,15.6 -14.08,0 -28.03,-4.48 -41.8,-13.4 -13.77,-8.9 -21.74,-13.38 -23.86,-13.38 -5.42,0 -8.77,2.03 -10.09,6.14 -1.35,4.08 -2.56,10.96 -3.73,20.65l-4.14 0 0 -87.97 4.14 0c1.04,3.48 2.67,9.13 5.1,16.98 2.34,7.82 6.74,17.22 13.23,28.11 6.44,10.87 15.01,19.92 25.53,27.14 10.58,7.19 22.85,10.8 36.74,10.8 8,0 14.58,-2.13 19.65,-6.38 5.06,-4.28 7.64,-9.34 7.64,-15.22 0,-7.03 -1.87,-12.63 -5.66,-16.71 -3.76,-4.09 -10.55,-8.09 -20.41,-11.9 -9.79,-3.89 -20.18,-8.03 -31.2,-12.4 -10.94,-4.44 -22.54,-10.44 -34.85,-17.95 -12.26,-7.37 -18.39,-21.29 -18.39,-41.73 0,-16.07 6.43,-29.67 19.36,-40.79 12.96,-11.14 27.86,-16.72 44.71,-16.72 9.33,0 18.45,2.23 27.26,6.62l25.57 14.28c4.73,0 7.81,-2.02 9.32,-6.04 1.43,-4 2.2,-8.94 2.2,-14.85l4.7 0 0 65.09 -4.45 0c-0.81,-2.8 -2.49,-7.51 -5.01,-14.24 -2.55,-6.72 -7.44,-14.27 -14.69,-22.6 -7.29,-8.35 -14.49,-14.39 -21.59,-18.07 -7.1,-3.66 -15.65,-5.51 -25.58,-5.51 -6.7,0 -12.88,1.95 -18.64,5.91 -5.68,3.93 -8.55,8.82 -8.55,14.71 0,6.25 2.17,11.42 6.52,15.59 4.35,4.18 9.33,7.52 14.98,9.97 5.65,2.44 13.48,5.55 23.41,9.32 10.04,3.75 20.37,8.16 31.1,13.15 10.7,4.98 19.55,12.26 26.41,21.86 6.84,9.59 10.33,20.93 10.33,34.02z"/>
    <path id="1" class="fil0" d="M3796.98 2989.97c0,16.19 -6.84,29.49 -20.57,39.93 -13.72,10.37 -28.58,15.6 -44.67,15.6 -14.08,0 -28.03,-4.48 -41.8,-13.4 -13.77,-8.9 -21.74,-13.38 -23.86,-13.38 -5.42,0 -8.77,2.03 -10.09,6.14 -1.35,4.08 -2.56,10.96 -3.73,20.65l-4.14 0 0 -87.97 4.14 0c1.04,3.48 2.67,9.13 5.1,16.98 2.34,7.82 6.74,17.22 13.23,28.11 6.44,10.87 15.01,19.92 25.53,27.14 10.58,7.19 22.85,10.8 36.74,10.8 8,0 14.58,-2.13 19.65,-6.38 5.06,-4.28 7.64,-9.34 7.64,-15.22 0,-7.03 -1.87,-12.63 -5.66,-16.71 -3.76,-4.09 -10.55,-8.09 -20.41,-11.9 -9.79,-3.89 -20.18,-8.03 -31.2,-12.4 -10.94,-4.44 -22.54,-10.44 -34.85,-17.95 -12.26,-7.37 -18.39,-21.29 -18.39,-41.73 0,-16.07 6.43,-29.67 19.36,-40.79 12.96,-11.14 27.86,-16.72 44.71,-16.72 9.33,0 18.45,2.23 27.26,6.62l25.57 14.28c4.73,0 7.81,-2.02 9.32,-6.04 1.43,-4 2.2,-8.94 2.2,-14.85l4.7 0 0 65.09 -4.45 0c-0.81,-2.8 -2.49,-7.51 -5.01,-14.24 -2.55,-6.72 -7.44,-14.27 -14.69,-22.6 -7.29,-8.35 -14.49,-14.39 -21.59,-18.07 -7.1,-3.66 -15.65,-5.51 -25.58,-5.51 -6.7,0 -12.88,1.95 -18.64,5.91 -5.68,3.93 -8.55,8.82 -8.55,14.71 0,6.25 2.17,11.42 6.52,15.59 4.35,4.18 9.33,7.52 14.98,9.97 5.65,2.44 13.48,5.55 23.41,9.32 10.04,3.75 20.37,8.16 31.1,13.15 10.7,4.98 19.55,12.26 26.41,21.86 6.84,9.59 10.33,20.93 10.33,34.02z"/>
   </g>
   <g>
    <path class="fil1 str2" d="M4019.72 2867.41c-2.08,0.18 -4.55,0.34 -7.25,0.5 -2.64,0.14 -6.27,0.54 -10.78,1.23 -4.53,0.64 -7.96,2.62 -10.31,5.88 -2.37,3.26 -3.83,7.51 -4.3,12.79l-0.49 11.77 0 72.95 -0.53 12.31c-2.42,22.61 -8.54,38.34 -18.38,47.27 -9.81,8.92 -25.07,13.4 -45.7,13.4 -27.18,0 -48.13,-5.18 -62.91,-15.48 -14.73,-10.3 -22.08,-23.19 -22.08,-38.59l0 -96.76 -0.46 -11.32c-0.5,-5.22 -1.6,-8.87 -3.34,-10.9 -1.73,-2.03 -5.12,-3.42 -10.18,-4.05l-10.33 -0.99 0 -3.93 114.94 0 0 3.93c-2.12,0.18 -4.52,0.3 -7.24,0.37 -2.69,0.1 -6.18,0.4 -10.41,0.96 -4.3,0.59 -7.19,1.79 -8.9,3.59 -1.58,1.81 -2.64,5.46 -3.18,11.02l-0.47 11.32 0 98.46c0,2 0.1,4.35 0.25,7.14 0.17,2.8 0.71,7.11 1.63,12.92 0.87,5.81 4.15,11.54 9.78,17.18 5.67,5.66 13.39,8.44 23.25,8.44 13.72,0 24.07,-3.49 31.05,-10.42 6.94,-6.95 11.62,-14.94 13.99,-23.95 2.36,-9 3.68,-16.69 3.81,-23.07l0.25 -11.55 0 -71.24 -0.47 -11.77c-0.49,-5.38 -1.85,-9.49 -4.05,-12.29 -2.22,-2.76 -5.56,-4.54 -9.97,-5.26 -4.42,-0.76 -8.1,-1.21 -11.05,-1.35 -2.95,-0.15 -5.73,-0.32 -8.36,-0.5l0 -3.93 72.19 0 0 3.93z"/>
    <path id="1" class="fil0" d="M4019.72 2867.41c-2.08,0.18 -4.55,0.34 -7.25,0.5 -2.64,0.14 -6.27,0.54 -10.78,1.23 -4.53,0.64 -7.96,2.62 -10.31,5.88 -2.37,3.26 -3.83,7.51 -4.3,12.79l-0.49 11.77 0 72.95 -0.53 12.31c-2.42,22.61 -8.54,38.34 -18.38,47.27 -9.81,8.92 -25.07,13.4 -45.7,13.4 -27.18,0 -48.13,-5.18 -62.91,-15.48 -14.73,-10.3 -22.08,-23.19 -22.08,-38.59l0 -96.76 -0.46 -11.32c-0.5,-5.22 -1.6,-8.87 -3.34,-10.9 -1.73,-2.03 -5.12,-3.42 -10.18,-4.05l-10.33 -0.99 0 -3.93 114.94 0 0 3.93c-2.12,0.18 -4.52,0.3 -7.24,0.37 -2.69,0.1 -6.18,0.4 -10.41,0.96 -4.3,0.59 -7.19,1.79 -8.9,3.59 -1.58,1.81 -2.64,5.46 -3.18,11.02l-0.47 11.32 0 98.46c0,2 0.1,4.35 0.25,7.14 0.17,2.8 0.71,7.11 1.63,12.92 0.87,5.81 4.15,11.54 9.78,17.18 5.67,5.66 13.39,8.44 23.25,8.44 13.72,0 24.07,-3.49 31.05,-10.42 6.94,-6.95 11.62,-14.94 13.99,-23.95 2.36,-9 3.68,-16.69 3.81,-23.07l0.25 -11.55 0 -71.24 -0.47 -11.77c-0.49,-5.38 -1.85,-9.49 -4.05,-12.29 -2.22,-2.76 -5.56,-4.54 -9.97,-5.26 -4.42,-0.76 -8.1,-1.21 -11.05,-1.35 -2.95,-0.15 -5.73,-0.32 -8.36,-0.5l0 -3.93 72.19 0 0 3.93z"/>
   </g>
   <g>
    <path class="fil1 str2" d="M4132.98 3036.87c9.78,0 19.56,-4.49 29.31,-13.49 9.75,-8.99 18.35,-19.4 25.81,-31.2 7.43,-11.78 14.21,-24.22 20.25,-37.32l3.91 0 0 87.68 -192.04 0 0 -3.96c1.31,0 3.14,0 5.52,-0.1 2.36,-0.07 5.97,-0.41 10.82,-0.99 4.82,-0.57 8.31,-1.92 10.42,-4.05 2.12,-2.16 3.43,-5.71 3.97,-10.78l0.47 -11.3 0 -116.69 -0.47 -11.32c-0.54,-5.22 -1.65,-8.87 -3.33,-10.9 -1.72,-2.03 -4.4,-3.32 -7.96,-3.83 -3.64,-0.47 -6.73,-0.75 -9.37,-0.85 -2.62,-0.07 -4.97,-0.19 -7.15,-0.37l0 -3.93 118.91 0 0 3.93 -16.21 0.75c-4.93,0.47 -8.27,1.7 -10.09,3.68 -1.8,1.95 -2.94,5.66 -3.44,11.05l-0.46 11.3 0 143.42 21.13 -0.75z"/>
    <path id="1" class="fil0" d="M4132.98 3036.87c9.78,0 19.56,-4.49 29.31,-13.49 9.75,-8.99 18.35,-19.4 25.81,-31.2 7.43,-11.78 14.21,-24.22 20.25,-37.32l3.91 0 0 87.68 -192.04 0 0 -3.96c1.31,0 3.14,0 5.52,-0.1 2.36,-0.07 5.97,-0.41 10.82,-0.99 4.82,-0.57 8.31,-1.92 10.42,-4.05 2.12,-2.16 3.43,-5.71 3.97,-10.78l0.47 -11.3 0 -116.69 -0.47 -11.32c-0.54,-5.22 -1.65,-8.87 -3.33,-10.9 -1.72,-2.03 -4.4,-3.32 -7.96,-3.83 -3.64,-0.47 -6.73,-0.75 -9.37,-0.85 -2.62,-0.07 -4.97,-0.19 -7.15,-0.37l0 -3.93 118.91 0 0 3.93 -16.21 0.75c-4.93,0.47 -8.27,1.7 -10.09,3.68 -1.8,1.95 -2.94,5.66 -3.44,11.05l-0.46 11.3 0 143.42 21.13 -0.75z"/>
   </g>
   <g>
    <path class="fil1 str2" d="M4312.99 3037.63c6.84,-0.18 13.93,-0.3 21.13,-0.38 7.19,-0.1 14.84,-0.65 22.84,-1.71 8.04,-1.06 17.91,-9.16 29.69,-24.31 11.78,-15.16 20.49,-30.76 26.03,-46.78l3.96 0 0 78.09 -193.07 0 0 -3.97c2.17,0 4.57,-0.09 7.39,-0.33 2.79,-0.22 5.93,-0.58 9.44,-0.99 3.53,-0.4 6.22,-1.63 8.13,-3.69 1.87,-2.03 3.08,-5.71 3.56,-10.9l0.5 -11.3 0 -116.43 -0.5 -11.3c-0.47,-5.26 -1.73,-8.92 -3.7,-11.07 -1.93,-2.12 -4.7,-3.41 -8.21,-3.93 -3.53,-0.47 -6.72,-0.77 -9.57,-0.87 -2.88,-0.07 -5.46,-0.17 -7.74,-0.34l0 -3.93 188.85 0 0 72.68 -3.91 0c-8.35,-18.32 -18.48,-33.77 -30.45,-46.27 -11.99,-12.52 -21.97,-19.2 -30.08,-20.04 -8.12,-0.81 -14.98,-1.3 -20.53,-1.47 -5.55,-0.16 -9.26,-0.23 -11.07,-0.23l-2.2 0 -0.49 80.54 10.33 -0.47c9.52,-0.99 16.67,-5.46 21.48,-13.4 4.83,-7.93 7.25,-17.3 7.25,-28.13l4.69 0 0 89.41 -4.69 0c0,-10.98 -2.42,-20.54 -7.25,-28.73 -4.81,-8.2 -11.96,-12.78 -21.48,-13.77l-10.33 -0.46 0 84.48z"/>
    <path id="1" class="fil0" d="M4312.99 3037.63c6.84,-0.18 13.93,-0.3 21.13,-0.38 7.19,-0.1 14.84,-0.65 22.84,-1.71 8.04,-1.06 17.91,-9.16 29.69,-24.31 11.78,-15.16 20.49,-30.76 26.03,-46.78l3.96 0 0 78.09 -193.07 0 0 -3.97c2.17,0 4.57,-0.09 7.39,-0.33 2.79,-0.22 5.93,-0.58 9.44,-0.99 3.53,-0.4 6.22,-1.63 8.13,-3.69 1.87,-2.03 3.08,-5.71 3.56,-10.9l0.5 -11.3 0 -116.43 -0.5 -11.3c-0.47,-5.26 -1.73,-8.92 -3.7,-11.07 -1.93,-2.12 -4.7,-3.41 -8.21,-3.93 -3.53,-0.47 -6.72,-0.77 -9.57,-0.87 -2.88,-0.07 -5.46,-0.17 -7.74,-0.34l0 -3.93 188.85 0 0 72.68 -3.91 0c-8.35,-18.32 -18.48,-33.77 -30.45,-46.27 -11.99,-12.52 -21.97,-19.2 -30.08,-20.04 -8.12,-0.81 -14.98,-1.3 -20.53,-1.47 -5.55,-0.16 -9.26,-0.23 -11.07,-0.23l-2.2 0 -0.49 80.54 10.33 -0.47c9.52,-0.99 16.67,-5.46 21.48,-13.4 4.83,-7.93 7.25,-17.3 7.25,-28.13l4.69 0 0 89.41 -4.69 0c0,-10.98 -2.42,-20.54 -7.25,-28.73 -4.81,-8.2 -11.96,-12.78 -21.48,-13.77l-10.33 -0.46 0 84.48z"/>
   </g>
   <g>
    <path class="fil1 str2" d="M4595.19 2989.97c0,16.19 -6.84,29.49 -20.52,39.93 -13.72,10.37 -28.57,15.6 -44.67,15.6 -14.09,0 -28.03,-4.48 -41.8,-13.4 -13.82,-8.9 -21.73,-13.38 -23.86,-13.38 -5.46,0 -8.77,2.03 -10.14,6.14 -1.31,4.08 -2.52,10.96 -3.69,20.65l-4.17 0 0 -87.97 4.17 0c1,3.48 2.68,9.13 5.06,16.98 2.34,7.82 6.79,17.22 13.28,28.11 6.44,10.87 14.95,19.92 25.53,27.14 10.58,7.19 22.79,10.8 36.73,10.8 7.96,0 14.54,-2.13 19.6,-6.38 5.12,-4.28 7.64,-9.34 7.64,-15.22 0,-7.03 -1.88,-12.63 -5.66,-16.71 -3.76,-4.09 -10.52,-8.09 -20.37,-11.9 -9.84,-3.89 -20.23,-8.03 -31.2,-12.4 -10.96,-4.44 -22.6,-10.44 -34.86,-17.95 -12.32,-7.37 -18.44,-21.29 -18.44,-41.73 0,-16.07 6.47,-29.67 19.4,-40.79 12.95,-11.14 27.81,-16.72 44.72,-16.72 9.32,0 18.4,2.23 27.22,6.62l25.61 14.28c4.72,0 7.82,-2.02 9.29,-6.04 1.46,-4 2.19,-8.94 2.19,-14.85l4.69 0 0 65.09 -4.45 0c-0.76,-2.8 -2.44,-7.51 -4.97,-14.24 -2.56,-6.72 -7.45,-14.27 -14.73,-22.6 -7.24,-8.35 -14.43,-14.39 -21.53,-18.07 -7.15,-3.66 -15.65,-5.51 -25.64,-5.51 -6.65,0 -12.88,1.95 -18.6,5.91 -5.73,3.93 -8.59,8.82 -8.59,14.71 0,6.25 2.16,11.42 6.51,15.59 4.36,4.18 9.33,7.52 14.99,9.97 5.64,2.44 13.47,5.55 23.46,9.32 9.99,3.75 20.33,8.16 31.1,13.15 10.7,4.98 19.5,12.26 26.34,21.86 6.91,9.59 10.34,20.93 10.34,34.02z"/>
    <path id="1" class="fil0" d="M4595.19 2989.97c0,16.19 -6.84,29.49 -20.52,39.93 -13.72,10.37 -28.57,15.6 -44.67,15.6 -14.09,0 -28.03,-4.48 -41.8,-13.4 -13.82,-8.9 -21.73,-13.38 -23.86,-13.38 -5.46,0 -8.77,2.03 -10.14,6.14 -1.31,4.08 -2.52,10.96 -3.69,20.65l-4.17 0 0 -87.97 4.17 0c1,3.48 2.68,9.13 5.06,16.98 2.34,7.82 6.79,17.22 13.28,28.11 6.44,10.87 14.95,19.92 25.53,27.14 10.58,7.19 22.79,10.8 36.73,10.8 7.96,0 14.54,-2.13 19.6,-6.38 5.12,-4.28 7.64,-9.34 7.64,-15.22 0,-7.03 -1.88,-12.63 -5.66,-16.71 -3.76,-4.09 -10.52,-8.09 -20.37,-11.9 -9.84,-3.89 -20.23,-8.03 -31.2,-12.4 -10.96,-4.44 -22.6,-10.44 -34.86,-17.95 -12.32,-7.37 -18.44,-21.29 -18.44,-41.73 0,-16.07 6.47,-29.67 19.4,-40.79 12.95,-11.14 27.81,-16.72 44.72,-16.72 9.32,0 18.4,2.23 27.22,6.62l25.61 14.28c4.72,0 7.82,-2.02 9.29,-6.04 1.46,-4 2.19,-8.94 2.19,-14.85l4.69 0 0 65.09 -4.45 0c-0.76,-2.8 -2.44,-7.51 -4.97,-14.24 -2.56,-6.72 -7.45,-14.27 -14.73,-22.6 -7.24,-8.35 -14.43,-14.39 -21.53,-18.07 -7.15,-3.66 -15.65,-5.51 -25.64,-5.51 -6.65,0 -12.88,1.95 -18.6,5.91 -5.73,3.93 -8.59,8.82 -8.59,14.71 0,6.25 2.16,11.42 6.51,15.59 4.36,4.18 9.33,7.52 14.99,9.97 5.64,2.44 13.47,5.55 23.46,9.32 9.99,3.75 20.33,8.16 31.1,13.15 10.7,4.98 19.5,12.26 26.34,21.86 6.91,9.59 10.34,20.93 10.34,34.02z"/>
   </g>
   <path class="fil0" d="M754.26 1242.49c0,-49.66 42.51,-129.45 150.55,-129.45 95.77,0 193.31,58.52 228.75,70.93l56.71 -179c-39.01,-14.17 -134.79,-76.23 -311.93,-76.23 -235.77,0 -374.07,129.35 -374.07,336.77 0,343.91 439.67,349.23 439.67,545.96 0,92.16 -88.7,132.91 -173.77,132.91 -95.66,0 -193.17,-58.49 -228.63,-70.93l-56.82 179.08c39.17,14.16 143.6,86.85 320.93,86.85 257,0 388.12,-131.18 388.12,-350.96 0,-327.98 -439.51,-331.48 -439.51,-545.95z"/>
   <path class="fil0" d="M1649.3 1933.76c-53.26,0 -69.12,-37.24 -69.12,-115.2l0 -437.82 194.95 0 0 -175.53 -194.95 0 0 -255.25 -237.65 35.48 0 219.76 -97.39 0 0 175.53 97.39 0 0 471.45c0,207.43 62.07,285.43 227.05,285.43 115.19,0 186.12,-49.64 214.35,-60.33l-22.91 -170.07c-10.74,1.67 -58.56,26.53 -111.71,26.53z"/>
   <path class="fil0" d="M2319.22 1887.67c-17.66,24.86 -56.74,76.23 -131.24,76.23 -70.93,0 -102.72,-47.8 -102.72,-129.41 0,-111.65 53.14,-148.87 186.12,-148.87 15.93,1.75 31.79,1.75 47.83,1.75l0 200.3zm17.67 228.7l219.84 0 0 -577.91c0,-239.27 -108.15,-352.72 -349.21,-352.72 -116.93,0 -233.92,35.45 -288.97,54.95l26.67 163.08c47.83,-15.94 141.76,-38.95 221.58,-38.95 88.53,0 152.41,19.47 152.41,166.58l0 21.28 -40.76 -3.54c-281.92,0 -423.7,88.66 -423.7,313.68 0,191.48 110,274.77 242.87,274.77 143.62,0 205.55,-97.52 226.9,-120.51 5.3,33.66 8.8,65.56 12.36,99.27z"/>
   <path class="fil0" d="M3109.76 2167.76l299.46 -962.51 -241.02 0c-28.4,108.07 -122.3,503.37 -150.66,655.85 -26.67,-148.91 -122.32,-547.78 -148.91,-655.85l-249.88 0 287.09 930.57c-71.22,171.54 -231.97,284.82 -333.95,358.94l286.37 0c71.82,-64.53 184.73,-163.68 251.49,-327z"/>
   <polygon class="fil0" points="3471.18,1715.77 3909.05,1715.77 3909.05,1524.33 3471.18,1524.33 "/>
   <path class="fil0" d="M4476.24 1942.58c-136.55,0 -191.44,-150.64 -191.44,-409.4 0,-258.79 56.69,-407.64 191.44,-407.64 136.41,0 194.93,148.85 194.93,407.64 0,258.76 -56.75,409.4 -194.93,409.4zm0 -1013.84c-285.4,0 -444.94,191.43 -444.94,604.44 0,413.04 159.53,606.22 444.94,606.22 287.08,0 446.54,-193.17 446.54,-606.22 0,-413.01 -159.46,-604.44 -446.54,-604.44z"/>
   <path class="fil0" d="M5568 1185.77c-150.68,0 -242.91,113.44 -267.75,136.49l-3.43 0 -10.74 -117.03 -210.82 0 0 911.12 237.49 0 0 -623.96c21.17,-24.78 81.49,-99.27 154.17,-99.27 72.68,0 94.02,37.21 94.02,168.39l0 554.84 239.27 0 0 -613.28c0,-214.47 -65.62,-317.31 -232.21,-317.31z"/>
  </g>
 </g>
</svg>
