<?xml version="1.0" encoding="UTF-8"?>
<!DOCTYPE svg PUBLIC "-//W3C//DTD SVG 1.1//EN" "http://www.w3.org/Graphics/SVG/1.1/DTD/svg11.dtd">
<!-- Creator: CorelDRAW 2017 -->
<svg xmlns="http://www.w3.org/2000/svg" xml:space="preserve" width="105.021mm" height="42.3034mm" version="1.1" style="shape-rendering:geometricPrecision; text-rendering:geometricPrecision; image-rendering:optimizeQuality; fill-rule:evenodd; clip-rule:evenodd"
viewBox="0 0 12342.93 4971.85"
 xmlns:xlink="http://www.w3.org/1999/xlink">
 <defs>
  <style type="text/css">
   <![CDATA[
    .fil2 {fill:none}
    .fil6 {fill:#2B2A29}
    .fil3 {fill:#FBBD00}
    .fil4 {fill:#C12627}
    .fil1 {fill:#698E37}
    .fil5 {fill:#2B2A29;fill-rule:nonzero}
    .fil0 {fill:#1C1B17;fill-rule:nonzero}
   ]]>
  </style>
 </defs>
 <g id="Layer_x0020_1">
  <metadata id="CorelCorpID_0Corel-Layer"/>
  <g id="_2551621845856">
   <g>
    <g>
     <g>
      <path class="fil0" d="M1133.82 3323.99c-33.47,14.66 -79.5,26.39 -138.06,35.19 -58.58,8.8 -121.35,13.2 -188.28,13.2 -119.94,0 -229.4,-19.05 -328.42,-57.18 -99.02,-38.13 -184.1,-93.12 -255.21,-164.96 -71.13,-71.85 -126.21,-160.54 -165.26,-266.12 -39.05,-105.58 -58.59,-227.28 -58.59,-365.1l0 -1878.27 569 0 0 629.02 502.06 0 0 461.86 -502.06 0 0 787.38c0,99.7 25.81,182.55 77.4,248.54 51.61,65.98 124.82,98.97 219.64,98.97 58.59,0 108.09,-4.41 148.53,-13.2 40.45,-8.8 80.19,-20.53 119.24,-35.19l0 505.85zm250.49 48.39l0 -2102.61 568.98 0 0 2102.61 -568.98 0zm288.67 -2348.93c-94.83,0 -171.53,-35.93 -230.11,-107.76 -58.56,-71.86 -87.86,-159.09 -87.86,-261.74 0,-102.64 29.3,-188.42 87.86,-257.33 58.58,-68.92 136.66,-103.38 234.29,-103.38 94.83,0 171.53,34.46 230.11,103.38 58.56,68.91 87.86,154.69 87.86,257.33 0,102.65 -29.3,189.88 -87.86,261.74 -58.58,71.83 -136.67,107.76 -234.29,107.76zm1848.69 2300.55c-33.46,14.66 -79.5,26.39 -138.06,35.19 -58.58,8.8 -121.34,13.2 -188.28,13.2 -119.94,0 -229.4,-19.05 -328.42,-57.18 -99.02,-38.13 -184.08,-93.12 -255.21,-164.96 -71.13,-71.85 -126.21,-160.54 -165.26,-266.12 -39.05,-105.58 -58.58,-227.28 -58.58,-365.1l0 -1878.27 568.99 0 0 629.02 502.06 0 0 461.86 -502.06 0 0 787.38c0,99.7 25.81,182.55 77.4,248.54 51.61,65.98 124.82,98.97 219.65,98.97 58.58,0 108.08,-4.41 148.52,-13.2 40.45,-8.8 80.2,-20.53 119.24,-35.19l0 505.85zm765.09 -3030.75l569 0 0 1117.3c64.15,-67.45 141.54,-116.58 232.2,-147.37 90.65,-30.78 186.18,-46.19 286.58,-46.19 142.26,0 271.26,24.21 387,72.59 115.75,48.4 215.48,117.31 299.15,206.74 83.68,89.44 148.53,197.94 194.56,325.51 46.01,127.57 69.04,270.53 69.04,428.87 0,167.16 -23.02,322.58 -69.04,466.28 -46.02,143.68 -111.57,267.59 -196.65,371.7 -85.07,104.09 -188.96,186.2 -311.69,246.33 -122.72,60.12 -259.4,90.17 -410.01,90.17 -156.21,0 -299.15,-24.93 -428.84,-74.78 -129.72,-49.84 -240.58,-121.7 -332.63,-215.54 -92.02,-93.85 -163.16,-208.93 -213.36,-345.31 -50.21,-136.34 -75.31,-291.04 -75.31,-464.06l0 -2032.23zm1004.12 2661.25c142.24,0 255.2,-52.78 338.88,-158.35 83.68,-105.58 125.52,-263.93 125.52,-475.09 0,-211.13 -41.84,-369.49 -125.52,-475.05 -83.68,-105.58 -196.64,-158.36 -338.88,-158.36 -142.26,0 -255.21,52.78 -338.89,158.36 -83.67,105.56 -125.52,263.92 -125.52,475.05 0,211.15 41.85,369.51 125.52,475.09 83.68,105.56 196.64,158.35 338.89,158.35zm1417.76 417.88l0 -2102.61 568.98 0 0 2102.61 -568.98 0zm288.67 -2348.93c-94.83,0 -171.54,-35.93 -230.11,-107.76 -58.56,-71.86 -87.86,-159.09 -87.86,-261.74 0,-102.64 29.3,-188.42 87.86,-257.33 58.56,-68.92 136.66,-103.38 234.29,-103.38 94.83,0 171.53,34.46 230.11,103.38 58.56,68.91 87.85,154.69 87.85,257.33 0,102.65 -29.29,189.88 -87.85,261.74 -58.58,71.83 -136.67,107.76 -234.29,107.76zm1848.69 2300.55c-33.46,14.66 -79.5,26.39 -138.06,35.19 -58.58,8.8 -121.34,13.2 -188.28,13.2 -119.94,0 -229.4,-19.05 -328.42,-57.18 -99.02,-38.13 -184.1,-93.12 -255.21,-164.96 -71.13,-71.85 -126.21,-160.54 -165.26,-266.12 -39.05,-105.58 -58.58,-227.28 -58.58,-365.1l0 -1878.27 568.99 0 0 629.02 502.06 0 0 461.86 -502.06 0 0 787.38c0,99.7 25.81,182.55 77.4,248.54 51.61,65.98 124.82,98.97 219.65,98.97 58.58,0 108.08,-4.41 148.52,-13.2 40.45,-8.8 80.19,-20.53 119.24,-35.19l0 505.85z"/>
      <polygon class="fil0" points="3562.42,1827.51 4063.44,1827.51 4063.44,2289.36 3562.42,2289.36 "/>
     </g>
     <g>
      <path class="fil1" d="M9988.52 97.45c-23.01,670.5 -1287.29,1736.81 -404.38,2823.57l4.35 5.36 143.85 1.07c-558.62,-687.44 241.13,-1361.92 255.69,-1786.04 129.74,616.33 763.02,1036.66 261.84,1794.22l151.6 0c794.21,-1198.68 -207.75,-1863.34 -412.96,-2838.18z"/>
      <line class="fil2" x1="9733.84" y1="2926.16" x2="9586.24" y2= "2925.06" />
      <line class="fil2" x1="10249.42" y1="2934.34" x2="10402.19" y2= "2934.34" />
      <path class="fil3" d="M12342.94 4293.02c-549.47,-337.24 -845.06,-2016.76 -2169.07,-1706.45l-6.52 1.54 -68.64 133.44c837.55,-196.41 1024.51,866.01 1372.07,1079.32 -576.15,-169.48 -1225.66,222.27 -1622.68,-601.24l-71.4 141.16c627.61,1304.15 1654.95,684.18 2566.23,952.23z"/>
      <path class="fil4" d="M7610.96 4306.08c549.46,-337.22 845.06,-2016.75 2169.06,-1706.44l6.52 1.53 68.65 133.45c-837.55,-196.43 -1024.51,866 -1372.07,1079.32 576.15,-169.48 1225.66,222.27 1622.67,-601.25l71.41 141.18c-627.61,1304.14 -1654.96,684.17 -2566.23,952.22z"/>
      <path class="fil1" d="M9988.52 101.54c-23.01,670.49 -1287.29,1736.8 -404.38,2823.57l4.35 5.35 143.85 1.07c-558.62,-687.42 241.13,-1361.91 255.69,-1786.04l0.48 -1043.95z"/>
     </g>
    </g>
    <path class="fil0" d="M8827.04 -0.01c56.72,0 112.05,15.37 166.17,46.15 53.95,30.7 96.15,74.74 126.26,131.87 30.12,57.27 45.24,116.96 45.24,178.94 0,61.48 -14.82,120.71 -44.63,177.34 -29.64,56.81 -71.23,100.85 -124.87,132.14 -53.65,31.47 -109.76,47.16 -168.17,47.16 -58.54,0 -114.65,-15.69 -168.29,-47.16 -53.64,-31.29 -95.37,-75.32 -125.18,-132.14 -29.82,-56.63 -44.8,-115.86 -44.8,-177.34 0,-61.97 15.11,-121.67 45.4,-178.94 30.42,-57.13 72.62,-101.17 126.57,-131.87 54.12,-30.78 109.45,-46.15 166.3,-46.15zm0 59.11c-47.53,0 -93.85,12.89 -138.79,38.55 -44.93,25.67 -80.11,62.44 -105.46,110.19 -25.4,47.8 -38.09,97.47 -38.09,149.11 0,51.47 12.56,100.67 37.48,147.79 24.92,47.15 59.75,83.93 104.55,110.23 44.77,26.3 91.57,39.52 140.31,39.52 48.62,0 95.41,-13.22 140.18,-39.52 44.8,-26.3 79.64,-63.08 104.42,-110.23 24.74,-47.12 37.14,-96.33 37.14,-147.79 0,-51.64 -12.7,-101.31 -37.91,-149.11 -25.22,-47.75 -60.36,-84.53 -105.47,-110.19 -45.11,-25.66 -91.25,-38.55 -138.35,-38.55zm-148.4 494.72l0 -383.4 125.05 0c42.77,0 73.67,3.53 92.77,10.66 19.24,7.09 34.41,19.35 45.85,37.09 11.31,17.62 16.98,36.33 16.98,56.18 0,27.9 -9.48,52.42 -28.59,73.09 -18.93,20.81 -44.16,32.43 -75.65,34.99 12.82,5.68 23.22,12.45 30.85,20.36 14.69,15 32.58,40.34 53.82,76.02l44.32 75.02 -71.23 0 -32.4 -60.34c-25.35,-47.61 -45.98,-77.47 -61.57,-89.42 -10.71,-8.7 -26.3,-13.08 -46.93,-12.9l-34.58 0 0 162.66 -58.67 0zm58.67 -215.9l71.23 0c34.09,0 57.33,-5.35 69.72,-16.01 12.39,-10.61 18.63,-24.83 18.63,-42.26 0,-11.29 -3.03,-21.45 -9.01,-30.32 -5.94,-9.06 -14.21,-15.64 -24.74,-20.04 -10.7,-4.35 -30.29,-6.58 -59.01,-6.58l-66.81 0 0 115.21z"/>
   </g>
   <g>
    <g>
     <path class="fil5" d="M3651.28 4537.31c-3.95,6.36 -10.15,13.67 -18.53,22.12 -8.46,8.46 -18.52,17.42 -30.28,26.89 -11.87,9.48 -24.65,18.91 -38.64,28.32 -13.9,9.3 -28.43,18.12 -43.34,26.22 -14.98,8.12 -29.95,15.15 -44.66,21 -14.84,5.77 -29.09,9.86 -42.59,12.28 -5.88,0.89 -11.74,-0.79 -17.36,-5.05 -5.78,-4.38 -11.08,-10.71 -16.21,-19.2 -5.02,-8.51 -9.51,-18.55 -13.49,-30.02 -3.96,-11.59 -7.11,-24.19 -9.41,-37.73 7.77,-4.67 17.51,-12.23 29.21,-22.71 11.69,-10.47 24.6,-23.02 38.7,-37.69 14.09,-14.79 28.76,-30.66 44.01,-47.87 15.21,-17.19 30.18,-34.68 45.06,-52.7 14.87,-17.91 28.82,-35.46 41.95,-52.54 13.13,-17.16 24.7,-32.95 34.6,-47.46 10.03,-14.53 17.61,-26.86 22.98,-37.13 5.41,-10.18 7.83,-17.51 7.22,-21.73 -1.18,-6.28 -4.17,-13.43 -9.11,-21.41 -4.95,-8.07 -11.04,-16.3 -18.26,-24.76 -7.25,-8.44 -15.08,-16.48 -23.18,-24.12 -8.2,-7.63 -16.25,-14.28 -23.99,-19.74 -7.64,-5.63 -14.53,-9.45 -20.38,-11.69 -5.83,-2.12 -10.05,-2.07 -12.65,0.38 -4.97,5.42 -10.91,14.47 -17.79,26.89 -6.8,12.53 -14.48,27.64 -23.01,45.5 -8.67,17.86 -18.02,37.5 -28.17,58.95 -10.15,21.47 -21.05,43.96 -32.65,67.32 -11.72,23.41 -24.11,46.8 -37.14,70.42 -13.02,23.62 -26.74,46.46 -41.03,68.52 4.42,-21.16 8.79,-41.96 12.92,-62.16 4.22,-20.33 8.17,-39.61 11.86,-57.87 3.8,-18.24 7.19,-34.89 10.24,-49.77 3.11,-15.02 5.74,-27.82 7.93,-38.35 2.32,-10.65 3.98,-18.42 5.15,-23.39 0.94,-4.29 -0.49,-8.84 -4.55,-13.73 -4.1,-4.99 -9.85,-9.9 -17.26,-14.87 -7.44,-5.08 -15.84,-9.9 -25.08,-14.47 -9.26,-4.52 -18.72,-8.5 -28.28,-12.12 -9.5,-3.49 -18.43,-6.21 -26.67,-8.14 -8.13,-1.96 -14.97,-2.8 -20.27,-2.56 -5.34,0.14 -8.51,1.79 -9.36,4.72 -1.86,8.69 -4.49,21.26 -7.77,37.99 -3.3,16.6 -7.06,36.3 -11.34,59.12 -4.23,22.79 -8.69,47.61 -13.45,74.62 -4.76,27.01 -9.54,55.11 -14.46,84.5 -4.8,29.35 -9.56,58.91 -14.07,88.65 -4.61,29.76 -8.8,58.79 -12.66,87.08 -3.89,28.3 -7.13,54.93 -9.92,79.83 -2.75,24.97 -4.75,47.27 -5.97,66.99 -1.2,19.71 -1.33,35.9 -0.63,48.47 0.11,-0.02 2.28,0.29 6.24,0.73 4.09,0.41 9.08,0.89 15.18,1.3 6.09,0.42 12.26,0.71 18.5,0.75 6.36,0.01 11.88,-0.36 16.55,-1.05 8.03,-1.92 15.3,-5.62 21.73,-11.06 6.44,-5.45 12.09,-12.11 17.12,-19.86 5.01,-7.86 9.45,-16.43 13.23,-25.66 3.77,-9.24 6.97,-18.57 9.7,-28.17 2.42,-9.23 5.45,-20.9 8.81,-35.07 3.42,-14.04 7.13,-30.06 11.12,-47.92 9.07,12.06 19.22,23.81 30.52,35.25 11.32,11.44 23.49,21.95 36.5,31.66 13.02,9.71 26.58,17.98 40.65,24.73 14.1,6.85 28.5,11.52 43.13,14.37 14.61,2.74 29.26,2.93 43.9,0.53 15.24,-2.7 29.95,-8 44.31,-15.91 14.4,-7.8 28.02,-17.37 40.95,-28.49 12.92,-11.25 24.8,-23.18 35.69,-35.85 10.98,-12.7 20.54,-25.13 28.91,-37.59 8.36,-12.35 15.24,-23.66 20.39,-33.92 5.28,-10.24 8.66,-18.51 10.27,-24.81 0.8,-3.7 0,-8.46 -2.17,-14.01 -2.08,-5.66 -5.08,-11.49 -8.97,-17.41 -3.83,-6.04 -7.89,-11.47 -12.07,-16.45 -4.29,-4.85 -8.04,-8.54 -11.44,-10.85 -3.42,-2.44 -5.7,-2.71 -6.98,-1.06zm492.33 -83.97c-3.94,6.36 -8.83,14.33 -15,23.85 -6.06,9.51 -12.92,19.71 -20.77,30.51 -7.83,10.93 -16.17,21.5 -25.34,31.74 -9.04,10.34 -18.4,19.53 -28.29,27.56 -9.9,7.93 -19.82,13.84 -30.06,17.71 -10.18,3.87 -20.18,4.69 -30.25,2.5 2.74,-0.36 5.71,-2.54 8.97,-6.35 3.26,-3.78 6.56,-8.57 9.9,-14.5 3.35,-5.91 6.37,-12.22 9.14,-18.84 2.79,-6.58 5.04,-12.99 6.78,-19.07 3.22,-11.14 6.62,-23.32 10.14,-36.61 3.42,-13.29 6.97,-27.07 10.38,-41.12 3.5,-14.08 6.82,-27.91 9.97,-41.49 3.16,-13.47 5.95,-25.96 8.43,-37.54 2.6,-11.49 4.6,-21.43 6.22,-29.49 0.6,-3.66 -1.15,-7.39 -5.39,-11.46 -4.28,-4.04 -10.05,-7.97 -17.55,-12.05 -7.58,-3.95 -15.91,-7.64 -25.2,-11.06 -9.38,-3.44 -18.8,-6.39 -28.36,-8.9 -9.53,-2.37 -18.43,-4.1 -26.74,-5.12 -8.29,-0.93 -15.21,-0.98 -20.72,0.08 -5.64,0.96 -9.04,3.1 -10.25,6.53 -1.85,6.78 -4.04,15.53 -6.43,26.29 -2.32,10.75 -4.89,22.99 -7.52,36.94 -10.07,-6.75 -20.94,-13.05 -32.53,-18.85 -11.72,-5.94 -23.49,-10.94 -35.47,-15.26 -11.99,-4.18 -23.63,-7.09 -34.85,-8.86 -11.33,-1.75 -21.6,-1.88 -30.92,-0.4 -12.12,2.15 -23.42,7.76 -34.07,16.6 -10.52,8.93 -20.3,20.3 -29.04,34.18 -8.79,13.87 -16.64,29.36 -23.49,46.56 -6.89,17.11 -12.63,35.15 -17.34,53.91 -4.71,18.73 -8.22,37.39 -10.61,56.06 -2.27,18.68 -3.37,36.47 -3.15,53.38 0.32,16.87 1.88,31.98 4.85,45.4 3.07,13.42 7.47,24.26 13.45,32.5 4.74,6.21 11.21,12.12 19.49,17.5 8.29,5.51 17.5,10.52 27.75,15.02 10.24,4.49 20.72,8.49 31.59,11.98 10.81,3.38 21.11,6.32 30.97,8.53 9.85,2.22 18.5,3.88 25.99,4.71 7.52,0.96 13.01,1.13 16.58,0.52 6.05,-1.13 11.85,-5.15 17.34,-12.08 5.52,-6.88 10.91,-15.8 15.91,-26.93 5.03,-10.98 9.74,-23.27 14.35,-36.86 4.49,-13.49 8.66,-27.56 12.54,-42.05 0.22,3.31 0.47,6.62 0.78,9.79 0.2,3.08 0.58,6.02 1.02,8.64 0.94,4.74 4.31,9.63 10.24,14.86 5.98,5.11 13.45,10.28 22.57,15.42 9.12,5.02 18.96,9.81 29.43,14.37 10.58,4.44 20.93,8.36 31.19,11.62 10.26,3.38 19.37,5.83 27.45,7.47 8.19,1.6 14.4,2 18.64,1.38 8.52,-1.55 17.61,-5.89 27.2,-12.99 9.71,-7.13 19.44,-16.03 29.31,-26.74 9.88,-10.72 19.39,-22.26 28.55,-34.64 9.16,-12.35 17.51,-24.7 25,-36.9 7.6,-12.22 13.84,-23.44 18.91,-33.65 5.08,-10.13 8.34,-18.37 9.97,-24.56 0.69,-3.69 0,-8.46 -2.17,-14 -2.19,-5.64 -5.19,-11.47 -8.98,-17.41 -3.82,-6.05 -7.87,-11.47 -12.07,-16.44 -4.3,-4.96 -8.03,-8.56 -11.44,-10.87 -3.42,-2.43 -5.69,-2.7 -6.97,-1.05zm-318.48 175.36c-3.49,-2.09 -6.15,-7.32 -8.04,-15.78 -1.76,-8.4 -2.81,-19.04 -2.86,-31.74 -0.15,-12.67 0.74,-26.41 2.44,-41.19 1.69,-14.88 4.43,-29.62 8.04,-44.38 3.7,-14.8 8.39,-28.52 14.03,-41.21 5.65,-12.55 12.45,-23.06 20.27,-31.42 7.72,-8.23 16.65,-13.42 26.7,-15.26 3.9,-0.67 7.75,-0.32 11.51,0.82 3.64,1.05 7.18,2.79 10.45,4.9 3.36,2.21 6.32,4.5 8.99,7.05 -2.37,8.89 -5.27,19.4 -8.65,31.57 -3.5,12.19 -7.43,25.22 -11.62,39.1 -4.31,13.99 -8.72,27.9 -13.6,41.88 -4.75,13.95 -9.63,27.17 -14.75,39.52 -5.01,12.43 -10.08,23.22 -15.09,32.44 -5.02,9.21 -9.87,15.95 -14.59,20.32 -4.72,4.38 -9.1,5.45 -13.25,3.37zm810.8 -259.34c-3.94,6.36 -8.83,14.31 -15,23.85 -6.06,9.51 -12.93,19.7 -20.77,30.52 -7.83,10.92 -16.17,21.48 -25.34,31.72 -9.04,10.37 -18.4,19.54 -28.29,27.57 -9.9,7.93 -19.82,13.86 -30.08,17.71 -10.17,3.85 -20.17,4.67 -30.24,2.48 2.74,-0.35 5.71,-2.53 8.98,-6.32 3.24,-3.77 6.55,-8.58 9.87,-14.49 3.36,-5.92 6.38,-12.22 9.16,-18.84 2.79,-6.61 5.04,-13 6.78,-19.1 3.22,-11.14 6.62,-23.31 10.14,-36.62 3.42,-13.26 6.97,-27.04 10.38,-41.09 3.5,-14.09 6.82,-27.92 9.97,-41.51 3.16,-13.46 5.95,-25.97 8.43,-37.54 2.6,-11.47 4.6,-21.4 6.22,-29.49 0.62,-3.67 -1.16,-7.37 -5.39,-11.44 -4.28,-4.05 -10.06,-7.99 -17.55,-12.06 -7.59,-3.95 -15.91,-7.64 -25.2,-11.07 -9.38,-3.44 -18.8,-6.38 -28.36,-8.87 -9.54,-2.39 -18.43,-4.13 -26.74,-5.15 -8.29,-0.93 -15.21,-0.98 -20.72,0.08 -5.64,0.95 -9.04,3.11 -10.26,6.53 -1.85,6.78 -4.03,15.51 -6.42,26.3 -2.32,10.74 -4.89,23 -7.52,36.93 -10.07,-6.73 -20.94,-13.02 -32.53,-18.84 -11.72,-5.94 -23.49,-10.94 -35.48,-15.24 -11.98,-4.21 -23.62,-7.11 -34.84,-8.9 -11.33,-1.74 -21.61,-1.88 -30.92,-0.39 -12.13,2.17 -23.42,7.78 -34.07,16.62 -10.52,8.92 -20.3,20.27 -29.05,34.15 -8.78,13.87 -16.63,29.35 -23.48,46.59 -6.89,17.11 -12.63,35.13 -17.34,53.88 -4.72,18.75 -8.23,37.39 -10.61,56.07 -2.28,18.68 -3.37,36.48 -3.15,53.39 0.31,16.87 1.88,31.98 4.85,45.4 3.06,13.42 7.47,24.26 13.43,32.5 4.74,6.19 11.22,12.13 19.5,17.51 8.29,5.5 17.5,10.5 27.74,14.98 10.25,4.5 20.72,8.52 31.59,12 10.82,3.38 21.12,6.31 30.98,8.53 9.85,2.22 18.5,3.87 25.99,4.7 7.52,0.96 13.01,1.13 16.58,0.53 6.05,-1.14 11.85,-5.14 17.34,-12.09 5.52,-6.86 10.91,-15.78 15.91,-26.91 5.03,-10.99 9.74,-23.27 14.34,-36.87 4.5,-13.48 8.67,-27.56 12.55,-42.04 0.22,3.3 0.46,6.62 0.76,9.78 0.21,3.09 0.59,6.03 1.03,8.65 0.94,4.71 4.3,9.6 10.24,14.83 5.98,5.14 13.43,10.31 22.57,15.44 9.11,5.03 18.96,9.81 29.42,14.37 10.59,4.43 20.94,8.36 31.2,11.62 10.26,3.37 19.37,5.83 27.45,7.47 8.19,1.61 14.4,2 18.63,1.39 8.53,-1.57 17.62,-5.9 27.21,-13.01 9.71,-7.11 19.43,-16.02 29.31,-26.73 9.88,-10.73 19.39,-22.27 28.55,-34.64 9.14,-12.35 17.51,-24.72 25,-36.92 7.6,-12.22 13.84,-23.42 18.9,-33.65 5.08,-10.12 8.34,-18.36 9.97,-24.55 0.71,-3.69 0,-8.46 -2.16,-14 -2.19,-5.65 -5.19,-11.48 -8.98,-17.42 -3.83,-6.04 -7.87,-11.47 -12.07,-16.45 -4.3,-4.94 -8.03,-8.54 -11.44,-10.85 -3.42,-2.44 -5.69,-2.7 -6.97,-1.05zm-318.49 175.34c-3.48,-2.07 -6.13,-7.3 -8.03,-15.77 -1.76,-8.42 -2.81,-19.03 -2.86,-31.73 -0.15,-12.67 0.73,-26.42 2.44,-41.22 1.69,-14.87 4.42,-29.61 8.03,-44.38 3.71,-14.76 8.4,-28.51 14.04,-41.18 5.65,-12.54 12.43,-23.07 20.27,-31.44 7.72,-8.2 16.64,-13.41 26.7,-15.24 3.89,-0.67 7.75,-0.31 11.52,0.83 3.62,1.05 7.17,2.77 10.42,4.91 3.37,2.2 6.33,4.48 8.99,7.02 -2.37,8.9 -5.27,19.4 -8.65,31.59 -3.5,12.18 -7.42,25.22 -11.62,39.1 -4.3,13.99 -8.71,27.9 -13.59,41.86 -4.75,13.97 -9.63,27.17 -14.75,39.52 -5.02,12.45 -10.1,23.24 -15.1,32.45 -5.01,9.21 -9.86,15.95 -14.57,20.31 -4.72,4.37 -9.1,5.45 -13.26,3.36zm526.02 -572.49c-8.54,1.55 -18.32,5.68 -29.1,12.31 -10.91,6.65 -21.94,15.1 -33.35,25.3 -11.31,10.19 -21.98,21.47 -32.03,33.77 -10.06,12.31 -18.71,24.94 -25.64,37.81 -7.04,12.9 -11.72,25.41 -14.02,37.39l-27.07 151.07c-9.79,2 -17.64,3.68 -23.75,5.04 -6.12,1.39 -9.97,2.37 -11.65,3 -3.69,1.29 -5.65,4.77 -5.83,10.26 -0.16,5.48 0.93,11.98 3.47,19.67 2.41,7.62 5.64,15.42 9.74,23.18 4.13,7.9 8.56,14.84 13.27,20.92 -5.54,31.59 -10.7,62.13 -15.68,91.74 -4.98,29.5 -9.6,57.25 -13.69,83.02 -4.07,25.76 -7.62,48.77 -10.5,69.11 -2.9,20.21 -4.97,36.83 -6.33,49.8 -1.23,13.01 -1.57,21.44 -1.01,25.35 0.45,2.03 3.62,4.94 9.4,8.76 5.79,3.93 13.07,8.12 22,12.75 8.92,4.6 18.48,8.97 28.44,13.2 10,4.3 19.51,7.8 28.47,10.75 8.98,2.91 16.4,4.54 22.24,4.89 5.77,0.47 9.12,-0.88 9.7,-3.98 2.19,-15.22 4.6,-33.12 7.25,-53.51 2.63,-20.52 5.37,-43.05 8.31,-67.51 2.86,-24.47 5.92,-50.28 9.1,-77.44 3.2,-27.08 6.44,-54.93 9.83,-83.49 3.38,-28.45 6.88,-57.01 10.5,-85.5 12.99,-2.22 25.66,-4.37 38.13,-6.49 12.45,-2.14 24.05,-4.1 34.57,-5.78 10.61,-1.81 19.5,-3.23 26.64,-4.44 7.29,-1.13 12.06,-1.83 14.5,-2.02 2.79,-0.6 4.22,-3.28 4.37,-8.22 0.06,-4.92 -0.79,-11.13 -2.63,-18.72 -1.82,-7.49 -4.29,-15.42 -7.49,-23.69 -3.09,-8.26 -6.53,-16.03 -10.34,-23.32 -3.77,-7.13 -7.45,-12.98 -11.2,-17.35 -3.74,-4.28 -7.11,-6.37 -10.05,-5.99 -2.07,0.36 -6.05,1.15 -11.99,2.28 -5.92,1.1 -13.26,2.59 -21.98,4.43 -8.72,1.81 -18.31,3.77 -28.74,5.99 3.42,-25.09 6.84,-48.75 10.27,-71.19 3.43,-22.31 6.7,-43.04 9.81,-61.96 1.5,-8.18 3.38,-16.08 5.47,-23.46 2.17,-7.49 4.7,-13.61 7.56,-18.43 2.84,-4.94 6.17,-7.64 9.87,-8.16 4.85,-0.38 9.59,1.27 14.42,4.89 4.85,3.63 9.58,8.39 14.16,14.31 4.45,5.92 8.63,12.12 12.51,18.48 3.78,6.48 7.05,12.49 9.85,17.83 0.93,1.61 3.5,1.62 7.71,0.22 4.13,-1.35 9.27,-3.9 15.18,-7.7 6.05,-3.82 12.15,-8.43 18.44,-14.07 6.42,-5.55 12.14,-11.78 17.45,-18.59 5.29,-6.91 9.32,-13.95 12.06,-21.44 2.75,-7.49 3.58,-15 2.41,-22.46 -1.49,-8.11 -5.69,-16.43 -12.68,-24.7 -6.9,-8.42 -15.97,-15.89 -27.25,-22.55 -11.17,-6.69 -23.81,-11.54 -38.03,-14.59 -14.13,-3.06 -29.21,-3.24 -45.05,-0.76zm345.65 302.79c-3.94,6.36 -8.83,14.33 -14.88,23.83 -6.18,9.52 -13.02,19.72 -20.87,30.52 -7.83,10.93 -16.17,21.5 -25.21,31.81 -9.18,10.28 -18.53,19.46 -28.43,27.49 -9.9,7.93 -19.82,13.86 -29.96,17.7 -10.27,3.87 -20.27,4.68 -30.35,2.52 2.74,-0.36 5.7,-2.54 8.94,-6.35 3.27,-3.77 6.57,-8.57 9.92,-14.5 3.31,-5.91 6.37,-12.22 9.14,-18.83 2.87,-6.62 5.03,-13 6.77,-19.09 3.13,-11.13 6.39,-23.28 9.81,-36.56 3.54,-13.3 6.97,-27.04 10.5,-41.13 3.49,-14.08 6.82,-27.91 9.97,-41.49 3.16,-13.47 6.04,-25.99 8.64,-37.59 2.5,-11.46 4.61,-21.28 6.24,-29.48 0.59,-3.56 -1.16,-7.38 -5.41,-11.46 -4.25,-3.95 -10.07,-7.96 -17.56,-11.93 -7.59,-4.07 -15.91,-7.76 -25.2,-11.2 -9.26,-3.43 -18.69,-6.39 -28.25,-8.89 -9.54,-2.37 -18.53,-4.09 -26.84,-5.11 -8.29,-0.92 -15.22,-0.99 -20.72,0.07 -5.62,0.98 -8.94,3.09 -10.24,6.55 -2.4,7.66 -4.85,17.98 -7.58,30.83 -2.69,12.83 -5.35,27.43 -8.03,43.71 -2.77,16.41 -5.29,33.67 -7.73,51.94 -2.37,18.12 -4.6,36.55 -6.45,55.03 -1.86,18.5 -3.29,36.22 -4.27,53.33 -0.99,17.1 -1.43,32.79 -1.36,46.93 0.19,14.12 0.98,25.92 2.6,35.46 0.9,4.74 4.31,9.6 10.33,14.82 5.89,5.15 13.35,10.32 22.47,15.45 9.1,5.02 18.95,9.81 29.52,14.36 10.45,4.45 20.83,8.37 31.09,11.64 10.27,3.38 19.38,5.83 27.56,7.45 8.09,1.62 14.29,2.02 18.52,1.41 8.53,-1.56 17.59,-5.9 27.3,-13.03 9.63,-7.09 19.36,-16 29.22,-26.7 9.88,-10.72 19.38,-22.26 28.54,-34.64 9.14,-12.35 17.52,-24.7 25.02,-36.9 7.6,-12.22 13.83,-23.44 18.89,-33.65 5.07,-10.13 8.34,-18.37 9.95,-24.56 0.73,-3.69 0.01,-8.46 -2.15,-14 -2.17,-5.64 -5.18,-11.49 -8.99,-17.41 -3.8,-6.05 -7.85,-11.47 -12.06,-16.44 -4.28,-4.85 -8.02,-8.54 -11.44,-10.87 -3.42,-2.43 -5.69,-2.7 -6.97,-1.05zm-87.39 -210.45c10.38,-1.88 19.56,-6.22 27.45,-12.94 7.87,-6.68 14.29,-14.8 19.35,-24.34 5.07,-9.58 8.46,-19.73 10.33,-30.29 1.88,-10.59 2.03,-20.76 0.36,-30.5 -1.38,-7.46 -4.96,-14.09 -10.55,-20.06 -5.68,-5.83 -12.56,-10.99 -20.87,-15.26 -8.32,-4.38 -17.16,-7.78 -26.53,-10.41 -9.24,-2.66 -18.33,-4.33 -27.17,-5.17 -8.72,-0.75 -16.49,-0.65 -23.11,0.48 -8.31,1.54 -15.75,5.03 -22.04,10.57 -6.43,5.44 -11.73,12.26 -15.91,20.43 -4.17,8.19 -7.11,17.15 -8.83,26.7 -1.73,9.54 -2.07,19.18 -0.95,28.91 0.95,9.64 3.51,18.78 7.64,27.23 2.42,5.15 6.88,10.19 13.13,14.93 6.16,4.74 13.57,8.94 22.17,12.36 8.64,3.55 17.74,6.02 27.36,7.49 9.59,1.36 18.96,1.33 28.17,-0.13zm762.41 95.32c-4.03,6.37 -9.04,14.34 -15.2,23.88 -6.19,9.52 -13.13,19.72 -20.99,30.55 -7.83,10.92 -16.28,21.51 -25.44,31.86 -9.05,10.24 -18.51,19.44 -28.39,27.48 -9.81,7.91 -19.83,13.84 -29.98,17.69 -10.26,3.87 -20.26,4.7 -30.32,2.52 2.71,-0.36 5.69,-2.53 9.04,-6.35 3.38,-3.81 6.69,-8.59 10.14,-14.55 3.43,-5.92 6.48,-12.23 9.37,-18.86 2.87,-6.62 5.12,-13.01 6.89,-19.12 3.11,-11.12 6.38,-23.26 9.79,-36.56 3.53,-13.28 6.98,-27.04 10.48,-41.11 3.53,-14.09 6.83,-27.91 9.99,-41.51 3.16,-13.45 6.03,-25.99 8.63,-37.57 2.6,-11.47 4.62,-21.28 6.23,-29.49 0.51,-3.54 -1.35,-7.33 -5.63,-11.4 -4.24,-3.95 -10.15,-7.97 -17.72,-11.91 -7.63,-4.07 -16.05,-7.73 -25.33,-11.18 -9.27,-3.43 -18.7,-6.39 -28.25,-8.89 -9.56,-2.37 -18.43,-4.1 -26.74,-5.14 -8.19,-0.95 -15.11,-1 -20.61,0.06 -5.41,0.92 -8.72,3.06 -9.92,6.48 -0.28,0.38 -0.43,0.63 -0.42,0.75 -0.11,0.12 -0.07,0.34 -0.01,0.67 -10.03,18.97 -20.57,40.19 -31.58,63.79 -10.89,23.68 -22.01,48.55 -33.37,74.9 -11.34,26.23 -22.53,52.77 -33.58,79.51 -11.13,26.83 -21.84,52.96 -32.12,78.24l1.92 -39.77c4.74,-14.74 9.79,-31.43 15.3,-50.08 5.38,-18.76 11.12,-38.69 16.97,-59.85 5.88,-21.18 11.76,-42.8 17.71,-64.76 5.95,-21.99 11.76,-43.47 17.5,-64.62 5.66,-21.16 11.06,-41.12 16.23,-59.86 5.02,-18.78 9.67,-35.4 13.82,-50.17 4.2,-14.63 7.75,-26.49 10.66,-35.58 1.28,-4.22 -0.33,-8.53 -4.69,-13.13 -4.47,-4.6 -10.8,-9.07 -19.16,-13.57 -8.23,-4.49 -17.63,-8.69 -28,-12.6 -10.5,-4 -21.11,-7.42 -31.87,-10.39 -10.75,-2.96 -20.83,-5.14 -30.09,-6.55 -9.39,-1.53 -17.17,-1.99 -23.34,-1.61 -6.17,0.49 -9.79,2.12 -10.98,4.89 -2.34,6.51 -5.21,17.15 -8.51,31.77 -3.28,14.71 -6.95,32.5 -10.86,53.33 -3.91,20.84 -7.93,43.71 -12.13,68.72 -4.09,25 -8.33,51.11 -12.4,78.23 -4.15,27.23 -8,54.42 -11.69,81.8 -3.7,27.25 -7.11,53.7 -10,79.16 -3.01,25.47 -5.35,48.96 -7.25,70.55 -1.88,21.63 -3.03,40.31 -3.58,56.12 -0.42,15.8 0.01,27.53 1.27,35.43 0.54,2.59 3.69,5.95 9.23,10.25 5.61,4.29 12.74,8.74 21.24,13.55 8.63,4.77 17.64,9.25 27.15,13.42 9.5,4.07 18.49,7.22 26.9,9.45 8.53,2.33 15.45,3.04 20.79,2.24 0.98,-0.15 1.73,-0.96 2.27,-2.28 0.59,-1.22 1.19,-2.99 1.83,-5.11 4.64,-12.6 10.72,-27.23 18.22,-44 7.39,-16.75 15.82,-34.68 25.14,-53.88 9.33,-19.2 19.11,-38.91 29.26,-59.05 10.17,-20.12 20.31,-39.81 30.24,-59.22 -1.25,16.16 -2.3,31.49 -3.04,46.11 -0.75,14.62 -0.9,28.02 -0.75,40.04 0.15,12.01 0.87,22.13 2.29,30.48 0.92,4.74 4.43,9.59 10.34,14.84 5.9,5.12 13.46,10.28 22.58,15.42 9.21,5.01 19.05,9.79 29.65,14.34 10.54,4.44 20.92,8.36 31.16,11.62 10.18,3.4 19.4,5.83 27.49,7.47 8.07,1.62 14.15,2.03 18.29,1.43 8.56,-1.56 17.62,-5.9 27.33,-13.01 9.71,-7.13 19.44,-16.03 29.3,-26.74 9.88,-10.72 19.51,-22.27 28.65,-34.65 9.14,-12.36 17.52,-24.73 25.13,-36.95 7.51,-12.2 13.83,-23.41 18.79,-33.6 4.94,-10.11 8.22,-18.36 9.74,-24.54 0.92,-3.73 0.22,-8.5 -1.85,-14.04 -2.2,-5.64 -5.18,-11.49 -9,-17.41 -3.78,-6.05 -7.84,-11.48 -12.05,-16.44 -4.28,-4.85 -8.02,-8.57 -11.32,-10.89 -3.43,-2.42 -5.61,-2.71 -6.77,-1.07z"/>
     <path class="fil5" d="M6355.81 4076c-3.95,6.36 -8.83,14.3 -15,23.85 -6.06,9.5 -12.93,19.69 -20.77,30.51 -7.84,10.92 -16.17,21.48 -25.34,31.73 -9.06,10.35 -18.42,19.53 -28.29,27.57 -9.92,7.93 -19.84,13.84 -30.08,17.71 -10.17,3.84 -20.17,4.67 -30.24,2.49 2.74,-0.38 5.71,-2.55 8.96,-6.35 3.27,-3.77 6.57,-8.56 9.9,-14.49 3.35,-5.91 6.38,-12.22 9.16,-18.84 2.79,-6.59 5.04,-12.99 6.78,-19.1 3.21,-11.13 6.59,-23.29 10.12,-36.61 3.43,-13.27 6.99,-27.04 10.39,-41.1 3.51,-14.09 6.83,-27.91 9.97,-41.51 3.17,-13.45 5.94,-25.96 8.44,-37.54 2.6,-11.47 4.6,-21.4 6.22,-29.49 0.6,-3.66 -1.16,-7.37 -5.41,-11.44 -4.27,-4.05 -10.05,-7.98 -17.54,-12.06 -7.6,-3.95 -15.91,-7.64 -25.2,-11.07 -9.39,-3.42 -18.8,-6.38 -28.36,-8.87 -9.56,-2.37 -18.43,-4.1 -26.74,-5.15 -8.29,-0.92 -15.22,-0.98 -20.72,0.08 -5.64,0.96 -9.04,3.11 -10.26,6.56 -1.86,6.77 -4.03,15.5 -6.43,26.29 -2.3,10.73 -4.89,22.99 -7.52,36.94 -10.06,-6.76 -20.93,-13.05 -32.53,-18.85 -11.71,-5.94 -23.48,-10.94 -35.47,-15.26 -11.98,-4.21 -23.62,-7.11 -34.84,-8.89 -11.34,-1.75 -21.61,-1.88 -30.92,-0.4 -12.13,2.17 -23.42,7.78 -34.07,16.62 -10.52,8.92 -20.3,20.27 -29.06,34.15 -8.79,13.87 -16.62,29.36 -23.47,46.59 -6.89,17.11 -12.63,35.15 -17.34,53.89 -4.72,18.73 -8.23,37.39 -10.61,56.07 -2.28,18.66 -3.37,36.48 -3.15,53.38 0.31,16.88 1.88,31.99 4.84,45.41 3.07,13.41 7.49,24.26 13.45,32.5 4.74,6.18 11.21,12.12 19.49,17.5 8.3,5.5 17.51,10.5 27.75,15 10.25,4.49 20.72,8.51 31.59,12 10.82,3.38 21.12,6.31 30.98,8.53 9.85,2.22 18.5,3.85 25.99,4.7 7.52,0.95 13.01,1.13 16.58,0.53 6.05,-1.15 11.82,-5.15 17.34,-12.11 5.51,-6.85 10.88,-15.78 15.91,-26.91 5.02,-10.97 9.72,-23.26 14.34,-36.87 4.5,-13.47 8.67,-27.56 12.53,-42.04 0.25,3.3 0.48,6.62 0.79,9.78 0.21,3.1 0.59,6.04 1.03,8.65 0.92,4.72 4.3,9.61 10.24,14.84 5.98,5.12 13.43,10.31 22.57,15.43 9.11,5.03 18.96,9.81 29.42,14.39 10.59,4.42 20.94,8.36 31.18,11.62 10.27,3.36 19.39,5.83 27.48,7.46 8.17,1.61 14.39,2 18.63,1.39 8.53,-1.57 17.61,-5.9 27.2,-13.01 9.72,-7.11 19.44,-16.02 29.32,-26.71 9.88,-10.72 19.37,-22.26 28.54,-34.64 9.14,-12.36 17.52,-24.73 25.01,-36.93 7.6,-12.22 13.84,-23.42 18.9,-33.65 5.08,-10.12 8.34,-18.36 9.97,-24.54 0.71,-3.7 -0.01,-8.46 -2.16,-14.01 -2.2,-5.65 -5.21,-11.48 -8.99,-17.39 -3.82,-6.05 -7.87,-11.49 -12.06,-16.47 -4.3,-4.94 -8.04,-8.54 -11.44,-10.86 -3.43,-2.42 -5.69,-2.7 -6.97,-1.03zm-318.49 175.34c-3.49,-2.07 -6.13,-7.3 -8.03,-15.78 -1.76,-8.4 -2.81,-19.03 -2.86,-31.72 -0.15,-12.67 0.73,-26.42 2.44,-41.22 1.69,-14.88 4.41,-29.62 8.03,-44.38 3.71,-14.77 8.39,-28.51 14.03,-41.18 5.66,-12.55 12.45,-23.08 20.26,-31.43 7.75,-8.22 16.67,-13.43 26.73,-15.27 3.89,-0.66 7.73,-0.31 11.49,0.85 3.64,1.03 7.18,2.76 10.44,4.9 3.38,2.21 6.33,4.5 9,7.03 -2.37,8.89 -5.27,19.4 -8.65,31.59 -3.51,12.19 -7.42,25.21 -11.62,39.09 -4.3,13.99 -8.72,27.9 -13.59,41.88 -4.76,13.96 -9.63,27.17 -14.77,39.52 -4.99,12.43 -10.08,23.22 -15.08,32.44 -5.01,9.21 -9.86,15.95 -14.59,20.31 -4.71,4.38 -9.08,5.45 -13.25,3.37zm581.42 -220.2c-3.94,6.36 -8.83,14.33 -14.87,23.82 -6.19,9.53 -13.03,19.73 -20.87,30.53 -7.84,10.93 -16.17,21.5 -25.22,31.81 -9.18,10.27 -18.53,19.45 -28.41,27.49 -9.92,7.93 -19.84,13.84 -29.97,17.7 -10.27,3.85 -20.27,4.7 -30.35,2.5 2.74,-0.35 5.69,-2.53 8.94,-6.32 3.26,-3.8 6.56,-8.58 9.91,-14.51 3.33,-5.91 6.38,-12.22 9.16,-18.84 2.88,-6.62 5.04,-12.99 6.77,-19.07 3.13,-11.13 6.41,-23.28 9.83,-36.56 3.53,-13.3 6.96,-27.04 10.48,-41.13 3.48,-14.08 6.82,-27.91 9.97,-41.49 3.16,-13.47 6.03,-25.99 8.65,-37.6 2.49,-11.45 4.6,-21.28 6.22,-29.46 0.6,-3.56 -1.16,-7.39 -5.41,-11.46 -4.25,-3.95 -10.06,-7.97 -17.54,-11.93 -7.6,-4.07 -15.94,-7.76 -25.2,-11.2 -9.28,-3.43 -18.7,-6.39 -28.25,-8.89 -9.57,-2.37 -18.56,-4.09 -26.87,-5.11 -8.29,-0.93 -15.2,-0.98 -20.71,0.08 -5.63,0.96 -8.94,3.08 -10.25,6.53 -2.39,7.65 -4.85,17.99 -7.57,30.82 -2.7,12.85 -5.34,27.44 -8.04,43.72 -2.76,16.41 -5.28,33.67 -7.72,51.94 -2.37,18.11 -4.6,36.54 -6.45,55.03 -1.86,18.5 -3.29,36.22 -4.27,53.33 -1,17.1 -1.43,32.79 -1.38,46.93 0.19,14.12 0.98,25.92 2.61,35.45 0.9,4.74 4.3,9.61 10.32,14.84 5.9,5.12 13.35,10.31 22.48,15.44 9.1,5.02 18.93,9.8 29.52,14.35 10.45,4.47 20.81,8.38 31.07,11.65 10.27,3.38 19.39,5.83 27.57,7.45 8.07,1.62 14.28,2.02 18.52,1.4 8.54,-1.55 17.58,-5.89 27.31,-13.01 9.61,-7.11 19.33,-16.01 29.19,-26.71 9.88,-10.72 19.39,-22.26 28.54,-34.64 9.14,-12.36 17.52,-24.7 25.03,-36.9 7.6,-12.22 13.82,-23.45 18.89,-33.65 5.05,-10.12 8.34,-18.38 9.97,-24.56 0.72,-3.69 0,-8.46 -2.17,-14 -2.17,-5.64 -5.18,-11.49 -8.99,-17.41 -3.8,-6.05 -7.85,-11.47 -12.05,-16.44 -4.28,-4.85 -8.03,-8.56 -11.45,-10.88 -3.41,-2.42 -5.69,-2.69 -6.97,-1.03zm-87.39 -210.45c10.38,-1.88 19.56,-6.22 27.45,-12.94 7.89,-6.69 14.29,-14.79 19.37,-24.34 5.04,-9.58 8.45,-19.73 10.31,-30.3 1.88,-10.58 2.04,-20.74 0.38,-30.5 -1.38,-7.45 -4.97,-14.08 -10.54,-20.05 -5.69,-5.83 -12.59,-10.99 -20.88,-15.27 -8.33,-4.37 -17.17,-7.77 -26.54,-10.41 -9.23,-2.64 -18.32,-4.33 -27.16,-5.16 -8.72,-0.75 -16.5,-0.65 -23.12,0.48 -8.31,1.54 -15.74,5.03 -22.04,10.57 -6.43,5.43 -11.73,12.26 -15.91,20.43 -4.17,8.19 -7.11,17.15 -8.81,26.7 -1.73,9.54 -2.07,19.18 -0.96,28.91 0.96,9.64 3.53,18.78 7.64,27.23 2.43,5.15 6.88,10.19 13.15,14.93 6.13,4.74 13.55,8.93 22.15,12.35 8.64,3.56 17.75,6.02 27.35,7.49 9.59,1.38 18.96,1.34 28.17,-0.12z"/>
    </g>
    <path class="fil6" d="M4555.11 4856.98c-65.25,30.71 -28.35,133.07 39.5,112.05 688.56,-298.37 1429.44,-465.82 2181,-470.63 2.35,0.29 16.89,-1.59 16.7,-16.97 -0.15,-11.08 -8.66,-19.69 -26.01,-17.71 -746.12,23.86 -1482.63,161.41 -2211.19,393.26zm2257.23 -391.98c8.51,-2.17 17.15,2.96 19.31,11.47 2.17,8.51 -2.96,17.15 -11.47,19.31 -8.51,2.17 -17.15,-2.96 -19.31,-11.47 -2.17,-8.51 2.96,-17.15 11.47,-19.31z"/>
   </g>
  </g>
 </g>
</svg>
