<?xml version="1.0" encoding="UTF-8"?>
<!DOCTYPE svg PUBLIC "-//W3C//DTD SVG 1.1//EN" "http://www.w3.org/Graphics/SVG/1.1/DTD/svg11.dtd">
<!-- Creator: CorelDRAW 2017 -->
<svg xmlns="http://www.w3.org/2000/svg" xml:space="preserve" width="154.579mm" height="50.6027mm" version="1.1" style="shape-rendering:geometricPrecision; text-rendering:geometricPrecision; image-rendering:optimizeQuality; fill-rule:evenodd; clip-rule:evenodd"
viewBox="0 0 15626.19 5115.37"
 xmlns:xlink="http://www.w3.org/1999/xlink">
 <defs>
  <style type="text/css">
   <![CDATA[
    .str0 {stroke:#727271;stroke-width:7.7;stroke-miterlimit:22.9256}
    .fil0 {fill:#FEFEFE}
    .fil2 {fill:#393185}
    .fil1 {fill:#393185;fill-rule:nonzero}
   ]]>
  </style>
    <clipPath id="id0">
     <path d="M-0 0l15626.19 0 0 5115.37 -15626.19 0 0 -5115.37z"/>
    </clipPath>
 </defs>
 <g id="Layer_x0020_1">
  <metadata id="CorelCorpID_0Corel-Layer"/>
  <g id="_2551621841728">
   <g style="clip-path:url(#id0)">
    <image x="-0" y="0" width="15626.19" height="5115.37" xlink:href="Adenwal Jwellers_Images\Adenwal Jwellers_ImgID1.png"/>
   </g>
   <rect class="fil0 str0" x="232.51" y="232.51" width="15161.17" height="4650.33" rx="1790.33" ry="918.56"/>
   <path class="fil1" d="M8849.66 3289.4l-393.34 0 -66.1 -158.79 -391.07 0 -64.09 158.79 -113.35 0 457.17 -1124.01 98.02 0 472.76 1124.01zm-508.95 -274.89l-148.55 -355.83 -145.25 355.83 293.8 0zm1255.65 -849.12l0 1124.01 -281.23 0 0 -56.75c-40.22,50.86 -87.97,76.43 -142.77,76.43 -54.53,0 -109.07,-18.26 -163.61,-55.09 -114.36,-78.13 -171.41,-211.64 -171.41,-401.09 0,-143.06 35.43,-256.06 106.06,-338.12 62.33,-73.09 136.72,-109.62 222.93,-109.62 32.42,0 59.32,6.46 80.67,19.39 21.37,12.93 43.99,35.99 68.12,69.42l0 -328.57 281.23 0zm-281.23 923.89l0 -408.39c0,-109.35 -24.13,-163.89 -72.14,-163.89 -14.32,0 -28.41,6.75 -42.73,20.54 -14.32,13.77 -24.88,30.91 -31.66,51.14 -20.11,59.86 -30.16,154.87 -30.16,285.01 0,130.41 8.05,218.12 24.37,262.51 17.09,47.79 39.99,71.7 68.37,71.7 23.13,0 42.73,-11.82 59.32,-35.16 16.34,-23.31 24.64,-51.15 24.64,-83.47zm709.75 -255.21c0,64.63 1.53,116.08 4.28,154.03 9.81,145.87 65.87,218.95 167.91,218.95 89.71,0 134.71,-43.29 134.71,-130.14 0,-2.23 0,-7.57 0,-16.29 39.94,3.08 71.13,14.89 93.98,34.84 22.89,19.97 36.7,47.78 41.49,82.93 -62.85,86.55 -170.67,129.84 -323.97,129.84 -125.18,0 -227.2,-38.49 -306.14,-115.23 -80.17,-77.86 -120.13,-182.7 -120.13,-314.51 0,-140.56 39.22,-254.39 117.89,-341.8 79.91,-88.81 174.91,-133.21 285.01,-133.21 79.41,0 154.55,23.32 225.2,69.98 74.64,49.46 124.66,127.88 150.28,235.53 6.8,28.39 14.07,70.27 22.12,125.09l-492.62 0zm190.03 -101.2c-4.54,-71.38 -11.06,-122.27 -19.85,-152.32 -17.36,-57.07 -41.99,-85.74 -73.64,-85.74 -28.65,0 -50.28,18.56 -64.86,55.67 -14.83,37.09 -24.64,97.8 -29.41,182.39l187.76 0zm683.88 556.52l-281.24 0 0 -865.42 281.24 0 0 99.5c36.7,-43.84 71.63,-74.47 104.56,-91.9 32.9,-17.71 72.63,-26.42 119.38,-26.42 54.04,0 100.27,11.8 138.99,35.41 54.53,32.89 86.22,86.29 95,160.5 2.52,21.36 3.78,60.99 3.78,118.62l0 569.72 -281.25 0 0 -574.79c0,-78.98 -4.52,-131.82 -13.57,-157.95 -9.05,-26.42 -27.4,-39.65 -55.04,-39.65 -23.9,0 -45.26,7.87 -63.58,23.34 -18.35,15.73 -30.91,36.53 -37.2,62.39 -7.31,27.27 -11.06,67.74 -11.06,120.86l0 565.79zm1276.27 0l-67.1 0 -154.6 -432.29 -160.58 432.29 -66.35 0 -315.18 -865.42 288.04 0 160.6 427.24 159.58 -427.24 66.36 0 152.56 419.08 157.33 -419.08 101.04 0 -321.7 865.42zm1048.3 0l-271.67 0 8.77 -107.93c-53.53,49.46 -97.76,82.93 -132.45,100.34 -34.94,17.71 -74.15,26.42 -117.88,26.42 -67.36,0 -117.12,-21.93 -149.54,-65.77 -32.92,-44.96 -49.26,-101.46 -49.26,-168.92 0,-107.92 39.71,-184.1 119.39,-227.95 46.51,-26.43 123.9,-48.92 231.73,-67.46l84.69 -15.75c0,-35.14 0,-58.18 0,-69.14 0.51,-81.79 -5.52,-134.35 -18.35,-157.4 -14.82,-27.82 -44.23,-41.89 -88.46,-41.89 -31.67,0 -57.55,7.05 -77.39,21.11 -19.85,13.75 -29.92,32.3 -29.92,55.36 0,32.04 17.84,60.15 53.53,84.87 -19.1,18.84 -43.97,38.23 -75.14,59.03 -30.91,20.53 -59.07,36.82 -84.45,48.91 -56.56,-47.21 -84.7,-96.68 -84.7,-148.11 0,-43.31 18.35,-83.21 55.3,-119.46 62.83,-61 155.58,-91.35 278.23,-91.35 73.65,0 138.48,10.96 194.8,32.6 56.28,21.64 95,50.88 116.1,87.68 15.09,25.58 25.13,53.98 29.65,85.18 4.78,30.9 7.04,81.78 7.04,152.61l0 527.01zm-276.21 -447.18c-53.53,3.38 -91.73,18.27 -114.6,44.96 -23.12,26.42 -34.68,68.59 -34.68,126.2 0,43.84 7.05,78.14 21.37,102.88 14.07,24.74 33.67,37.11 58.82,37.11 24.36,0 42.22,-9.84 53.03,-29.52 10.79,-19.97 16.06,-52 16.06,-96.4l0 -185.24zm723.11 447.18l-286.54 0 0 -1124.01 286.54 0 0 1124.01zm833.42 0l-271.7 0 8.78 -107.93c-53.52,49.46 -97.77,82.93 -132.46,100.34 -34.92,17.71 -74.14,26.42 -117.87,26.42 -67.36,0 -117.12,-21.93 -149.54,-65.77 -32.92,-44.96 -49.25,-101.46 -49.25,-168.92 0,-107.92 39.7,-184.1 119.37,-227.95 46.5,-26.43 123.92,-48.92 231.75,-67.46l84.7 -15.75c0,-35.14 0,-58.18 0,-69.14 0.49,-81.79 -5.53,-134.35 -18.35,-157.4 -14.83,-27.82 -44.24,-41.89 -88.47,-41.89 -31.68,0 -57.55,7.05 -77.42,21.11 -19.85,13.75 -29.89,32.3 -29.89,55.36 0,32.04 17.84,60.15 53.52,84.87 -19.09,18.84 -43.98,38.23 -75.15,59.03 -30.89,20.53 -59.05,36.82 -84.43,48.91 -56.55,-47.21 -84.71,-96.68 -84.71,-148.11 0,-43.31 18.35,-83.21 55.31,-119.46 62.84,-61 155.56,-91.35 278.23,-91.35 73.62,0 138.48,10.96 194.78,32.6 56.29,21.64 95,50.88 116.12,87.68 15.08,25.58 25.13,53.98 29.66,85.18 4.75,30.9 7.04,81.78 7.04,152.61l0 527.01zm-276.21 -447.18c-53.56,3.38 -91.74,18.27 -114.6,44.96 -23.15,26.42 -34.7,68.59 -34.7,126.2 0,43.84 7.04,78.14 21.36,102.88 14.09,24.74 33.68,37.11 58.81,37.11 24.39,0 42.22,-9.84 53.03,-29.52 10.83,-19.97 16.1,-52 16.1,-96.4l0 -185.24z"/>
   <path class="fil1" d="M10071.46 3563.6l0 296.56c0,27.1 -0.52,45.86 -1.65,56.05 -1.14,10.3 -3.73,20.27 -7.76,29.76 -10.66,26.17 -29.84,47.12 -57.49,62.53 -27.65,15.53 -59.23,23.27 -94.75,23.27 -47.72,0 -87.58,-11.93 -119.61,-35.66 -14.27,-10.76 -25.67,-24.21 -33.96,-40.18 -8.27,-15.98 -12.42,-32.41 -12.42,-49.33 0,-21.08 5.28,-39.37 15.74,-55.12 10.56,-15.74 25.38,-27.45 44.63,-35.1l80.68 74.93c-13.58,3.13 -22.68,6.28 -27.34,9.16 -13.35,8.35 -19.99,21.2 -19.99,38.33 0,14.24 4.44,26.04 13.34,35.44 8.93,9.38 20.11,14.13 33.67,14.13 16.78,0 28.26,-6.84 34.27,-20.39 4.25,-9.73 6.42,-26.64 6.42,-50.85l0 -353.54 146.21 0zm168.37 275.51c0,26.63 0.64,47.81 1.76,63.43 4.04,60.1 27.14,90.22 69.18,90.22 36.97,0 55.51,-17.82 55.51,-53.62 0,-0.92 0,-3.13 0,-6.72 16.48,1.27 29.31,6.14 38.72,14.35 9.45,8.23 15.13,19.7 17.08,34.18 -25.87,35.66 -70.3,53.5 -133.48,53.5 -51.56,0 -93.59,-15.86 -126.13,-47.47 -33.03,-32.09 -49.48,-75.28 -49.48,-129.6 0,-57.89 16.15,-104.79 48.56,-140.81 32.93,-36.6 72.08,-54.9 117.43,-54.9 32.72,0 63.68,9.61 92.77,28.84 30.77,20.39 51.37,52.7 61.94,97.03 2.79,11.72 5.8,28.97 9.11,51.57l-202.97 0zm78.29 -41.69c-1.87,-29.43 -4.55,-50.38 -8.2,-62.8 -7.13,-23.49 -17.29,-35.31 -30.33,-35.31 -11.8,0 -20.7,7.65 -26.71,22.93 -6.12,15.28 -10.16,40.32 -12.12,75.18l77.35 0zm434.7 229.27l-27.65 0 -63.68 -178.1 -66.17 178.1 -27.34 0 -129.86 -356.55 118.68 0 66.17 176.02 65.76 -176.02 27.33 0 62.86 172.66 64.82 -172.66 41.62 0 -132.54 356.55zm260.23 -187.58c0,26.63 0.62,47.81 1.77,63.43 4.02,60.1 27.11,90.22 69.16,90.22 36.97,0 55.5,-17.82 55.5,-53.62 0,-0.92 0,-3.13 0,-6.72 16.47,1.27 29.3,6.14 38.73,14.35 9.43,8.23 15.11,19.7 17.09,34.18 -25.89,35.66 -70.32,53.5 -133.47,53.5 -51.6,0 -93.61,-15.86 -126.14,-47.47 -33.04,-32.09 -49.5,-75.28 -49.5,-129.6 0,-57.89 16.14,-104.79 48.56,-140.81 32.94,-36.6 72.08,-54.9 117.42,-54.9 32.73,0 63.7,9.61 92.79,28.84 30.75,20.39 51.35,52.7 61.92,97.03 2.8,11.72 5.81,28.97 9.11,51.57l-202.95 0zm78.28 -41.69c-1.87,-29.43 -4.56,-50.38 -8.18,-62.8 -7.15,-23.49 -17.29,-35.31 -30.34,-35.31 -11.81,0 -20.72,7.65 -26.73,22.93 -6.11,15.28 -10.14,40.32 -12.11,75.18l77.35 0zm283.94 229.27l-118.04 0 0 -463.09 118.04 0 0 463.09zm184.43 0l-118.06 0 0 -463.09 118.06 0 0 463.09zm176.86 -187.58c0,26.63 0.63,47.81 1.76,63.43 4.04,60.1 27.13,90.22 69.19,90.22 36.95,0 55.5,-17.82 55.5,-53.62 0,-0.92 0,-3.13 0,-6.72 16.47,1.27 29.3,6.14 38.73,14.35 9.42,8.23 15.11,19.7 17.07,34.18 -25.89,35.66 -70.32,53.5 -133.47,53.5 -51.56,0 -93.61,-15.86 -126.12,-47.47 -33.04,-32.09 -49.5,-75.28 -49.5,-129.6 0,-57.89 16.14,-104.79 48.56,-140.81 32.92,-36.6 72.06,-54.9 117.43,-54.9 32.71,0 63.67,9.61 92.76,28.84 30.77,20.39 51.36,52.7 61.94,97.03 2.8,11.72 5.79,28.97 9.13,51.57l-202.98 0zm78.27 -41.69c-1.84,-29.43 -4.55,-50.38 -8.19,-62.8 -7.13,-23.49 -17.27,-35.31 -30.33,-35.31 -11.81,0 -20.71,7.65 -26.72,22.93 -6.1,15.28 -10.15,40.32 -12.1,75.18l77.33 0zm283.95 229.27l-118.05 0 0 -356.55 118.05 0 0 85.81c23.29,-65.79 54.17,-98.66 92.79,-98.66 5.29,0 11.81,0.33 19.47,0.92 2.17,14.24 3.32,26.28 3.32,36.01 0,18.06 -4.04,38.79 -12.12,62.07 -11.92,-9.49 -22.89,-14.23 -32.72,-14.23 -19.25,0 -35.94,11 -50.13,32.88 -13.77,21.54 -20.6,49.44 -20.6,83.84l0 167.91zm374.04 -322.98c-8.8,14.26 -23,24.43 -42.46,30.58 -17.62,-23.51 -39.36,-35.31 -65.25,-35.31 -11.71,0 -21.32,3.11 -28.69,9.38 -7.34,6.13 -11.06,14 -11.06,23.49 0,9.27 2.69,16.11 8.18,20.38 5.49,4.29 18.22,9.61 38.21,15.98 24.96,7.87 44.43,15.18 58.4,22.01 14.07,6.83 25.04,14.35 32.91,22.69 24.15,24.44 36.16,56.64 36.16,96.69 0,39.15 -12.01,69.37 -36.16,90.58 -25.46,22.82 -59.53,34.27 -102.18,34.27 -40.82,0 -73.63,-9.73 -98.58,-29.18 -24.66,-19.44 -36.97,-43.31 -36.97,-71.57 0,-11.92 2.15,-23.04 6.61,-33.23 15.85,2.77 32.52,9.6 50.11,20.72 -3.41,6.95 -5.17,13.9 -5.17,20.61 0,15.64 7.26,28.39 21.64,38.33 14.5,9.97 33.03,14.94 55.71,14.94 21.86,0 39.25,-3.47 52.19,-10.53 12.74,-6.94 19.07,-17.37 19.07,-31.16 0,-13.32 -7.26,-23.86 -21.86,-31.61 -7.44,-4.05 -23.72,-9.97 -48.88,-17.62 -39.15,-11.91 -68.05,-28.24 -86.56,-48.98 -18.55,-20.72 -27.76,-47.02 -27.76,-78.87 0,-38.43 11.49,-67.5 34.59,-87.19 21.01,-18.06 50,-27.09 86.76,-27.09 24.66,0 47.01,3.7 66.89,11.23 19.99,7.41 34.7,17.6 44.13,30.45z"/>
   <g>
    <path class="fil2" d="M7898.81 3584.77l21.04 244.77c615.78,320.64 1212.02,-276.94 1803.35,-5.48 -548.32,-466.72 -1355.38,573.74 -1824.39,-239.29z"/>
    <path class="fil2" d="M14327.65 3613.53l-21.03 244.77c-615.79,320.64 -1212.02,-276.91 -1803.36,-5.47 548.33,-466.69 1355.38,573.77 1824.39,-239.3z"/>
   </g>
   <g>
    <path class="fil2" d="M7898.81 3575.11l21.04 244.77c615.78,320.64 1212.02,-276.91 1803.35,-5.45 -548.32,-466.74 -1355.38,573.76 -1824.39,-239.32z"/>
    <path class="fil2" d="M14327.65 3603.91l-21.03 244.76c-615.79,320.65 -1212.02,-276.93 -1803.36,-5.45 548.33,-466.75 1355.38,573.74 1824.39,-239.31z"/>
   </g>
   <path class="fil1" d="M5956.58 1149.12c-24.13,40.12 -62.16,69.27 -113.34,86.91 -27.73,-44.92 -57.15,-76.74 -88.7,-95.45 -31.56,-18.99 -71.01,-28.35 -118.61,-28.35 -33.7,0 -59.55,6.15 -77.71,18.7 -21.04,14.17 -31.56,32.37 -31.56,54.82 0,24.61 14.1,44.13 42.06,58.84 10.3,5.87 44.73,17.38 103.57,34.49 77.94,23.53 139.63,45.46 184.82,66.31 45.43,20.58 80.59,43.04 105.92,67.65 76.04,73.27 114.05,171.14 114.05,293.89 0,126.2 -37.06,225.67 -111.4,297.61 -40.66,39.32 -86.34,67.92 -137.26,86.12 -50.94,18.44 -111.2,27.54 -180.79,27.54 -125.52,0 -226.67,-30.49 -303.42,-91.73 -76.51,-60.43 -114.78,-134.5 -114.78,-221.68 0,-68.45 26.77,-132.08 80.58,-191.18 24.38,8.02 50.93,21.12 80.09,39.58 29.41,18.72 55.96,39.57 80.36,63.11 -34.67,21.92 -57.88,40.65 -70.05,56.14 -12.2,15.23 -18.18,34.5 -18.18,57.5 0,48.65 22.47,90.65 67.18,126.2 45.91,35.56 105.94,53.22 180.06,53.22 76.51,0 137.01,-14.18 181.47,-42.25 19.62,-12.57 35.64,-29.68 47.83,-51.35 12.43,-21.64 18.66,-43.59 18.66,-65.52 0,-48.93 -23.66,-89.3 -70.77,-120.59 -25.6,-17.11 -78.69,-38.78 -159.03,-64.17 -82.49,-26.75 -141.3,-47.87 -175.97,-63.92 -34.93,-16.03 -65.54,-35.84 -92.29,-59.9 -70.06,-62.84 -104.99,-141.45 -104.99,-236.65 0,-106.45 34.2,-184.78 102.34,-235.05 60.73,-44.4 142.76,-66.58 246.54,-66.58 80.81,0 149.68,12.55 206.84,37.71 57.37,24.86 99.45,60.96 126.47,108.01zm412 946.35l-191.29 0 0 -221.68 191.29 0 0 221.68zm967.93 -64.99c-74.61,58.57 -179.56,87.71 -314.44,87.71 -159.24,0 -288.62,-46.79 -387.6,-140.13 -110.24,-104 -165.22,-243.87 -165.22,-419.28 0,-132.11 29.88,-245.47 89.68,-339.88 90.62,-144.12 229.77,-216.32 417.49,-216.32 76.51,0 140.35,10.42 191.29,31 50.92,20.61 98.27,55.38 142.28,104.56 -24.4,41.72 -62.91,65.79 -115.75,71.95 -16.26,-37.46 -34.21,-63.39 -53.57,-77.55 -19.36,-14.18 -46.63,-21.14 -81.54,-21.14 -81.77,0 -144.66,36.1 -189.14,108.02 -15.3,24.59 -25.82,58.3 -31.08,100.83 -5.5,42.53 -8.13,110.98 -8.13,205.62 0,134.24 2.87,229.18 8.86,285.06 5.74,55.88 16.74,97.58 33.23,124.6 13.4,22.46 29.41,39.04 47.84,49.48 18.65,10.42 44.46,17.63 78.19,21.91l0 -684.02 337.62 0 0 707.55zm411.27 64.99l-272.61 0 0 -823.34 272.61 0 0 823.34zm-133.9 -1161.87c42.08,0 78.43,14.17 108.8,42.27 30.37,28.88 45.43,63.36 45.43,103.47 0,40.64 -15.3,75.14 -45.91,103.48 -30.61,28.07 -67.66,42.23 -110.94,42.23 -43.52,0 -80.59,-14.16 -110.94,-42.23 -30.39,-28.89 -45.42,-63.38 -45.42,-103.48 0,-40.64 15.28,-75.15 46.14,-103.47 30.85,-28.09 68.62,-42.27 112.86,-42.27zm559.77 1161.87l-272.61 0 0 -823.34 272.61 0 0 198.15c53.78,-151.89 125.05,-227.83 214.24,-227.83 12.2,0 27.26,0.8 44.96,2.14 5,32.89 7.63,60.7 7.63,83.16 0,41.71 -9.31,89.57 -27.96,143.32 -27.51,-21.93 -52.84,-32.87 -75.56,-32.87 -44.47,0 -82.97,25.39 -115.73,75.93 -31.8,49.74 -47.58,114.19 -47.58,193.6l0 387.75zm1017.89 -1069.36l0 1069.36 -267.56 0 0 -54.01c-38.26,48.39 -83.69,72.72 -135.82,72.72 -51.89,0 -103.76,-17.38 -155.66,-52.41 -108.8,-74.34 -163.09,-201.35 -163.09,-381.58 0,-136.11 33.72,-243.6 100.92,-321.68 59.29,-69.53 130.07,-104.29 212.09,-104.29 30.85,0 56.42,6.17 76.75,18.46 20.33,12.3 41.85,34.23 64.81,66.04l0 -312.6 267.56 0zm-267.56 878.96l0 -388.53c0,-104.02 -22.96,-155.9 -68.64,-155.9 -13.63,0 -27.01,6.42 -40.64,19.52 -13.63,13.11 -23.67,29.41 -30.12,48.67 -19.14,56.96 -28.71,147.34 -28.71,271.15 0,124.08 7.67,207.49 23.21,249.76 16.26,45.44 38.01,68.19 65.03,68.19 21.99,0 40.66,-11.24 56.44,-33.44 15.54,-22.2 23.43,-48.67 23.43,-79.43zm687.7 190.4l-267.58 0 0 -1069.36 267.58 0 0 340.69c33.7,-42.26 65.26,-71.41 94.9,-87.99 29.67,-16.32 66.25,-24.61 109.52,-24.61 51.89,0 97.32,11.24 136.06,33.7 54.05,31.81 85.61,82.63 94.45,152.67 2.4,20.33 3.59,58.05 3.59,112.85l0 542.04 -267.57 0 0 -546.85c0,-74.06 -5,-124.07 -14.81,-149.48 -9.81,-25.65 -28.92,-38.5 -57.39,-38.5 -22,0 -40.88,7.23 -56.66,21.66 -16.03,14.18 -27.03,34.23 -33.01,59.91 -5.99,25.94 -9.08,64.44 -9.08,114.99l0 538.28zm1221.84 0l-258.46 0 8.36 -102.69c-50.92,47.06 -93,78.89 -126.01,95.47 -33.25,16.84 -70.54,25.14 -112.15,25.14 -64.08,0 -111.42,-20.86 -142.27,-62.58 -31.32,-42.78 -46.86,-96.53 -46.86,-160.7 0,-102.7 37.79,-175.16 113.57,-216.86 44.24,-25.15 117.9,-46.54 220.47,-64.19l80.59 -14.98c0,-33.42 0,-55.35 0,-65.78 0.48,-77.81 -5.28,-127.82 -17.46,-149.74 -14.1,-26.48 -42.08,-39.85 -84.17,-39.85 -30.12,0 -54.76,6.69 -73.65,20.08 -18.88,13.09 -28.47,30.74 -28.47,52.65 0,30.49 16.98,57.25 50.96,80.76 -18.18,17.92 -41.85,36.38 -71.51,56.18 -29.41,19.52 -56.19,35.03 -80.35,46.52 -53.79,-44.92 -80.57,-91.98 -80.57,-140.93 0,-41.17 17.44,-79.14 52.6,-113.63 59.77,-58.04 148,-86.93 264.7,-86.93 70.06,0 131.75,10.44 185.3,31.02 53.58,20.6 90.39,48.41 110.49,83.44 14.33,24.32 23.91,51.33 28.21,81.03 4.54,29.41 6.67,77.8 6.67,145.18l0 501.39zm-262.76 -425.43c-50.93,3.21 -87.27,17.38 -109.05,42.78 -21.98,25.14 -33,65.24 -33,120.06 0,41.7 6.7,74.34 20.33,97.87 13.39,23.52 32.06,35.28 55.95,35.28 23.21,0 40.17,-9.34 50.44,-28.07 10.28,-18.98 15.33,-49.46 15.33,-91.73l0 -176.2zm687.92 425.43l-272.6 0 0 -823.34 272.6 0 0 198.15c53.8,-151.89 125.06,-227.83 214.26,-227.83 12.17,0 27.24,0.8 44.95,2.14 5,32.89 7.63,60.7 7.63,83.16 0,41.71 -9.31,89.57 -27.98,143.32 -27.47,-21.93 -52.84,-32.87 -75.55,-32.87 -44.48,0 -82.96,25.39 -115.74,75.93 -31.79,49.74 -47.57,114.19 -47.57,193.6l0 387.75zm614.99 0l-272.59 0 0 -1069.36 272.59 0 0 1069.36zm792.91 0l-258.48 0 8.36 -102.69c-50.92,47.06 -93,78.89 -126.01,95.47 -33.23,16.84 -70.54,25.14 -112.14,25.14 -64.09,0 -111.43,-20.86 -142.28,-62.58 -31.32,-42.78 -46.86,-96.53 -46.86,-160.7 0,-102.7 37.78,-175.16 113.57,-216.86 44.26,-25.15 117.9,-46.54 220.47,-64.19l80.59 -14.98c0,-33.42 0,-55.35 0,-65.78 0.45,-77.81 -5.28,-127.82 -17.48,-149.74 -14.1,-26.48 -42.06,-39.85 -84.17,-39.85 -30.12,0 -54.74,6.69 -73.64,20.08 -18.88,13.09 -28.45,30.74 -28.45,52.65 0,30.49 16.99,57.25 50.93,80.76 -18.18,17.92 -41.84,36.38 -71.51,56.18 -29.41,19.52 -56.16,35.03 -80.33,46.52 -53.79,-44.92 -80.57,-91.98 -80.57,-140.93 0,-41.17 17.44,-79.14 52.59,-113.63 59.78,-58.04 148.01,-86.93 264.69,-86.93 70.06,0 131.77,10.44 185.32,31.02 53.58,20.6 90.39,48.41 110.47,83.44 14.35,24.32 23.91,51.33 28.23,81.03 4.52,29.41 6.69,77.8 6.69,145.18l0 501.39zm-262.78 -425.43c-50.94,3.21 -87.29,17.38 -109.04,42.78 -22.01,25.14 -33.01,65.24 -33.01,120.06 0,41.7 6.7,74.34 20.33,97.87 13.39,23.52 32.04,35.28 55.95,35.28 23.19,0 40.17,-9.34 50.44,-28.07 10.28,-18.98 15.33,-49.46 15.33,-91.73l0 -176.2zm687.92 425.43l-272.6 0 0 -1069.36 272.6 0 0 1069.36z"/>
   <g>
    <path class="fil1" d="M3986.71 3640.4l52.37 -5.4c3.1,18.45 9.5,31.94 19.2,40.59 9.62,8.58 22.58,12.93 38.97,12.93 17.33,0 30.41,-3.84 39.16,-11.57 8.83,-7.65 13.23,-16.61 13.23,-26.87 0,-6.62 -1.88,-12.22 -5.6,-16.83 -3.67,-4.66 -10.11,-8.69 -19.38,-12.07 -6.25,-2.35 -20.66,-6.37 -43.06,-12.22 -28.85,-7.45 -49.08,-16.69 -60.69,-27.59 -16.39,-15.34 -24.57,-34.03 -24.57,-56.1 0,-14.23 3.85,-27.49 11.55,-39.89 7.68,-12.32 18.79,-21.73 33.25,-28.23 14.54,-6.43 31.96,-9.67 52.45,-9.67 33.51,0 58.64,7.65 75.6,22.99 16.87,15.41 25.75,35.85 26.62,61.5l-53.8 2.46c-2.3,-14.35 -7.29,-24.68 -14.85,-30.9 -7.56,-6.3 -18.92,-9.41 -34.08,-9.41 -15.65,0 -27.93,3.3 -36.73,10.06 -5.72,4.29 -8.57,10.06 -8.57,17.28 0,6.62 2.67,12.26 7.99,16.94 6.79,5.98 23.29,12.2 49.47,18.64 26.21,6.49 45.57,13.19 58.1,20.07 12.55,6.94 22.34,16.38 29.5,28.38 7.06,12.02 10.6,26.82 10.6,44.42 0,15.98 -4.23,30.98 -12.75,44.88 -8.47,13.96 -20.47,24.34 -35.96,31.11 -15.54,6.81 -34.89,10.18 -58.05,10.18 -33.71,0 -59.57,-8.1 -77.65,-24.41 -18.05,-16.29 -28.86,-40.06 -32.34,-71.23zm261.66 -138.71l0 -49.48 51.09 0 0 49.48 -51.09 0zm0 229.43l0 -202.02 51.09 0 0 202.02 -51.09 0zm279.12 0l-51.08 0 0 -103.12c0,-21.84 -1.12,-35.92 -3.29,-42.34 -2.17,-6.38 -5.77,-11.37 -10.67,-14.95 -4.91,-3.51 -10.81,-5.31 -17.68,-5.31 -8.89,0 -16.82,2.52 -23.86,7.59 -7.01,5.1 -11.85,11.82 -14.46,20.2 -2.61,8.37 -3.92,23.84 -3.92,46.42l0 91.51 -51.06 0 0 -202.02 47.41 0 0 29.67c16.89,-22.87 38.12,-34.3 63.67,-34.3 11.25,0 21.6,2.14 30.94,6.37 9.28,4.29 16.37,9.67 21.15,16.3 4.77,6.63 8.13,14.08 10,22.48 1.91,8.37 2.85,20.32 2.85,35.9l0 125.6zm220.2 -142.29l-50.39 9.5c-1.68,-10.54 -5.52,-18.46 -11.55,-23.78 -6.01,-5.33 -13.76,-8 -23.33,-8 -12.77,0 -22.9,4.62 -30.49,13.77 -7.55,9.22 -11.35,24.61 -11.35,46.18 0,23.96 3.86,40.9 11.55,50.79 7.7,9.86 17.99,14.78 30.96,14.78 9.76,0 17.62,-2.84 23.84,-8.6 6.21,-5.79 10.55,-15.73 13.09,-29.77l50.2 8.91c-5.2,24.1 -15.24,42.36 -30.02,54.62 -14.77,12.34 -34.56,18.44 -59.46,18.44 -28.25,0 -50.76,-9.27 -67.52,-27.91 -16.83,-18.65 -25.19,-44.48 -25.19,-77.48 0,-33.31 8.42,-59.29 25.24,-77.87 16.89,-18.63 39.67,-27.92 68.39,-27.92 23.53,0 42.2,5.34 56.11,15.92 13.84,10.58 23.83,26.75 29.92,48.43zm150.5 77.99l50.95 8.9c-6.57,19.55 -16.88,34.42 -31.03,44.64 -14.08,10.24 -31.78,15.3 -52.99,15.3 -33.59,0 -58.41,-11.43 -74.53,-34.42 -12.73,-18.38 -19.14,-41.61 -19.14,-69.6 0,-33.53 8.38,-59.75 25.15,-78.72 16.69,-18.96 37.85,-28.45 63.42,-28.45 28.75,0 51.39,9.94 68.02,29.82 16.58,19.85 24.52,50.25 23.83,91.23l-128.04 0c0.38,15.84 4.49,28.18 12.35,36.93 7.88,8.86 17.76,13.27 29.49,13.27 8.01,0 14.7,-2.26 20.17,-6.82 5.47,-4.61 9.62,-11.96 12.35,-22.09zm2.92 -54.02c-0.37,-15.52 -4.15,-27.27 -11.42,-35.33 -7.27,-8.05 -16.15,-12.06 -26.57,-12.06 -11.17,0 -20.35,4.28 -27.62,12.78 -7.27,8.45 -10.88,20.01 -10.74,34.61l76.34 0zm315.65 118.32l-51.06 0 0 -201.53c-18.69,18.34 -40.68,31.85 -65.98,40.55l0 -48.52c13.28,-4.53 27.8,-13.17 43.45,-25.9 15.63,-12.79 26.37,-27.67 32.14,-44.7l41.46 0 0 280.11zm77.46 -64.49l49.46 -5.7c1.23,10.52 4.41,18.3 9.49,23.37 5.08,5.06 11.79,7.59 20.16,7.59 10.55,0 19.51,-5.06 26.88,-15.19 7.45,-10.13 12.17,-31.17 14.21,-63.18 -12.84,15.64 -28.91,23.44 -48.16,23.44 -20.97,0 -39.09,-8.51 -54.28,-25.4 -15.21,-16.94 -22.86,-38.96 -22.86,-66.08 0,-28.33 8.07,-51.11 24.13,-68.46 16.01,-17.28 36.5,-26 61.33,-26 27.04,0 49.2,11.01 66.61,32.86 17.31,21.91 25.99,57.87 25.99,107.94 0,51.04 -9.07,87.81 -27.12,110.39 -18.04,22.54 -41.59,33.83 -70.57,33.83 -20.84,0 -37.66,-5.77 -50.51,-17.41 -12.85,-11.62 -21.1,-28.94 -24.76,-52.01zm115.69 -116.82c0,-17.27 -3.78,-30.64 -11.36,-40.14 -7.57,-9.54 -16.39,-14.27 -26.32,-14.27 -9.42,0 -17.31,3.88 -23.5,11.7 -6.29,7.78 -9.38,20.58 -9.38,38.38 0,17.97 3.42,31.23 10.18,39.59 6.75,8.46 15.25,12.69 25.45,12.69 9.8,0 18.12,-4.04 24.83,-12.16 6.75,-8.12 10.11,-20.07 10.11,-35.78zm91.4 116.82l49.47 -5.7c1.24,10.52 4.41,18.3 9.5,23.37 5.08,5.06 11.79,7.59 20.16,7.59 10.57,0 19.51,-5.06 26.88,-15.19 7.44,-10.13 12.16,-31.17 14.21,-63.18 -12.86,15.64 -28.93,23.44 -48.16,23.44 -20.98,0 -39.09,-8.51 -54.3,-25.4 -15.19,-16.94 -22.85,-38.96 -22.85,-66.08 0,-28.33 8.07,-51.11 24.14,-68.46 16.02,-17.28 36.49,-26 61.32,-26 27.07,0 49.23,11.01 66.62,32.86 17.3,21.91 26,57.87 26,107.94 0,51.04 -9.08,87.81 -27.13,110.39 -18.06,22.54 -41.59,33.83 -70.57,33.83 -20.85,0 -37.68,-5.77 -50.5,-17.41 -12.86,-11.62 -21.11,-28.94 -24.79,-52.01zm115.71 -116.82c0,-17.27 -3.78,-30.64 -11.37,-40.14 -7.56,-9.54 -16.38,-14.27 -26.3,-14.27 -9.44,0 -17.32,3.88 -23.53,11.7 -6.27,7.78 -9.36,20.58 -9.36,38.38 0,17.97 3.41,31.23 10.16,39.59 6.77,8.46 15.27,12.69 25.46,12.69 9.81,0 18.13,-4.04 24.82,-12.16 6.76,-8.12 10.13,-20.07 10.13,-35.78zm88.54 107.28l49.4 -6.22c1.63,13.16 5.84,23.23 12.79,30.19 6.89,7.01 15.27,10.52 25.09,10.52 10.54,0 19.41,-4.24 26.61,-12.61 7.23,-8.37 10.81,-19.6 10.81,-33.83 0,-13.44 -3.42,-24.08 -10.37,-31.94 -6.88,-7.92 -15.34,-11.83 -25.24,-11.83 -6.52,0 -14.36,1.3 -23.48,3.97l5.66 -43.51c13.84,0.32 24.39,-2.79 31.66,-9.43 7.25,-6.68 10.91,-15.52 10.91,-26.57 0,-9.39 -2.65,-16.88 -7.99,-22.46 -5.36,-5.59 -12.5,-8.38 -21.31,-8.38 -8.74,0 -16.18,3.19 -22.34,9.55 -6.21,6.31 -9.99,15.6 -11.29,27.74l-47.11 -8.32c3.31,-16.87 8.2,-30.39 14.84,-40.47 6.58,-10.04 15.82,-17.98 27.61,-23.76 11.86,-5.79 25.08,-8.72 39.73,-8.72 25.13,0 45.25,8.4 60.38,25.15 12.47,13.7 18.75,29.16 18.75,46.43 0,24.48 -12.78,44.02 -38.37,58.58 15.29,3.44 27.47,11.09 36.64,23.05 9.13,11.88 13.72,26.3 13.72,43.19 0,24.48 -8.58,45.33 -25.63,62.6 -17.06,17.21 -38.36,25.83 -63.82,25.83 -24.14,0 -44.13,-7.25 -60,-21.73 -15.91,-14.56 -25.09,-33.51 -27.65,-57.02z"/>
    <path class="fil1" d="M1192.22 2617.63c3.09,11.66 3.66,21.47 1.66,29.44 -1.92,7.69 -8.24,14.98 -18.93,21.86 -10.38,6.67 -23.73,12.07 -40.04,16.2 -0.51,7.48 -0.97,12.12 -1.44,13.95 -2.36,9.48 -7.07,16.89 -14.13,22.21 -7.3,5.28 -14.81,6.97 -22.5,5.03 -7.95,-1.97 -13.6,-6.12 -16.94,-12.4 -3.29,-6.53 -3.8,-14.3 -1.56,-23.28 0.44,-1.81 1.53,-3.98 3.27,-6.54 2.05,-2.77 4.55,-5.68 7.5,-8.76 -2.23,-6.3 -3.95,-10.4 -5.1,-12.31l-2.6 -4.34c-10.19,15.72 -21.5,27.77 -33.96,36.1 -12.11,8.17 -23.07,11.02 -32.8,8.59 -11.55,-2.88 -19.59,-10.06 -24.07,-21.53 -4.38,-10.91 -4.76,-23.54 -1.18,-37.93 3.96,-15.9 14.99,-28.44 33.08,-37.53 17.12,-8.55 33.13,-10.97 48.02,-7.25 15.66,3.88 29.15,11.47 40.53,22.79 11.05,11.46 18.2,24.83 21.49,40.1 5.27,-1.43 9.85,-3.95 13.75,-7.61 3.66,-3.72 6.13,-8.15 7.41,-13.29 1.85,-7.44 1.33,-15.2 -1.56,-23.27l40.12 -0.21zm9.37 -106.45c7.95,5.25 13.64,12.51 17.04,21.84 3.41,9.3 3.86,18.94 1.35,28.95 -3.5,14.12 -9.83,24.14 -18.94,30.04 -9.03,5.66 -19.97,6.86 -32.79,3.67l-156.68 -39.06 45.88 -39.69 133.56 33.32c0.34,-0.19 0.7,-0.66 1.16,-1.36 0.45,-0.69 0.74,-1.29 0.86,-1.82 0.52,-2.05 -1.37,-4.29 -5.67,-6.72 -3.98,-2.63 -9.4,-4.94 -16.29,-6.91l30.51 -22.25zm-156.02 120.58c-5.64,-1.41 -10.27,-0.93 -13.87,1.47 -3.17,1.91 -5.34,5.05 -6.42,9.42 -0.95,3.84 -0.44,7.24 1.55,10.2 1.99,2.94 4.9,4.9 8.74,5.86 5.41,1.35 10.87,0.79 16.36,-1.65 5.86,-2.63 10.82,-6.71 14.92,-12.24 -5.19,-6.46 -12.28,-10.82 -21.28,-13.06zm246.13 -79.56c12.39,3.8 21.02,13.62 25.85,29.47 4.9,15.62 4.52,32.65 -1.11,51.12 -6.57,21.5 -16.95,41.43 -31.14,59.75 -14.52,18.53 -31.93,34.36 -52.28,47.5l-9.29 -10.29c11.35,-7.31 22.06,-19.68 32.08,-37.09 10.2,-17.07 19.13,-38.14 26.78,-63.18 4.42,-14.41 6.13,-27.29 5.19,-38.65 -1.2,-11.43 -4.72,-18.03 -10.53,-19.82 -3.04,-0.93 -5.95,-0.85 -8.76,0.23 -2.66,1.38 -4.37,3.36 -5.14,5.89 -1.4,4.53 -1.53,9.48 -0.37,14.81 1.31,5.66 3.69,10.97 7.16,15.89l-39.84 17.7c-2.89,-5.05 -4.3,-11.28 -4.23,-18.72 -0.2,-7.54 1.02,-15.6 3.66,-24.19 3.78,-12.4 12.64,-21.44 26.56,-27.15 12.74,-5.51 24.55,-6.6 35.43,-3.28zm-134.73 -46.53c-4.49,-1.56 -8.44,-3.87 -11.85,-7.02 -3.22,-2.79 -5.47,-6.08 -6.68,-9.86 -6.56,4.46 -13.64,7.19 -21.28,8.21 -7.86,0.92 -15.57,0.09 -23.07,-2.49 -8.75,-3.02 -15.9,-8.29 -21.44,-15.77 -4.69,-6.66 -8.16,-14.84 -10.4,-24.57 -2,-9.64 -6.8,-19.26 -14.41,-28.87l43.2 -14.52c4.4,3.47 7.73,7.98 10.03,13.53 2.37,5.3 3.48,10.99 3.34,17.1 -0.15,7.77 1.2,13.99 4.08,18.62 2.57,3.94 6.45,6.83 11.72,8.63 1.5,0.53 3.29,0.59 5.4,0.17 1.74,-0.21 3.55,-1 5.42,-2.33 -2.07,-12.73 -1.26,-24.35 2.36,-34.86l41.9 -1.08c-3.87,11.23 -5.32,21.51 -4.32,30.81 0.99,9.29 4.12,14.84 9.37,16.65 2.5,0.86 5.1,0.21 7.8,-1.93 2.78,-2.4 4.78,-5.34 5.98,-8.85 6.37,-18.51 6.74,-37.41 1.06,-56.71l47.26 16.28c-0.18,11.13 -2.05,21.84 -5.58,32.08 -4.49,13.01 -15.6,24.98 -33.36,35.94 -18.52,11.52 -34.02,15.15 -46.53,10.83zm189.66 -254.35c6.69,6.78 10.74,15.09 12.14,24.89 1.51,9.56 0.01,18.98 -4.51,28.26 -6.39,13.08 -14.64,21.55 -24.78,25.43 -10.01,3.65 -20.97,2.57 -32.86,-3.22l-3.55 -1.74c-1.56,11.02 -4.7,21.41 -9.47,31.15 -6.01,12.36 -18.51,22.9 -37.47,31.6 -19.78,9.2 -35.61,10.88 -47.5,5.09 -4.28,-2.1 -7.92,-4.9 -10.91,-8.42 -2.87,-3.16 -4.68,-6.7 -5.44,-10.58 -7.07,3.61 -14.43,5.46 -22.12,5.53 -7.94,-0.04 -15.47,-1.79 -22.59,-5.28 -8.31,-4.05 -14.76,-10.15 -19.35,-18.27 -3.85,-7.17 -6.31,-15.73 -7.36,-25.64 -0.78,-9.82 -4.38,-19.97 -10.77,-30.43l44.64 -9.15c3.96,3.99 6.7,8.88 8.3,14.66 1.73,5.55 2.12,11.32 1.24,17.39 -1.11,7.7 -0.53,14.02 1.78,18.96 2.06,4.24 5.58,7.57 10.56,10 1.44,0.71 3.21,0.98 5.34,0.85 1.76,-0.02 3.66,-0.58 5.66,-1.66 -1,-4.59 -1.03,-9.62 -0.13,-15.07 0.77,-5.23 2.44,-10.44 4.98,-15.69l43.48 0.48c-5.24,10.7 -7.91,20.72 -8.05,30.07 -0.15,9.33 2.27,15.22 7.26,17.67 2.39,1.15 5.04,0.83 7.99,-0.98 2.95,-1.8 5.28,-4.49 7.03,-8.05 8.57,-17.59 11.23,-36.3 7.96,-56.14l-96.64 -47.15 53.13 -29.26 123.74 60.35c0.24,0.11 0.65,-0.13 1.23,-0.72 0.59,-0.61 1.05,-1.26 1.38,-1.96 0.94,-1.91 -0.44,-4.51 -4.14,-7.79 -3.22,-3.03 -8.06,-6.42 -14.48,-10.12l34.27 -15.07zm41.95 -56c13.52,7.8 24.25,19.33 32.23,34.63 8.19,15.43 12.62,32.65 13.25,51.64l-20.6 5.51c0.2,-9.33 -1.29,-17.85 -4.5,-25.5 -3.12,-7.31 -7.44,-12.55 -12.93,-15.7l-5.5 -3.18c-4.4,6.01 -10.18,9.69 -17.37,11.03 -7.35,1.6 -14.3,0.47 -20.96,-3.38 -7.33,-4.24 -11.97,-10.74 -13.94,-19.5 -2.1,-8.53 -0.82,-16.83 3.79,-24.86 4.77,-8.22 11.43,-13.4 19.97,-15.49 8.76,-1.96 17.62,-0.37 26.56,4.8zm225.97 -304.35c4.85,8.21 6.76,17.24 5.74,27.09 -1.02,9.87 -4.83,18.75 -11.46,26.65 -9.18,10.94 -19.15,17.06 -29.93,18.38 -10.79,1.32 -21.24,-2.27 -31.37,-10.77l-21.26 -17.84c0.35,10.66 -0.69,25.68 -3.1,45.04 -2.06,17.27 -3.3,35.41 -3.7,54.41l-45.21 1.42c1.26,-13.43 3.86,-28.86 7.77,-46.3l6.97 -33.01 -22.86 12.42 -7.37 34.73c-2.05,8.6 -6,22.56 -11.84,41.85l-42.96 -1.85 14.22 -43.51c1.32,-4.05 3.02,-10.4 5.07,-19.02 -9.62,3.66 -18.88,5.03 -27.79,4.1 -9.07,-0.69 -16.54,-3.52 -22.43,-8.45 -10.14,-8.5 -15.08,-19.05 -14.87,-31.64 0.24,-12.22 5.65,-24.63 16.16,-37.17 9.37,-11.17 22.21,-17.82 38.52,-20 15.8,-1.96 28.14,0.82 37.06,8.3 5.68,4.75 10.13,10.38 13.32,16.86 3.39,6.65 5.1,13.43 5.15,20.38 7.42,-3.06 13.49,-5.75 18.17,-8.05l17.8 -8.9 -80.54 -67.59 58.64 -15.54 105.46 88.5c0.38,-0.05 0.91,-0.28 1.64,-0.72 0.71,-0.42 1.31,-0.95 1.83,-1.57 1.36,-1.61 0.64,-4.48 -2.15,-8.55 -2.4,-3.72 -6.27,-8.18 -11.58,-13.34l36.9 -6.33zm-195.07 30.02c-3.66,-3.06 -7.07,-4.53 -10.25,-4.46 -2.82,0.06 -5.32,1.41 -7.54,4.04 -2.38,2.84 -3.22,5.92 -2.56,9.26 0.69,3.69 2.86,7.04 6.51,10.1 3.23,2.74 6.97,4.65 11.21,5.79 4.06,1.34 8.12,1.65 12.17,0.91 1.31,-4.43 1.02,-9.01 -0.91,-13.72 -1.71,-4.55 -4.59,-8.51 -8.63,-11.93zm40.84 -106.93l-17.41 17.41c-19.82,-6.38 -37.21,-9.73 -52.18,-10.11 -14.96,-0.37 -25.33,2.33 -31.15,8.12 -4.48,4.5 -7.67,8.99 -9.53,13.47 -2.25,4.51 -2.9,8.52 -1.96,12.08l-46.84 -18.25c6.54,-12.9 17.3,-26.84 32.26,-41.8 8.23,-8.22 23.94,-10.66 47.14,-7.3 23.19,3.75 49.75,12.55 79.68,26.38zm224.74 -22.45c-5.04,9.93 -10.01,17.32 -14.87,22.18 -10.11,10.09 -28.05,15.34 -53.88,15.7 -24.49,0.19 -40.38,-3.36 -47.68,-10.65l-29.17 -29.17c-0.95,-0.93 -2.34,-1.04 -4.21,-0.28 -1.51,0.74 -2.8,1.68 -3.93,2.81 -1.86,1.86 -2.53,5.69 -1.97,11.49l4.51 22.45 -34.23 -34.24c-0.95,-3.93 -0.01,-8.78 2.78,-14.6 3.19,-5.78 7.88,-11.78 14.04,-17.94 3.01,-2.99 7.21,-5.52 12.64,-7.57 5.97,-1.87 12.34,-2.99 19.07,-3.37l88.65 -5.04 48.26 48.24zm-37.32 -30.58l-60.88 5.91 32.83 32.81c1.86,1.5 3.74,2.43 5.61,2.79 2.23,0.39 4.31,-0.36 6.18,-2.23 3.91,-3.92 7.19,-9.26 9.81,-16 2.81,-6.54 4.95,-14.29 6.45,-23.28zm156.41 -48.67c10.88,12.98 14.22,29.49 10.03,49.6 -3.96,19.55 -13.61,36.27 -28.89,50.13 -15.01,12.96 -32.19,19.25 -51.48,18.86 -19.29,-0.74 -34.81,-7.92 -46.57,-21.52 -8.48,-10.14 -12.23,-22.2 -11.2,-36.19 0.93,-12.86 5.85,-25.97 14.71,-39.27 -8.23,-0.33 -15.26,-1.51 -21.1,-3.53 -6.05,-1.84 -10.5,-4.48 -13.38,-7.94 -4.95,-5.87 -6.53,-14.55 -4.77,-26.04 1.96,-11.65 6.88,-23.9 14.77,-36.72l-9.52 -3.95 11.22 -21.81 55.94 20.38c-9.63,11.19 -16.51,21.28 -20.67,30.29 -4.57,9.38 -5.42,15.77 -2.52,19.23 3.73,4.46 12.31,3.97 25.73,-1.43 8,-3.23 14.07,-5.23 18.29,-5.99 12.07,-2.89 22.98,-3.07 32.71,-0.52 10.65,2.43 19.59,7.91 26.72,16.42zm-32.51 14.33c-2.21,-2.64 -5.18,-3.08 -8.9,-1.34 -2.35,0.93 -6.25,3.69 -11.72,8.27 -7.92,6.64 -15.93,18.03 -24.11,34.24 -8.86,17.42 -11.07,28.79 -6.63,34.05 2.01,2.43 4.88,3.15 8.53,2.16 3.26,-0.65 6.61,-2.44 10.04,-5.33 10.74,-9.01 20.17,-21.06 28.22,-36.11 8.83,-17.06 10.33,-29.04 4.56,-35.94zm146.39 -21.99c9.4,12.45 14.78,27.29 16.14,44.48 1.53,17.41 -1.13,34.98 -7.98,52.72l-21.13 -2.97c3.84,-8.53 5.79,-16.94 5.82,-25.24 -0.02,-7.94 -1.95,-14.46 -5.74,-19.5l-3.84 -5.09c-6.38,3.83 -13.16,4.95 -20.29,3.38 -7.38,-1.42 -13.34,-5.17 -17.96,-11.3 -5.1,-6.76 -6.84,-14.56 -5.22,-23.39 1.41,-8.67 5.8,-15.82 13.21,-21.39 7.59,-5.72 15.74,-7.87 24.42,-6.48 8.83,1.63 16.36,6.56 22.55,14.8zm282.37 -177.65c1.59,9.39 0.14,18.53 -4.34,27.36 -4.49,8.83 -11.23,15.75 -20.26,20.75 -12.73,7.04 -24.35,9.26 -34.88,6.62 -10.29,-2.75 -18.67,-9.93 -25.07,-21.48l-3.28 -5.89c-8.85,9.14 -18.12,16.39 -27.83,21.77 -16.44,9.12 -35.91,9.47 -58.39,1.06 -20.59,-7.64 -34.77,-18.53 -42.6,-32.65 -8.98,-16.19 -10.44,-31.39 -4.44,-45.62 5.19,-11.94 14.49,-21.62 27.91,-29.06 13.88,-7.7 24.07,-11.7 30.58,-11.96l35.24 35.8c-11.6,2.52 -24.71,7.8 -39.28,15.87 -6.69,3.72 -11.6,8.26 -14.67,13.6 -3.78,6.33 -3.92,12.61 -0.45,18.84 3.84,6.95 9.55,10.42 17.14,10.45 5.78,0.13 12.05,-1.7 18.76,-5.41 12.49,-6.93 23.76,-19.08 33.78,-36.41l-50.78 -91.64 60.3 6.52 66.76 120.4c0.35,0.09 0.94,0.08 1.77,-0.06 0.82,-0.17 1.47,-0.36 1.93,-0.63 1.84,-1.02 2.2,-3.95 1.05,-8.73 -0.79,-4.71 -2.81,-10.25 -6.04,-16.62l37.06 7.12zm89 -27.41c1.71,8.77 0.16,17.33 -4.62,25.68 -4.89,8.11 -11.97,14.13 -21.21,18.06 -13.15,5.57 -25.71,6.16 -37.64,1.74 -11.91,-4.43 -20.47,-12.73 -25.64,-24.89l-61.55 -145.01 59.3 12.78 53.8 126.74c0.33,0.13 0.92,0.16 1.77,0.1 0.84,-0.06 1.5,-0.2 1.98,-0.41 1.94,-0.82 2.73,-3.73 2.33,-8.74 -0.56,-4.65 -1.97,-10.35 -4.26,-17.14l35.73 11.11zm168.6 -214.3l-12.7 18.69 -22.22 33.1c-3.19,4.68 -9.84,15.45 -19.93,32.36 12.47,8.47 22.71,16.81 30.66,25.07 8,8.27 13.13,15.92 15.4,22.96 4.91,15.09 2.93,29.09 -5.95,41.99 -8.47,11.64 -20.99,20.17 -37.58,25.56 -10.82,3.53 -24.73,1.79 -41.75,-5.21 -17.16,-7.49 -27.46,-16.52 -30.91,-27.09 -3.01,-9.3 -2.93,-21.01 0.27,-35.13 3.21,-14.1 9.3,-29.58 18.3,-46.41 -7.01,-3.58 -11.8,-5.9 -14.37,-7.02 -3.18,-1.19 -5.83,-2.13 -8.01,-2.81 -2.43,-0.62 -4.19,-0.88 -5.27,-0.79 0.32,0.15 0.79,0.7 1.36,1.64 0.51,0.68 0.94,1.64 1.35,2.88 4.08,12.6 5.14,23.51 3.14,32.77 -2.93,12.36 -11.44,20.84 -25.54,25.42 -12.32,4 -24.92,0.84 -37.71,-9.47 -11.88,-9.19 -20.24,-21.21 -25.05,-36.07 -4.36,-13.33 -4.19,-25.21 0.49,-35.62 4.97,-11.34 14.47,-19.29 28.56,-23.87 9.81,-3.19 22.87,-2.43 39.11,2.29 16.55,4.64 34.94,12.85 55.16,24.64l15.89 -26.86c8.05,-13.75 19.32,-30.87 33.77,-51.43l43.52 18.41zm-155.04 77.49c-0.41,-1.26 -1.31,-3.63 -2.72,-7.06 -4.59,0.39 -8.05,0.95 -10.29,1.67 -7.55,2.46 -13.18,5.68 -16.89,9.67 -3.79,4.57 -4.87,9.35 -3.23,14.4 0.89,2.78 2.76,4.66 5.58,5.69 3.45,1.11 7.29,0.97 11.55,-0.41 6.29,-2.05 10.91,-5.35 13.87,-9.94 3.06,-4.32 3.77,-9.01 2.13,-14.02zm103.49 52.72c-2.79,-8.56 -8.54,-16 -17.28,-22.32 -5.71,14.06 -9.64,25.49 -11.81,34.28 -2.16,9.59 -2.56,16.55 -1.17,20.81 1.14,3.53 2.9,5.87 5.23,7.07 2.34,1.18 5.27,1.2 8.78,0.07 6.28,-2.05 11.18,-7.52 14.67,-16.45 3.26,-8.86 3.77,-16.66 1.58,-23.46zm359.65 -36.75c-1.71,9.37 -6.34,17.48 -13.83,24.28 -7.22,6.77 -15.79,10.95 -25.75,12.51 -14.36,2.27 -26.04,0.38 -35.04,-5.7 -8.73,-6.12 -14.13,-15.7 -16.21,-28.77l-7.25 -45.83c-3.05,2.62 -6.18,4.2 -9.31,4.67 -4.95,0.79 -11.29,0.59 -18.97,-0.6 -2.39,10.28 -8.33,19.25 -17.83,26.92 -9.53,7.42 -20.97,12.15 -34.28,14.28 -19.08,3.01 -37.37,-3.34 -54.85,-19.06 -15.97,-14.6 -25.35,-30.79 -28.17,-48.55 -1.94,-12.28 -0.25,-24.33 5.13,-36.16 5.61,-11.87 13.93,-21.9 24.96,-30.05l-11.09 -9.11 23.08 -14.08 41.96 39.14c-16.24,8.99 -28.91,19.57 -37.95,31.72 -8.81,12.09 -12.36,23.51 -10.66,34.22 0.91,5.74 3.98,9.95 9.23,12.61 4.72,2.73 10.35,3.58 16.88,2.56 10.72,-1.71 19.82,-5.83 27.35,-12.39 -4.33,-1.98 -8.05,-5.15 -11.14,-9.48 -2.83,-4.36 -4.68,-9.29 -5.56,-14.78 -1.31,-8.36 0.32,-15.71 4.94,-22.07 4.81,-6.92 11.65,-11.09 20.51,-12.49 11.25,-1.78 20.31,1.32 27.19,9.35 5.31,6.39 8.77,14.81 10.44,25.27 1.65,0.26 4.02,0.15 7.18,-0.34 2.86,-0.44 5.6,-1.82 8.17,-4.1 2.34,-2.23 4.42,-5.25 6.21,-9.03l-11.4 -72.1 54.44 26.74 21.53 135.95c0.31,0.23 0.75,0.43 1.3,0.63 0.83,0.13 1.63,0.13 2.42,0.01 2.08,-0.32 3.43,-2.96 3.98,-7.86 0.86,-4.69 0.86,-10.57 0,-17.67l32.4 19.37zm94.36 -3.24c-2.53,9.18 -7.83,16.83 -15.89,22.99 -7.77,6.12 -16.69,9.52 -26.72,10.21 -12.4,0.88 -23.37,-2.47 -32.91,-10.03 -9.28,-7.55 -14.32,-17.16 -15.13,-28.79l-12.14 -173.34c-1.2,-17.42 -4.73,-32.02 -10.61,-43.8 -6.14,-12.03 -12.78,-17.8 -19.9,-17.31 -7.13,0.51 -12.99,3.82 -17.59,10 -4.59,6.4 -6.61,13.7 -6.02,21.88 1.17,16.89 5.66,31.57 13.41,44.01l-49.01 -18.45c-4.36,-5.26 -7.76,-10.46 -10.25,-15.58 -2.49,-5.15 -3.87,-9.96 -4.2,-14.45 -0.94,-13.43 4.98,-25.39 17.77,-35.83 12.81,-10.44 28.7,-16.34 47.69,-17.66 22.7,-1.58 42.69,7.48 59.97,27.22 17.58,19.72 27.35,44.24 29.43,73.52l11.71 167.41c1.11,0.73 2.31,1.03 3.64,0.94 2.11,-0.14 3.66,-2.64 4.65,-7.48 1.03,-4.32 1.54,-10.18 1.56,-17.61l30.56 22.13zm78.13 -2.47c0.15,8.47 -3,15.67 -9.53,21.58 -6.75,6.22 -15.04,9.4 -24.83,9.58 -9.8,0.15 -18.04,-2.6 -24.75,-8.3 -6.72,-5.69 -10.15,-12.92 -10.3,-21.65 -0.16,-8.46 3.03,-15.79 9.53,-22 6.49,-6.21 14.66,-9.39 24.43,-9.55 10.07,-0.17 18.44,2.73 25.17,8.69 6.69,5.7 10.13,12.91 10.27,21.64zm300.9 -59.84l-46.33 12.7c7.9,7.36 13.79,14.63 17.73,21.76 3.91,7.15 5.5,13.63 4.81,19.38 -2.13,17.33 -9.61,29.47 -22.45,36.43 -12.34,7 -29.52,9.15 -51.57,6.46 -10.51,-1.31 -22.29,-6.34 -35.33,-15.15 -13.05,-8.79 -26.34,-20.81 -39.94,-36.07l14.13 -14.25c6.77,7.74 15.19,14.11 25.24,19.09 9.8,4.93 20.59,8.11 32.42,9.57 7.87,0.96 15.49,-0.36 22.86,-3.97 7.98,-4.1 12.31,-9.03 13.03,-14.81 0.27,-2.35 -0.03,-5.19 -0.96,-8.5 -0.93,-3.33 -2.35,-6.97 -4.26,-10.91l-54.36 16.1 -31.81 -37.09 53.9 -12.58c-7.68,-8.94 -13.59,-17.25 -17.71,-24.96 -3.9,-7.41 -5.54,-13.62 -4.92,-18.6 1.08,-8.92 5.73,-17.42 13.92,-25.46 7.94,-8.09 18.32,-14.54 31.15,-19.37l-4.53 -8.54 20.84 -7.04 24.42 48.56c-12.73,1.66 -23.41,5.13 -32.07,10.45 -8.6,5.08 -13.34,11.03 -14.17,17.86 -0.03,4.52 0.68,8.47 2.14,11.85 1.41,3.64 3.22,6.25 5.41,7.85l47.52 -15.74 30.87 34.97zm23.71 13.17c4.23,-19.91 13.48,-36.75 27.77,-50.48 14.53,-13.69 31.2,-21.49 50.02,-23.45l-3.61 -11.71 25.89 -3.41 23.76 61.82c-24.05,-5.1 -45.62,-4.14 -64.69,2.89 -19.35,6.97 -30.61,17.97 -33.79,32.97 -2.59,12.17 -1.06,23.44 4.57,33.83 5.43,10.08 13.45,16.24 24.07,18.5 8.53,1.81 21.72,2.72 39.58,2.75l11.38 43.77c-14.04,2.44 -29.47,1.86 -46.3,-1.72 -21.46,-4.56 -37.85,-17.1 -49.17,-37.63 -11.54,-20.84 -14.69,-43.56 -9.47,-68.13zm206.71 115.31c-4.72,8.21 -11.68,14.16 -20.84,17.89 -9.44,3.68 -19.2,4.43 -29.29,2.3 -12.15,-2.6 -21.78,-8.83 -28.88,-18.73 -6.83,-9.83 -9.04,-20.44 -6.62,-31.83l11.13 -52.37 -30.9 0.32 -44.96 -0.23 -10.94 -42.05 56.66 6.34 37.09 3.02 15.5 -72.97 41.26 44.47 -28.64 134.66c1.12,1.05 2.35,1.71 3.64,1.99 2.07,0.43 4.25,-1.53 6.54,-5.91 2.16,-3.87 4.28,-9.36 6.33,-16.49l22.93 29.59zm337.59 129.92c-6.43,7.04 -14.52,11.51 -24.23,13.42 -9.7,1.91 -19.32,0.85 -28.82,-3.17 -13.15,-5.57 -21.93,-13.33 -26.32,-23.27 -4.43,-9.91 -4.04,-20.95 1.12,-33.14l19.99 -47.11 -30.67 -13.02 -1.37 3.29c-2.81,6.59 -6.28,10.72 -10.44,12.39 -4.15,1.67 -9.64,1.08 -16.48,-1.82 -7.79,-3.32 -15.94,-13.54 -24.49,-30.66 -8.39,-16.78 -11.33,-28.09 -8.86,-33.95 1.96,-4.61 4.51,-7.55 7.61,-8.83 3.58,-1.63 8.36,-1.04 14.33,1.78l8.77 3.72 14.74 -34.68c1.03,-2.44 0.38,-5.01 -1.92,-7.71 -2.18,-2.95 -5.37,-5.3 -9.5,-7.07 -6.8,-2.89 -15.95,0 -27.36,8.63 -12.8,9.82 -22.8,23.24 -30.02,40.28 -10.03,23.62 -11.81,47.45 -5.33,71.47l-23.13 5.69c-8.54,-21.17 -13.35,-41.3 -14.43,-60.43 -1.21,-19.49 1.33,-36.66 7.64,-51.51 9.59,-22.63 23.4,-37.18 41.38,-43.63 16.68,-6.15 35.97,-4.57 57.87,4.73 16.09,6.82 28.64,18.9 37.65,36.24 8.61,16.3 10.53,29.34 5.83,39.11l-7.76 18.26 30.69 13.02 28.36 -66.84 32.01 51.54 -53.8 126.71c0.14,0.35 0.53,0.8 1.16,1.35 0.62,0.58 1.17,0.93 1.66,1.16 1.95,0.8 4.59,-0.66 7.91,-4.43 2.99,-3.62 6.1,-8.6 9.38,-14.98l16.84 33.44zm80.04 52.65c-7.11,6.33 -15.75,9.86 -25.84,10.61 -9.86,0.89 -19.21,-1.09 -27.99,-5.98 -10.88,-6.04 -18.25,-14.8 -22.14,-26.34 -3.65,-11.38 -2.67,-22.18 2.98,-32.38l84.26 -151.99c8.45,-15.25 13.43,-29.46 14.93,-42.52 1.42,-13.44 -1.02,-21.88 -7.25,-25.35 -6.25,-3.47 -12.99,-3.85 -20.22,-1.2 -7.34,2.87 -12.99,7.88 -16.97,15.07 -8.2,14.81 -12.43,29.55 -12.71,44.21l-31.07 -42.15c-0.77,-6.77 -0.8,-13 -0.08,-18.65 0.72,-5.66 2.16,-10.44 4.34,-14.4 6.54,-11.79 18,-18.58 34.42,-20.37 16.42,-1.79 32.95,1.93 49.62,11.17 19.89,11.02 31.72,29.52 35.46,55.5 3.98,26.09 -1.14,52 -15.38,77.67l-81.36 146.79c0.53,1.21 1.37,2.14 2.55,2.78 1.83,1.01 4.5,-0.23 7.98,-3.75 3.17,-3.05 6.81,-7.7 10.88,-13.92l13.59 35.21zm66.33 41.79c-4.48,7.18 -11.07,11.49 -19.75,12.93 -9.06,1.52 -17.76,-0.32 -26.04,-5.52 -8.32,-5.19 -13.72,-11.99 -16.24,-20.43 -2.52,-8.44 -1.47,-16.35 3.16,-23.78 4.47,-7.17 11.14,-11.58 19.98,-13.23 8.83,-1.67 17.41,0.09 25.69,5.29 8.53,5.33 13.98,12.33 16.38,20.99 2.53,8.44 1.47,16.36 -3.16,23.76zm100.16 54.81c-4.74,7.02 -11.46,11.09 -20.2,12.21 -9.1,1.19 -17.72,-0.92 -25.83,-6.42 -8.13,-5.46 -13.29,-12.44 -15.52,-20.98 -2.22,-8.53 -0.91,-16.41 3.98,-23.63 4.73,-7.03 11.53,-11.2 20.42,-12.55 8.89,-1.36 17.39,0.69 25.5,6.19 8.33,5.61 13.55,12.81 15.62,21.53 2.22,8.53 0.89,16.41 -3.98,23.64zm93.5 68.93c-5.45,6.48 -12.58,9.83 -21.37,10.04 -9.18,0.25 -17.53,-2.77 -25.02,-9.07 -7.5,-6.3 -11.92,-13.79 -13.22,-22.49 -1.34,-8.7 0.8,-16.42 6.42,-23.12 5.44,-6.48 12.63,-9.92 21.62,-10.32 8.99,-0.41 17.21,2.52 24.72,8.81 7.7,6.48 12.11,14.14 13.28,23.07 1.31,8.69 -0.83,16.4 -6.43,23.08zm288.76 288.97c-8.81,3.66 -18.02,4.31 -27.62,1.93 -9.62,-2.38 -17.88,-7.39 -24.8,-15.07 -9.54,-10.6 -14.23,-21.34 -14.04,-32.21 0.2,-10.84 5.21,-20.7 15.03,-29.54l28.61 -25.77c-4.17,-2.64 -7.41,-5.43 -9.67,-8.36 -1.95,-2.16 -3.37,-5.53 -4.25,-10.06 -11.4,6.69 -23.98,8.57 -37.67,5.61 -13.9,-2.79 -25.81,-9.68 -35.72,-20.7 -5.83,-6.48 -9.31,-15.27 -10.42,-26.38 -0.91,-11.28 0.59,-23.48 4.45,-36.58 -7.22,-4.87 -11.91,-8.48 -14.02,-10.84 -4.8,-5.32 -7.71,-12.12 -8.76,-20.4 -1.36,-9.82 1.18,-17.65 7.68,-23.48 6.48,-5.85 13.26,-8.2 20.32,-7.09 7.08,0.75 13.98,4.85 20.7,12.33 3.01,3.34 5.17,6.72 6.5,10.18 1.5,3.24 2,6.37 1.47,9.34 5.82,2.93 11.56,4.55 17.16,4.82 5.44,0.11 9.82,-1.35 13.15,-4.35 4.73,-4.25 7.02,-8.83 6.89,-13.7 0.09,-5.05 -2.17,-10.14 -6.77,-15.26 -6.73,-7.45 -17.48,-14.67 -32.31,-21.61l20.97 -40.76c14.71,8.83 26.59,18.24 35.59,28.26 10.63,11.79 13.54,26.27 8.68,43.43 -4.13,14.41 -12.68,27.45 -25.64,39.11 -8.46,7.6 -17.26,12.87 -26.4,15.77 -9.33,2.68 -17.46,2.55 -24.4,-0.45 -1.22,5.38 -1.58,10.14 -1.05,14.27 0.53,4.52 1.84,7.98 3.96,10.32 4.42,4.92 10.09,7.65 16.99,8.2 7.1,0.38 13.49,-1.64 19.15,-6 0.63,-5.22 1.82,-9.85 3.53,-13.87 1.72,-4.02 3.93,-7.28 6.68,-9.77 6.3,-5.66 13.37,-8.65 21.28,-9 8.83,-0.47 16.51,2.93 23.05,10.2 6.56,7.27 9.41,15.39 8.56,24.33 -0.47,8.59 -4.11,15.98 -10.99,22.18 -3.73,3.36 -7.25,5.99 -10.53,7.87 2.62,3.32 5.51,5.72 8.62,7.19 3.1,1.49 6.16,2.08 9.18,1.88l65.44 -58.93 7.23 60.22 -102.31 92.12c-0.01,0.38 0.14,0.94 0.49,1.71 0.32,0.78 0.68,1.36 1.01,1.75 1.44,1.58 4.45,1.35 9.05,-0.65 4.23,-2.04 9.15,-5.24 14.82,-9.63l1.13 37.43zm45.66 88.53c-8.27,3.35 -16.95,3.47 -26.07,0.36 -8.9,-3.27 -16.15,-9.06 -21.76,-17.39 -8,-11.83 -10.97,-24.04 -8.89,-36.61 2.05,-12.52 8.56,-22.52 19.51,-29.91l130.59 -88.08 -1.2 60.64 -114.14 76.98c-0.06,0.38 0.02,0.95 0.23,1.77 0.23,0.81 0.48,1.43 0.79,1.87 1.18,1.74 4.2,1.94 9.03,0.6 4.46,-1.42 9.8,-3.9 16.02,-7.45l-4.1 37.22z"/>
    <path class="fil1" d="M4723.29 2286.48l-21.08 -8.15 -37.23 -14.21c-5.26,-2.06 -17.28,-6.14 -36.01,-12.16 -5.45,14.07 -11.28,25.92 -17.54,35.53 -6.27,9.63 -12.57,16.36 -18.9,20.17 -13.61,8.16 -27.7,9.38 -42.25,3.63 -13.25,-5.62 -24.39,-15.89 -33.37,-30.87 -5.86,-9.76 -7.3,-23.7 -4.32,-41.84 3.44,-18.43 9.92,-30.49 19.45,-36.21 8.38,-5.03 19.81,-7.59 34.28,-7.64 14.48,-0.06 30.9,2.41 49.33,7.39 1.91,-7.62 3.1,-12.82 3.61,-15.6 0.43,-3.35 0.76,-6.17 0.94,-8.42 0.05,-2.52 -0.09,-4.29 -0.41,-5.33 -0.09,0.37 -0.52,0.94 -1.29,1.7 -0.55,0.65 -1.37,1.29 -2.51,1.99 -11.35,6.8 -21.76,10.28 -31.23,10.43 -12.71,-0.09 -22.88,-6.47 -30.52,-19.17 -6.64,-11.11 -6.42,-24.08 0.75,-38.88 6.29,-13.64 16.13,-24.48 29.51,-32.54 12.02,-7.2 23.62,-9.71 34.85,-7.49 12.15,2.26 22.05,9.73 29.67,22.43 5.31,8.84 7.51,21.72 6.55,38.65 -0.8,17.15 -4.66,36.91 -11.58,59.29l29.75 9.43c15.19,4.73 34.42,11.86 57.71,21.33l-8.16 46.54zm-110.36 -133.63c1.11,-0.68 3.2,-2.1 6.25,-4.25 -1.41,-4.38 -2.73,-7.6 -3.95,-9.64 -4.1,-6.8 -8.5,-11.55 -13.2,-14.28 -5.33,-2.67 -10.23,-2.65 -14.79,0.09 -2.5,1.5 -3.91,3.74 -4.27,6.73 -0.32,3.59 0.68,7.3 2.99,11.15 3.41,5.66 7.66,9.43 12.81,11.28 4.9,1.99 9.6,1.64 14.16,-1.08zm-28.11 112.69c7.71,-4.63 13.67,-11.92 17.86,-21.86 -14.99,-2.41 -27.03,-3.65 -36.04,-3.79 -9.85,0.06 -16.71,1.23 -20.56,3.55 -3.18,1.91 -5.06,4.15 -5.71,6.66 -0.62,2.57 0.01,5.42 1.91,8.59 3.41,5.67 9.86,9.2 19.33,10.6 9.37,1.15 17.09,-0.08 23.21,-3.76zm123.52 470.23c-9.52,-0.41 -18.15,-3.71 -25.86,-9.93 -7.7,-6.23 -13.07,-14.26 -16.09,-24.13 -4.19,-13.66 -3.89,-25.37 0.9,-35.12 4.75,-9.76 13.44,-16.59 26.1,-20.44l48.94 -14.95 -9.73 -31.88 -3.41 1.05c-6.83,2.1 -12.24,2.08 -16.18,-0.03 -3.98,-2.11 -7.06,-6.71 -9.21,-13.79 -2.49,-8.11 0.12,-20.91 7.74,-38.46 7.45,-17.22 14.22,-26.76 20.29,-28.61 4.81,-1.47 8.68,-1.41 11.68,0.16 3.55,1.68 6.18,5.73 7.85,12.14l2.78 9.1 36.04 -11.03c2.55,-0.76 4.08,-2.9 4.67,-6.41 0.85,-3.58 0.62,-7.51 -0.69,-11.82 -2.16,-7.08 -10.25,-12.21 -24.21,-15.43 -15.74,-3.49 -32.45,-2.52 -50.14,2.92 -24.54,7.48 -43.94,21.43 -58.19,41.82l-19.22 -14.04c10.72,-20.15 23.05,-36.78 37.03,-49.89 14.13,-13.48 28.92,-22.56 44.36,-27.26 23.52,-7.2 43.54,-5.98 60.03,3.64 15.43,8.84 26.62,24.63 33.57,47.39 5.1,16.71 3.92,34.07 -3.56,52.12 -6.94,17.06 -15.69,26.94 -26.21,29.61l-18.96 5.78 9.73 31.87 69.43 -21.23 -18.88 57.64 -131.67 40.25c-0.17,0.34 -0.27,0.91 -0.29,1.75 -0.03,0.85 0.05,1.51 0.2,2.02 0.62,2.02 3.44,3.09 8.45,3.23 4.69,-0.06 10.52,-0.88 17.52,-2.47l-14.8 34.4zm12.02 96.94c-9.44,-1.4 -17.7,-5.72 -24.75,-12.98 -7.03,-6.98 -11.49,-15.42 -13.42,-25.27 -2.37,-12.22 -0.38,-23.51 5.95,-33.9 6.37,-10.14 15.27,-16.31 26.71,-18.54l170.61 -33.15c17.11,-3.33 31.18,-8.62 42.16,-15.89 11.2,-7.56 16.11,-14.84 14.74,-21.86 -1.36,-7.01 -5.37,-12.42 -12.04,-16.26 -6.94,-3.77 -14.43,-4.87 -22.47,-3.32 -16.62,3.24 -30.63,9.47 -42.04,18.69l12.34 -50.89c4.69,-4.96 9.42,-9 14.2,-12.08 4.81,-3.08 9.41,-5.06 13.83,-5.92 13.23,-2.56 25.83,1.85 37.74,13.28 11.93,11.43 19.7,26.5 23.34,45.18 4.34,22.34 -2.22,43.29 -19.71,62.84 -17.46,19.82 -40.57,32.55 -69.39,38.16l-164.76 32.02c-0.57,1.18 -0.72,2.44 -0.48,3.73 0.4,2.07 3.05,3.31 8,3.71 4.4,0.49 10.29,0.27 17.66,-0.62l-18.22 33.05z"/>
    <g>
     <g>
      <path class="fil2" d="M2680.41 4156.88c24.07,0 43.52,19.88 43.52,44.4 0,24.55 -19.45,44.45 -43.52,44.45 -24.06,0 -43.53,-19.89 -43.53,-44.45 0,-24.51 19.47,-44.4 43.53,-44.4z"/>
      <path class="fil2" d="M2779.58 4145.6c24.04,0 43.51,19.9 43.51,44.44 0,24.51 -19.47,44.42 -43.51,44.42 -24.05,0 -43.52,-19.9 -43.52,-44.42 0,-24.53 19.47,-44.44 43.52,-44.44z"/>
      <path class="fil2" d="M2880.99 4125.33c24.03,0 43.53,19.88 43.53,44.4 0,24.54 -19.5,44.44 -43.53,44.44 -24.04,0 -43.52,-19.89 -43.52,-44.44 0,-24.51 19.48,-44.4 43.52,-44.4z"/>
     </g>
     <g>
      <g>
       <path class="fil2" d="M2740.02 2794.2c11.48,0 20.76,9.48 20.76,21.18 0,11.73 -9.28,21.2 -20.76,21.2 -11.46,0 -20.76,-9.47 -20.76,-21.2 0,-11.7 9.3,-21.18 20.76,-21.18z"/>
       <path class="fil2" d="M2789.95 2776.59c9.24,0 16.74,7.65 16.74,17.08 0,9.44 -7.5,17.07 -16.74,17.07 -9.24,0 -16.75,-7.63 -16.75,-17.07 0,-9.43 7.51,-17.08 16.75,-17.08z"/>
       <path class="fil2" d="M2833.76 2773.07c8.21,0 14.86,6.74 14.86,15.12 0,8.38 -6.65,15.13 -14.86,15.13 -8.17,0 -14.82,-6.75 -14.82,-15.13 0,-8.38 6.65,-15.12 14.82,-15.12z"/>
       <path class="fil2" d="M2688.97 2816.51c12.43,0 22.49,10.27 22.49,22.96 0,12.68 -10.06,22.96 -22.49,22.96 -12.42,0 -22.48,-10.28 -22.48,-22.96 0,-12.69 10.06,-22.96 22.48,-22.96z"/>
      </g>
      <g>
       <path class="fil2" d="M2097.97 4342.03c45.04,-15.66 87.46,-34.74 132.52,-67.11 210.19,-161.88 -110.27,-341.76 -132.52,67.11z"/>
       <path class="fil2" d="M1991.14 4410.58c11.17,0 20.23,9.24 20.23,20.66 0,11.4 -9.06,20.62 -20.23,20.62 -11.18,0 -20.24,-9.22 -20.24,-20.62 0,-11.42 9.06,-20.66 20.24,-20.66z"/>
       <path class="fil2" d="M2050.62 4417.59c12.66,0 22.92,10.46 22.92,23.37 0,12.93 -10.26,23.38 -22.92,23.38 -12.65,0 -22.91,-10.45 -22.91,-23.38 0,-12.91 10.26,-23.37 22.91,-23.37z"/>
       <path class="fil2" d="M2106.71 4406.71c13.52,0 24.5,11.19 24.5,25 0,13.82 -10.99,25.02 -24.5,25.02 -13.58,0 -24.54,-11.2 -24.54,-25.02 0,-13.81 10.97,-25 24.54,-25z"/>
       <path class="fil2" d="M2174.52 4372.4c18.36,0 33.24,15.18 33.24,33.91 0,18.69 -14.88,33.88 -33.24,33.88 -18.33,0 -33.2,-15.19 -33.2,-33.88 0,-18.72 14.87,-33.91 33.2,-33.91z"/>
       <path class="fil2" d="M2250.8 4324.86c18.36,0 33.22,15.18 33.22,33.91 0,18.71 -14.86,33.9 -33.22,33.9 -18.36,0 -33.22,-15.18 -33.22,-33.9 0,-18.72 14.86,-33.91 33.22,-33.91z"/>
       <path class="fil2" d="M2318.38 4269.54c21.27,0 38.5,17.61 38.5,39.33 0,21.69 -17.24,39.28 -38.5,39.28 -21.28,0 -38.52,-17.59 -38.52,-39.28 0,-21.72 17.25,-39.33 38.52,-39.33z"/>
       <path class="fil2" d="M2371.31 4187.73c22.14,0 40.1,18.29 40.1,40.9 0,22.57 -17.96,40.9 -40.1,40.9 -22.15,0 -40.09,-18.33 -40.09,-40.9 0,-22.61 17.94,-40.9 40.09,-40.9z"/>
       <path class="fil2" d="M2394.23 4082.5c24.01,0 43.51,19.9 43.51,44.43 0,24.53 -19.5,44.42 -43.51,44.42 -24.07,0 -43.56,-19.88 -43.56,-44.42 0,-24.52 19.49,-44.43 43.56,-44.43z"/>
       <path class="fil2" d="M1998.36 4319.42c15.6,0 28.24,12.91 28.24,28.82 0,15.9 -12.65,28.83 -28.24,28.83 -15.6,0 -28.23,-12.93 -28.23,-28.83 0,-15.91 12.64,-28.82 28.23,-28.82z"/>
       <path class="fil2" d="M2005.26 4235.26c18.97,0 34.36,15.71 34.36,35.06 0,19.36 -15.39,35.08 -34.36,35.08 -18.99,0 -34.36,-15.72 -34.36,-35.08 0,-19.35 15.37,-35.06 34.36,-35.06z"/>
       <path class="fil2" d="M2029.76 4149.52c19.59,0 35.49,16.22 35.49,36.24 0,20.02 -15.9,36.24 -35.49,36.24 -19.63,0 -35.52,-16.22 -35.52,-36.24 0,-20.02 15.89,-36.24 35.52,-36.24z"/>
       <path class="fil2" d="M2072.08 4060.7c22.34,0 40.47,18.5 40.47,41.3 0,22.82 -18.13,41.27 -40.47,41.27 -22.37,0 -40.47,-18.46 -40.47,-41.27 0,-22.81 18.09,-41.3 40.47,-41.3z"/>
       <path class="fil2" d="M2145.17 3992.14c23.6,0 42.76,19.51 42.76,43.63 0,24.08 -19.16,43.63 -42.76,43.63 -23.6,0 -42.75,-19.55 -42.75,-43.63 0,-24.12 19.15,-43.63 42.75,-43.63z"/>
       <path class="fil2" d="M2162.01 3750.06c23.89,0 43.24,19.73 43.24,44.09 0,24.33 -19.35,44.09 -43.24,44.09 -23.85,0 -43.2,-19.76 -43.2,-44.09 0,-24.36 19.35,-44.09 43.2,-44.09z"/>
       <path class="fil2" d="M2152.71 3644.39c21.99,0 39.76,18.15 39.76,40.54 0,22.43 -17.77,40.59 -39.76,40.59 -21.96,0 -39.76,-18.16 -39.76,-40.59 0,-22.39 17.8,-40.54 39.76,-40.54z"/>
       <path class="fil2" d="M2153.9 3543.38c21.95,0 39.76,18.16 39.76,40.58 0,22.42 -17.81,40.58 -39.76,40.58 -21.98,0 -39.76,-18.16 -39.76,-40.58 0,-22.42 17.78,-40.58 39.76,-40.58z"/>
       <path class="fil2" d="M2479.84 4132.11c24.05,0 43.51,19.88 43.51,44.4 0,24.54 -19.46,44.42 -43.51,44.42 -24.04,0 -43.53,-19.87 -43.53,-44.42 0,-24.51 19.49,-44.4 43.53,-44.4z"/>
       <path class="fil2" d="M2574.51 4156.88c24.02,0 43.51,19.88 43.51,44.4 0,24.55 -19.49,44.45 -43.51,44.45 -24.07,0 -43.53,-19.89 -43.53,-44.45 0,-24.51 19.46,-44.4 43.53,-44.4z"/>
       <path class="fil2" d="M2317.42 4009.26c27.62,0 50.02,22.85 50.02,51.05 0,28.17 -22.4,51.04 -50.02,51.04 -27.62,0 -50.02,-22.87 -50.02,-51.04 0,-28.2 22.4,-51.05 50.02,-51.05z"/>
       <path class="fil2" d="M2236.93 3943.82c25.72,0 46.58,21.26 46.58,47.53 0,26.24 -20.86,47.52 -46.58,47.52 -25.72,0 -46.58,-21.28 -46.58,-47.52 0,-26.27 20.86,-47.53 46.58,-47.53z"/>
       <path class="fil2" d="M2192.52 3849.87c23.87,0 43.21,19.72 43.21,44.09 0,24.35 -19.34,44.09 -43.21,44.09 -23.88,0 -43.23,-19.74 -43.23,-44.09 0,-24.37 19.35,-44.09 43.23,-44.09z"/>
       <path class="fil2" d="M2172.11 3452.96c20.37,0 36.89,16.86 36.89,37.65 0,20.79 -16.52,37.63 -36.89,37.63 -20.38,0 -36.89,-16.83 -36.89,-37.63 0,-20.78 16.51,-37.65 36.89,-37.65z"/>
       <path class="fil2" d="M2193.16 3346.1c22.28,0 40.32,18.44 40.32,41.18 0,22.72 -18.04,41.16 -40.32,41.16 -22.28,0 -40.31,-18.44 -40.31,-41.16 0,-22.74 18.03,-41.18 40.31,-41.18z"/>
       <path class="fil2" d="M2234.83 3256.86c21.31,0 38.59,17.64 38.59,39.4 0,21.75 -17.28,39.4 -38.59,39.4 -21.34,0 -38.62,-17.65 -38.62,-39.4 0,-21.76 17.28,-39.4 38.62,-39.4z"/>
       <path class="fil2" d="M2275.87 3172.32c21.32,0 38.62,17.62 38.62,39.4 0,21.75 -17.3,39.4 -38.62,39.4 -21.34,0 -38.62,-17.65 -38.62,-39.4 0,-21.78 17.28,-39.4 38.62,-39.4z"/>
       <path class="fil2" d="M2338.06 3100.68c20.05,0 36.3,16.59 36.3,37.06 0,20.48 -16.26,37.05 -36.3,37.05 -20.06,0 -36.28,-16.57 -36.28,-37.05 0,-20.47 16.22,-37.06 36.28,-37.06z"/>
       <path class="fil2" d="M2392 3034.91c20.08,0 36.33,16.6 36.33,37.08 0,20.45 -16.26,37.02 -36.33,37.02 -20.06,0 -36.3,-16.57 -36.3,-37.02 0,-20.48 16.24,-37.08 36.3,-37.08z"/>
       <path class="fil2" d="M2447.76 2976.22c19.1,0 34.57,15.79 34.57,35.27 0,19.49 -15.48,35.3 -34.57,35.3 -19.12,0 -34.59,-15.81 -34.59,-35.3 0,-19.48 15.48,-35.27 34.59,-35.27z"/>
       <path class="fil2" d="M2506.46 2929.22c17.8,0 32.27,14.77 32.27,32.95 0,18.2 -14.47,32.94 -32.27,32.94 -17.84,0 -32.3,-14.75 -32.3,-32.94 0,-18.19 14.46,-32.95 32.3,-32.95z"/>
       <path class="fil2" d="M2569.24 2886.96c15.62,0 28.25,12.91 28.25,28.83 0,15.93 -12.64,28.84 -28.25,28.84 -15.58,0 -28.23,-12.91 -28.23,-28.84 0,-15.92 12.66,-28.83 28.23,-28.83z"/>
       <path class="fil2" d="M2631.47 2844.69c14.34,0 25.99,11.88 25.99,26.53 0,14.63 -11.65,26.51 -25.99,26.51 -14.35,0 -25.97,-11.88 -25.97,-26.51 0,-14.65 11.62,-26.53 25.97,-26.53z"/>
      </g>
     </g>
     <g>
      <path class="fil2" d="M2973.37 4089.28c24.06,0 43.54,19.89 43.54,44.41 0,24.54 -19.48,44.42 -43.54,44.42 -24.02,0 -43.52,-19.87 -43.52,-44.42 0,-24.51 19.5,-44.41 43.52,-44.41z"/>
      <path class="fil2" d="M3070.3 4030.69c24.02,0 43.53,19.85 43.53,44.4 0,24.53 -19.51,44.42 -43.53,44.42 -24.04,0 -43.52,-19.88 -43.52,-44.42 0,-24.54 19.48,-44.4 43.52,-44.4z"/>
      <path class="fil2" d="M3223.28 3924.74c17.66,0 31.96,14.63 31.96,32.65 0,18.03 -14.3,32.64 -31.96,32.64 -17.67,0 -32.01,-14.61 -32.01,-32.64 0,-18.02 14.34,-32.65 32.01,-32.65z"/>
      <path class="fil2" d="M3279.71 3875.17c15.22,0 27.55,12.61 27.55,28.14 0,15.56 -12.32,28.13 -27.55,28.13 -15.26,0 -27.59,-12.58 -27.59,-28.13 0,-15.54 12.32,-28.14 27.59,-28.14z"/>
      <path class="fil2" d="M3329.36 3823.35c12.79,0 23.14,10.56 23.14,23.63 0,13.04 -10.35,23.62 -23.14,23.62 -12.78,0 -23.13,-10.58 -23.13,-23.62 0,-13.07 10.35,-23.63 23.13,-23.63z"/>
      <path class="fil2" d="M3380.15 3782.8c10.94,0 19.83,9.04 19.83,20.21 0,11.19 -8.9,20.25 -19.83,20.25 -10.97,0 -19.86,-9.06 -19.86,-20.25 0,-11.17 8.9,-20.21 19.86,-20.21z"/>
      <path class="fil2" d="M3149.17 3976.6c24.04,0 43.53,19.88 43.53,44.4 0,24.53 -19.49,44.42 -43.53,44.42 -24.05,0 -43.52,-19.88 -43.52,-44.42 0,-24.51 19.47,-44.4 43.52,-44.4z"/>
     </g>
    </g>
    <path class="fil2" d="M3151.48 3318.14c33.51,-6.49 63.33,-19.08 87.82,-40.59 0,-39.85 24.03,-64.66 72.1,-74.43 60.27,7.01 92.1,80.91 114.84,205.23l-92.32 5.62c-135.11,20.81 -214.27,269.89 -21.41,327 117.49,28.52 206.4,-22.99 284.51,-104.76 23.86,-24.92 14.16,-40.56 8.61,-74.3 -18.55,-112.93 -80.83,-273.51 -115.21,-328.34 -20.65,-42.47 -56.3,-74.42 -106.96,-95.85 -133.73,-20.87 -220.98,17.13 -264.64,110.5 -13.13,36.84 -2.22,60.15 32.67,69.91zm198.46 186.29c77.28,-73.83 146.89,16.38 156.54,99.3 -7.96,29.03 -23.23,52.93 -64.75,58.47 -43.38,13.39 -77.51,-1.66 -102.43,-45.25 -25.56,-51.1 -14.12,-84.93 10.64,-112.52zm-761.09 412.16c134.86,-76.46 269.73,-140.41 404.61,-191.87 15.29,55.94 37.11,105.02 88.61,147.01 -49.78,59.32 -127.47,99.92 -244.01,123.06 -107.41,13.57 -232.89,-19.1 -249.21,-78.2zm-33.68 -37.17c89.8,-31.37 165.06,-98.96 205.19,-184.53 -17.87,-265.12 -85.29,-530.83 224.48,-620.95l0.72 -16.92c-51.72,-13.37 -111.6,-56.05 -118.03,-123.61l-34.12 -5c-217.03,96.19 -333.65,254.4 -374.59,445.38 -37.45,182.86 -19.72,354.38 96.36,505.64zm745.81 -93.23c-131.14,154.32 -325.13,267.76 -582.92,319.77 -256.52,8.18 -486,-156.74 -476.93,-469.62 44.05,-441.52 400.89,-797.78 768.29,-824.75 3.95,152.84 62.59,223.21 270.76,147.56l6.33 21.2c-104.6,45.76 -205.64,91.92 -288.87,149.85 -61.51,38.82 -99.3,91.51 -102.33,164.44 -14.01,132.18 30.45,275.34 1.82,412.99l246.69 -111.49c-1.83,98.68 65.16,169.36 157.16,190.05z"/>
    <g>
     <g>
      <path class="fil2" d="M2680.42 4141.56c24.06,0 43.53,19.89 43.53,44.44 0,24.51 -19.47,44.4 -43.53,44.4 -24.04,0 -43.54,-19.88 -43.54,-44.4 0,-24.54 19.5,-44.44 43.54,-44.44z"/>
      <path class="fil2" d="M2779.6 4130.3c24.05,0 43.52,19.87 43.52,44.42 0,24.53 -19.47,44.41 -43.52,44.41 -24.04,0 -43.53,-19.87 -43.53,-44.41 0,-24.54 19.49,-44.42 43.53,-44.42z"/>
      <path class="fil2" d="M2880.99 4110.03c24.06,0 43.54,19.87 43.54,44.42 0,24.51 -19.48,44.4 -43.54,44.4 -24.04,0 -43.52,-19.88 -43.52,-44.4 0,-24.54 19.48,-44.42 43.52,-44.42z"/>
     </g>
     <g>
      <g>
       <path class="fil2" d="M2740.04 2778.9c11.46,0 20.76,9.46 20.76,21.19 0,11.7 -9.3,21.18 -20.76,21.18 -11.48,0 -20.78,-9.48 -20.78,-21.18 0,-11.73 9.3,-21.19 20.78,-21.19z"/>
       <path class="fil2" d="M2789.97 2761.27c9.22,0 16.72,7.63 16.72,17.07 0,9.43 -7.5,17.09 -16.72,17.09 -9.26,0 -16.77,-7.66 -16.77,-17.09 0,-9.44 7.51,-17.07 16.77,-17.07z"/>
       <path class="fil2" d="M2833.78 2757.75c8.19,0 14.84,6.78 14.84,15.13 0,8.36 -6.65,15.15 -14.84,15.15 -8.19,0 -14.84,-6.79 -14.84,-15.15 0,-8.35 6.65,-15.13 14.84,-15.13z"/>
       <path class="fil2" d="M2688.97 2801.2c12.44,0 22.51,10.27 22.51,22.96 0,12.68 -10.07,22.96 -22.51,22.96 -12.42,0 -22.48,-10.28 -22.48,-22.96 0,-12.69 10.06,-22.96 22.48,-22.96z"/>
      </g>
      <g>
       <path class="fil2" d="M2097.99 4326.72c45.01,-15.71 87.46,-34.74 132.5,-67.15 210.21,-161.84 -110.27,-341.74 -132.5,67.15z"/>
       <path class="fil2" d="M1991.14 4395.27c11.19,0 20.25,9.24 20.25,20.65 0,11.39 -9.06,20.63 -20.25,20.63 -11.17,0 -20.24,-9.24 -20.24,-20.63 0,-11.41 9.07,-20.65 20.24,-20.65z"/>
       <path class="fil2" d="M2050.62 4402.27c12.67,0 22.93,10.47 22.93,23.37 0,12.93 -10.26,23.4 -22.93,23.4 -12.64,0 -22.91,-10.47 -22.91,-23.4 0,-12.9 10.27,-23.37 22.91,-23.37z"/>
       <path class="fil2" d="M2106.73 4391.37c13.5,0 24.48,11.21 24.48,25.02 0,13.81 -10.99,25.03 -24.48,25.03 -13.57,0 -24.54,-11.22 -24.54,-25.03 0,-13.81 10.98,-25.02 24.54,-25.02z"/>
       <path class="fil2" d="M2174.55 4357.1c18.35,0 33.22,15.15 33.22,33.87 0,18.73 -14.87,33.9 -33.22,33.9 -18.36,0 -33.22,-15.16 -33.22,-33.9 0,-18.72 14.86,-33.87 33.22,-33.87z"/>
       <path class="fil2" d="M2250.8 4309.55c18.36,0 33.23,15.18 33.23,33.9 0,18.71 -14.87,33.9 -33.23,33.9 -18.35,0 -33.19,-15.18 -33.19,-33.9 0,-18.71 14.84,-33.9 33.19,-33.9z"/>
       <path class="fil2" d="M2318.39 4254.22c21.3,0 38.55,17.59 38.55,39.31 0,21.72 -17.25,39.32 -38.55,39.32 -21.27,0 -38.54,-17.6 -38.54,-39.32 0,-21.72 17.27,-39.31 38.54,-39.31z"/>
       <path class="fil2" d="M2371.33 4172.4c22.12,0 40.09,18.32 40.09,40.9 0,22.6 -17.97,40.92 -40.09,40.92 -22.16,0 -40.11,-18.32 -40.11,-40.92 0,-22.58 17.95,-40.9 40.11,-40.9z"/>
       <path class="fil2" d="M2394.23 4067.2c24.04,0 43.51,19.87 43.51,44.42 0,24.54 -19.47,44.4 -43.51,44.4 -24.06,0 -43.53,-19.85 -43.53,-44.4 0,-24.54 19.47,-44.42 43.53,-44.42z"/>
       <path class="fil2" d="M1998.39 4304.1c15.6,0 28.23,12.9 28.23,28.82 0,15.92 -12.64,28.85 -28.23,28.85 -15.62,0 -28.25,-12.93 -28.25,-28.85 0,-15.92 12.64,-28.82 28.25,-28.82z"/>
       <path class="fil2" d="M2005.26 4219.94c18.97,0 34.36,15.69 34.36,35.07 0,19.35 -15.39,35.05 -34.36,35.05 -18.96,0 -34.36,-15.7 -34.36,-35.05 0,-19.38 15.4,-35.07 34.36,-35.07z"/>
       <path class="fil2" d="M2029.76 4134.23c19.62,0 35.51,16.21 35.51,36.23 0,20.01 -15.89,36.23 -35.51,36.23 -19.61,0 -35.5,-16.22 -35.5,-36.23 0,-20.02 15.89,-36.23 35.5,-36.23z"/>
       <path class="fil2" d="M2072.08 4045.38c22.36,0 40.49,18.48 40.49,41.28 0,22.82 -18.13,41.3 -40.49,41.3 -22.35,0 -40.46,-18.49 -40.46,-41.3 0,-22.81 18.11,-41.28 40.46,-41.28z"/>
       <path class="fil2" d="M2145.19 3976.81c23.6,0 42.74,19.52 42.74,43.63 0,24.09 -19.14,43.62 -42.74,43.62 -23.62,0 -42.77,-19.53 -42.77,-43.62 0,-24.11 19.15,-43.63 42.77,-43.63z"/>
       <path class="fil2" d="M2162.03 3734.75c23.89,0 43.23,19.73 43.23,44.09 0,24.36 -19.34,44.09 -43.23,44.09 -23.84,0 -43.19,-19.73 -43.19,-44.09 0,-24.36 19.35,-44.09 43.19,-44.09z"/>
       <path class="fil2" d="M2152.74 3629.06c21.96,0 39.75,18.15 39.75,40.58 0,22.39 -17.79,40.58 -39.75,40.58 -21.99,0 -39.77,-18.19 -39.77,-40.58 0,-22.43 17.78,-40.58 39.77,-40.58z"/>
       <path class="fil2" d="M2153.9 3528.05c21.97,0 39.77,18.19 39.77,40.59 0,22.42 -17.8,40.58 -39.77,40.58 -21.95,0 -39.76,-18.16 -39.76,-40.58 0,-22.4 17.81,-40.59 39.76,-40.59z"/>
       <path class="fil2" d="M2479.85 4116.78c24.06,0 43.51,19.89 43.51,44.41 0,24.54 -19.45,44.42 -43.51,44.42 -24.04,0 -43.52,-19.87 -43.52,-44.42 0,-24.51 19.48,-44.41 43.52,-44.41z"/>
       <path class="fil2" d="M2574.51 4141.56c24.02,0 43.52,19.89 43.52,44.44 0,24.51 -19.5,44.4 -43.52,44.4 -24.06,0 -43.53,-19.88 -43.53,-44.4 0,-24.54 19.47,-44.44 43.53,-44.44z"/>
       <path class="fil2" d="M2317.44 3993.96c27.63,0 50.02,22.85 50.02,51.02 0,28.2 -22.39,51.04 -50.02,51.04 -27.62,0 -50.02,-22.84 -50.02,-51.04 0,-28.17 22.4,-51.02 50.02,-51.02z"/>
       <path class="fil2" d="M2236.96 3928.49c25.71,0 46.56,21.28 46.56,47.52 0,26.26 -20.85,47.52 -46.56,47.52 -25.74,0 -46.58,-21.26 -46.58,-47.52 0,-26.24 20.84,-47.52 46.58,-47.52z"/>
       <path class="fil2" d="M2192.52 3834.55c23.89,0 43.22,19.74 43.22,44.11 0,24.35 -19.33,44.09 -43.22,44.09 -23.85,0 -43.2,-19.74 -43.2,-44.09 0,-24.36 19.35,-44.11 43.2,-44.11z"/>
       <path class="fil2" d="M2172.14 3437.66c20.36,0 36.89,16.84 36.89,37.63 0,20.79 -16.53,37.67 -36.89,37.67 -20.37,0 -36.88,-16.87 -36.88,-37.67 0,-20.78 16.51,-37.63 36.88,-37.63z"/>
       <path class="fil2" d="M2193.17 3330.77c22.27,0 40.33,18.44 40.33,41.16 0,22.73 -18.06,41.16 -40.33,41.16 -22.26,0 -40.32,-18.43 -40.32,-41.16 0,-22.72 18.06,-41.16 40.32,-41.16z"/>
       <path class="fil2" d="M2234.83 3241.54c21.31,0 38.62,17.63 38.62,39.4 0,21.76 -17.31,39.4 -38.62,39.4 -21.32,0 -38.6,-17.64 -38.6,-39.4 0,-21.77 17.28,-39.4 38.6,-39.4z"/>
       <path class="fil2" d="M2275.89 3156.99c21.32,0 38.6,17.64 38.6,39.4 0,21.75 -17.28,39.37 -38.6,39.37 -21.33,0 -38.64,-17.62 -38.64,-39.37 0,-21.76 17.31,-39.4 38.64,-39.4z"/>
       <path class="fil2" d="M2338.08 3085.39c20.04,0 36.32,16.57 36.32,37.01 0,20.48 -16.29,37.06 -36.32,37.06 -20.06,0 -36.3,-16.58 -36.3,-37.06 0,-20.44 16.24,-37.01 36.3,-37.01z"/>
       <path class="fil2" d="M2392.01 3019.6c20.07,0 36.32,16.59 36.32,37.04 0,20.48 -16.26,37.06 -36.32,37.06 -20.04,0 -36.3,-16.58 -36.3,-37.06 0,-20.45 16.27,-37.04 36.3,-37.04z"/>
       <path class="fil2" d="M2447.77 2960.88c19.09,0 34.58,15.82 34.58,35.3 0,19.49 -15.5,35.29 -34.58,35.29 -19.12,0 -34.59,-15.8 -34.59,-35.29 0,-19.48 15.48,-35.3 34.59,-35.3z"/>
       <path class="fil2" d="M2506.46 2913.93c17.83,0 32.27,14.73 32.27,32.93 0,18.2 -14.44,32.94 -32.27,32.94 -17.84,0 -32.3,-14.75 -32.3,-32.94 0,-18.21 14.46,-32.93 32.3,-32.93z"/>
       <path class="fil2" d="M2569.27 2871.64c15.6,0 28.23,12.9 28.23,28.84 0,15.9 -12.64,28.82 -28.23,28.82 -15.61,0 -28.26,-12.92 -28.26,-28.82 0,-15.94 12.66,-28.84 28.26,-28.84z"/>
       <path class="fil2" d="M2631.48 2829.37c14.34,0 26,11.88 26,26.51 0,14.66 -11.66,26.51 -26,26.51 -14.33,0 -25.97,-11.85 -25.97,-26.51 0,-14.63 11.64,-26.51 25.97,-26.51z"/>
      </g>
     </g>
     <g>
      <path class="fil2" d="M2973.37 4073.94c24.07,0 43.54,19.9 43.54,44.42 0,24.54 -19.47,44.43 -43.54,44.43 -24,0 -43.51,-19.88 -43.51,-44.43 0,-24.51 19.51,-44.42 43.51,-44.42z"/>
      <path class="fil2" d="M3070.32 4015.36c24.02,0 43.51,19.9 43.51,44.42 0,24.53 -19.49,44.43 -43.51,44.43 -24.06,0 -43.53,-19.89 -43.53,-44.43 0,-24.51 19.47,-44.42 43.53,-44.42z"/>
      <path class="fil2" d="M3223.29 3909.46c17.68,0 31.97,14.61 31.97,32.61 0,18.03 -14.29,32.66 -31.97,32.66 -17.68,0 -31.99,-14.63 -31.99,-32.66 0,-18 14.31,-32.61 31.99,-32.61z"/>
      <path class="fil2" d="M3279.72 3859.86c15.21,0 27.54,12.6 27.54,28.13 0,15.54 -12.32,28.12 -27.54,28.12 -15.24,0 -27.59,-12.59 -27.59,-28.12 0,-15.54 12.34,-28.13 27.59,-28.13z"/>
      <path class="fil2" d="M3329.38 3808.04c12.79,0 23.14,10.53 23.14,23.6 0,13.05 -10.35,23.62 -23.14,23.62 -12.77,0 -23.15,-10.57 -23.15,-23.62 0,-13.07 10.38,-23.6 23.15,-23.6z"/>
      <path class="fil2" d="M3380.17 3767.47c10.96,0 19.82,9.06 19.82,20.24 0,11.17 -8.87,20.25 -19.82,20.25 -10.97,0 -19.84,-9.08 -19.84,-20.25 0,-11.18 8.88,-20.24 19.84,-20.24z"/>
      <path class="fil2" d="M3149.19 3961.28c24.05,0 43.52,19.89 43.52,44.41 0,24.54 -19.47,44.43 -43.52,44.43 -24.06,0 -43.54,-19.88 -43.54,-44.43 0,-24.51 19.48,-44.41 43.54,-44.41z"/>
     </g>
    </g>
    <path class="fil2" d="M3151.48 3302.82c33.53,-6.5 63.35,-19.07 87.85,-40.61 0,-39.84 24.01,-64.63 72.07,-74.43 60.28,7.06 92.1,80.96 114.86,205.22l-92.34 5.64c-135.08,20.83 -214.24,269.93 -21.4,326.98 117.48,28.53 206.39,-22.96 284.53,-104.72 23.84,-24.95 14.15,-40.56 8.61,-74.33 -18.56,-112.91 -80.86,-273.52 -115.22,-328.34 -20.64,-42.46 -56.29,-74.41 -106.95,-95.84 -133.75,-20.88 -221,17.17 -264.63,110.52 -13.13,36.81 -2.26,60.14 32.63,69.9zm198.49 186.29c77.28,-73.85 146.86,16.37 156.53,99.33 -7.95,29.01 -23.24,52.91 -64.76,58.45 -43.37,13.41 -77.52,-1.66 -102.44,-45.27 -25.56,-51.06 -14.1,-84.91 10.67,-112.51zm-761.1 412.17c134.85,-76.46 269.71,-140.43 404.59,-191.87 15.33,55.89 37.13,104.99 88.62,147.01 -49.77,59.31 -127.48,99.87 -244.02,123.05 -107.37,13.58 -232.86,-19.11 -249.19,-78.19zm-33.68 -37.18c89.8,-31.36 165.04,-98.98 205.18,-184.52 -17.86,-265.12 -85.27,-530.84 224.49,-620.96l0.73 -16.92c-51.74,-13.35 -111.61,-56.07 -118.06,-123.6l-34.1 -5c-217.05,96.16 -333.65,254.37 -374.6,445.37 -37.44,182.87 -19.71,354.39 96.37,505.64zm745.79 -93.22c-131.12,154.32 -325.1,267.76 -582.92,319.77 -256.49,8.16 -486,-156.77 -476.91,-469.62 44.04,-441.55 400.87,-797.8 768.27,-824.78 3.95,152.87 62.61,223.21 270.77,147.57l6.32 21.19c-104.58,45.78 -205.61,91.92 -288.85,149.86 -61.53,38.82 -99.3,91.53 -102.35,164.46 -14.01,132.15 30.47,275.31 1.82,412.97l246.7 -111.45c-1.82,98.64 65.17,169.3 157.15,190.03z"/>
    <polygon class="fil2" points="2424.88,2156.64 3596.81,2167.55 3605.56,2196.79 2401.68,2176.68 "/>
    <path class="fil2" d="M2985.1 2172.04l-49.44 344.31 -150.86 -344.31 1.17 18.65 -8.77 -26.21 1.21 17.24 101.55 297.18 -246.8 -296 -44.77 -7.25 399.67 486.87c-51.62,-104.26 -35.57,-205.84 -5.46,-306.88l9.83 -27.75 9.85 27.75c29.56,79.65 36.68,173.66 10.89,288.75l-17.46 26.58c21.85,-25.36 43.69,-50.74 65.51,-76.11l-57.84 -404.7c-10.21,-35.85 -11.35,-18.53 -18.27,-18.13z"/>
    <path class="fil2" d="M3048.13 2562.26l158.35 -375.75 33.84 3.66 -135.42 291.15 5.47 19.32 6.55 3.61 9.84 -3.61 6.55 -4.84 9.83 -12.07 247.89 -299.62 33.83 0 -162.7 223.5 0 16.94 7.66 4.81 242.4 -239.19 27.32 -2.44 -195.48 192.08 15.3 10.88 214 -194.48 37.92 -4.68 -610.02 550.46 2.08 -78.25 33.84 -30.21 3.28 13.29 14.21 1.2 10.91 -7.24 191.09 -251.3 -216.21 242.84c0,0 5.46,-70.06 7.65,-70.06z"/>
    <polygon class="fil2" points="3004.22,2744.15 3004.44,2718.1 2968.39,2649.22 2931.29,2645.61 2609.47,2180.84 2602.58,2182.9 2727.85,2390.36 2742.04,2431.78 2498.86,2178.07 2475.92,2180.47 2691.5,2413.67 2716.14,2453.52 2440.97,2176.86 2408.21,2175.65 2962.95,2707.24 "/>
    <path class="fil2" d="M2413.67 2167.19l255.54 -201.77 677.04 8.47 257.72 210.21 -42.6 -15.71 -70.96 -51.93 38.2 54.36 -31.68 2.44c0,0 -37.12,-79.73 -68.78,-84.58 -31.68,-4.82 -21.85,3.61 -21.85,3.61l6.57 60.42 18.57 16.91 -38.23 -31.43 -6.55 -80.92 -114.68 -56.79 -33.85 1.2 -527.42 -7.24 -193.28 148.61 -57.89 36.22 -45.86 -12.08z"/>
    <polygon class="fil2" points="2584.02,2072.96 2591.64,2173.26 2652.82,2172.04 2792.59,2071.77 2810.09,2076.6 2766.39,2173.26 2801.33,2165.99 2829.71,2069.35 2949.83,2172.04 3000.08,2168.39 2863.57,2057.27 2992.43,1995.63 2915.99,1984.77 2855.94,2029.48 2819.89,2023.43 2784.94,1978.73 2751.08,1983.56 2795.87,2039.15 2635.34,2145.44 2609.13,2139.41 2606.95,2054.84 "/>
    <path class="fil2" d="M3002.28 2152.71l139.77 -112.36 -114.67 -47.11 61.16 -10.89 72.09 43.51 50.22 -31.42 43.66 -6.04 -54.58 55.56 205.29 103.9 33.84 28.99 -69.88 14.5 -21.85 -14.5 -3.27 -30.19 -137.59 -74.9 31.65 100.27 -33.84 1.21 -37.14 -118.42 -132.12 113.55 -26.21 -1.2c0,0 -8.72,-10.89 -6.53,-14.49z"/>
    <polygon class="fil2" points="2403.18,2175.14 2996.09,2740.22 2962.1,2725.47 "/>
   </g>
  </g>
 </g>
</svg>
