<?xml version="1.0" encoding="UTF-8"?>
<!DOCTYPE svg PUBLIC "-//W3C//DTD SVG 1.1//EN" "http://www.w3.org/Graphics/SVG/1.1/DTD/svg11.dtd">
<!-- Creator: CorelDRAW 2017 -->
<svg xmlns="http://www.w3.org/2000/svg" xml:space="preserve" width="144.401mm" height="23.0337mm" version="1.1" style="shape-rendering:geometricPrecision; text-rendering:geometricPrecision; image-rendering:optimizeQuality; fill-rule:evenodd; clip-rule:evenodd"
viewBox="0 0 14354.89 2289.78"
 xmlns:xlink="http://www.w3.org/1999/xlink">
 <defs>
  <style type="text/css">
   <![CDATA[
    .fil0 {fill:#2B2A29}
   ]]>
  </style>
 </defs>
 <g id="Layer_x0020_1">
  <metadata id="CorelCorpID_0Corel-Layer"/>
  <path class="fil0" d="M12535.49 604.07l0 1385 540.72 0 0 -757.25c0,-62.88 145.02,-94.29 145.02,15.02l0 742.22 552.92 0 0 -755.87 0 -383.13c-2.09,-23.04 -43.39,-127.12 -147.74,-220.03 -104.35,-95.66 -307.62,-80.64 -403.83,60.13l-146.36 213.2 0 -299.3 -540.72 0zm-1438.78 15.25l0 552.23 345.32 0c158.54,-40.65 238.87,-256 190.28,-326.47 -170.63,-164.54 38.82,-195.3 124.92,-95.02 59.21,54.84 76.1,280.15 12.67,330.74l-578.25 343.15c-212.7,101.95 -242.29,505.67 54.96,589.16l579.3 4.09 4.06 -315.28 39.28 0c78.99,77.53 69.19,238.13 410.18,315.65l129.52 0 -0.18 -1176.76c-45.62,-105.09 -116.57,-214.41 -284.74,-221.5l-1027.32 0zm736.1 643.09l0 277.74c-246.84,44.49 -238.36,-303.42 0,-277.74zm-863.93 -1060.58l0 1787.23 -607.02 0 0 -1781.72 607.02 -5.52zm-718.46 -0.75l-701.9 0c-41.56,547.37 691.73,639.55 701.9,0zm-0.31 367.7l0 1420.28 -701.88 0 0 -1414.76c233.04,224.7 508.23,216.95 701.88,-5.52zm-2945.56 17.97l0 1402.31 596.96 0 0 -770.1c0,-69.42 160.09,-104.09 160.09,16.59l0 753.51 610.41 0 0 -768.59c4.48,-95.07 160.11,-113.15 160.11,-4.51l0 773.1 628.39 0 1.48 -1151.82c-151.11,-381.74 -514.67,-337.98 -686.74,-86.01 -10.46,16.6 -70.3,70.9 -91.27,107.12 -19.45,31.68 -59.84,-140.32 -175.04,-242.92 -115.21,-105.64 -339.61,-89.04 -445.85,66.39l-161.57 235.37 0 -330.44 -596.96 0zm-2065.31 -57.22l0 1760.23 602.28 0 0 -575.26c306.62,470.13 625.9,238.21 785.55,-105.18 68.02,-143.92 102.06,-306.97 104.29,-446.51 4.23,-276.97 -144.79,-444.36 -315.07,-534.46 -257.58,-135.34 -574.77,-105.24 -574.77,-98.83l0 270.45c-131.92,-270.45 -602.28,-270.45 -602.28,-270.45zm619.33 616.12l0 210.33c59.7,49.39 121.28,57.91 159.65,38.62 59.62,-32.14 78.81,-143.83 34.02,-212.47 -27.66,-45.22 -89.35,-66.51 -193.67,-36.48zm-1490.89 -597.32c412.71,0 748.62,324.53 748.62,721.36 0,398.6 -335.91,723.11 -748.62,723.11 -412.69,0 -750.22,-324.5 -750.22,-723.11 0,-396.82 337.53,-721.36 750.22,-721.36zm-96.12 566.19c139.91,-112.94 304.27,24.57 367.26,133.97 97.92,167.57 50.76,358.06 -27.99,488.56 -55.93,77.61 -120.66,128.77 -185.42,148.16l0 -569.71c-141.6,109.41 -271.05,-105.83 -153.85,-200.99zm-1448.79 -566.19c412.72,0 748.62,324.53 748.62,721.36 0,398.6 -335.9,723.11 -748.62,723.11 -412.65,0 -750.18,-324.5 -750.18,-723.11 0,-396.82 337.53,-721.36 750.18,-721.36zm-96.12 566.19c139.94,-112.94 304.28,24.57 367.27,133.97 97.95,167.57 50.76,358.06 -27.99,488.56 -55.94,77.61 -120.66,128.77 -185.39,148.16l0 -569.71c-141.63,109.41 -271.09,-105.83 -153.89,-200.99zm-2726.66 -962.08l0 1814.07 761.15 0 0 -896.98c42.05,-20.06 81.81,-4.51 119.43,17.82 258.89,147.28 4.48,861.28 559.8,870.22l356.16 6.63 0 -861.2c-143.74,115.95 -398.18,218.61 -645.98,-37.98 367.23,13.45 692.51,-64.62 690.22,-461.91 -2.14,-276.66 -345.1,-450.68 -592.96,-450.68l-1247.82 0zm765.5 116.03l-2.23 664.86c168.19,15.68 281.08,-73.61 289.85,-350.27 4.43,-211.93 -117.25,-350.3 -287.62,-314.59z"/>
  <path class="fil0" d="M13641.03 357.56c0,-61.53 16.02,-121.03 47.83,-178.77 30.25,-55.18 73.24,-98.66 129.16,-130.71 55.97,-32.05 115.72,-48.07 179.29,-48.07 63.58,0 123.08,16.02 178.79,47.82 55.7,31.79 99.18,75.27 130.97,130.97 31.79,55.68 47.82,115.18 47.82,178.77 0,64.1 -16.02,124.11 -47.82,179.81 -31.79,55.42 -75.01,99.15 -130.21,130.94 -55.18,31.8 -114.69,47.57 -178.27,47.08 -98.15,0.49 -182.34,-33.85 -252.52,-102.75 -69.93,-69.16 -105.04,-154.14 -105.04,-255.09zm52.91 -0.49c-0.52,52.62 13.22,103.49 40.94,152.56 25.94,47.31 62.56,84.44 110.37,111.92 47.56,27.2 98.66,40.94 152.82,40.94 83.92,0.52 155.4,-29.25 214.39,-89.52 59.24,-60.02 89.01,-131.98 89.52,-215.9 -0.51,-83.7 -30.53,-154.88 -89.78,-214.42 -59.51,-59.24 -130.71,-89.24 -214.13,-89.75 -84.15,0.51 -155.63,29.99 -214.61,88.75 -59.28,58.47 -89.01,130.46 -89.53,215.41zm184.61 -196.85l126.9 0c79.61,3.06 119.28,39.17 119.28,108.86 -1.02,40.65 -15.28,70.16 -42.48,87.99l-20.08 11.16 67.13 166.85 -71.47 0 -59.77 -154.11 -63.55 0 0 154.11 -55.97 0 0 -374.87zm55.97 55.94l0 108.86 73.72 0c38.91,0 59.02,-18.05 60.53,-54.42 1.02,-35.86 -19.08,-53.91 -60.53,-54.45l-73.72 0z"/>
 </g>
</svg>
