<?xml version="1.0" encoding="UTF-8"?>
<!DOCTYPE svg PUBLIC "-//W3C//DTD SVG 1.1//EN" "http://www.w3.org/Graphics/SVG/1.1/DTD/svg11.dtd">
<!-- Creator: CorelDRAW 2017 -->
<svg xmlns="http://www.w3.org/2000/svg" xml:space="preserve" width="90.0286mm" height="20.827mm" version="1.1" style="shape-rendering:geometricPrecision; text-rendering:geometricPrecision; image-rendering:optimizeQuality; fill-rule:evenodd; clip-rule:evenodd"
viewBox="0 0 8492.62 1964.66"
 xmlns:xlink="http://www.w3.org/1999/xlink">
 <defs>
  <style type="text/css">
   <![CDATA[
    .fil0 {fill:#E31E24}
    .fil1 {fill:#E31E24}
    .fil2 {fill:#393185}
   ]]>
  </style>
 </defs>
 <g id="Layer_x0020_1">
  <metadata id="CorelCorpID_0Corel-Layer"/>
  <g id="_2587314417680">
   <path class="fil0" d="M3065.55 778.65l-31.84 0c-8.7,-33.14 -23.19,-70.17 -42.01,-109.17 -18.83,-39.03 -36.2,-60.45 -52.13,-62.42 -10.13,-1.94 -20.28,-3.89 -33.31,-3.89 -13.04,-1.97 -24.62,-1.97 -34.75,-1.97l-18.81 0 0 625.94c0,13.64 1.42,25.34 4.34,35.08 4.33,11.73 11.57,19.51 21.71,25.37 7.24,3.89 17.39,5.86 30.41,9.74 13.03,3.9 24.62,5.87 34.75,7.78l0.02 44.84 -331.59 0 0 -44.84c8.68,0 20.26,-1.91 34.73,-3.89 14.49,-1.97 24.62,-5.86 30.42,-7.78 10.13,-5.89 17.37,-13.67 21.71,-25.36 2.91,-9.75 4.35,-21.47 4.35,-35.12l0 -631.77 -18.82 0c-10.15,0 -21.72,0 -34.76,1.97 -13.03,-0.03 -23.16,1.94 -31.86,3.89 -17.37,1.94 -34.75,23.41 -53.59,62.42 -18.79,38.98 -33.28,76.03 -41.99,109.17l-31.86 0 0 -228.14 574.86 0 0 228.14zm715.33 571.31l-227.36 0c-39.11,-81.86 -72.39,-146.21 -98.47,-194.96 -26.04,-46.81 -57.89,-103.36 -97,-165.75l-23.18 0 0 241.78c0,13.64 1.47,25.34 5.81,35.09 4.34,9.74 11.57,17.57 21.72,23.41 4.34,3.89 13.03,5.84 24.62,9.75 11.57,1.94 20.26,5.83 28.94,5.83l0 44.84 -315.65 0 0 -44.84c7.24,0 17.37,-1.91 31.84,-3.89 13.05,-1.97 21.72,-5.86 27.52,-7.78 10.13,-5.89 17.39,-13.67 21.72,-23.41 2.9,-9.75 5.79,-21.45 5.79,-35.09l0 -563.55c0,-13.66 -1.45,-25.34 -5.79,-33.14 -2.9,-9.75 -10.13,-17.56 -21.72,-23.39 -8.69,-5.86 -18.83,-9.74 -31.86,-13.66 -11.58,-1.94 -21.72,-5.84 -27.52,-5.84l0.02 -44.86 331.59 0c75.27,0 131.74,15.6 169.39,46.8 39.11,31.2 57.92,79.96 57.92,142.35 0,56.53 -11.57,101.42 -34.75,134.56 -24.61,35.09 -60.82,60.45 -110.06,79.93 20.3,33.14 42.01,72.16 66.63,115.06 26.05,42.89 52.14,87.73 79.64,132.58 8.7,15.59 20.27,33.17 34.75,54.59 14.49,21.45 27.51,33.17 39.11,39.01 7.24,1.96 14.47,3.91 24.6,5.86 10.14,1.94 17.38,3.89 21.72,3.89l0.02 44.84zm-285.28 -594.7c0,-52.67 -10.13,-91.64 -33.3,-117 -21.73,-23.41 -53.57,-37.05 -94.11,-37.05l-33.33 0 0 335.4 31.87 0c40.54,0 72.38,-15.58 95.56,-42.89 21.72,-29.27 33.3,-76.03 33.3,-138.45zm929.62 594.7l-322.9 0 0 -44.84c15.91,-1.94 33.28,-3.89 53.56,-11.67 20.28,-3.94 30.41,-11.72 30.41,-21.47 0,-1.94 0,-5.86 0,-9.75 -1.43,-3.89 -2.9,-7.78 -4.35,-15.6l-50.67 -163.79 -204.16 0c-5.8,13.64 -10.15,33.14 -15.93,52.67 -5.77,21.42 -10.13,39 -14.48,56.53 -5.78,19.5 -8.68,35.11 -10.14,44.86 -1.45,9.74 -1.45,15.59 -1.45,19.48 0,11.73 7.24,21.47 20.28,31.22 14.49,7.75 36.2,13.64 68.05,17.53l0 44.84 -243.27 0 0 -44.84c8.71,0 18.84,-1.91 30.43,-5.83 11.57,-3.94 21.71,-7.81 27.5,-13.67 11.59,-7.8 21.72,-19.5 28.96,-33.14 8.7,-11.7 14.49,-27.31 20.28,-46.81 31.86,-105.31 65.16,-210.6 97.01,-315.85 33.31,-105.31 68.05,-222.31 107.15,-351.01l83.97 0c55.03,181.34 97.04,323.7 128.9,428.99 30.38,105.28 56.46,193.04 78.18,261.29 4.34,11.7 8.68,21.45 14.49,31.2 5.79,9.75 13.03,17.56 23.16,25.34 8.7,5.86 17.38,11.72 27.51,13.67 10.13,3.89 20.28,5.83 27.5,5.83l0.02 44.84zm-311.33 -323.68l-85.42 -288.54 -85.44 288.54 170.85 0zm851.42 -393.88c36.21,33.14 65.16,74.11 88.33,128.73 21.72,52.62 33.31,116.97 33.31,194.98 0.01,66.29 -10.13,124.79 -30.39,175.49 -20.28,50.69 -46.35,91.64 -79.65,122.86 -33.3,33.12 -70.97,56.53 -112.95,72.15 -43.45,15.58 -86.86,23.39 -134.66,23.39l-298.28 -0.03 0 -44.84c8.68,0 20.27,-1.91 33.3,-3.89 13.05,-1.97 23.18,-3.9 27.52,-5.86 10.15,-5.87 15.92,-13.64 20.28,-23.39 4.34,-9.77 5.78,-21.44 5.78,-33.14l0 -567.45c0,-11.69 -1.44,-23.39 -5.78,-35.08 -2.88,-9.77 -10.13,-17.54 -20.28,-23.39 -11.57,-7.8 -21.71,-11.72 -34.75,-13.64 -11.57,-1.99 -20.28,-3.91 -27.52,-3.91l0 -44.86 315.67 0c34.75,0 70.95,5.86 108.6,17.56 39.09,11.69 75.29,33.14 111.48,64.35l0 -0.02zm-85.42 573.28c13.03,-31.18 23.16,-66.29 30.4,-107.23 5.79,-40.98 8.69,-89.7 8.69,-144.31 0,-52.65 -4.34,-101.37 -11.57,-144.29 -8.69,-42.89 -21.72,-79.95 -37.65,-111.14 -15.93,-31.2 -36.21,-54.59 -60.83,-72.15 -23.16,-15.61 -50.68,-25.36 -81.08,-25.36 -10.13,0 -21.72,1.97 -33.31,1.97 -13.02,-0.03 -21.72,0 -27.49,1.94l0 604.44c0,13.64 0,25.38 2.88,37.06 2.91,9.74 7.24,19.5 14.47,27.33 5.8,7.78 14.49,13.64 23.17,17.53 8.71,3.87 21.72,5.86 36.2,5.86 31.87,0 59.37,-7.8 81.1,-23.39 23.18,-15.61 40.54,-39.01 55.03,-68.28zm790.62 -450.42l-31.86 0c-7.24,-31.21 -21.74,-62.39 -42.01,-93.59 -18.83,-31.21 -39.09,-48.75 -57.93,-54.61 -8.68,-1.94 -20.27,-3.89 -36.21,-3.89 -14.47,-1.97 -26.05,-1.97 -36.18,-1.97l-85.44 0 0 308.1 60.83 0c14.45,0 28.92,-1.95 40.53,-5.84 13.04,-5.89 24.61,-15.61 34.74,-29.25 7.25,-7.8 13.05,-23.39 20.26,-44.86 5.81,-21.44 10.15,-40.94 11.59,-56.53l31.87 -0.02 0 331.48 -31.86 0c-1.44,-15.58 -5.8,-35.08 -11.61,-58.48 -7.22,-23.41 -14.45,-40.97 -20.26,-48.75 -8.66,-13.67 -20.25,-23.41 -31.86,-29.25 -13.01,-3.93 -27.51,-5.86 -43.43,-5.86l-60.82 -0.02 0 230.11c0,23.39 0,42.91 2.9,56.55 2.91,13.62 8.68,25.37 14.47,31.2 7.25,7.78 17.39,11.7 28.98,15.59 13.03,1.96 28.94,1.96 49.22,1.96 10.15,0 21.72,0 36.2,0 13.05,0 24.6,-1.96 36.2,-3.89 11.6,-1.97 21.72,-3.91 31.86,-7.83 10.13,-3.89 17.39,-9.75 23.18,-15.58 13.03,-19.5 28.96,-46.81 44.88,-83.86 17.39,-39.01 27.51,-66.29 33.3,-85.79l30.43 -0.03 -11.6 249.59 -556 0 0 -44.84c7.24,0 18.79,-1.91 31.84,-3.89 13.05,-1.97 23.17,-5.86 28.96,-7.78 10.15,-5.89 17.37,-13.67 20.28,-23.41 4.34,-9.75 5.78,-21.45 5.78,-35.09l0 -563.55c0,-13.66 -1.46,-25.34 -4.36,-33.14 -2.88,-9.75 -10.13,-17.56 -21.71,-23.39 -7.24,-5.86 -17.39,-9.74 -30.4,-13.66 -14.48,-3.91 -23.16,-5.84 -30.41,-5.84l0.02 -44.86 525.62 0 0 204.75zm340.25 616.15c-36.18,0 -69.49,-5.84 -101.34,-19.48 -31.86,-11.7 -57.94,-25.34 -79.64,-42.89l-28.96 40.92 -34.75 0 -5.79 -288.59 36.2 0c7.25,27.33 17.39,54.61 30.41,85.8 13.06,31.2 27.52,58.5 43.43,81.92 17.4,25.34 36.21,44.86 56.48,60.45 21.72,15.58 46.34,23.41 73.84,23.41 39.09,0 68.06,-11.72 88.31,-37.08 18.86,-23.39 28.97,-56.53 28.97,-93.59 0,-31.2 -7.24,-56.53 -24.6,-78 -17.38,-21.44 -43.46,-40.94 -79.64,-54.58 -23.18,-11.73 -44.9,-19.51 -65.17,-29.25 -18.8,-7.81 -37.63,-17.56 -55.01,-25.37 -40.53,-21.44 -69.5,-52.62 -88.31,-91.62 -20.28,-40.97 -28.96,-85.79 -28.96,-134.57 0,-31.17 4.34,-60.42 14.47,-89.67 10.13,-29.27 24.62,-54.61 43.43,-78.02 18.85,-21.45 41.99,-39.01 70.95,-50.68 28.98,-13.67 59.35,-21.47 94.12,-21.47 31.86,0 63.71,5.86 91.23,19.5 28.98,11.7 52.12,23.39 68.05,35.11l26.06 -33.16 36.2 0 2.89 272.98 -36.2 0c-7.24,-29.22 -17.39,-60.42 -28.96,-89.67 -11.57,-31.22 -23.18,-56.55 -36.2,-76.06 -13.05,-23.41 -28.96,-38.98 -46.35,-52.64 -18.82,-13.67 -39.09,-19.5 -63.71,-19.5 -28.95,0 -53.58,11.69 -72.4,35.08 -20.26,21.45 -28.94,50.69 -28.94,83.86 0,33.17 7.24,58.5 24.6,78 15.93,21.45 41.99,39.01 76.74,54.61 21.74,9.73 42,17.54 63.71,27.28 21.74,9.74 40.53,19.51 57.92,27.31 39.09,21.42 70.95,50.69 91.23,87.73 21.74,37.03 31.86,81.89 31.86,136.48 0.02,35.11 -5.79,68.28 -17.37,101.42 -13.05,31.18 -28.96,58.48 -49.24,79.95 -21.71,23.39 -47.79,40.95 -76.76,54.59 -28.94,11.7 -63.71,19.5 -102.8,19.5l0 -0.02zm1122.23 -21.45l-321.48 0 0 -44.84c8.7,0 20.28,-1.91 34.75,-5.83 13.04,-1.95 23.17,-5.84 27.51,-7.81 10.13,-5.86 18.84,-13.64 23.16,-23.39 4.36,-9.75 5.81,-21.47 5.81,-37.06l0.02 -596.69 -204.18 702 -52.14 0c-2.9,-11.73 -8.68,-37.05 -18.83,-74.12 -10.13,-37.05 -17.37,-66.31 -23.18,-87.73l-150.56 -549.91 0 487.5c0,44.84 2.88,81.92 7.24,105.3 4.36,23.39 11.57,40.95 21.71,52.65 7.25,7.78 20.27,15.58 37.64,23.41 17.4,5.81 30.41,11.67 37.65,11.67l0 44.84 -254.81 0 0 -44.84c7.2,0 18.79,-3.89 34.73,-7.78 15.93,-3.91 27.51,-9.74 37.64,-19.5 11.58,-11.72 18.84,-29.25 23.16,-54.61 4.36,-23.41 5.81,-60.45 5.81,-105.28l0 -395.83c0,-23.41 -2.9,-44.86 -7.24,-60.45 -4.34,-15.61 -10.14,-29.25 -20.27,-37.05 -10.13,-11.72 -21.72,-19.5 -33.31,-23.41 -11.57,-3.91 -23.17,-5.84 -36.21,-5.84l0.02 -44.86 273.67 0 146.25 528.41 123.08 -428.97c4.34,-15.61 8.66,-35.09 11.56,-56.53 4.36,-21.47 5.81,-35.11 7.25,-42.89l262.08 -0.02 0 44.84c-8.68,0 -18.83,1.96 -27.51,3.93 -10.13,1.92 -18.82,5.84 -28.96,9.75 -10.12,3.87 -17.37,11.67 -20.26,21.44 -4.35,11.68 -5.81,23.39 -5.81,35.09l0.02 565.47c0,13.64 1.44,25.34 5.79,35.09 2.9,9.74 10.13,17.57 20.26,23.41 5.78,3.89 15.93,5.84 27.51,9.75 13.05,3.89 23.18,5.83 30.41,5.83l0.02 44.84zm586.44 -594.7l-31.87 0c-8.69,-31.21 -21.71,-62.39 -41.99,-93.59 -20.26,-31.21 -39.11,-48.75 -59.37,-54.61 -7.24,-1.94 -18.83,-3.89 -34.75,-3.89 -14.47,-1.97 -27.51,-1.97 -36.21,-1.97l-86.85 0 0 308.1 60.83 0c15.91,0 30.38,-1.95 41.97,-5.84 13.04,-5.89 24.62,-15.61 34.75,-29.25 5.8,-7.8 13.04,-23.39 18.83,-44.86 7.24,-21.44 11.57,-40.94 13.03,-56.53l31.87 -0.02 0 331.48 -31.86 0c-1.44,-15.58 -5.8,-35.08 -13.04,-58.48 -5.79,-23.41 -13.05,-40.97 -18.83,-48.75 -8.69,-13.67 -20.26,-23.41 -33.31,-29.25 -11.57,-3.93 -26.06,-5.86 -43.43,-5.86l-60.81 -0.02 0 230.11c0,23.39 1.43,42.91 4.33,56.55 2.9,13.62 7.25,25.37 14.47,31.2 7.25,7.78 17.39,11.7 28.96,15.59 11.59,1.96 28.96,1.96 49.24,1.96 10.15,0 21.72,0 36.2,0 13.05,0 24.62,-1.96 34.75,-3.89 11.59,-1.97 23.18,-3.91 33.31,-7.83 10.14,-3.89 17.38,-9.75 23.17,-15.58 13.05,-19.5 27.52,-46.81 44.9,-83.86 17.39,-39.01 27.51,-66.29 33.3,-85.79l30.39 -0.03 -11.57 249.59 -556.04 0 0 -44.84c7.22,0 18.82,-1.91 31.84,-3.89 13.05,-1.97 23.18,-5.86 27.52,-7.78 11.59,-5.89 18.83,-13.67 21.72,-23.41 4.36,-9.75 5.79,-21.45 5.79,-35.09l0.02 -563.55c0,-13.66 -1.47,-25.34 -4.36,-33.14 -2.9,-9.75 -11.6,-17.56 -23.18,-23.39 -7.22,-5.86 -17.39,-9.74 -30.41,-13.66 -13.01,-3.91 -23.15,-5.84 -28.96,-5.84l0.02 -44.86 525.64 0 0 204.75zm773.2 -159.91c-8.69,0 -20.26,1.96 -34.75,5.86 -14.47,1.94 -27.5,9.74 -39.09,21.47 -10.11,9.73 -17.37,27.28 -21.71,52.64 -4.33,23.39 -5.79,60.45 -5.79,107.26l0 571.31 -75.29 0 -369.25 -618.13 0 376.35c0,44.84 2.9,81.92 7.24,105.3 4.35,23.39 11.58,40.95 21.72,52.65 8.69,9.74 20.26,15.58 36.2,21.44 17.39,7.78 30.4,11.73 39.09,13.64l0 44.84 -254.83 0 0 -44.84c11.57,0 23.15,-3.89 37.62,-7.78 14.49,-3.91 26.07,-11.72 34.75,-19.5 11.59,-11.72 18.84,-27.3 23.18,-50.69 4.34,-21.47 5.78,-58.5 5.78,-109.2l0 -378.29c0,-19.51 -1.44,-37.03 -5.78,-54.59 -4.33,-15.61 -11.58,-29.25 -20.28,-42.89 -10.13,-11.72 -21.72,-21.47 -34.75,-29.25 -11.57,-7.8 -26.05,-13.64 -41.97,-17.56l0 -44.86 222.97 0 324.37 540.11 0 -302.21c0,-46.81 -2.91,-83.84 -7.25,-107.26 -5.79,-23.41 -13.03,-40.92 -23.16,-50.68 -7.24,-9.77 -20.29,-17.56 -36.21,-23.41 -15.91,-5.86 -27.51,-9.75 -37.64,-11.7l0.02 -44.86 254.81 0 0 44.84z"/>
   <g>
    <ellipse class="fil1" cx="1217.73" cy="202.87" rx="232.53" ry="197.19"/>
    <path class="fil1" d="M2164.71 122.97l-146.68 -122.97 -721.6 590.56c-64.17,53.34 -115.64,45.34 -198.94,-30.03l-298.42 -255.96 -155.11 114.4 397.89 352.24c113.04,86.63 262.59,53.21 348.99,-9.06l773.86 -639.18z"/>
    <path class="fil1" d="M239.27 1841.69l146.68 122.97 721.59 -590.56c64.18,-53.34 115.65,-45.34 198.95,30.03l298.41 255.96 155.11 -114.4 -397.88 -352.24c-113.05,-86.63 -262.59,-53.21 -348.99,9.06l-773.86 639.18z"/>
    <path class="fil2" d="M145 184.36l-145 124.41 696.31 612.01c62.89,54.43 53.45,98.09 -35.4,168.72l-301.79 253.1 134.88 131.56 415.31 -337.46c102.14,-95.88 62.74,-222.72 -10.68,-296l-753.62 -656.34z"/>
    <path class="fil2" d="M2160.52 1783.38l144.99 -124.41 -696.3 -612.01c-62.89,-54.44 -53.46,-98.09 35.4,-168.73l301.79 -253.09 -134.88 -131.56 -415.32 337.46c-102.13,95.88 -62.73,222.72 10.69,296l753.62 656.34z"/>
   </g>
  </g>
 </g>
</svg>
