<?xml version="1.0" encoding="UTF-8"?>
<!DOCTYPE svg PUBLIC "-//W3C//DTD SVG 1.1//EN" "http://www.w3.org/Graphics/SVG/1.1/DTD/svg11.dtd">
<!-- Creator: CorelDRAW 2017 -->
<svg xmlns="http://www.w3.org/2000/svg" xml:space="preserve" width="201.609mm" height="199.226mm" version="1.1" style="shape-rendering:geometricPrecision; text-rendering:geometricPrecision; image-rendering:optimizeQuality; fill-rule:evenodd; clip-rule:evenodd"
viewBox="0 0 18302.13 18085.8"
 xmlns:xlink="http://www.w3.org/1999/xlink">
 <defs>
  <style type="text/css">
   <![CDATA[
    .fil0 {fill:none}
    .fil1 {fill:#ED3237}
   ]]>
  </style>
 </defs>
 <g id="Layer_x0020_1">
  <metadata id="CorelCorpID_0Corel-Layer"/>
  <ellipse class="fil0" cx="9151.07" cy="9042.9" rx="9151.07" ry="9042.9"/>
  <g>
   <path class="fil1" d="M16328.32 11900.73c-1482.56,2374.72 -3450.73,2597.35 -5413.13,586.57l-1839.03 -2454.99 -296.65 -98.36c-756.39,3430.04 -2598.86,5766.68 -3849.83,6093.81 -1576.94,212.16 -2534.4,-936.64 -2446.39,-4161.6 294.94,-3380.02 1944.01,-6551.14 3955.72,-7936.22 -144.99,-641.99 -474.78,-1391.55 -931.08,-2214.6l2334.53 -1070.75 718.2 1767.1c6308.14,-3517.5 9338.83,2720.78 2658.87,6258.38 -20.31,10.68 51.84,147.12 32.34,159.7l2368.48 3184.03c652.42,707.24 1632.91,591.22 2510.14,-561.71l197.84 448.65zm-9744.71 -7328.18c675.55,2603.49 317.26,6456.79 -871.47,8981.81 -974.74,1823.26 -2171.66,2202.21 -2413.35,-748.49 76.19,-3538.97 1223.09,-6500.9 3284.82,-8233.32zm2360.19 4692.86c323.53,-2185.72 243.41,-4247.07 -204.1,-6195.34 1802.76,-1151.24 4200.85,-225.49 3673.62,2082.92 -685.26,1890.1 -1922.49,3171.86 -3469.52,4112.42z"/>
  </g>
 </g>
</svg>
