<?xml version="1.0" encoding="UTF-8"?>
<!DOCTYPE svg PUBLIC "-//W3C//DTD SVG 1.1//EN" "http://www.w3.org/Graphics/SVG/1.1/DTD/svg11.dtd">
<!-- Creator: CorelDRAW 2017 -->
<svg xmlns="http://www.w3.org/2000/svg" xml:space="preserve" width="83.9125mm" height="20.2887mm" version="1.1" style="shape-rendering:geometricPrecision; text-rendering:geometricPrecision; image-rendering:optimizeQuality; fill-rule:evenodd; clip-rule:evenodd"
viewBox="0 0 6523.55 1577.29"
 xmlns:xlink="http://www.w3.org/1999/xlink">
 <defs>
  <style type="text/css">
   <![CDATA[
    .str0 {stroke:#868382;stroke-width:13.11;stroke-miterlimit:2.61313}
    .fil2 {fill:#FEFEFE}
    .fil1 {fill:#2B2A29}
    .fil3 {fill:#FDCA5C}
    .fil4 {fill:#FCC95B}
    .fil5 {fill:#FCC75B}
    .fil6 {fill:#FCC55B}
    .fil7 {fill:#FBC358}
    .fil8 {fill:#FBC356}
    .fil9 {fill:#FBC156}
    .fil10 {fill:#FBBF55}
    .fil11 {fill:#FBBF53}
    .fil12 {fill:#FABD52}
    .fil13 {fill:#FABB52}
    .fil14 {fill:#FAB952}
    .fil15 {fill:#F9B852}
    .fil16 {fill:#F9B850}
    .fil17 {fill:#F9B651}
    .fil18 {fill:#F9B44F}
    .fil19 {fill:#F8B24F}
    .fil20 {fill:#F8B24C}
    .fil21 {fill:#F8B04C}
    .fil22 {fill:#F8AE4C}
    .fil23 {fill:#F8AE4A}
    .fil24 {fill:#F7AC4A}
    .fil25 {fill:#F7AA49}
    .fil26 {fill:#F7AA47}
    .fil27 {fill:#F6A746}
    .fil28 {fill:#F6A646}
    .fil29 {fill:#F6A346}
    .fil30 {fill:#F5A246}
    .fil31 {fill:#F5A244}
    .fil32 {fill:#F59F43}
    .fil33 {fill:#F59E43}
    .fil34 {fill:#F49B41}
    .fil35 {fill:#F49A41}
    .fil36 {fill:#F39741}
    .fil37 {fill:#F3973F}
    .fil38 {fill:#F3953F}
    .fil39 {fill:#F3933D}
    .fil40 {fill:#F2913D}
    .fil44 {fill:#F18B3A}
    .fil0 {fill:#E31E24}
    .fil41 {fill:#F1933D}
    .fil42 {fill:#F08E3D}
    .fil43 {fill:#F08E3B}
    .fil45 {fill:#EF8A39}
    .fil46 {fill:#EF8837}
    .fil47 {fill:#EF8639}
    .fil48 {fill:#EF8637}
    .fil49 {fill:#EE8337}
    .fil50 {fill:#EE8335}
    .fil51 {fill:#EE8233}
    .fil52 {fill:#ED7F33}
    .fil55 {fill:#ED7B2F}
    .fil56 {fill:#EC782F}
    .fil53 {fill:#EC7D33}
    .fil54 {fill:#EC7B31}
    .fil57 {fill:#EB7730}
    .fil58 {fill:#EB742E}
    .fil59 {fill:#EA722C}
    .fil60 {fill:#EA702C}
    .fil61 {fill:#EA6E29}
    .fil62 {fill:#E96B29}
    .fil63 {fill:#E96929}
    .fil64 {fill:#E96727}
    .fil65 {fill:#E86726}
    .fil66 {fill:#E86426}
    .fil67 {fill:#E86224}
    .fil68 {fill:#E86223}
    .fil69 {fill:#E76023}
    .fil70 {fill:#E76021}
    .fil71 {fill:#E75E21}
    .fil72 {fill:#E55E22}
    .fil73 {fill:#E55B22}
    .fil74 {fill:#E55922}
    .fil75 {fill:#E45723}
    .fil76 {fill:#E45523}
    .fil77 {fill:#E45223}
    .fil78 {fill:#E34F23}
    .fil79 {fill:#E34E23}
    .fil81 {fill:#E34B23}
    .fil80 {fill:#E24E24}
    .fil82 {fill:#E14924}
    .fil83 {fill:#E14624}
    .fil84 {fill:#E14524}
    .fil85 {fill:#E04224}
    .fil86 {fill:#E04024}
    .fil87 {fill:#E03D25}
    .fil89 {fill:#E03B25}
    .fil90 {fill:#DF3925}
    .fil88 {fill:#DE3B25}
    .fil91 {fill:#DD3625}
    .fil92 {fill:#DD3425}
    .fil93 {fill:#DB3125}
    .fil94 {fill:#DB2F25}
    .fil95 {fill:#DB2C25}
    .fil96 {fill:#DB2A25}
    .fil97 {fill:#DA2725}
    .fil98 {fill:#D92725}
    .fil99 {fill:#D92526}
    .fil100 {fill:#D82525}
    .fil101 {fill:#D82225}
    .fil102 {fill:#D62226}
    .fil103 {fill:#3C317F}
   ]]>
  </style>
 </defs>
 <g id="Layer_x0020_1">
  <metadata id="CorelCorpID_0Corel-Layer"/>
  <g id="_2587303749104">
   <g>
    <path class="fil0" d="M2015.93 26.08l207.51 0 240.54 690.98 -193.1 0 -40.66 -127.71 -240.54 0 -39.81 127.71 -180.4 0 246.47 -690.98zm167.7 421.25l-72.83 -279.23 -81.3 279.23 154.13 0z"/>
    <path class="fil0" d="M2810.58 26.08l173.65 0 0 487.96c0,63.87 -19.49,115.32 -57.6,153.45 -38.12,38.13 -99.1,57.19 -182.94,57.19 -86.39,-3.82 -143.99,-23.83 -172.78,-59.09 -27.95,-36.22 -44.03,-93.41 -47.44,-172.51l173.65 -0.96c0,2.87 0,6.69 0,9.53 0,2.86 0,5.73 0,8.59 1.68,20 5.08,39.07 12.7,55.27 6.76,17.14 20.32,24.78 40.65,24.78 16.92,-0.02 29.63,-5.73 38.12,-18.12 7.62,-12.39 14.38,-25.72 17.78,-40.02 1.69,-8.59 3.38,-17.16 4.22,-25.73 0,-8.57 0,-15.25 0,-20.97l0 -459.38z"/>
    <polygon class="fil0" points="3141.96,26.08 3609.49,26.08 3609.49,168.1 3315.58,168.1 3315.58,303.43 3590,303.43 3590,447.34 3315.58,447.34 3315.58,581.71 3609.49,581.71 3609.49,717.06 3141.96,717.06 "/>
    <polygon class="fil0" points="3755.38,26.08 4222.9,26.08 4222.9,168.1 3929.02,168.1 3929.02,303.43 4203.43,303.43 4203.43,447.34 3929.02,447.34 3929.02,581.71 4222.9,581.71 4222.9,717.06 3755.38,717.06 "/>
    <polygon class="fil0" points="4322.21,26.08 4876.13,26.08 4876.13,168.1 4683.01,168.1 4683.01,717.06 4515.32,717.06 4515.32,168.1 4322.21,168.1 "/>
   </g>
   <g>
    <polygon class="fil1" points="1875.43,1192.53 1875.43,904.38 1961.95,904.38 2002.47,1091.06 2042.6,904.38 2129.31,904.38 2129.31,1192.53 2072.55,1192.53 2073.72,936.92 2019.49,1192.53 1985.44,1192.53 1931.02,936.92 1932.38,1192.53 "/>
    <path class="fil1" d="M2243.78 1077.3l47.77 0 -24.08 -121.19 -23.7 121.19zm-80.84 115.23l67.92 -288.15 75.55 0 68.72 288.15 -60.69 0 -14.86 -72.06 -64.6 0 -14.69 72.06 -57.35 0z"/>
    <polygon class="fil1" points="2412.48,1192.53 2412.48,904.38 2470.63,904.38 2550.3,1106.13 2548.93,904.38 2601.96,904.38 2601.96,1192.53 2544.43,1192.53 2463.96,990.74 2465.53,1192.53 "/>
    <path class="fil1" d="M2716.44 1077.3l47.76 0 -24.07 -121.19 -23.7 121.19zm-80.84 115.23l67.92 -288.15 75.57 0 68.7 288.15 -60.69 0 -14.87 -72.06 -64.6 0 -14.68 72.06 -57.35 0z"/>
    <path class="fil1" d="M3029.62 1192.53l-4.51 -33.72c-5.68,13.42 -13.12,23.11 -22.92,28.69 -9.77,5.94 -23.29,8.55 -40.51,8.55 -30.72,-0.02 -52.46,-10.98 -64.98,-33.69 -12.73,-22.51 -18.99,-64.03 -18.99,-124.53 0,-27.92 1.57,-50.63 4.7,-67.75 3.14,-16.95 7.84,-29.97 14.3,-39.46 8.03,-11.19 18.39,-19.54 31.12,-25.13 13.12,-5.4 29.17,-8.19 48.15,-8.37 32.71,0.18 56.57,7.99 71.84,23.07 15.47,15.26 23.1,38.72 23.1,70.37l0.02 7.43 -56.98 0 0 -3.16c0,-17.49 -2.95,-31.07 -9.6,-40.58 -6.46,-8.93 -16.04,-13.58 -29.17,-13.95 -15.67,0.37 -26.23,6.34 -31.91,18.06 -5.66,11.91 -8.81,43.19 -8.81,94 0.02,40.2 2.94,67.02 8.62,80.6 5.68,13.4 15.47,20.12 30.15,19.93 14.68,0.18 25.44,-4.47 31.52,-13.96 6.27,-9.51 9.2,-25.31 9.2,-48.39l0 -9.69 -37.78 0 0 -43.19 94.76 0 0 154.89 -41.31 0z"/>
    <polygon class="fil1" points="3127.25,1192.53 3127.25,904.38 3284.04,904.38 3284.04,947.55 3184.21,947.55 3184.21,1019.57 3276.99,1019.57 3276.99,1062.76 3184.21,1062.76 3184.21,1145.61 3286.39,1145.61 3286.39,1192.53 "/>
    <polygon class="fil1" points="3331.37,1192.53 3331.37,904.38 3417.89,904.38 3458.4,1091.06 3498.54,904.38 3585.27,904.38 3585.27,1192.53 3528.5,1192.53 3529.68,936.92 3475.45,1192.53 3441.38,1192.53 3386.97,936.92 3388.34,1192.53 "/>
    <polygon class="fil1" points="3641.59,1192.53 3641.59,904.38 3798.4,904.38 3798.4,947.55 3698.56,947.55 3698.56,1019.57 3791.36,1019.57 3791.36,1062.76 3698.56,1062.76 3698.56,1145.61 3800.75,1145.61 3800.75,1192.53 "/>
    <polygon class="fil1" points="3845.71,1192.53 3845.71,904.38 3903.86,904.38 3983.54,1106.13 3982.16,904.38 4035.21,904.38 4035.21,1192.53 3977.67,1192.53 3897.2,990.74 3898.77,1192.53 "/>
    <polygon class="fil1" points="4133.24,1192.53 4133.24,947.55 4068.83,947.55 4068.83,904.38 4254.62,904.38 4254.62,947.55 4190.22,947.55 4190.22,1192.53 "/>
    <path class="fil1" d="M4474.07 992.97c7.05,-5.78 12.5,-11.54 15.84,-17.87 3.34,-5.96 4.89,-12.46 4.89,-19.18 0.02,-7.26 -1.37,-12.65 -4.7,-16.75 -3.13,-3.72 -7.63,-5.76 -13.69,-5.94 -6.27,0.18 -11.16,2.03 -14.49,5.58 -3.31,3.89 -4.88,8.93 -4.88,15.81 0,1.67 0.37,3.72 1.17,5.96 0.58,2.59 1.55,5.02 2.93,7.43l12.94 24.95zm30.54 147.8l-48.17 -78.54c-8.41,5.94 -14.89,13.02 -19.4,21.04 -4.28,8.17 -6.65,16.92 -6.65,26.24 0.02,13.4 3.72,24.57 11.35,33.5 7.65,9.31 16.64,13.78 27.21,13.6 6.27,0.18 12.14,-0.93 17.62,-3.53 5.68,-2.25 11.55,-6.16 18.01,-12.3l0.02 0zm32.29 51.76l-10.38 -17.52c-8.03,8.75 -17.42,15.09 -27.99,18.82 -10.36,4.09 -22.72,5.96 -36.42,5.96 -26.03,-0.02 -46.79,-7.63 -62.05,-23.45 -15.06,-15.65 -22.71,-36.87 -22.71,-64.04 0.02,-16.95 4.32,-32.58 12.73,-45.98 8.62,-13.4 23.49,-27.92 44.83,-43.73 -8.6,-13.6 -14.49,-25.33 -18.01,-35.19 -3.52,-9.67 -5.47,-19.16 -5.47,-28.48 0,-18.25 6.06,-33.14 17.62,-44.69 11.55,-11.16 27.01,-16.92 46.38,-17.1 20.76,0.18 36.62,5.38 47.96,15.25 11.37,10.23 16.84,24.39 16.84,42.81 0,15.83 -3.52,30.15 -11.16,43.01 -7.42,13.02 -18.39,24.19 -33.09,33.32l37.4 60.3c3.52,-5.96 6.25,-13.02 8.02,-20.66 1.97,-7.46 2.74,-15.81 2.74,-25.13l0.02 -4.84 45.39 0c-0.19,20.28 -2.35,38.34 -6.66,54.18 -4.3,15.61 -10.36,29.41 -18.79,40.93l33.09 56.23 -60.29 0z"/>
    <polygon class="fil1" points="1875.43,1573.76 1875.43,1285.61 1961.95,1285.61 2002.47,1472.29 2042.6,1285.61 2129.31,1285.61 2129.31,1573.76 2072.55,1573.76 2073.72,1318.17 2019.49,1573.76 1985.44,1573.76 1931.02,1318.17 1932.38,1573.76 "/>
    <path class="fil1" d="M2254.49 1458.53l47.76 0 -24.09 -121.2 -23.67 121.2zm-80.86 115.23l67.94 -288.15 75.56 0 68.72 288.15 -60.69 0 -14.89 -72.06 -64.59 0 -14.68 72.06 -57.37 0z"/>
    <polygon class="fil1" points="2433.87,1573.76 2433.87,1285.61 2492.01,1285.61 2571.67,1487.38 2570.31,1285.61 2623.37,1285.61 2623.37,1573.76 2565.81,1573.76 2485.35,1371.96 2486.92,1573.76 "/>
    <path class="fil1" d="M2745.58 1408.08l23.3 0c17.22,0.19 29.36,-2.77 36.21,-8.73 7.05,-5.96 10.36,-16.57 10.36,-31.27 0.02,-14.54 -3.13,-24.58 -9.39,-30.53 -6.46,-5.6 -18.6,-8.57 -36.59,-8.75l-23.89 -0.02 0 79.3zm-55.2 165.68l0 -288.15 97.88 0c29.76,0.18 51.29,6.7 64.4,19.36 13.32,12.84 19.58,33.5 19.58,62.18 0,28.47 -6.86,49.69 -20.76,63.47 -13.88,13.94 -35.23,20.85 -64.02,20.66l-40.12 0 0 122.49 -56.97 0z"/>
    <path class="fil1" d="M2977.23 1428.37c0,46.72 3.15,76.13 9.02,88.06 5.87,12.08 16.84,17.87 32.88,17.69 16.06,0.16 27.02,-5.58 32.69,-17.51 5.89,-11.75 8.81,-40.95 8.81,-88.24 0,-46.92 -2.93,-76.3 -8.81,-88.59 -5.87,-11.93 -16.83,-17.89 -32.88,-18.25 -16.06,0.36 -27.01,6.32 -32.9,18.25 -5.66,12.26 -8.81,41.69 -8.81,88.59zm-56.74 -0.55c0,-29.97 1.55,-53.98 4.49,-72.22 2.93,-18.07 7.82,-31.47 14.09,-40.96 8.81,-12.84 19.19,-22.15 31.52,-27.73 12.33,-5.4 28.39,-8.38 48.36,-8.56 19.96,0.18 36.03,3.17 48.36,8.56 12.33,5.58 22.71,14.9 31.52,27.73 6.46,9.49 11.34,23.28 14.09,41.14 3.13,18.22 4.49,42.45 4.49,72.04 0.02,30.15 -1.37,54.35 -4.49,72.42 -3.14,18.23 -7.84,31.83 -14.09,41.13 -8.81,13.01 -19.19,22.51 -31.52,27.92 -12.33,5.4 -28.39,8 -48.36,8 -19.96,-0.02 -36.03,-2.6 -48.36,-8 -12.33,-5.42 -22.71,-14.9 -31.52,-27.92 -6.27,-9.13 -11.16,-22.53 -14.09,-40.78 -2.94,-18.06 -4.51,-42.07 -4.51,-72.77l0.02 0z"/>
    <polygon class="fil1" points="3218.68,1573.76 3161.92,1285.61 3218.28,1285.61 3255.69,1503.95 3298.15,1285.61 3343.78,1285.61 3387.42,1508.24 3420.29,1285.61 3476.28,1285.61 3423.25,1573.76 3355.12,1573.76 3320.86,1391.89 3286.8,1573.76 "/>
    <polygon class="fil1" points="3528.24,1573.76 3528.24,1285.61 3685.04,1285.61 3685.04,1328.78 3585.21,1328.78 3585.21,1400.82 3678,1400.82 3678,1444.01 3585.21,1444.01 3585.21,1526.86 3687.39,1526.86 3687.39,1573.76 "/>
    <path class="fil1" d="M3800.03 1404.55l30.53 0c15.67,0.19 26.23,-2.79 32.29,-8.55 6.27,-5.78 9.01,-16.01 9.01,-31.09 0,-13.04 -3.14,-22.53 -9.79,-27.92 -6.65,-5.22 -18.6,-8.01 -36.03,-8.19l-26.02 -0.02 0 75.77zm-56.98 169.21l0 -288.15 101.01 0c29.96,0.18 51.48,6.14 64.8,17.69 13.31,11.71 19.96,30.89 19.96,56.95 0,18.81 -3.52,33.32 -10.96,43.95 -7.03,10.77 -17.8,16.93 -31.9,18.78 27.01,7.08 40.91,29.23 41.9,66.08 0,1.86 0,3.17 0,3.91l1.57 37.98c0.57,10.97 1.95,19.92 4.1,26.24 2.35,6.69 5.68,12.1 10.38,16.57l-65.95 0c-1.58,-4.47 -2.77,-10.05 -3.55,-16.93 -0.78,-6.36 -1.36,-15.46 -1.76,-27.55l-0.78 -30.35 0 -7.63c0,-16.4 -3.52,-27.92 -10.57,-34.06 -7.04,-6.14 -21.35,-9.31 -43.07,-9.49l-18.2 -0.02 0 126.04 -56.98 0z"/>
    <path class="fil1" d="M4217.89 1469.34l56.97 0c0,1.48 0.17,3.53 0.17,5.76 0,2.61 0,4.28 0,5.4 0,32.94 -7.42,57.52 -22.12,73.16 -14.66,16 -37.39,23.63 -67.92,23.63 -14.47,-0.02 -27.01,-1.48 -37.39,-5.02 -10.36,-3.55 -19.19,-8.94 -26.63,-16.56 -10.36,-9.7 -17.41,-23.09 -21.73,-40.39 -4.11,-17.14 -6.27,-47.28 -6.27,-90.66 0.02,-29.23 1.38,-52.3 3.73,-69.99 2.53,-17.13 6.45,-30.15 11.55,-38.9 8.41,-12.86 18.6,-22.34 30.93,-28.29 12.33,-5.96 27.6,-8.94 46.58,-9.12 30.95,0.18 53.45,8 67.73,23.27 14.13,15.44 21.35,40.2 21.35,74.08l-56.95 0 0 -7.07c0,-15.46 -2.56,-27.16 -8.03,-35 -5.47,-7.81 -13.71,-11.72 -24.68,-12.08 -13.7,0.36 -22.9,5.76 -27.79,16.01 -5.1,10.61 -7.63,39.46 -7.63,86.74 0.02,51.36 2.35,82.65 7.04,93.44 4.91,11.16 14.09,16.57 27.2,16.39 12.94,0.16 21.53,-4.1 26.63,-12.86 4.91,-8.56 7.24,-24.57 7.24,-47.84l0.02 -4.08z"/>
    <path class="fil1" d="M4376.34 1428.37c0,46.72 3.13,76.13 8.99,88.06 5.89,12.08 16.84,17.87 32.9,17.69 16.06,0.16 27.01,-5.58 32.69,-17.51 5.87,-11.75 8.81,-40.95 8.81,-88.24 0.02,-46.92 -2.94,-76.3 -8.81,-88.59 -5.87,-11.93 -16.84,-17.89 -32.9,-18.25 -16.02,0.36 -27.01,6.32 -32.88,18.25 -5.67,12.26 -8.81,41.69 -8.81,88.59zm-56.77 -0.55c0,-29.97 1.58,-53.98 4.51,-72.22 2.94,-18.07 7.83,-31.47 14.09,-40.96 8.82,-12.84 19.19,-22.15 31.52,-27.73 12.33,-5.4 28.37,-8.38 48.33,-8.56 19.99,0.18 36.03,3.17 48.36,8.56 12.35,5.58 22.71,14.9 31.52,27.73 6.48,9.49 11.37,23.28 14.09,41.14 3.16,18.22 4.51,42.45 4.51,72.04 0.02,30.15 -1.37,54.35 -4.51,72.42 -3.13,18.23 -7.82,31.83 -14.09,41.13 -8.81,13.01 -19.19,22.51 -31.52,27.92 -12.31,5.4 -28.37,8 -48.36,8 -19.96,-0.02 -36,-2.6 -48.33,-8 -12.33,-5.42 -22.71,-14.9 -31.52,-27.92 -6.25,-9.13 -11.16,-22.53 -14.09,-40.78 -2.93,-18.06 -4.51,-42.07 -4.51,-72.77z"/>
    <polygon class="fil1" points="4568.87,1573.76 4568.87,1285.61 4627.02,1285.61 4706.7,1487.38 4705.33,1285.61 4758.37,1285.61 4758.37,1573.76 4700.81,1573.76 4620.37,1371.96 4621.92,1573.76 "/>
    <path class="fil1" d="M4807.6 1469.34l56.19 0 0 18.6c0,18.06 2.33,30.53 7.03,36.67 4.91,6.51 12.92,9.69 24.29,9.51 11.95,0.16 21.34,-2.43 27.4,-8.4 6.48,-5.58 9.39,-14.13 9.39,-25.48 0,-8.57 -2.15,-15.83 -6.27,-22.15 -4.28,-6.14 -13.32,-14.16 -27.6,-24.03l-27.39 -19.16c-25.83,-16.01 -42.11,-29.23 -49.15,-40.02 -7.23,-10.43 -10.78,-24.01 -10.78,-40.22 0.02,-23.65 7.65,-42.25 22.52,-55.83 14.89,-13.42 35.43,-20.3 61.86,-20.48 27.8,0.18 49.13,7.44 63.8,21.95 14.89,14.34 22.31,35 22.31,61.62 0.02,2.97 0,5.22 0,6.51 0.02,1.48 -0.19,2.79 -0.37,3.55l-52.65 -0.02 0 -7.46c0,-15.07 -2.35,-26.04 -7.63,-32.74 -5.09,-6.52 -13.53,-9.87 -25.27,-10.23 -8.6,0.36 -15.46,2.79 -20.36,7.81 -4.68,5.03 -7.42,11.91 -7.42,20.48 0,12.09 11.16,25.31 33.07,39.46l0.61 0.54 30.34 19.56c22.31,14.13 37.36,27.55 45.39,39.64 8.03,12.46 11.96,28.11 11.96,47.1 0,26.06 -7.84,46.36 -23.51,60.31 -15.64,14.13 -38.16,20.84 -67.33,20.84 -30.72,-0.02 -53.45,-7.06 -68.51,-22.13 -15.07,-14.9 -22.52,-37.61 -22.52,-68.51 0,-3.19 0.19,-8.55 0.59,-16.19l0 -1.11z"/>
    <path class="fil1" d="M5041.06 1285.61l56.95 0 0 192.28c0,21.95 2.72,37.04 8.22,44.69 5.68,7.99 15.67,11.72 29.75,11.54 14.3,0.16 24.08,-3.55 29.36,-11.75 5.68,-7.63 8.4,-22.89 8.4,-45.4l0.02 -191.36 56.76 0 0 196.75c0,19.34 -0.98,33.31 -3.34,42.07 -2.32,9.13 -6.06,16.75 -11.74,23.09 -8.02,10.23 -18.79,17.69 -32.11,22.72 -13.1,4.8 -29.36,7.06 -47.76,7.06 -34.64,-0.02 -58.92,-6.7 -73.2,-20.84 -14.09,-13.95 -21.35,-38.72 -21.35,-74.09l0.02 -196.75z"/>
    <polygon class="fil1" points="5286.61,1573.76 5286.61,1285.61 5343.58,1285.61 5343.58,1523.31 5445.77,1523.31 5445.77,1573.76 "/>
    <polygon class="fil1" points="5497.17,1573.76 5497.17,1328.78 5432.78,1328.78 5432.78,1285.61 5618.56,1285.61 5618.56,1328.78 5554.16,1328.78 5554.16,1573.76 "/>
    <path class="fil1" d="M5690.03 1458.53l47.76 0 -24.08 -121.2 -23.69 121.2zm-80.84 115.23l67.94 -288.15 75.55 0 68.72 288.15 -60.69 0 -14.89 -72.06 -64.59 0 -14.69 72.06 -57.35 0z"/>
    <polygon class="fil1" points="5858.36,1573.76 5858.36,1285.61 5916.51,1285.61 5996.19,1487.38 5994.81,1285.61 6047.87,1285.61 6047.87,1573.76 5990.3,1573.76 5909.86,1371.96 5911.41,1573.76 "/>
    <path class="fil1" d="M6221.3 1469.34l56.97 0c0,1.48 0.17,3.53 0.17,5.76 0.02,2.61 0,4.28 0,5.4 0.02,32.94 -7.42,57.52 -22.1,73.16 -14.68,16 -37.39,23.63 -67.94,23.63 -14.48,-0.02 -27.01,-1.48 -37.39,-5.02 -10.36,-3.55 -19.19,-8.94 -26.61,-16.56 -10.39,-9.7 -17.43,-23.09 -21.74,-40.39 -4.11,-17.14 -6.25,-47.28 -6.25,-90.66 0,-29.23 1.36,-52.3 3.71,-69.99 2.56,-17.13 6.46,-30.15 11.55,-38.9 8.41,-12.86 18.6,-22.34 30.93,-28.29 12.33,-5.96 27.59,-8.94 46.59,-9.12 30.93,0.18 53.43,8 67.73,23.27 14.11,15.44 21.33,40.2 21.33,74.08l-56.95 0 0 -7.07c0,-15.46 -2.56,-27.16 -8.03,-35 -5.47,-7.81 -13.71,-11.72 -24.66,-12.08 -13.7,0.36 -22.92,5.76 -27.81,16.01 -5.08,10.61 -7.63,39.46 -7.63,86.74 0.02,51.36 2.35,82.65 7.05,93.44 4.91,11.16 14.09,16.57 27.22,16.39 12.91,0.16 21.51,-4.1 26.61,-12.86 4.91,-8.56 7.25,-24.57 7.25,-47.84l0 -4.08z"/>
    <polygon class="fil1" points="6387.29,1573.76 6387.29,1451.83 6307.61,1285.61 6370.25,1285.61 6416.06,1394.12 6461.67,1285.61 6523.55,1285.61 6444.07,1451.83 6444.07,1573.76 "/>
   </g>
   <g>
    <path class="fil2 str0" d="M109.87 6.55l1288.62 0c56.36,0 101.44,44.67 101.44,98.25l0 1361.13c0,55.38 -45.07,98.25 -101.44,98.25l-1288.62 0c-56.35,0 -103.32,-42.87 -103.32,-98.25l0 -1361.13c0,-53.58 46.97,-98.25 103.32,-98.25z"/>
    <polygon class="fil3" points="1118.62,1058.66 111.75,1058.66 113.72,1055.09 1116.74,1055.09 "/>
    <polygon class="fil3" points="1118.62,1058.66 111.75,1058.66 115.71,1051.51 1114.86,1051.51 "/>
    <polygon class="fil3" points="1116.74,1055.09 113.72,1055.09 117.68,1047.94 1112.99,1047.94 "/>
    <polygon class="fil3" points="1114.86,1051.51 115.71,1051.51 120.63,1042.59 1110.18,1042.59 "/>
    <polygon class="fil3" points="1112.99,1047.94 117.68,1047.94 122.62,1039.01 1108.31,1039.01 "/>
    <polygon class="fil4" points="1110.18,1042.59 120.63,1042.59 124.59,1035.44 1106.44,1035.44 "/>
    <polygon class="fil4" points="1108.31,1039.01 122.62,1039.01 126.56,1031.86 1104.54,1031.86 "/>
    <polygon class="fil4" points="1106.44,1035.44 124.59,1035.44 128.55,1028.3 1102.69,1028.3 "/>
    <polygon class="fil5" points="1104.54,1031.86 126.56,1031.86 130.52,1024.73 1100.81,1024.73 "/>
    <polygon class="fil5" points="1102.69,1028.3 128.55,1028.3 132.49,1021.14 1098.92,1021.14 "/>
    <polygon class="fil5" points="1100.81,1024.73 130.52,1024.73 134.46,1017.58 1097.06,1017.58 "/>
    <polygon class="fil6" points="1098.92,1021.14 132.49,1021.14 136.45,1014.02 1095.19,1014.02 "/>
    <polygon class="fil6" points="1097.06,1017.58 134.46,1017.58 138.42,1010.43 1093.31,1010.43 "/>
    <polygon class="fil7" points="1095.19,1014.02 136.45,1014.02 140.39,1006.86 1091.44,1006.86 "/>
    <polygon class="fil8" points="1093.31,1010.43 138.42,1010.43 142.36,1003.29 1089.56,1003.29 "/>
    <polygon class="fil8" points="1091.44,1006.86 140.39,1006.86 144.34,999.71 1087.68,999.71 "/>
    <polygon class="fil9" points="1089.56,1003.29 142.36,1003.29 146.32,996.14 1085.81,996.14 "/>
    <polygon class="fil8" points="1087.68,999.71 144.34,999.71 148.29,992.58 1083.94,992.58 "/>
    <polygon class="fil9" points="1085.81,996.14 146.32,996.14 150.28,989 1082.06,989 "/>
    <polygon class="fil10" points="1083.94,992.58 148.29,992.58 152.24,985.43 1080.18,985.43 "/>
    <polygon class="fil10" points="1082.06,989 150.28,989 154.23,981.85 1078.31,981.85 "/>
    <polygon class="fil11" points="1080.18,985.43 152.24,985.43 156.2,978.28 1076.43,978.28 "/>
    <polygon class="fil11" points="1078.31,981.85 154.23,981.85 158.17,974.72 1074.56,974.72 "/>
    <polygon class="fil12" points="1076.43,978.28 156.2,978.28 160.16,971.13 1072.69,971.13 "/>
    <polygon class="fil13" points="1074.56,974.72 158.17,974.72 162.13,967.56 1070.81,967.56 "/>
    <polygon class="fil13" points="1072.69,971.13 160.16,971.13 164.1,964 1068.93,964 "/>
    <polygon class="fil13" points="1070.81,967.56 162.13,967.56 166.07,960.41 1067.06,960.41 "/>
    <polygon class="fil13" points="1068.93,964 164.1,964 169.04,955.06 1064.24,955.06 "/>
    <polygon class="fil13" points="1067.06,960.41 166.07,960.41 171.02,951.48 1062.36,951.48 "/>
    <polygon class="fil14" points="1064.24,955.06 169.04,955.06 172.98,947.91 1060.49,947.91 "/>
    <polygon class="fil14" points="1062.36,951.48 171.02,951.48 174.95,944.35 1058.63,944.35 "/>
    <polygon class="fil15" points="1060.49,947.91 172.98,947.91 176.94,940.77 1056.73,940.77 "/>
    <polygon class="fil15" points="1058.63,944.35 174.95,944.35 178.92,937.2 1054.86,937.2 "/>
    <polygon class="fil15" points="1056.73,940.77 176.94,940.77 180.88,933.63 1053,933.63 "/>
    <polygon class="fil16" points="1054.86,937.2 178.92,937.2 182.87,930.05 1051.11,930.05 "/>
    <polygon class="fil16" points="1053,933.63 180.88,933.63 184.84,926.48 1049.26,926.48 "/>
    <polygon class="fil17" points="1051.11,930.05 182.87,930.05 186.81,922.92 1047.38,922.92 "/>
    <polygon class="fil18" points="1049.26,926.48 184.84,926.48 188.8,919.33 1045.49,919.33 "/>
    <polygon class="fil18" points="1047.38,922.92 186.81,922.92 190.77,915.76 1043.63,915.76 "/>
    <polygon class="fil18" points="1045.49,919.33 188.8,919.33 192.75,912.18 1041.74,912.18 "/>
    <polygon class="fil18" points="1043.63,915.76 190.77,915.76 194.73,908.61 1039.86,908.61 "/>
    <polygon class="fil19" points="1041.74,912.18 192.75,912.18 196.7,905.05 1038.01,905.05 "/>
    <polygon class="fil19" points="1039.86,908.61 194.73,908.61 198.67,901.47 1036.11,901.47 "/>
    <polygon class="fil20" points="1038.01,905.05 196.7,905.05 200.65,897.9 1034.25,897.9 "/>
    <polygon class="fil20" points="1036.11,901.47 198.67,901.47 202.63,894.33 1032.38,894.33 "/>
    <polygon class="fil20" points="1034.25,897.9 200.65,897.9 204.59,890.75 1030.49,890.75 "/>
    <polygon class="fil21" points="1032.38,894.33 202.63,894.33 206.57,887.18 1028.63,887.18 "/>
    <polygon class="fil22" points="1030.49,890.75 204.59,890.75 208.54,883.62 1026.76,883.62 "/>
    <polygon class="fil22" points="1028.63,887.18 206.57,887.18 210.53,880.03 1024.86,880.03 "/>
    <polygon class="fil22" points="1026.76,883.62 208.54,883.62 212.49,876.47 1023,876.47 "/>
    <polygon class="fil23" points="1024.86,880.03 210.53,880.03 215.47,871.1 1020.18,871.1 "/>
    <polygon class="fil24" points="1023,876.47 212.49,876.47 217.44,867.53 1018.31,867.53 "/>
    <polygon class="fil24" points="1020.18,871.1 215.47,871.1 219.4,863.97 1016.43,863.97 "/>
    <polygon class="fil24" points="1018.31,867.53 217.44,867.53 221.39,860.38 1014.56,860.38 "/>
    <polygon class="fil25" points="1016.43,863.97 219.4,863.97 223.37,856.81 1012.68,856.81 "/>
    <polygon class="fil25" points="1014.56,860.38 221.39,860.38 225.34,853.25 1010.8,853.25 "/>
    <polygon class="fil26" points="1012.68,856.81 223.37,856.81 227.33,849.67 1008.93,849.67 "/>
    <polygon class="fil27" points="1010.8,853.25 225.34,853.25 229.29,846.1 1007.06,846.1 "/>
    <polygon class="fil27" points="1008.93,849.67 227.33,849.67 231.26,842.52 1005.18,842.52 "/>
    <polygon class="fil28" points="1007.06,846.1 229.29,846.1 233.25,838.95 1003.31,838.95 "/>
    <polygon class="fil28" points="1005.18,842.52 231.26,842.52 235.22,835.39 1001.43,835.39 "/>
    <polygon class="fil28" points="1003.31,838.95 233.25,838.95 237.19,831.8 999.56,831.8 "/>
    <polygon class="fil29" points="1001.43,835.39 235.22,835.39 239.16,828.23 997.68,828.23 "/>
    <polygon class="fil29" points="999.56,831.8 237.19,831.8 241.15,824.67 995.81,824.67 "/>
    <polygon class="fil30" points="997.68,828.23 239.16,828.23 243.12,821.08 993.93,821.08 "/>
    <polygon class="fil30" points="995.81,824.67 241.15,824.67 245.09,817.51 992.05,817.51 "/>
    <polygon class="fil31" points="993.93,821.08 243.12,821.08 247.06,813.95 990.18,813.95 "/>
    <polygon class="fil31" points="992.05,817.51 245.09,817.51 249.05,810.37 988.31,810.37 "/>
    <polygon class="fil31" points="990.18,813.95 247.06,813.95 251.02,806.8 986.43,806.8 "/>
    <polygon class="fil32" points="988.31,810.37 249.05,810.37 253,803.22 984.56,803.22 "/>
    <polygon class="fil32" points="986.43,806.8 251.02,806.8 254.98,799.65 982.68,799.65 "/>
    <polygon class="fil32" points="984.56,803.22 253,803.22 256.95,796.08 980.8,796.08 "/>
    <polygon class="fil33" points="982.68,799.65 254.98,799.65 258.94,792.5 978.93,792.5 "/>
    <polygon class="fil34" points="980.8,796.08 256.95,796.08 260.9,788.94 977.06,788.94 "/>
    <polygon class="fil34" points="978.93,792.5 258.94,792.5 263.86,783.6 974.25,783.6 "/>
    <polygon class="fil34" points="977.06,788.94 260.9,788.94 265.85,780.02 972.38,780.02 "/>
    <polygon class="fil34" points="974.25,783.6 263.86,783.6 267.81,776.45 970.5,776.45 "/>
    <polygon class="fil35" points="972.38,780.02 265.85,780.02 269.79,772.87 968.63,772.87 "/>
    <polygon class="fil36" points="970.5,776.45 267.81,776.45 271.76,769.31 966.75,769.31 "/>
    <polygon class="fil36" points="968.63,772.87 269.79,772.87 273.75,765.74 964.87,765.74 "/>
    <polygon class="fil36" points="966.75,769.31 271.76,769.31 275.71,762.15 963,762.15 "/>
    <polygon class="fil36" points="964.87,765.74 273.75,765.74 277.69,758.59 961.13,758.59 "/>
    <polygon class="fil37" points="963,762.15 275.71,762.15 279.65,755.02 959.25,755.02 "/>
    <polygon class="fil38" points="961.13,758.59 277.69,758.59 281.64,751.43 957.38,751.43 "/>
    <polygon class="fil38" points="959.25,755.02 279.65,755.02 283.61,747.87 955.5,747.87 "/>
    <polygon class="fil39" points="957.38,751.43 281.64,751.43 285.59,744.3 953.63,744.3 "/>
    <polygon class="fil39" points="955.5,747.87 283.61,747.87 287.58,740.72 951.75,740.72 "/>
    <polygon class="fil39" points="953.63,744.3 285.59,744.3 289.54,737.15 949.88,737.15 "/>
    <polygon class="fil40" points="951.75,740.72 287.58,740.72 291.53,733.57 948,733.57 "/>
    <polygon class="fil41" points="949.88,737.15 289.54,737.15 293.5,730.01 946.12,730.01 "/>
    <polygon class="fil42" points="948,733.57 291.53,733.57 295.47,726.44 944.25,726.44 "/>
    <polygon class="fil42" points="946.12,730.01 293.5,730.01 297.46,722.86 942.38,722.86 "/>
    <polygon class="fil43" points="944.25,726.44 295.47,726.44 299.43,719.29 940.5,719.29 "/>
    <polygon class="fil43" points="942.38,722.86 297.46,722.86 301.4,715.72 938.63,715.72 "/>
    <polygon class="fil43" points="940.5,719.29 299.43,719.29 303.37,712.13 936.75,712.13 "/>
    <polygon class="fil44" points="938.63,715.72 301.4,715.72 305.34,708.57 934.87,708.57 "/>
    <polygon class="fil44" points="936.75,712.13 303.37,712.13 307.33,705.01 933,705.01 "/>
    <polygon class="fil45" points="934.87,708.57 305.34,708.57 310.28,699.64 930.19,699.64 "/>
    <polygon class="fil46" points="933,705.01 307.33,705.01 312.25,696.07 928.32,696.07 "/>
    <polygon class="fil46" points="930.19,699.64 310.28,699.64 314.24,692.49 926.43,692.49 "/>
    <polygon class="fil46" points="928.32,696.07 312.25,696.07 316.21,688.92 924.57,688.92 "/>
    <polygon class="fil47" points="926.43,692.49 314.24,692.49 318.18,685.35 922.7,685.35 "/>
    <polygon class="fil48" points="924.57,688.92 316.21,688.92 320.17,681.77 920.8,681.77 "/>
    <polygon class="fil49" points="922.7,685.35 318.18,685.35 322.14,678.21 918.94,678.21 "/>
    <polygon class="fil49" points="920.8,681.77 320.17,681.77 324.11,674.64 917.07,674.64 "/>
    <polygon class="fil50" points="918.94,678.21 322.14,678.21 326.1,671.06 915.2,671.06 "/>
    <polygon class="fil50" points="917.07,674.64 324.11,674.64 328.06,667.49 913.32,667.49 "/>
    <polygon class="fil50" points="915.2,671.06 326.1,671.06 330.05,663.9 911.43,663.9 "/>
    <polygon class="fil51" points="913.32,667.49 328.06,667.49 332.03,660.33 909.57,660.33 "/>
    <polygon class="fil52" points="911.43,663.9 330.05,663.9 334,656.77 907.7,656.77 "/>
    <polygon class="fil52" points="909.57,660.33 332.03,660.33 335.96,653.19 905.8,653.19 "/>
    <polygon class="fil52" points="907.7,656.77 334,656.77 337.95,649.62 903.95,649.62 "/>
    <polygon class="fil52" points="905.8,653.19 335.96,653.19 339.92,646.05 902.07,646.05 "/>
    <polygon class="fil53" points="903.95,649.62 337.95,649.62 341.89,642.47 900.19,642.47 "/>
    <polygon class="fil54" points="902.07,646.05 339.92,646.05 343.86,638.91 898.32,638.91 "/>
    <polygon class="fil54" points="900.19,642.47 341.89,642.47 345.84,635.34 896.45,635.34 "/>
    <polygon class="fil54" points="898.32,638.91 343.86,638.91 347.82,631.76 894.57,631.76 "/>
    <polygon class="fil54" points="896.45,635.34 345.84,635.34 349.79,628.19 892.7,628.19 "/>
    <polygon class="fil55" points="894.57,631.76 347.82,631.76 351.76,624.62 890.82,624.62 "/>
    <polygon class="fil56" points="892.7,628.19 349.79,628.19 353.75,621.04 888.94,621.04 "/>
    <polygon class="fil56" points="890.82,624.62 351.76,624.62 355.72,617.48 887.07,617.48 "/>
    <polygon class="fil57" points="888.94,621.04 353.75,621.04 358.69,612.1 884.25,612.1 "/>
    <polygon class="fil57" points="887.07,617.48 355.72,617.48 360.66,608.54 882.37,608.54 "/>
    <polygon class="fil57" points="884.25,612.1 358.69,612.1 362.64,604.97 880.52,604.97 "/>
    <polygon class="fil58" points="882.37,608.54 360.66,608.54 364.62,601.39 878.62,601.39 "/>
    <polygon class="fil58" points="880.52,604.97 362.64,604.97 366.59,597.82 876.75,597.82 "/>
    <polygon class="fil58" points="878.62,601.39 364.62,601.39 368.56,594.24 874.87,594.24 "/>
    <polygon class="fil59" points="876.75,597.82 366.59,597.82 370.55,590.67 873,590.67 "/>
    <polygon class="fil59" points="874.87,594.24 368.56,594.24 372.52,587.11 871.13,587.11 "/>
    <polygon class="fil60" points="873,590.67 370.55,590.67 374.49,583.53 869.24,583.53 "/>
    <polygon class="fil60" points="871.13,587.11 372.52,587.11 376.46,579.96 867.37,579.96 "/>
    <polygon class="fil60" points="869.24,583.53 374.49,583.53 378.45,576.39 865.52,576.39 "/>
    <polygon class="fil60" points="867.37,579.96 376.46,579.96 380.42,572.8 863.62,572.8 "/>
    <polygon class="fil60" points="865.52,576.39 378.45,576.39 382.39,569.24 861.75,569.24 "/>
    <polygon class="fil61" points="863.62,572.8 380.42,572.8 384.36,565.68 859.89,565.68 "/>
    <polygon class="fil61" points="861.75,569.24 382.39,569.24 386.35,562.09 857.99,562.09 "/>
    <polygon class="fil62" points="859.89,565.68 384.36,565.68 388.31,558.52 856.14,558.52 "/>
    <polygon class="fil62" points="857.99,562.09 386.35,562.09 390.29,554.96 854.26,554.96 "/>
    <polygon class="fil62" points="856.14,558.52 388.31,558.52 392.27,551.37 852.37,551.37 "/>
    <polygon class="fil63" points="854.26,554.96 390.29,554.96 394.25,547.81 850.52,547.81 "/>
    <polygon class="fil64" points="852.37,551.37 392.27,551.37 396.24,544.23 848.62,544.23 "/>
    <polygon class="fil64" points="850.52,547.81 394.25,547.81 398.2,540.66 846.75,540.66 "/>
    <polygon class="fil64" points="848.62,544.23 396.24,544.23 400.17,537.09 844.89,537.09 "/>
    <polygon class="fil64" points="846.75,540.66 398.2,540.66 402.15,533.51 843,533.51 "/>
    <polygon class="fil65" points="844.89,537.09 400.17,537.09 405.11,528.16 840.19,528.16 "/>
    <polygon class="fil66" points="843,533.51 402.15,533.51 407.09,524.57 838.32,524.57 "/>
    <polygon class="fil66" points="840.19,528.16 405.11,528.16 409.06,521.01 836.44,521.01 "/>
    <polygon class="fil67" points="838.32,524.57 407.09,524.57 411.05,517.44 834.57,517.44 "/>
    <polygon class="fil67" points="836.44,521.01 409.06,521.01 413.01,513.86 832.69,513.86 "/>
    <polygon class="fil67" points="834.57,517.44 411.05,517.44 414.98,510.29 830.82,510.29 "/>
    <polygon class="fil68" points="832.69,513.86 413.01,513.86 416.96,506.72 828.94,506.72 "/>
    <polygon class="fil68" points="830.82,510.29 414.98,510.29 418.95,503.14 827.07,503.14 "/>
    <polygon class="fil69" points="828.94,506.72 416.96,506.72 420.91,499.58 825.21,499.58 "/>
    <polygon class="fil70" points="827.07,503.14 418.95,503.14 422.88,496.01 823.34,496.01 "/>
    <polygon class="fil71" points="825.21,499.58 420.91,499.58 424.87,492.43 821.46,492.43 "/>
    <polygon class="fil71" points="823.34,496.01 422.88,496.01 426.84,488.86 819.58,488.86 "/>
    <polygon class="fil72" points="821.46,492.43 424.87,492.43 428.81,485.29 817.71,485.29 "/>
    <polygon class="fil72" points="819.58,488.86 426.84,488.86 430.8,481.71 815.83,481.71 "/>
    <polygon class="fil73" points="817.71,485.29 428.81,485.29 432.77,478.15 813.96,478.15 "/>
    <polygon class="fil73" points="815.83,481.71 430.8,481.71 434.76,474.56 812.09,474.56 "/>
    <polygon class="fil73" points="813.96,478.15 432.77,478.15 436.72,470.99 810.21,470.99 "/>
    <polygon class="fil73" points="812.09,474.56 434.76,474.56 438.7,467.43 808.33,467.43 "/>
    <polygon class="fil73" points="810.21,470.99 436.72,470.99 440.67,463.84 806.46,463.84 "/>
    <polygon class="fil74" points="808.33,467.43 438.7,467.43 442.63,460.28 804.59,460.28 "/>
    <polygon class="fil74" points="806.46,463.84 440.67,463.84 444.62,456.71 802.71,456.71 "/>
    <polygon class="fil75" points="804.59,460.28 442.63,460.28 446.6,453.13 800.84,453.13 "/>
    <polygon class="fil75" points="802.71,456.71 444.62,456.71 448.57,449.56 798.96,449.56 "/>
    <polygon class="fil75" points="800.84,453.13 446.6,453.13 450.53,445.99 797.08,445.99 "/>
    <polygon class="fil76" points="798.96,449.56 448.57,449.56 453.51,440.63 794.28,440.63 "/>
    <polygon class="fil75" points="797.08,445.99 450.53,445.99 455.48,437.06 792.4,437.06 "/>
    <polygon class="fil76" points="794.28,440.63 453.51,440.63 457.47,433.48 790.53,433.48 "/>
    <polygon class="fil77" points="792.4,437.06 455.48,437.06 459.43,429.91 788.66,429.91 "/>
    <polygon class="fil77" points="790.53,433.48 457.47,433.48 461.41,426.35 786.78,426.35 "/>
    <polygon class="fil77" points="788.66,429.91 459.43,429.91 463.4,422.76 784.91,422.76 "/>
    <polygon class="fil77" points="786.78,426.35 461.41,426.35 465.37,419.19 783.03,419.19 "/>
    <polygon class="fil78" points="784.91,422.76 463.4,422.76 467.33,415.63 781.15,415.63 "/>
    <polygon class="fil79" points="783.03,419.19 465.37,419.19 469.32,412.04 779.28,412.04 "/>
    <polygon class="fil80" points="781.15,415.63 467.33,415.63 471.3,408.48 777.41,408.48 "/>
    <polygon class="fil79" points="779.28,412.04 469.32,412.04 473.26,404.9 775.53,404.9 "/>
    <polygon class="fil79" points="777.41,408.48 471.3,408.48 475.25,401.33 773.65,401.33 "/>
    <polygon class="fil79" points="775.53,404.9 473.26,404.9 477.22,397.76 771.78,397.76 "/>
    <polygon class="fil79" points="773.65,401.33 475.25,401.33 479.19,394.18 769.9,394.18 "/>
    <polygon class="fil80" points="771.78,397.76 477.22,397.76 481.16,390.62 768.03,390.62 "/>
    <polygon class="fil81" points="769.9,394.18 479.19,394.18 483.13,387.05 766.16,387.05 "/>
    <polygon class="fil81" points="768.03,390.62 481.16,390.62 485.12,383.46 764.28,383.46 "/>
    <polygon class="fil82" points="766.16,387.05 483.13,387.05 487.09,379.9 762.4,379.9 "/>
    <polygon class="fil82" points="764.28,383.46 485.12,383.46 489.06,376.33 760.53,376.33 "/>
    <polygon class="fil82" points="762.4,379.9 487.09,379.9 491.05,372.74 758.66,372.74 "/>
    <polygon class="fil82" points="760.53,376.33 489.06,376.33 493.02,369.18 756.78,369.18 "/>
    <polygon class="fil82" points="758.66,372.74 491.05,372.74 494.98,365.61 754.91,365.61 "/>
    <polygon class="fil82" points="756.78,369.18 493.02,369.18 496.98,362.03 753.03,362.03 "/>
    <polygon class="fil83" points="754.91,365.61 494.98,365.61 499.93,356.68 750.23,356.68 "/>
    <polygon class="fil83" points="753.03,362.03 496.98,362.03 501.92,353.1 748.33,353.1 "/>
    <polygon class="fil83" points="750.23,356.68 499.93,356.68 503.89,349.53 746.47,349.53 "/>
    <polygon class="fil84" points="748.33,353.1 501.92,353.1 505.86,345.96 744.6,345.96 "/>
    <polygon class="fil84" points="746.47,349.53 503.89,349.53 507.85,342.38 742.71,342.38 "/>
    <polygon class="fil84" points="744.6,345.96 505.86,345.96 509.82,338.82 740.85,338.82 "/>
    <polygon class="fil84" points="742.71,342.38 507.85,342.38 511.79,335.23 738.96,335.23 "/>
    <polygon class="fil85" points="740.85,338.82 509.82,338.82 513.76,331.66 737.1,331.66 "/>
    <polygon class="fil85" points="738.96,335.23 511.79,335.23 515.75,328.1 735.22,328.1 "/>
    <polygon class="fil85" points="737.1,331.66 513.76,331.66 517.72,324.51 733.33,324.51 "/>
    <polygon class="fil85" points="735.22,328.1 515.75,328.1 519.68,320.95 731.48,320.95 "/>
    <polygon class="fil85" points="733.33,324.51 517.72,324.51 521.66,317.38 729.6,317.38 "/>
    <polygon class="fil86" points="731.48,320.95 519.68,320.95 523.64,313.8 727.71,313.8 "/>
    <polygon class="fil86" points="729.6,317.38 521.66,317.38 525.62,310.23 725.85,310.23 "/>
    <polygon class="fil86" points="727.71,313.8 523.64,313.8 527.58,306.66 723.97,306.66 "/>
    <polygon class="fil87" points="725.85,310.23 525.62,310.23 529.57,303.08 722.1,303.08 "/>
    <polygon class="fil87" points="723.97,306.66 527.58,306.66 531.54,299.52 720.23,299.52 "/>
    <polygon class="fil87" points="722.1,303.08 529.57,303.08 533.51,295.95 718.35,295.95 "/>
    <polygon class="fil88" points="720.23,299.52 531.54,299.52 535.5,292.37 716.47,292.37 "/>
    <polygon class="fil88" points="718.35,295.95 533.51,295.95 537.47,288.8 714.6,288.8 "/>
    <polygon class="fil89" points="716.47,292.37 535.5,292.37 539.44,285.21 712.71,285.21 "/>
    <polygon class="fil90" points="714.6,288.8 537.47,288.8 541.43,281.64 710.85,281.64 "/>
    <polygon class="fil90" points="712.71,285.21 539.44,285.21 543.4,278.08 708.98,278.08 "/>
    <polygon class="fil90" points="710.85,281.64 541.43,281.64 545.37,274.5 707.1,274.5 "/>
    <polygon class="fil90" points="708.98,278.08 543.4,278.08 548.34,269.15 704.27,269.15 "/>
    <polygon class="fil90" points="707.1,274.5 545.37,274.5 550.31,265.57 702.4,265.57 "/>
    <polygon class="fil91" points="704.27,269.15 548.34,269.15 552.28,262 700.53,262 "/>
    <polygon class="fil91" points="702.4,265.57 550.31,265.57 554.26,258.43 698.65,258.43 "/>
    <polygon class="fil92" points="700.53,262 552.28,262 556.24,254.85 696.78,254.85 "/>
    <polygon class="fil92" points="698.65,258.43 554.26,258.43 558.21,251.29 694.9,251.29 "/>
    <polygon class="fil92" points="696.78,254.85 556.24,254.85 560.18,247.72 693.03,247.72 "/>
    <polygon class="fil92" points="694.9,251.29 558.21,251.29 562.17,244.13 691.15,244.13 "/>
    <polygon class="fil92" points="693.03,247.72 560.18,247.72 564.14,240.57 689.28,240.57 "/>
    <polygon class="fil92" points="691.15,244.13 562.17,244.13 566.11,237 687.42,237 "/>
    <polygon class="fil93" points="689.28,240.57 564.14,240.57 568.09,233.41 685.52,233.41 "/>
    <polygon class="fil93" points="687.42,237 566.11,237 570.07,229.85 683.65,229.85 "/>
    <polygon class="fil94" points="685.52,233.41 568.09,233.41 572.04,226.28 681.79,226.28 "/>
    <polygon class="fil94" points="683.65,229.85 570.07,229.85 574.03,222.7 679.9,222.7 "/>
    <polygon class="fil94" points="681.79,226.28 572.04,226.28 575.99,219.13 678.03,219.13 "/>
    <polygon class="fil94" points="679.9,222.7 574.03,222.7 577.97,215.55 676.15,215.55 "/>
    <polygon class="fil94" points="678.03,219.13 575.99,219.13 579.93,211.98 674.27,211.98 "/>
    <polygon class="fil94" points="676.15,215.55 577.97,215.55 581.92,208.42 672.42,208.42 "/>
    <polygon class="fil94" points="674.27,211.98 579.93,211.98 583.89,204.84 670.53,204.84 "/>
    <polygon class="fil95" points="672.42,208.42 581.92,208.42 585.87,201.27 668.65,201.27 "/>
    <polygon class="fil95" points="670.53,204.84 583.89,204.84 587.83,197.7 666.8,197.7 "/>
    <polygon class="fil95" points="668.65,201.27 585.87,201.27 589.82,194.11 664.9,194.11 "/>
    <polygon class="fil95" points="666.8,197.7 587.83,197.7 591.79,190.55 663.02,190.55 "/>
    <polygon class="fil95" points="664.9,194.11 589.82,194.11 594.77,185.18 660.23,185.18 "/>
    <polygon class="fil95" points="663.02,190.55 591.79,190.55 596.73,181.61 658.34,181.61 "/>
    <polygon class="fil96" points="660.23,185.18 594.77,185.18 598.7,178.05 656.47,178.05 "/>
    <polygon class="fil96" points="658.34,181.61 596.73,181.61 600.69,174.47 654.6,174.47 "/>
    <polygon class="fil96" points="656.47,178.05 598.7,178.05 602.67,170.9 652.72,170.9 "/>
    <polygon class="fil97" points="654.6,174.47 600.69,174.47 604.63,167.33 650.85,167.33 "/>
    <polygon class="fil97" points="652.72,170.9 602.67,170.9 606.62,163.75 648.97,163.75 "/>
    <polygon class="fil97" points="650.85,167.33 604.63,167.33 608.59,160.19 647.1,160.19 "/>
    <polygon class="fil97" points="648.97,163.75 606.62,163.75 610.56,156.62 645.22,156.62 "/>
    <polygon class="fil97" points="647.1,160.19 608.59,160.19 612.55,153.04 643.35,153.04 "/>
    <polygon class="fil97" points="645.22,156.62 610.56,156.62 614.52,149.47 641.47,149.47 "/>
    <polygon class="fil98" points="643.35,153.04 612.55,153.04 616.49,145.88 639.59,145.88 "/>
    <polygon class="fil99" points="641.47,149.47 614.52,149.47 618.46,142.31 637.72,142.31 "/>
    <polygon class="fil99" points="639.59,145.88 616.49,145.88 620.43,138.75 635.85,138.75 "/>
    <polygon class="fil100" points="637.72,142.31 618.46,142.31 622.42,135.17 633.97,135.17 "/>
    <polygon class="fil100" points="635.85,138.75 620.43,138.75 624.39,131.6 632.1,131.6 "/>
    <polygon class="fil100" points="633.97,135.17 622.42,135.17 626.35,128.03 630.22,128.03 "/>
    <polygon class="fil101" points="632.1,131.6 624.39,131.6 628.34,124.45 "/>
    <polygon class="fil102" points="630.22,128.03 626.35,128.03 628.34,124.45 "/>
    <polygon class="fil35" points="1325.23,697.85 628.34,124.45 1118.62,1058.66 "/>
    <path class="fil102" d="M235.73 1235.5l-73.26 0 -9.4 30.37 -65.74 0 75.14 -167.91 73.26 0 77.03 167.91 -65.76 0 -11.27 -30.37zm-13.14 -32.15l-24.42 -62.53 -20.66 62.53 45.08 0zm197.24 -105.4l65.75 0 0 121.46 -5.63 14.3 -20.66 28.59 -56.36 10.71 -48.83 -10.71 -24.43 -19.65 -9.39 -32.16 58.24 -7.14 13.15 26.78 11.27 3.58 11.26 -10.71 5.64 -19.65 0 -105.4zm107.07 0l174.7 0 0 39.3 -107.07 0 0 23.21 103.3 0 0 32.17 -103.3 0 0 37.5 107.07 0 0 35.73 -174.7 0 0 -167.91zm212.26 0l174.69 0 0 39.3 -108.92 0 0 23.21 101.41 0 0 32.17 -101.41 0 0 37.5 108.92 0 0 35.73 -174.69 0 0 -167.91zm199.1 0l189.75 0 0 42.87 -65.76 0 0 125.04 -58.22 0 0 -125.04 -65.76 0 0 -42.87z"/>
    <path class="fil102" d="M1255.74 1067.6l-13.14 -3.57 13.14 -28.59 31.94 12.5 5.63 16.08 -7.5 19.65 -13.16 21.43 -24.42 1.78 -20.66 -1.78 -22.54 -17.87 -9.39 -19.65 5.64 -19.65 18.77 -16.08 20.66 0 0 12.52 -16.89 0 -5.64 10.71 -1.87 19.65 20.66 12.49 5.64 0 18.77 0 11.27 -8.93 3.76 -10.71 -1.87 -8.93 -11.26 -3.57 -7.53 12.5zm169.07 -260.79l0 8.93 -5.64 7.13 -78.89 -32.15 7.52 -19.63 9.38 -16.07 0 -3.58 15.04 -7.13 16.92 0 13.15 10.71 5.62 8.93 0 10.72 -9.39 16.05 0 10.72 26.31 5.36zm-114.59 234l-84.53 -35.71 13.15 -26.81 13.15 -16.08 9.39 -3.56 15.04 0 15.02 10.71 -1.87 19.65 11.27 -7.15 22.54 -3.57 16.92 0 -5.64 14.3 -24.42 3.56 -16.91 5.36 -3.75 0 -7.52 10.71 35.7 12.52 -7.52 16.07zm-41.33 -35.71l3.75 -8.94 7.52 -14.3 -5.63 -3.57 -3.77 -5.35 -5.62 0 -5.64 5.35 -7.52 10.72 -3.75 7.14 20.66 8.94zm33.81 -46.45l-18.79 -16.08 -9.38 -10.72 -5.64 -12.49 7.52 -12.5 13.15 -17.87 9.4 -1.79 22.54 0 13.15 1.79 18.78 10.71 9.4 10.72 3.75 12.52 -1.87 16.06 -11.27 14.3 -15.02 5.35 -15.04 3.56 -20.66 -3.56zm5.64 -16.08l24.41 0 18.79 -10.72 -5.64 -16.06 -3.75 -5.36 -13.15 -3.57 -26.31 -7.15 -11.27 10.72 -1.87 19.65 9.4 1.78 9.39 10.72zm-5.64 -82.17l3.77 -14.28 43.2 19.65 16.89 3.56 11.27 -3.56 11.29 -5.37 0 -7.13 -5.64 -8.93 -13.15 -7.15 -50.72 -19.65 7.52 -14.3 45.07 19.65 13.15 3.58 9.39 7.15 9.4 10.72 0 8.93 -1.87 12.5 -11.27 14.28 -11.27 7.14 -13.16 0 -20.66 -10.71 -43.2 -16.08zm54.47 -80.36l28.18 10.7 0 -7.11 3.77 -12.52 -1.9 -7.14 -7.5 -3.58 -1.89 0 -11.27 3.58 -7.5 10.72 -1.89 5.35z"/>
    <path class="fil103" d="M141.81 1401.64l-5.63 8.93 -3.77 10.71 -7.49 8.92 -3.77 0 -5.63 0 5.63 -12.5 11.26 -19.65 -7.49 0 0 -7.14 7.49 -8.93 13.17 -3.58 28.16 -33.93 -16.89 3.56 -20.66 7.15 16.89 0 -7.49 3.57 -20.66 0 -3.77 0 0 -3.57 0 -10.71 11.26 -8.94 3.77 -7.14 9.4 0 20.66 -3.57 24.41 0 20.66 0 18.79 3.57 1.87 7.14 7.52 8.94 -7.52 17.87 -13.15 8.93 -28.18 10.71 -33.81 5.35 -3.77 0 37.58 14.3 11.27 7.13 9.39 1.8 7.52 7.13 0 7.15 0 5.35 -7.52 3.58 -3.75 -3.58 -16.92 -8.92 -48.85 -19.65zm268.63 69.66l-15.02 0 -3.77 -17.87 3.77 -12.5 11.26 -19.65 0 -3.58 -7.52 -7.13 7.52 -8.93 3.75 -3.58 5.64 0 11.26 -16.07 9.4 -19.65 11.26 -14.3 11.27 -8.93 1.87 -3.57 0 3.57 0 19.65 -13.15 19.65 -20.66 30.37 3.75 1.8 5.64 7.13 11.26 -7.13 13.15 -8.93 0 7.13 -13.15 12.52 -11.26 3.57 0 0 0 5.35 0 14.3 -9.4 16.08 -16.91 10.72zm-247.97 -92.9l24.43 -10.71 20.66 -5.35 15.02 -7.15 7.52 -7.15 -11.27 -3.56 -20.66 0 -7.52 0 -9.39 0 -3.75 10.71 -11.26 12.5 -3.77 10.71zm77.03 30.37l0 0 3.75 8.93 11.26 3.58 9.4 -10.71 20.66 -8.93 0 7.13 -20.66 16.08 -20.66 5.35 -13.15 -5.35 -7.52 -14.28 7.52 -12.52 9.39 -16.07 15.02 -10.71 13.15 0 9.39 0 0 7.13 0 8.93 -9.39 3.58 -28.17 17.85zm3.75 -7.13l20.66 -10.72 3.75 -8.93 0 -3.58 -13.15 8.93 -11.26 14.3zm77.01 7.13l-20.66 16.08 -11.27 5.35 -3.75 -8.92 -7.53 -12.52 7.53 -10.71 11.26 -16.07 13.15 -3.58 13.16 -7.13 7.5 7.13 11.27 -19.65 9.39 -14.28 3.77 -5.37 7.5 -3.57 3.76 3.57 0 5.37 -3.76 10.71 -16.9 23.21 -3.76 3.58 -7.5 16.07 -3.77 19.65 3.77 0 7.5 0 9.39 -8.93 11.27 -7.13 0 7.13 -7.5 0 -20.66 16.08 -11.27 5.35 -1.89 0 0 -8.92 0 -3.58 0 -8.93zm1.89 -21.43l-13.16 3.58 -9.39 7.14 -3.75 12.52 0 7.13 3.75 -7.13 16.91 -12.52 3.75 0 1.89 -10.72zm43.2 21.43l0 0 5.63 8.93 3.77 3.58 16.89 -10.71 18.79 -8.93 0 7.13 -24.42 16.08 -15.04 5.35 -16.89 -5.35 -3.77 -14.28 3.77 -12.52 11.26 -16.07 16.9 -10.71 13.16 0 3.75 0 7.52 7.13 -7.52 8.93 -3.75 3.58 -30.06 17.85zm0 -7.13l20.66 -10.72 5.63 -8.93 0 -3.58 -9.39 8.93 -16.9 14.3zm50.73 23.21l-5.64 16.08 -3.75 10.71 0 1.79 3.75 7.14 9.39 -8.93 7.52 -21.45 -7.52 -5.35 -3.75 0zm88.28 -23.21l0 7.13 -22.54 16.08 -16.91 5.35 -5.63 -5.35 0 -14.28 0 -12.52 13.15 -16.07 3.75 -10.71 5.64 0 3.75 0 7.52 7.13 -11.27 8.93 -16.91 14.3 0 7.13 0 1.8 7.52 7.13 3.75 0 9.4 -7.13 18.78 -8.93zm-18.78 -39.3l7.52 -7.15 3.75 0 7.52 0 0 3.57 0 3.58 -11.26 5.35 -7.52 0 0 -5.35zm11.26 46.43l9.4 -21.43 11.26 -8.93 7.52 3.58 1.88 0 -1.88 5.35 -11.26 14.3 -7.52 7.13 0 1.8 28.18 -28.59 15.02 -3.58 1.87 -7.13 7.52 7.13 0 3.58 -7.52 8.93 -1.87 7.14 -7.5 10.71 -3.77 1.8 3.77 7.13 7.5 -7.13 20.66 -8.93 0 7.13 -18.79 12.52 -9.38 8.92 -7.52 0 -7.52 0 -1.88 -8.92 1.88 -10.71 11.26 -12.52 -20.66 19.65 -11.26 7.15 -1.88 5.35 -7.52 -5.35 0 -14.28 0 -1.8zm77.03 0l0 0 5.62 8.93 3.77 3.58 16.89 -10.71 18.79 -8.93 0 7.13 -24.42 16.08 -15.04 5.35 -16.89 -5.35 -3.77 -14.28 3.77 -12.52 11.27 -16.07 16.89 -10.71 13.16 0 3.75 0 7.52 7.13 -7.52 8.93 -3.75 3.58 -30.06 17.85zm0 -7.13l20.66 -10.72 9.4 -8.93 -3.77 -3.58 -9.39 8.93 -16.89 14.3zm120.21 0l-3.75 8.93 -5.64 10.71 -3.75 8.92 -11.27 0 7.52 -12.5 7.5 -19.65 -3.75 0 0 -7.14 3.75 -8.93 16.92 -3.58 24.41 -33.93 -20.66 3.56 -15.02 7.15 11.27 0 3.75 0 -11.26 3.57 -13.15 0 -3.75 0 0 -3.57 0 -10.71 7.5 -8.94 5.64 -7.14 3.75 0 28.18 -3.57 24.41 0 20.66 0 11.27 3.57 9.39 7.14 3.75 8.94 -3.75 17.87 -16.91 8.93 -24.42 10.71 -41.33 5.35 37.58 14.3 13.15 7.13 11.26 1.8 3.75 7.13 0 7.15 0 5.35 -3.75 3.58 -7.52 -3.58 -16.89 -8.92 -48.85 -19.65zm20.66 -23.24l28.18 -10.71 16.89 -5.35 18.79 -7.15 1.87 -7.15 -9.39 -3.56 -20.65 0 -3.77 0 -15.02 0 0 10.71 -9.39 12.5 -7.52 10.71zm77.01 30.37l0 0 7.52 8.93 1.87 3.58 18.79 -10.71 16.89 -8.93 0 7.13 -16.89 16.08 -20.66 5.35 -18.79 -5.35 -1.87 -14.28 1.87 -12.52 11.27 -16.07 16.91 -10.71 15.04 0 9.35 0 0 7.13 0 8.93 -9.35 3.58 -31.95 17.85zm0 -7.13l20.66 -10.72 11.29 -8.93 0 -3.58 -15.04 8.93 -16.91 14.3zm99.55 0l0 7.13 -22.54 16.08 -15.04 5.35 -16.89 -5.35 -11.25 -7.15 7.48 -7.13 0 -1.8 0 -7.13 20.66 -14.3 3.77 -8.93 7.5 -10.71 9.39 0 0 3.58 0 7.13 3.77 12.52 -9.39 17.85 -15.04 12.52 3.77 0 16.89 -3.58 16.92 -16.06zm-54.47 7.13l0 0 7.5 1.8 1.89 7.13 11.27 -8.93 7.5 -10.71 -7.5 -7.14 0 -3.58 -13.16 14.3 -7.5 7.13zm86.4 12.52l-9.39 8.92 -11.27 0 -13.14 -5.35 -3.77 -14.28 3.77 -12.52 9.39 -16.07 15.02 -3.58 9.39 -7.13 7.53 0 3.75 7.13 0 3.58 5.64 5.35 -5.64 14.3 -3.75 8.93 9.39 0 11.27 -12.52 0 10.71 -16.92 8.93 -11.27 3.58zm-9.39 -3.58l0 -7.13 5.64 -8.93 3.75 -14.3 -20.66 14.3 -3.75 16.06 3.75 3.58 7.53 -3.58 3.75 0zm65.74 -7.13l-15.02 14.28 -9.39 5.35 -3.75 -5.35 -7.53 -14.28 7.53 -12.52 9.39 -16.07 3.75 -3.58 3.75 0 11.26 0 -3.75 8.93 -7.52 3.58 -7.5 10.72 0 7.13 -5.64 1.8 5.64 0 7.5 -1.8 16.91 -17.85 15.02 -12.52 9.4 -7.13 0 7.13 0 8.93 -13.15 14.3 -7.52 8.93 7.52 7.13 3.75 -7.13 20.66 -8.93 0 7.13 -15.02 12.52 -5.64 3.57 -15.02 8.93 -5.64 -3.58 -3.75 -5.35 0 -7.15 3.75 -7.13zm30.06 0l0 -1.8 11.26 -10.71 -3.75 -7.14 11.26 -12.52 5.64 -7.13 7.5 0 -7.5 7.13 16.9 0 3.76 0 7.5 0 3.77 8.93 -3.77 3.58 -7.5 7.14 -3.76 10.71 -5.63 1.8 0 7.13 5.63 0 3.76 -7.13 20.66 -8.93 0 7.13 -20.66 16.08 -13.16 5.35 -7.5 0 -3.76 -8.92 3.76 -12.52 11.27 -17.85 -11.27 0 -3.76 7.14 -20.66 12.52zm118.35 -8.93l0 7.13 -20.66 16.08 -20.66 8.93 -11.27 -8.93 -1.89 -14.28 1.89 -12.52 11.27 -16.07 16.89 -10.71 7.52 0 7.53 0 1.87 7.13 -9.4 12.52 -7.52 7.14 0 -7.14 -9.39 10.72 -11.27 7.13 3.77 8.93 7.5 3.58 13.16 -3.58 20.66 -16.06zm3.75 7.13l0 0 7.53 8.93 9.39 3.58 11.27 -10.71 16.89 -8.93 0 7.13 -16.89 16.08 -20.66 5.35 -18.79 -5.35 -1.87 -14.28 1.87 -12.52 11.26 -16.07 16.92 -10.71 15.02 0 9.39 0 0 7.13 0 8.93 -9.39 3.58 -31.94 17.85zm7.53 -7.13l20.66 -10.72 3.75 -8.93 0 -3.58 -15.02 8.93 -9.39 14.3z"/>
    <path class="fil103" d="M1235.08 1401.64l0 7.13 -26.31 16.08 -15.02 5.35 -16.91 -5.35 -3.75 -7.15 0 -7.13 3.75 -1.8 0 -7.13 16.91 -14.3 3.75 -8.93 7.52 -10.71 9.39 0 0 3.58 0 7.13 3.75 12.52 -3.75 17.85 -16.91 12.52 7.52 0 9.39 -3.58 20.66 -16.06zm-58.24 7.13l0 0 7.52 1.8 9.39 7.13 3.75 -8.93 7.52 -10.71 0 -7.14 -7.52 -3.58 -13.15 14.3 -7.52 7.13zm58.24 21.43l3.75 -8.92 11.26 -3.58 3.77 0 -3.77 7.15 -11.26 5.35 -3.75 0zm45.08 0l3.75 -8.92 11.29 -3.58 7.5 0 -7.5 7.15 -11.29 5.35 -3.75 0zm45.07 0l3.77 -8.92 11.27 -3.58 7.52 0 -7.52 7.15 -11.27 5.35 -3.77 0z"/>
   </g>
  </g>
 </g>
</svg>
