<?xml version="1.0" encoding="UTF-8"?>
<!DOCTYPE svg PUBLIC "-//W3C//DTD SVG 1.1//EN" "http://www.w3.org/Graphics/SVG/1.1/DTD/svg11.dtd">
<!-- Creator: CorelDRAW 2017 -->
<svg xmlns="http://www.w3.org/2000/svg" xml:space="preserve" width="90.496mm" height="105.042mm" version="1.1" style="shape-rendering:geometricPrecision; text-rendering:geometricPrecision; image-rendering:optimizeQuality; fill-rule:evenodd; clip-rule:evenodd"
viewBox="0 0 7135.16 8282.01"
 xmlns:xlink="http://www.w3.org/1999/xlink">
 <defs>
  <style type="text/css">
   <![CDATA[
    .fil1 {fill:#397E82}
    .fil0 {fill:#4A1A51}
    .fil6 {fill:#714F71}
    .fil5 {fill:#78A9A9}
    .fil2 {fill:#8B738E}
    .fil4 {fill:#A794A9}
    .fil3 {fill:#AACCCD}
   ]]>
  </style>
 </defs>
 <g id="Layer_x0020_1">
  <metadata id="CorelCorpID_0Corel-Layer"/>
  <g id="_2440523823808">
   <path class="fil0" d="M6281.55 2358.84l-22.8 0 0 42.36 -19.55 0 0 39.1 -19.55 0 0 42.36 -22.8 0 0 22.81 -19.55 0 0 19.55 -22.8 0 0 19.55 -19.55 0 0 22.81 -42.36 0 0 19.55 -42.35 0 0 22.81 -61.91 0 0 19.55 -185.71 0 0 -19.55 -65.16 0 0 -22.81 -42.36 0 0 -19.55 -39.1 0 0 -22.81 -22.8 0 0 -19.55 -19.55 0 0 -19.55 -22.8 0 0 -22.81 -19.55 0 0 -42.36 -19.55 0 0 -39.1 -22.8 0 0 -42.36 -19.55 0 0 -61.9 -22.8 0 0 -316.03 22.8 0 0 -81.45 19.55 0 0 -42.36 22.8 0 0 -42.36 19.55 0 0 -42.36 19.55 0 0 -19.55 22.8 0 0 -19.55 19.55 0 0 -22.8 22.8 0 0 -19.55 39.1 0 0 -22.81 42.36 0 0 -19.55 65.16 0 0 -19.55 166.17 0 0 19.55 81.45 0 0 19.55 42.35 0 0 22.81 42.36 0 0 19.55 19.55 0 0 22.8 22.8 0 0 19.55 19.55 0 0 19.55 22.8 0 0 42.36 19.55 0 0 42.36 19.55 0 0 42.36 22.8 0 0 104.26 19.55 0 0 270.42 -19.55 0 0 84.7zm-2525 -1023.03l0 2671.62 2691.16 0 0 -586.45 -166.17 0 0 439.84 -2378.39 0 0 -2378.39 2378.39 0 0 166.17 -22.8 0 0 -19.55 -19.55 0 0 -22.8 -42.35 0 0 -19.55 -19.55 0 0 -22.8 -42.36 0 0 -19.55 -42.36 0 0 -19.55 -61.9 0 0 -22.8 -293.22 0 0 22.8 -61.9 0 0 19.55 -42.36 0 0 19.55 -42.36 0 0 22.8 -19.55 0 0 19.55 -19.55 0 0 22.8 -22.8 0 0 19.55 -19.55 0 0 19.55 -22.8 0 0 22.81 -19.55 0 0 19.55 -19.55 0 0 42.36 -22.8 0 0 42.36 -19.55 0 0 42.36 -22.8 0 0 81.45 -19.55 0 0 104.26 -19.55 0 0 208.52 19.55 0 0 127.06 19.55 0 0 61.91 22.8 0 0 42.36 19.55 0 0 42.36 22.8 0 0 39.09 19.55 0 0 22.81 19.55 0 0 19.55 22.8 0 0 22.81 19.55 0 0 19.55 22.8 0 0 19.55 19.55 0 0 22.81 19.55 0 0 19.55 42.36 0 0 22.81 42.36 0 0 19.55 61.9 0 0 19.55 293.22 0 0 -19.55 84.71 0 0 -19.55 39.1 0 0 -22.81 42.36 0 0 -19.55 22.8 0 0 -22.81 19.55 0 0 -19.55 19.55 0 0 -19.55 22.8 0 0 -22.81 19.55 0 0 270.42 -19.55 0 0 65.16 -22.8 0 0 39.1 -19.55 0 0 42.36 -19.55 0 0 22.8 -22.8 0 0 19.55 -42.36 0 0 19.55 -19.55 0 0 22.81 -42.36 0 0 19.55 -104.26 0 0 22.81 -208.51 0 0 -22.81 -61.9 0 0 -19.55 -42.36 0 0 -22.81 -42.36 0 0 -19.55 -19.55 0 0 -19.55 -22.8 0 0 -22.8 -19.55 0 0 -42.36 -19.55 0 0 -19.55 -22.8 0 0 -42.36 -19.55 0 0 -19.55 -42.36 0 0 19.55 -19.55 0 0 22.8 -42.36 0 0 19.55 -22.8 0 0 19.55 22.8 0 0 42.36 19.55 0 0 22.8 22.8 0 0 39.1 19.55 0 0 22.81 19.55 0 0 19.55 22.8 0 0 22.81 19.55 0 0 19.55 22.8 0 0 19.55 19.55 0 0 22.81 42.35 0 0 19.55 42.36 0 0 22.81 81.45 0 0 19.55 335.58 0 0 -19.55 61.9 0 0 -22.81 61.91 0 0 -19.55 22.8 0 0 -22.81 39.1 0 0 -19.55 22.8 0 0 -19.55 19.55 0 0 -22.81 22.8 0 0 -19.55 19.55 0 0 -22.81 19.55 0 0 -39.1 22.81 0 0 -42.36 19.55 0 0 -42.35 22.8 0 0 -84.71 19.55 0 0 -1541.07 -19.55 0 0 19.55 -2671.61 0z"/>
   <polygon class="fil0" points="2482.64,6802.85 3652.29,6802.85 3652.29,4131.23 961.13,4131.23 961.13,4714.42 1127.29,4714.42 1127.29,4277.84 3528.48,4277.84 3528.48,6656.23 2609.71,6656.23 2609.71,5841.72 2586.9,5841.72 2586.9,5779.82 2567.35,5779.82 2567.35,5717.91 2547.81,5717.91 2547.81,5695.11 2525,5695.11 2525,5675.55 2505.45,5675.55 2505.45,5652.75 2482.64,5652.75 2482.64,5633.2 2463.1,5633.2 2463.1,5613.65 2443.55,5613.65 2443.55,5590.85 2401.19,5590.85 2401.19,5571.29 2358.84,5571.29 2358.84,5548.49 2065.61,5548.49 2065.61,5571.29 2026.52,5571.29 2026.52,5590.85 1984.16,5590.85 1984.16,5613.65 1941.8,5613.65 1941.8,5633.2 1922.26,5633.2 1922.26,5652.75 1899.45,5652.75 1899.45,5675.55 1879.9,5675.55 1879.9,5695.11 1857.09,5695.11 1857.09,5717.91 1837.55,5717.91 1837.55,5737.46 1818,5737.46 1818,5717.91 1795.19,5717.91 1795.19,5695.11 1775.65,5695.11 1775.65,5652.75 1752.84,5652.75 1752.84,5633.2 1733.29,5633.2 1733.29,5613.65 1690.93,5613.65 1690.93,5590.85 1648.58,5590.85 1648.58,5571.29 1609.48,5571.29 1609.48,5548.49 1358.61,5548.49 1358.61,5571.29 1273.9,5571.29 1273.9,5590.85 1231.54,5590.85 1231.54,5613.65 1212,5613.65 1212,5633.2 1169.64,5633.2 1169.64,5652.75 1150.1,5652.75 1150.1,5675.55 1127.29,5675.55 1127.29,5571.29 980.67,5571.29 980.67,6780.04 1127.29,6780.04 1127.29,5945.97 1150.1,5945.97 1150.1,5861.26 1169.64,5861.26 1169.64,5822.17 1189.19,5822.17 1189.19,5799.36 1212,5799.36 1212,5779.82 1231.54,5779.82 1231.54,5757.01 1254.35,5757.01 1254.35,5737.46 1273.9,5737.46 1273.9,5717.91 1316.26,5717.91 1316.26,5695.11 1397.71,5695.11 1397.71,5675.55 1544.32,5675.55 1544.32,5695.11 1586.68,5695.11 1586.68,5717.91 1629.03,5717.91 1629.03,5737.46 1648.58,5737.46 1648.58,5757.01 1671.38,5757.01 1671.38,5779.82 1690.93,5779.82 1690.93,5822.17 1713.74,5822.17 1713.74,5884.07 1733.29,5884.07 1733.29,6780.04 1879.9,6780.04 1879.9,5903.62 1899.45,5903.62 1899.45,5861.26 1922.26,5861.26 1922.26,5822.17 1941.8,5822.17 1941.8,5779.82 1961.35,5779.82 1961.35,5757.01 2003.71,5757.01 2003.71,5737.46 2026.52,5737.46 2026.52,5717.91 2065.61,5717.91 2065.61,5695.11 2130.77,5695.11 2130.77,5675.55 2296.93,5675.55 2296.93,5695.11 2339.29,5695.11 2339.29,5717.91 2378.39,5717.91 2378.39,5737.46 2401.19,5737.46 2401.19,5757.01 2420.74,5757.01 2420.74,5799.36 2443.55,5799.36 2443.55,5841.72 2463.1,5841.72 2463.1,5945.97 2482.64,5945.97 "/>
   <polygon class="fil0" points="980.67,1335.81 961.13,1335.81 961.13,2753.07 690.71,2753.07 690.71,2899.68 961.13,2899.68 961.13,3733.75 980.67,3733.75 980.67,3818.46 1003.48,3818.46 1003.48,3860.81 1023.03,3860.81 1023.03,3903.17 1045.83,3903.17 1045.83,3922.72 1065.39,3922.72 1065.39,3942.26 1107.74,3942.26 1107.74,3965.07 1150.1,3965.07 1150.1,3984.62 1231.54,3984.62 1231.54,4007.43 1397.71,4007.43 1397.71,3984.62 1482.42,3984.62 1482.42,3965.07 1524.77,3965.07 1524.77,3880.36 1505.22,3880.36 1505.22,3818.46 1462.87,3818.46 1462.87,3838 1420.51,3838 1420.51,3860.81 1189.19,3860.81 1189.19,3838 1169.64,3838 1169.64,3818.46 1150.1,3818.46 1150.1,3798.91 1127.29,3798.91 1127.29,3733.75 1107.74,3733.75 1107.74,2899.68 1462.87,2899.68 1462.87,2753.07 1107.74,2753.07 1107.74,1459.62 3505.68,1459.62 3505.68,3860.81 1922.26,3860.81 1922.26,4007.43 3652.29,4007.43 3652.29,1316.26 980.67,1316.26 "/>
   <polygon class="fil1" points="6405.36,6424.91 6405.36,4150.78 3756.55,4150.78 3756.55,6780.04 6405.36,6780.04 6405.36,6594.33 6301.1,6594.33 6301.1,6675.78 3860.81,6675.78 3860.81,4255.04 6301.1,4255.04 6301.1,6424.91 "/>
   <polygon class="fil1" points="4069.32,6490.07 6115.39,6490.07 6115.39,6174.04 6030.68,6174.04 6030.68,6196.84 6011.13,6196.84 6011.13,6385.81 4173.58,6385.81 4173.58,4548.26 6011.13,4548.26 6011.13,6030.69 6134.93,6030.69 6134.93,4444.01 4069.32,4444.01 "/>
   <path class="fil1" d="M3069.1 606l19.55 0 0 -61.9 22.8 0 0 -22.81 19.55 0 0 -19.55 19.55 0 0 -22.81 22.81 0 0 -19.55 42.36 0 0 -19.55 39.09 0 0 -22.81 146.61 0 0 22.81 42.36 0 0 19.55 42.36 0 0 19.55 19.55 0 0 22.81 22.8 0 0 19.55 19.55 0 0 42.36 19.55 0 0 42.36 22.8 0 0 42.36 19.55 0 0 61.9 22.8 0 0 417.04 -65.16 0 0 -19.55 -81.45 0 0 -22.8 -42.36 0 0 -19.55 -42.36 0 0 -22.81 -19.55 0 0 -19.55 -42.36 0 0 -19.55 -19.55 0 0 -22.8 -42.36 0 0 -19.55 -22.81 0 0 -22.8 -19.55 0 0 -19.55 -19.55 0 0 -19.55 -22.81 0 0 -22.8 -19.55 0 0 -19.55 -22.81 0 0 -22.8 -19.55 0 0 -39.1 -19.55 0 0 -42.36 -22.8 0 0 -42.36 -19.55 0 0 -104.26zm602.74 563.65l0 -104.26 22.81 0 0 -335.58 -22.81 0 0 -146.62 -19.55 0 0 -104.26 -19.55 0 0 -81.45 -22.8 0 0 -42.36 -19.55 0 0 -42.36 -22.8 0 0 -42.36 -19.55 0 0 -39.1 -19.55 0 0 -22.8 -22.8 0 0 -42.36 -19.55 0 0 -19.55 -22.8 0 0 -19.55 -19.55 0 0 -22.8 -19.55 0 0 -19.55 -22.81 0 0 -22.8 -42.35 0 0 -19.55 -39.1 0 0 -19.55 -42.36 0 0 -22.81 -166.17 0 0 22.81 -65.16 0 0 19.55 -39.1 0 0 19.55 -22.8 0 0 22.8 -42.36 0 0 19.55 -19.55 0 0 22.8 -42.35 0 0 19.55 -19.55 0 0 19.55 -22.8 0 0 42.36 -19.55 0 0 22.8 -22.8 0 0 19.55 -19.55 0 0 61.9 -19.55 0 0 208.51 19.55 0 0 22.81 19.55 0 0 61.9 22.8 0 0 19.55 19.55 0 0 22.81 22.8 0 0 42.36 19.55 0 0 19.55 22.8 0 0 19.55 19.55 0 0 22.8 19.55 0 0 19.55 22.8 0 0 22.81 19.55 0 0 19.55 22.8 0 0 19.55 19.55 0 0 22.8 42.36 0 0 19.55 19.55 0 0 22.8 22.8 0 0 19.55 19.55 0 0 19.55 42.36 0 0 22.8 19.55 0 0 19.55 42.36 0 0 22.8 19.55 0 0 19.55 42.36 0 0 19.55 22.81 0 0 22.81 39.1 0 0 19.55 42.35 0 0 22.8 42.36 0 0 19.55 42.36 0 0 19.55 42.36 0 0 22.81 61.9 0 0 19.55 61.91 0 0 -19.55 19.55 0z"/>
   <path class="fil1" d="M4382.1 794.97l-19.55 0 0 19.55 -22.8 0 0 19.55 -19.55 0 0 42.36 -22.81 0 0 22.8 -19.55 0 0 19.55 -19.55 0 0 19.55 -42.36 0 0 22.8 -22.8 0 0 19.55 -19.55 0 0 22.8 -19.55 0 0 19.55 -42.36 0 0 19.55 -42.36 0 0 22.81 -19.55 0 0 19.55 -65.16 0 0 22.8 -39.1 0 0 19.55 -42.36 0 0 19.55 -42.36 0 0 -81.45 -19.55 0 0 -250.88 19.55 0 0 -123.8 19.55 0 0 -65.17 22.81 0 0 -42.36 19.55 0 0 -19.55 22.81 0 0 -42.36 19.55 0 0 -19.55 19.55 0 0 -22.81 22.8 0 0 -19.55 42.36 0 0 -19.55 39.1 0 0 -22.81 146.61 0 0 22.81 42.36 0 0 19.55 42.36 0 0 19.55 19.55 0 0 22.81 22.8 0 0 19.55 19.55 0 0 22.81 22.8 0 0 208.51 -22.8 0 0 42.36zm-188.97 -772.16l-39.1 0 0 19.55 -42.36 0 0 19.55 -42.36 0 0 22.8 -19.55 0 0 19.55 -22.81 0 0 22.8 -19.55 0 0 39.1 -22.8 0 0 22.8 -19.55 0 0 42.36 -19.55 0 0 39.1 -22.81 0 0 22.8 -19.55 0 0 61.91 -22.81 0 0 42.36 -19.55 0 0 61.9 -19.55 0 0 104.26 -22.81 0 0 166.17 -19.55 0 0 417.03 19.55 0 0 65.17 42.36 0 0 -22.81 42.36 0 0 -19.55 42.36 0 0 -22.81 61.9 0 0 -19.55 42.36 0 0 -19.55 39.1 0 0 -22.8 22.8 0 0 -19.55 42.36 0 0 -22.81 39.1 0 0 -19.55 22.8 0 0 -19.55 42.36 0 0 -22.8 39.1 0 0 -19.55 22.81 0 0 -22.8 19.55 0 0 -19.55 42.36 0 0 -19.55 22.8 0 0 -22.8 19.55 0 0 -19.55 19.55 0 0 -22.8 42.36 0 0 -19.55 22.81 0 0 -19.55 19.55 0 0 -22.81 19.55 0 0 -19.55 22.81 0 0 -22.8 19.55 0 0 -39.1 22.81 0 0 -22.81 19.55 0 0 -19.55 19.55 0 0 -22.81 22.81 0 0 -42.36 19.55 0 0 -19.55 22.81 0 0 -61.9 19.55 0 0 -188.97 -19.55 0 0 -42.36 -22.81 0 0 -39.1 -19.55 0 0 -22.8 -22.81 0 0 -19.55 -19.55 0 0 -22.8 -19.55 0 0 -19.55 -22.81 0 0 -19.55 -19.55 0 0 -22.8 -22.81 0 0 -19.55 -19.55 0 0 -22.8 -61.9 0 0 -19.55 -22.81 0 0 -19.55 -81.45 0 0 -22.81 -169.41 0 0 22.81z"/>
   <polygon class="fil1" points="4069.32,1169.65 4069.32,1189.2 4193.13,1189.2 4193.13,1169.65 4277.84,1169.65 4277.84,1146.84 4424.45,1146.84 4424.45,1127.3 4528.71,1127.3 4528.71,1107.74 4903.39,1107.74 4903.39,1127.3 4988.09,1127.3 4988.09,1146.84 5050,1146.84 5050,1169.65 5111.9,1169.65 5111.9,1189.2 5154.26,1189.2 5154.26,1212.01 5196.62,1212.01 5196.62,1231.55 5216.16,1231.55 5216.16,1251.1 5258.52,1251.1 5258.52,1273.91 5278.06,1273.91 5278.06,1293.45 5300.87,1293.45 5300.87,1316.26 3756.55,1316.26 3756.55,1335.81 6428.16,1335.81 6428.16,1316.26 5362.77,1316.26 5362.77,1251.1 5382.33,1251.1 5382.33,1107.74 5405.13,1107.74 5405.13,1084.94 5633.2,1084.94 5633.2,1003.48 5613.64,1003.48 5613.64,980.68 5590.84,980.68 5590.84,961.13 5571.29,961.13 5571.29,938.33 5528.94,938.33 5528.94,918.77 5509.39,918.77 5509.39,899.23 5486.58,899.23 5486.58,876.43 5447.48,876.43 5447.48,856.87 5362.77,856.87 5362.77,834.07 5258.52,834.07 5258.52,814.52 4903.39,814.52 4903.39,834.07 4779.58,834.07 4779.58,856.87 4737.22,856.87 4737.22,876.43 4652.51,876.43 4652.51,899.23 4590.61,899.23 4590.61,918.77 4528.71,918.77 4528.71,938.33 4486.36,938.33 4486.36,961.13 4444,961.13 4444,980.68 4404.9,980.68 4404.9,1003.48 4339.74,1003.48 4339.74,1023.04 4297.39,1023.04 4297.39,1042.58 4258.29,1042.58 4258.29,1065.39 4215.93,1065.39 4215.93,1084.94 4193.13,1084.94 4193.13,1107.74 4154.03,1107.74 4154.03,1127.3 4111.68,1127.3 4111.68,1146.84 4088.87,1146.84 4088.87,1169.65 "/>
   <polygon class="fil1" points="4382.1,5486.59 4486.36,5486.59 4486.36,4861.04 5717.91,4861.04 5717.91,6092.59 5528.94,6092.59 5528.94,6216.4 5841.71,6216.4 5841.71,4756.78 4382.1,4756.78 "/>
   <polygon class="fil1" points="2130.77,1316.26 2169.87,1316.26 2169.87,1293.45 2212.23,1293.45 2212.23,1273.91 2235.03,1273.91 2235.03,1251.1 2254.58,1251.1 2254.58,1231.55 2296.93,1231.55 2296.93,1212.01 2339.29,1212.01 2339.29,1189.2 2378.39,1189.2 2378.39,1169.65 2420.74,1169.65 2420.74,1146.84 2482.64,1146.84 2482.64,1127.3 2586.9,1127.3 2586.9,1107.74 2922.48,1107.74 2922.48,1127.3 3131,1127.3 3131,1146.84 3235.26,1146.84 3235.26,1169.65 3339.51,1169.65 3339.51,1189.2 3443.77,1189.2 3443.77,1169.65 3401.42,1169.65 3401.42,1146.84 3359.07,1146.84 3359.07,1127.3 3319.97,1127.3 3319.97,1107.74 3297.16,1107.74 3297.16,1084.94 3254.8,1084.94 3254.8,1065.39 3215.71,1065.39 3215.71,1042.58 3173.36,1042.58 3173.36,1023.04 3131,1023.04 3131,1003.48 3088.65,1003.48 3088.65,980.68 3046.29,980.68 3046.29,961.13 2984.39,961.13 2984.39,938.33 2942.03,938.33 2942.03,918.77 2902.93,918.77 2902.93,899.23 2818.22,899.23 2818.22,876.43 2756.32,876.43 2756.32,856.87 2691.16,856.87 2691.16,834.07 2609.71,834.07 2609.71,814.52 2482.64,814.52 2482.64,794.97 2192.67,794.97 2192.67,814.52 2130.77,814.52 2130.77,834.07 2065.61,834.07 2065.61,856.87 2026.52,856.87 2026.52,876.43 2003.71,876.43 2003.71,899.23 1984.16,899.23 1984.16,918.77 1961.35,918.77 1961.35,938.33 1941.8,938.33 1941.8,961.13 1922.26,961.13 1922.26,980.68 1899.45,980.68 1899.45,1003.48 1879.9,1003.48 1879.9,1023.04 1857.09,1023.04 1857.09,1084.94 2088.42,1084.94 2088.42,1146.84 2107.97,1146.84 2107.97,1231.55 2130.77,1231.55 "/>
   <polygon class="fil0" points="4945.75,8011.59 4945.75,7949.69 4965.29,7949.69 4965.29,7822.62 4988.09,7822.62 4988.09,7532.65 5030.45,7532.65 5030.45,7636.91 5050,7636.91 5050,7698.82 5069.55,7698.82 5069.55,7760.72 5092.36,7760.72 5092.36,7822.62 5111.9,7822.62 5111.9,7864.98 5134.71,7864.98 5134.71,7949.69 5154.26,7949.69 5154.26,7992.04 5173.81,7992.04 5173.81,8011.59 5278.06,8011.59 5278.06,7949.69 5300.87,7949.69 5300.87,7864.98 5320.42,7864.98 5320.42,7803.08 5343.23,7803.08 5343.23,7741.17 5362.77,7741.17 5362.77,7676.01 5382.33,7676.01 5382.33,7614.11 5405.13,7614.11 5405.13,7571.75 5424.68,7571.75 5424.68,7656.46 5447.48,7656.46 5447.48,7822.62 5467.03,7822.62 5467.03,7907.33 5486.58,7907.33 5486.58,8031.13 5613.64,8031.13 5613.64,7949.69 5590.84,7949.69 5590.84,7822.62 5571.29,7822.62 5571.29,7571.75 5551.74,7571.75 5551.74,7405.59 5528.94,7405.59 5528.94,7258.97 5447.48,7258.97 5447.48,7324.14 5424.68,7324.14 5424.68,7363.24 5405.13,7363.24 5405.13,7447.94 5382.33,7447.94 5382.33,7509.85 5362.77,7509.85 5362.77,7571.75 5343.23,7571.75 5343.23,7636.91 5320.42,7636.91 5320.42,7698.82 5300.87,7698.82 5300.87,7760.72 5278.06,7760.72 5278.06,7803.08 5258.52,7803.08 5258.52,7864.98 5238.97,7864.98 5238.97,7803.08 5216.16,7803.08 5216.16,7741.17 5196.62,7741.17 5196.62,7676.01 5173.81,7676.01 5173.81,7614.11 5154.26,7614.11 5154.26,7532.65 5134.71,7532.65 5134.71,7467.49 5111.9,7467.49 5111.9,7405.59 5092.36,7405.59 5092.36,7343.68 5069.55,7343.68 5069.55,7258.97 4988.09,7258.97 4988.09,7324.14 4965.29,7324.14 4965.29,7532.65 4945.75,7532.65 4945.75,7698.82 4926.19,7698.82 4926.19,7864.98 4903.39,7864.98 4903.39,8011.59 "/>
   <polygon class="fil1" points="5447.48,5111.91 5238.97,5111.91 5238.97,5216.17 5258.52,5216.17 5258.52,5235.71 5343.23,5235.71 5343.23,5737.46 4821.94,5737.46 4821.94,5216.17 5111.9,5216.17 5111.9,5111.91 4737.22,5111.91 4737.22,5841.72 5447.48,5841.72 "/>
   <path class="fil0" d="M4154.03 7656.46l19.55 0 0 -84.71 19.55 0 0 -19.55 22.8 0 0 -19.55 42.36 0 0 -22.8 104.26 0 0 22.8 42.36 0 0 394.23 -42.36 0 0 22.81 -22.8 0 0 19.55 -123.81 0 0 -19.55 -22.8 0 0 -22.81 -19.55 0 0 -39.09 -19.55 0 0 -231.32zm39.1 -166.17l-39.1 0 0 19.55 -22.8 0 0 22.8 -19.55 0 0 19.55 -22.8 0 0 19.55 -19.55 0 0 42.36 -19.55 0 0 84.71 -22.81 0 0 166.16 22.81 0 0 42.36 19.55 0 0 19.55 19.55 0 0 42.36 42.36 0 0 22.81 22.8 0 0 19.55 208.51 0 0 -19.55 42.36 0 0 166.16 -22.8 0 0 42.36 -42.36 0 0 19.55 -123.81 0 0 -19.55 -61.9 0 0 -22.8 -22.8 0 0 -19.55 -61.91 0 0 42.36 19.55 0 0 19.55 42.36 0 0 19.55 42.36 0 0 22.8 42.35 0 0 19.55 123.81 0 0 -19.55 84.71 0 0 -22.8 19.55 0 0 -19.55 22.81 0 0 -19.55 19.55 0 0 -22.8 22.81 0 0 -61.91 19.55 0 0 -625.55 -84.71 0 0 -22.8 -250.87 0 0 22.8z"/>
   <polygon class="fil1" points="4382.1,6216.4 5405.13,6216.4 5405.13,6092.59 4486.36,6092.59 4486.36,5633.2 4382.1,5633.2 "/>
   <polygon class="fil0" points="606,8011.59 606,7594.55 628.81,7594.55 628.81,7571.75 648.35,7571.75 648.35,7552.21 667.9,7552.21 667.9,7532.65 710.25,7532.65 710.25,7509.85 794.96,7509.85 794.96,7532.65 814.52,7532.65 814.52,7949.69 837.32,7949.69 837.32,7992.04 856.87,7992.04 856.87,8011.59 918.77,8011.59 918.77,8031.13 1003.48,8031.13 1003.48,8011.59 1023.03,8011.59 1023.03,7969.23 941.58,7969.23 941.58,7571.75 918.77,7571.75 918.77,7509.85 899.22,7509.85 899.22,7490.3 856.87,7490.3 856.87,7467.49 667.9,7467.49 667.9,7490.3 648.35,7490.3 648.35,7509.85 606,7509.85 606,7219.88 501.74,7219.88 501.74,8011.59 "/>
   <polygon class="fil0" points="2150.32,7281.78 2065.61,7281.78 2065.61,7301.33 2003.71,7301.33 2003.71,7324.14 1984.16,7324.14 1984.16,7343.68 1961.35,7343.68 1961.35,7363.24 1941.8,7363.24 1941.8,7386.04 1922.26,7386.04 1922.26,7405.59 1899.45,7405.59 1899.45,7447.94 1879.9,7447.94 1879.9,7490.3 1857.09,7490.3 1857.09,7760.72 1879.9,7760.72 1879.9,7845.43 1899.45,7845.43 1899.45,7887.79 1922.26,7887.79 1922.26,7907.33 1941.8,7907.33 1941.8,7926.88 1961.35,7926.88 1961.35,7949.69 1984.16,7949.69 1984.16,7969.23 2026.52,7969.23 2026.52,7992.04 2065.61,7992.04 2065.61,8011.59 2420.74,8011.59 2420.74,7992.04 2443.55,7992.04 2443.55,7803.08 2482.64,7803.08 2482.64,7741.17 2192.67,7741.17 2192.67,7803.08 2316.48,7803.08 2316.48,7969.23 2150.32,7969.23 2150.32,7949.69 2107.97,7949.69 2107.97,7926.88 2065.61,7926.88 2065.61,7907.33 2046.06,7907.33 2046.06,7887.79 2026.52,7887.79 2026.52,7822.62 2003.71,7822.62 2003.71,7783.52 1984.16,7783.52 1984.16,7509.85 2003.71,7509.85 2003.71,7447.94 2026.52,7447.94 2026.52,7405.59 2046.06,7405.59 2046.06,7386.04 2065.61,7386.04 2065.61,7363.24 2107.97,7363.24 2107.97,7343.68 2130.77,7343.68 2130.77,7324.14 2378.39,7324.14 2378.39,7343.68 2420.74,7343.68 2420.74,7281.78 2358.84,7281.78 2358.84,7258.97 2150.32,7258.97 "/>
   <polygon class="fil0" points="3632.74,8011.59 3632.74,7594.55 3652.29,7594.55 3652.29,7571.75 3671.84,7571.75 3671.84,7552.21 3694.65,7552.21 3694.65,7532.65 3737,7532.65 3737,7509.85 3818.45,7509.85 3818.45,7532.65 3841.26,7532.65 3841.26,7969.23 3860.81,7969.23 3860.81,7992.04 3880.35,7992.04 3880.35,8011.59 4026.96,8011.59 4026.96,7969.23 3965.06,7969.23 3965.06,7552.21 3945.52,7552.21 3945.52,7509.85 3922.71,7509.85 3922.71,7490.3 3880.35,7490.3 3880.35,7467.49 3694.65,7467.49 3694.65,7490.3 3652.29,7490.3 3652.29,7509.85 3632.74,7509.85 3632.74,7467.49 3505.68,7467.49 3505.68,8011.59 "/>
   <polygon class="fil2" points="2482.64,6802.85 2482.64,6822.39 3671.84,6822.39 3671.84,4111.68 961.13,4111.68 961.13,4131.23 3652.29,4131.23 3652.29,6802.85 "/>
   <path class="fil0" d="M5968.78 7926.88l-22.81 0 0 22.81 -19.55 0 0 19.55 -104.26 0 0 -19.55 -19.55 0 0 -146.61 39.1 0 0 -19.55 146.61 0 0 123.81 -19.55 0 0 19.55zm-188.97 -436.58l-61.9 0 0 19.55 -22.81 0 0 22.8 22.81 0 0 19.55 42.36 0 0 -19.55 81.45 0 0 -22.8 84.71 0 0 22.8 42.36 0 0 19.55 19.55 0 0 188.96 -228.06 0 0 19.55 -42.36 0 0 22.8 -22.81 0 0 39.1 -19.55 0 0 127.07 19.55 0 0 19.55 22.81 0 0 22.81 19.55 0 0 19.55 208.51 0 0 -19.55 22.81 0 0 -22.81 42.36 0 0 22.81 19.55 0 0 19.55 146.61 0 0 -42.36 -61.9 0 0 -19.55 -22.81 0 0 -417.04 -19.55 0 0 -22.8 -22.8 0 0 -19.55 -19.55 0 0 -22.8 -250.87 0 0 22.8z"/>
   <path class="fil0" d="M1150.1 7614.11l19.55 0 0 -42.36 19.55 0 0 -19.55 22.81 0 0 -19.55 42.36 0 0 -22.8 61.9 0 0 22.8 42.36 0 0 19.55 19.55 0 0 61.9 19.55 0 0 42.36 -247.61 0 0 -42.36zm39.09 -123.81l-39.09 0 0 19.55 -22.81 0 0 22.8 -19.55 0 0 19.55 -22.81 0 0 19.55 -19.55 0 0 42.36 -19.55 0 0 61.9 -22.8 0 0 169.42 22.8 0 0 42.36 19.55 0 0 39.09 19.55 0 0 22.81 22.81 0 0 19.55 19.55 0 0 22.81 42.36 0 0 19.55 270.42 0 0 -19.55 42.36 0 0 -42.36 -61.91 0 0 19.55 -208.51 0 0 -19.55 -22.81 0 0 -22.81 -19.55 0 0 -39.09 -19.55 0 0 -169.42 355.13 0 0 -146.61 -22.8 0 0 -19.55 -19.55 0 0 -19.55 -22.8 0 0 -22.8 -19.55 0 0 -19.55 -22.8 0 0 -22.8 -208.52 0 0 22.8z"/>
   <path class="fil0" d="M6802.84 7594.55l19.55 0 0 -42.35 22.8 0 0 -19.55 39.1 0 0 -22.8 84.71 0 0 22.8 19.55 0 0 19.55 22.81 0 0 42.35 19.55 0 0 61.91 -228.07 0 0 -61.91zm19.55 -104.26l-19.55 0 0 19.55 -42.36 0 0 22.8 -19.55 0 0 19.55 -22.81 0 0 19.55 -19.55 0 0 65.16 -22.8 0 0 250.88 22.8 0 0 39.09 19.55 0 0 22.81 22.81 0 0 19.55 19.55 0 0 22.81 42.36 0 0 19.55 289.97 0 0 -19.55 22.81 0 0 -42.36 -84.71 0 0 19.55 -166.16 0 0 -19.55 -42.36 0 0 -42.36 -19.55 0 0 -61.9 -22.8 0 0 -127.07 355.13 0 0 -146.61 -19.55 0 0 -39.1 -22.81 0 0 -22.8 -39.1 0 0 -19.55 -42.35 0 0 -22.8 -188.97 0 0 22.8z"/>
   <polygon class="fil0" points="293.22,8011.59 293.22,7301.33 459.38,7301.33 459.38,7258.97 -0,7258.97 -0,7301.33 169.41,7301.33 169.41,8011.59 "/>
   <polygon class="fil3" points="6405.36,6424.91 6428.16,6424.91 6428.16,4131.23 3756.55,4131.23 3756.55,4150.78 6405.36,4150.78 "/>
   <polygon class="fil0" points="2860.58,7239.43 2818.22,7239.43 2818.22,7258.97 2795.42,7258.97 2795.42,7281.78 2775.87,7281.78 2775.87,7301.33 2756.32,7301.33 2756.32,7363.24 2733.52,7363.24 2733.52,7467.49 2713.97,7467.49 2713.97,7509.85 2733.52,7509.85 2733.52,8011.59 2860.58,8011.59 2860.58,7509.85 2942.03,7509.85 2942.03,7467.49 2860.58,7467.49 2860.58,7301.33 2880.13,7301.33 2880.13,7281.78 2922.48,7281.78 2922.48,7258.97 2984.39,7258.97 2984.39,7219.88 2860.58,7219.88 "/>
   <polygon class="fil0" points="2984.39,7467.49 2964.83,7467.49 2964.83,7509.85 2984.39,7509.85 2984.39,7907.33 3007.19,7907.33 3007.19,7969.23 3026.74,7969.23 3026.74,7992.04 3046.29,7992.04 3046.29,8011.59 3277.61,8011.59 3277.61,7949.69 3235.26,7949.69 3235.26,7969.23 3131,7969.23 3131,7949.69 3111.45,7949.69 3111.45,7509.85 3254.8,7509.85 3254.8,7467.49 3111.45,7467.49 3111.45,7363.24 2984.39,7363.24 "/>
   <polygon class="fil0" points="6239.19,7509.85 6490.07,7509.85 6490.07,7552.21 6467.26,7552.21 6467.26,7571.75 6447.71,7571.75 6447.71,7614.11 6428.16,7614.11 6428.16,7656.46 6405.36,7656.46 6405.36,7676.01 6385.81,7676.01 6385.81,7718.36 6363,7718.36 6363,7741.17 6343.46,7741.17 6343.46,7783.52 6323.9,7783.52 6323.9,7822.62 6301.1,7822.62 6301.1,7845.43 6281.55,7845.43 6281.55,7887.79 6258.74,7887.79 6258.74,7907.33 6239.19,7907.33 6239.19,7949.69 6219.65,7949.69 6219.65,8011.59 6613.87,8011.59 6613.87,7992.04 6656.23,7992.04 6656.23,7926.88 6613.87,7926.88 6613.87,7949.69 6594.33,7949.69 6594.33,7969.23 6343.46,7969.23 6343.46,7949.69 6363,7949.69 6363,7907.33 6385.81,7907.33 6385.81,7887.79 6405.36,7887.79 6405.36,7845.43 6428.16,7845.43 6428.16,7803.08 6447.71,7803.08 6447.71,7783.52 6467.26,7783.52 6467.26,7741.17 6490.07,7741.17 6490.07,7718.36 6509.61,7718.36 6509.61,7676.01 6532.42,7676.01 6532.42,7636.91 6551.97,7636.91 6551.97,7614.11 6571.52,7614.11 6571.52,7571.75 6594.33,7571.75 6594.33,7552.21 6613.87,7552.21 6613.87,7467.49 6239.19,7467.49 "/>
   <polygon class="fil4" points="1127.29,2753.07 1127.29,1482.42 3505.68,1482.42 3505.68,1459.62 1107.74,1459.62 1107.74,2753.07 "/>
   <polygon class="fil0" points="3486.13,7969.23 3424.23,7969.23 3424.23,7467.49 3297.16,7467.49 3297.16,7949.69 3319.97,7949.69 3319.97,7992.04 3339.51,7992.04 3339.51,8011.59 3486.13,8011.59 "/>
   <polygon class="fil0" points="2691.16,7969.23 2629.25,7969.23 2629.25,7467.49 2505.45,7467.49 2505.45,7926.88 2525,7926.88 2525,7992.04 2547.81,7992.04 2547.81,8011.59 2691.16,8011.59 "/>
   <polygon class="fil5" points="5447.48,5111.91 5447.48,5841.72 4737.22,5841.72 4737.22,5111.91 4717.68,5111.91 4717.68,5861.26 5467.03,5861.26 5467.03,5111.91 "/>
   <polygon class="fil4" points="459.38,7258.97 459.38,7301.33 293.22,7301.33 293.22,7324.14 482.19,7324.14 482.19,8031.13 606,8031.13 606,8011.59 501.74,8011.59 501.74,7219.88 482.19,7219.88 482.19,7258.97 "/>
   <polygon class="fil3" points="293.22,8011.59 169.41,8011.59 169.41,7301.33 -0,7301.33 -0,7324.14 146.61,7324.14 146.61,8031.13 293.22,8031.13 "/>
   <polygon class="fil3" points="4841.48,5737.46 4841.48,5235.71 5111.9,5235.71 5111.9,5216.17 4821.94,5216.17 4821.94,5737.46 "/>
   <polygon class="fil0" points="3319.97,7301.33 3297.16,7301.33 3297.16,7386.04 3319.97,7386.04 3319.97,7405.59 3401.42,7405.59 3401.42,7386.04 3424.23,7386.04 3424.23,7301.33 3401.42,7301.33 3401.42,7281.78 3319.97,7281.78 "/>
   <polygon class="fil0" points="2525,7301.33 2505.45,7301.33 2505.45,7386.04 2525,7386.04 2525,7405.59 2609.71,7405.59 2609.71,7386.04 2629.25,7386.04 2629.25,7301.33 2609.71,7301.33 2609.71,7281.78 2525,7281.78 "/>
   <polygon class="fil4" points="3381.87,8011.59 3381.87,8031.13 3632.74,8031.13 3632.74,8011.59 3505.68,8011.59 3505.68,7969.23 3486.13,7969.23 3486.13,8011.59 "/>
   <polygon class="fil4" points="2586.9,8011.59 2586.9,8031.13 2713.97,8031.13 2713.97,7969.23 2691.16,7969.23 2691.16,8011.59 "/>
   <polygon class="fil2" points="3945.52,8011.59 3945.52,8031.13 4049.77,8031.13 4049.77,7969.23 4026.96,7969.23 4026.96,8011.59 "/>
   <polygon class="fil4" points="4945.75,8011.59 4903.39,8011.59 4903.39,7949.69 4883.84,7949.69 4883.84,8031.13 4945.75,8031.13 "/>
   <polygon class="fil4" points="5258.52,8011.59 5173.81,8011.59 5173.81,7992.04 5154.26,7992.04 5154.26,8031.13 5258.52,8031.13 "/>
   <polygon class="fil4" points="5030.45,7594.55 5030.45,7571.75 4988.09,7571.75 4988.09,7656.46 5007.65,7656.46 5007.65,7594.55 "/>
   <polygon class="fil3" points="3609.94,1189.2 3609.94,1212.01 3671.84,1212.01 3671.84,1169.65 3652.29,1169.65 3652.29,1189.2 "/>
   <polygon class="fil6" points="5030.45,7571.75 5030.45,7532.65 4988.09,7532.65 4988.09,7571.75 "/>
   <polygon class="fil3" points="4088.87,1189.2 4069.32,1189.2 4069.32,1169.65 4049.77,1169.65 4049.77,1212.01 4088.87,1212.01 "/>
  </g>
 </g>
</svg>
